<?xml version="1.0" encoding="UTF-8"?>
<svg width="238px" height="224px" viewBox="0 0 238 224" version="1.1" preserveAspectRatio="none" xmlns="http://www.w3.org/2000/svg" xmlns:xlink="http://www.w3.org/1999/xlink">
    <!-- Generator: Sketch 62 (91390) - https://sketch.com -->
    <title>circle-bot</title>
    <desc>Created with Sketch.</desc>
    <defs>
        <linearGradient x1="4.5282552%" y1="176.798613%" x2="117.374365%" y2="-137.763652%" id="linearGradient-1">
            <stop stop-color="#0080F5" offset="0%"></stop>
            <stop stop-color="#000561" offset="100%"></stop>
        </linearGradient>
        <linearGradient x1="29.5589898%" y1="18.0929028%" x2="43.5642669%" y2="56.6922582%" id="linearGradient-2">
            <stop stop-color="#006FD4" offset="0%"></stop>
            <stop stop-color="#000675" offset="100%"></stop>
        </linearGradient>
        <linearGradient x1="-134.297451%" y1="590.883785%" x2="132.482265%" y2="-231.257626%" id="linearGradient-3">
            <stop stop-color="#0B66B9" offset="0%"></stop>
            <stop stop-color="#000675" offset="100%"></stop>
        </linearGradient>
        <linearGradient x1="-396.243104%" y1="1139.06916%" x2="205.066954%" y2="-324.61488%" id="linearGradient-4">
            <stop stop-color="#0080F5" offset="0%"></stop>
            <stop stop-color="#000561" offset="100%"></stop>
        </linearGradient>
        <linearGradient x1="-305.670446%" y1="-565.660949%" x2="312.502366%" y2="510.339051%" id="linearGradient-5">
            <stop stop-color="#006FD4" offset="0%"></stop>
            <stop stop-color="#000675" offset="100%"></stop>
        </linearGradient>
        <linearGradient x1="37.7645306%" y1="49.4639315%" x2="339.850969%" y2="62.5746345%" id="linearGradient-6">
            <stop stop-color="#0080F5" offset="0%"></stop>
            <stop stop-color="#000561" offset="100%"></stop>
        </linearGradient>
        <linearGradient x1="38.3295146%" y1="139.41807%" x2="87.4479901%" y2="-253.491577%" id="linearGradient-7">
            <stop stop-color="#006FD4" offset="0%"></stop>
            <stop stop-color="#000675" offset="100%"></stop>
        </linearGradient>
        <linearGradient x1="-8.83203613%" y1="202.991924%" x2="114.492421%" y2="-107.360499%" id="linearGradient-8">
            <stop stop-color="#006FD4" offset="0%"></stop>
            <stop stop-color="#000675" offset="100%"></stop>
        </linearGradient>
        <linearGradient x1="24.5253576%" y1="56.0166294%" x2="225.097529%" y2="8.58954513%" id="linearGradient-9">
            <stop stop-color="#0080F5" offset="0%"></stop>
            <stop stop-color="#000561" offset="100%"></stop>
        </linearGradient>
        <linearGradient x1="58.1783375%" y1="-122.455861%" x2="58.1783375%" y2="110.544139%" id="linearGradient-10">
            <stop stop-color="#0080F5" offset="0%"></stop>
            <stop stop-color="#000561" offset="100%"></stop>
        </linearGradient>
        <linearGradient x1="60.4121704%" y1="25.5280946%" x2="36.2359286%" y2="89.4750739%" id="linearGradient-11">
            <stop stop-color="#0080F5" offset="0%"></stop>
            <stop stop-color="#000561" offset="100%"></stop>
        </linearGradient>
        <linearGradient x1="59.9927%" y1="23.3700829%" x2="37.2360242%" y2="90.5700327%" id="linearGradient-12">
            <stop stop-color="#0080F5" offset="0%"></stop>
            <stop stop-color="#000561" offset="100%"></stop>
        </linearGradient>
        <linearGradient x1="0%" y1="49.9813498%" x2="100%" y2="49.9813498%" id="linearGradient-13">
            <stop stop-color="#006FD4" offset="0%"></stop>
            <stop stop-color="#000675" offset="100%"></stop>
        </linearGradient>
        <linearGradient x1="-225.216184%" y1="-60.901986%" x2="197.482677%" y2="104.957248%" id="linearGradient-14">
            <stop stop-color="#006FD4" offset="0%"></stop>
            <stop stop-color="#000675" offset="100%"></stop>
        </linearGradient>
        <linearGradient x1="36.0853809%" y1="73.7297318%" x2="213.092711%" y2="-583.106822%" id="linearGradient-15">
            <stop stop-color="#006FD4" offset="0%"></stop>
            <stop stop-color="#000675" offset="100%"></stop>
        </linearGradient>
        <linearGradient x1="42.4307193%" y1="99.7906977%" x2="133.354678%" y2="-464%" id="linearGradient-16">
            <stop stop-color="#006FD4" offset="0%"></stop>
            <stop stop-color="#000675" offset="100%"></stop>
        </linearGradient>
        <linearGradient x1="-67.8960928%" y1="-426.226366%" x2="182.997834%" y2="548.530433%" id="linearGradient-17">
            <stop stop-color="#006FD4" offset="0%"></stop>
            <stop stop-color="#000675" offset="100%"></stop>
        </linearGradient>
        <linearGradient x1="-42.4142145%" y1="258.826394%" x2="276.811425%" y2="-476.1383%" id="linearGradient-18">
            <stop stop-color="#006FD4" offset="0%"></stop>
            <stop stop-color="#000675" offset="100%"></stop>
        </linearGradient>
        <linearGradient x1="21.3670792%" y1="38.0073759%" x2="89.831872%" y2="62.1548835%" id="linearGradient-19">
            <stop stop-color="#D3DDF3" stop-opacity="0" offset="0%"></stop>
            <stop stop-color="#4CEAF5" offset="100%"></stop>
        </linearGradient>
        <radialGradient cx="49.9991785%" cy="49.9974367%" fx="49.9991785%" fy="49.9974367%" r="49.9618072%" id="radialGradient-20">
            <stop stop-color="#4CEAF5" offset="0%"></stop>
            <stop stop-color="#FFFFFF" stop-opacity="0" offset="99.9287373%"></stop>
        </radialGradient>
        <linearGradient x1="21.3318412%" y1="37.9373978%" x2="89.8808924%" y2="62.1500135%" id="linearGradient-21">
            <stop stop-color="#D3DDF3" stop-opacity="0" offset="0%"></stop>
            <stop stop-color="#4CEAF5" offset="100%"></stop>
        </linearGradient>
        <radialGradient cx="49.9991706%" cy="49.9974318%" fx="49.9991706%" fy="49.9974318%" r="49.99743%" id="radialGradient-22">
            <stop stop-color="#4CEAF5" offset="0%"></stop>
            <stop stop-color="#FFFFFF" stop-opacity="0" offset="100%"></stop>
        </radialGradient>
        <linearGradient x1="14.1024227%" y1="61.3204967%" x2="105.139355%" y2="38.934682%" id="linearGradient-23">
            <stop stop-color="#D3DDF3" stop-opacity="0" offset="0%"></stop>
            <stop stop-color="#4CEAF5" offset="100%"></stop>
        </linearGradient>
        <radialGradient cx="50%" cy="50%" fx="50%" fy="50%" r="49.9864466%" id="radialGradient-24">
            <stop stop-color="#4CEAF5" offset="0%"></stop>
            <stop stop-color="#FFFFFF" stop-opacity="0" offset="100%"></stop>
        </radialGradient>
        <linearGradient x1="11.3865527%" y1="61.3338221%" x2="101.455459%" y2="38.9502504%" id="linearGradient-25">
            <stop stop-color="#D3DDF3" stop-opacity="0" offset="0%"></stop>
            <stop stop-color="#4CEAF5" offset="100%"></stop>
        </linearGradient>
        <radialGradient cx="50%" cy="50%" fx="50%" fy="50%" r="50.0121042%" id="radialGradient-26">
            <stop stop-color="#4CEAF5" offset="0%"></stop>
            <stop stop-color="#FFFFFF" stop-opacity="0" offset="100%"></stop>
        </radialGradient>
    </defs>
    <g id="DWo" stroke="none" stroke-width="1" fill="none" fill-rule="evenodd">
        <g id="New-/-features" transform="translate(-239.000000, -3323.000000)" fill-rule="nonzero">
            <g id="circle-bot" transform="translate(236.000000, 3323.000000)">
                <polygon id="Path" fill="url(#linearGradient-1)" points="198.81 179.64 213.86 203.54 232.36 192.83 217.31 168.93"></polygon>
                <path d="M213.86,203.54 C211.406621,205.792169 208.725512,207.782892 205.86,209.48 L222.02,200.08 C225.780349,198.12971 229.267076,195.692027 232.39,192.83 L213.86,203.54 Z" id="Path" fill="url(#linearGradient-2)"></path>
                <path d="M211,165.57 C208.698073,170.199601 205.624077,174.403097 201.91,178 L201.97,178.08 L213.73,196.93 C221.63,189.68 227.53,179.4 230.84,166.43 C224.266771,165.538455 217.62572,165.250587 211,165.57 Z" id="Path" fill="url(#linearGradient-3)"></path>
                <path d="M230.85,166.39 C227.53,179.39 221.63,189.65 213.73,196.9 L226.22,189.64 C232.647001,183.544265 237.566822,176.036146 240.59,167.71 C237.33,167.24 234.09,166.78 230.85,166.39 Z" id="Path" fill="url(#linearGradient-4)"></path>
                <path d="M180.36,189.57 L193.57,214.62 C201.129344,212.620594 208.091432,208.818724 213.86,203.54 L198.81,179.64 C193.680919,184.570985 187.300649,188.004919 180.36,189.57 Z" id="Path" fill="url(#linearGradient-5)"></path>
                <polygon id="Path" fill="url(#linearGradient-6)" points="54 111.25 69.05 104.72 87.55 94.01 72.5 100.54"></polygon>
                <path d="M40.8,42.9 C43.02,64.4 49.91,86.9 60.18,108.2 L72,103 C63.26,84.48 57.57,64.92 56.13,46.38 L40.8,42.9 Z" id="Path" fill="url(#linearGradient-7)"></path>
                <polygon id="Path" fill="#1158B0" points="74.28 145.75 92.79 135.05 106 125.25 87.49 135.96"></polygon>
                <path d="M90.47,134.21 L80.06,142 C93.06,160.46 108.57,176.67 125.38,188.69 L126.47,171.15 C113.2,161.49 100.93,148.74 90.47,134.21 Z" id="Path" fill="url(#linearGradient-8)"></path>
                <polygon id="Path" fill="url(#linearGradient-9)" points="33.6 13.95 53.55 26.96 72.05 16.25 52.1 3.24"></polygon>
                <polygon id="Path" fill="url(#linearGradient-10)" points="166.59 198.99 148.08 209.7 146.74 185.86 165.25 175.15"></polygon>
                <path d="M64.13,0.86 C60.1025678,8.3001694 57.5555882,16.4505043 56.63,24.86 L56.63,25.17 L53.63,26.89 C53.1219775,30.9300904 52.8681447,34.9980946 52.8699899,39.07 C52.8750474,45.0714903 53.32293,51.0644278 54.21,57 L57.21,55.27 C59.7786711,71.826633 64.7863822,87.911293 72.07,103 L69.07,104.73 C74.2551668,115.69537 80.4343404,126.162475 87.53,136 L90.53,134.28 C99.9651879,147.562907 111.2955,159.391848 124.16,169.39 L121.16,171.1 C125.259581,174.212067 129.547772,177.067522 134,179.65 C138.115089,182.037647 142.399942,184.119912 146.82,185.88 L149.75,184.18 C162.12,189.08 173.54,190.18 183.38,188.01 L180.57,189.6 L181.49,190.22 L193.55,187.72 L202.36,178.62 L192.94,181.28 C183.77,182.73 173.33,181.4 162.12,176.96 L165.26,175.15 C160.83905,173.391935 156.55405,171.309599 152.44,168.92 C147.992786,166.332425 143.711154,163.470211 139.62,160.35 L136.52,162.15 C123.689566,152.125666 112.364125,140.311913 102.89,127.07 L106.03,125.25 C98.9392752,115.416299 92.7603416,104.956295 87.57,94 L84.51,95.8 C77.2404755,80.7032858 72.223786,64.6222525 69.62,48.07 L72.73,46.28 C71.8421482,40.3711075 71.3876027,34.4051972 71.37,28.43 C71.3764664,24.3580453 71.6336195,20.2903509 72.14,16.25 L69,18.07 C69.5825439,13.2146293 70.6409666,8.42828131 72.16,3.78 C69.6171148,2.47208448 66.9190476,1.49096914 64.13,0.86 Z" id="Path" fill="url(#linearGradient-11)"></path>
                <path d="M68.14,2 C62.74,11.16 59.69,23.3 59.69,38 C59.69,88 94.78,148.76 138.06,173.75 C161.66,187.37 182.81,187.55 197.18,176.81 C183.75,181.56 166.67,179.15 148.08,168.42 C104.8,143.42 69.71,82.65 69.71,32.67 C69.71,22.01 71.32,12.67 74.26,4.91 C72.321057,3.74036368 70.2710546,2.76560763 68.14,2 Z" id="Path" fill="url(#linearGradient-12)"></path>
                <path d="M138.06,173.79 L138.06,173.79 C94.78,148.8 59.7,88 59.7,38 C59.7,23.29 62.7,11.15 68.14,2 C66.9724164,1.60212743 65.7839811,1.2682973 64.58,1 C59.64,10.26 56.87,22.19 56.87,36.46 C56.87,88.23 93.19,151.2 138.06,177.06 C170.59,195.8 198.62,189.94 211.59,165.57 C210.12,165.65 208.65,165.78 207.17,165.95 C194,186.72 168,191.05 138.06,173.79 Z" id="Path" fill="url(#linearGradient-13)"></path>
                <path d="M180.36,189.57 L183.6,187.89 C173.66,190.19 162.15,189.11 149.67,184.16 L149.67,184.16 L150.81,203 C165.86,209.2 179.81,210.78 191.81,208.19 L180.36,189.57 Z" id="Path" fill="url(#linearGradient-14)"></path>
                <path d="M43,2.45 C41.9810722,6.54349668 41.2294856,10.6989354 40.75,14.89 L56.34,25 L56.51,25.06 C57.4387391,16.5748078 60.0026483,8.34992279 64.06,0.84 C57.0316968,-0.666495293 49.7176295,-0.107347698 43,2.45 L43,2.45 Z" id="Path" fill="url(#linearGradient-15)"></path>
                <path d="M53.58,27 L33.58,14 C33.0685011,18.5387327 32.8114325,23.1025364 32.81,27.67 C32.842227,34.1350454 33.2864607,40.591465 34.14,47 L54.21,57 C53.3076333,51.0822881 52.8430392,45.1060713 52.82,39.12 C52.8206503,35.068114 53.0744781,31.0202274 53.58,27 L53.58,27 Z" id="Path" fill="url(#linearGradient-16)"></path>
                <path d="M133.93,179.63 C129.482786,177.042425 125.201154,174.180211 121.11,171.06 L119.78,193.36 C124.314416,196.731849 129.038872,199.840308 133.93,202.67 C138.489262,205.308864 143.215986,207.647172 148.08,209.67 L146.74,185.83 C142.322292,184.071886 138.04062,181.989543 133.93,179.6 L133.93,179.63 Z" id="Path" fill="url(#linearGradient-17)"></path>
                <path d="M54,111.28 C59.8230868,123.310895 66.6084856,134.851759 74.29,145.79 L87.49,135.99 C80.4025685,126.150835 74.2301769,115.683878 69.05,104.72 L54,111.28 Z" id="Path" fill="url(#linearGradient-18)"></path>
                <path d="M37.22,25.62 C34.22,27.34 34.22,32.94 37.22,38.11 C40.22,43.28 45.06,46.11 48.05,44.37 C51.04,42.63 51.05,37.04 48.05,31.87 C45.05,26.7 40.21,23.89 37.22,25.62 Z" id="Path" fill="#4CEAF5" opacity="0.3"></path>
                <path d="M37.81,26.64 C35.15,28.18 35.14,33.16 37.81,37.78 C40.48,42.4 44.81,44.89 47.46,43.34 C50.11,41.79 50.12,36.82 47.46,32.21 C44.8,27.6 40.47,25.1 37.81,26.64 Z" id="Path" fill="#4CEAF5" opacity="0.5"></path>
                <path d="M38.26,27.42 C35.85,28.82 35.85,33.34 38.26,37.52 C40.67,41.7 44.59,43.96 47.01,42.52 C49.43,41.08 49.42,36.61 47.01,32.43 C44.6,28.25 40.68,26 38.26,27.42 Z" id="Path" fill="#4CEAF5"></path>
                <path d="M38.78,28.25 C36.63,29.49 36.63,33.51 38.78,37.25 C40.93,40.99 44.42,42.99 46.56,41.75 C48.7,40.51 48.67,36.48 46.56,32.75 C44.45,29.02 40.93,27 38.78,28.25 Z" id="Path" fill="#D4FFFF"></path>
                <path d="M38.26,27.42 C38.1794604,27.4675383 38.1025803,27.5210201 38.03,27.58 L0,48.81 L13.11,61.41 L47,42.59 L47,42.59 L47.32,42.4 C49.4,40.71 49.32,36.4 47,32.47 C44.59,28.28 40.68,26 38.26,27.42 Z" id="Path" fill="url(#linearGradient-19)" opacity="0.3"></path>
                <path d="M42.31,16.13 C33.0172883,16.1305349 25.0188252,22.6948388 23.2055661,31.8089258 C21.3923071,40.9230129 26.2691904,50.0488831 34.8540657,53.6061863 C43.4389411,57.1634895 53.3411782,54.1616235 58.5056885,46.4361899 C63.6701989,38.7107564 62.6588214,28.4130569 56.09,21.84 C52.4361564,18.1838004 47.4789813,16.13 42.31,16.13 Z" id="Path" fill="url(#radialGradient-20)" opacity="0.44"></path>
                <path d="M66,115.18 C63,116.91 63,122.5 66,127.68 C69,132.86 73.84,135.68 76.82,133.92 C79.8,132.16 79.82,126.57 76.82,121.43 C73.82,116.29 69,113.45 66,115.18 Z" id="Path" fill="#4CEAF5" opacity="0.3"></path>
                <path d="M66.61,116.2 C63.95,117.73 63.94,122.73 66.61,127.33 C69.28,131.93 73.61,134.44 76.26,132.91 C78.91,131.38 78.92,126.38 76.26,121.77 C73.6,117.16 69.27,114.66 66.61,116.2 Z" id="Path" fill="#4CEAF5" opacity="0.5"></path>
                <path d="M67.05,117 C64.63,118.39 64.65,122.91 67.05,127.09 C69.45,131.27 73.39,133.54 75.81,132.15 C78.23,130.76 78.22,126.23 75.81,122.05 C73.4,117.87 69.48,115.59 67.05,117 Z" id="Path" fill="#4CEAF5"></path>
                <path d="M67.54,117.81 C65.4,119.05 65.4,123.08 67.54,126.81 C69.68,130.54 73.17,132.54 75.32,131.3 C77.47,130.06 77.47,126.04 75.32,122.3 C73.17,118.56 69.69,116.57 67.54,117.81 Z" id="Path" fill="#D4FFFF"></path>
                <path d="M67.05,117 C66.9720615,117.046695 66.8984372,117.10024 66.83,117.16 L28.83,138.39 L41.91,151 L75.77,132.17 L75.77,132.17 L76.09,131.99 C78.17,130.31 78.09,125.99 75.77,122.06 C73.39,117.84 69.48,115.59 67.05,117 Z" id="Path" fill="url(#linearGradient-21)" opacity="0.3"></path>
                <path d="M71.11,105.719999 C61.8159589,105.720535 53.8167409,112.286674 52.0048772,121.402394 C50.1930136,130.518114 55.0732057,139.644197 63.6606002,143.198892 C72.2479946,146.753587 82.1505409,143.74672 87.311582,136.01737 C92.4726232,128.28802 91.4545321,117.989226 84.88,111.42 C81.2275913,107.768987 76.2742991,105.718604 71.11,105.719999 L71.11,105.719999 Z" id="Path" fill="url(#radialGradient-22)"></path>
                <path d="M138.63,186.77 C135.63,181.59 130.8,178.77 127.81,180.52 C124.82,182.27 124.81,187.84 127.81,193.02 C130.81,198.2 135.65,201.02 138.63,199.27 C141.61,197.52 141.62,191.94 138.63,186.77 Z" id="Path" fill="#4CEAF5" opacity="0.3"></path>
                <path d="M138.05,187.11 C135.38,182.53 131.05,180 128.4,181.54 C125.75,183.08 125.73,188.07 128.4,192.68 C131.07,197.29 135.4,199.79 138.05,198.25 C140.7,196.71 140.71,191.72 138.05,187.11 Z" id="Path" fill="#4CEAF5" opacity="0.5"></path>
                <path d="M137.59,187.36 C135.18,183.18 131.26,180.92 128.84,182.36 C126.42,183.8 126.43,188.28 128.84,192.46 C131.25,196.64 135.18,198.9 137.59,197.51 C140,196.12 140,191.54 137.59,187.36 Z" id="Path" fill="#4CEAF5"></path>
                <path d="M137.11,187.65 C134.96,183.93 131.48,181.91 129.33,183.15 C127.18,184.39 127.18,188.42 129.33,192.15 C131.48,195.88 134.96,197.88 137.11,196.64 C139.26,195.4 139.26,191.37 137.11,187.65 Z" id="Path" fill="#D4FFFF"></path>
                <path d="M137.59,187.36 C135.18,183.18 131.26,180.92 128.84,182.36 L128.61,182.52 L90.61,203.75 L103.72,216.35 L137.58,197.52 L137.58,197.52 L137.91,197.33 L137.91,197.33 C140,195.62 139.89,191.34 137.59,187.36 Z" id="Path" fill="url(#linearGradient-23)" opacity="0.3"></path>
                <path d="M152.380003,190.54 C152.38403,198.427514 147.633671,205.539864 140.346165,208.557339 C133.058659,211.574815 124.670891,209.902458 119.097875,204.320846 C113.524859,198.739234 111.865432,190.348899 114.894135,183.066052 C117.922839,175.783205 125.042501,171.043813 132.93,171.059959 C143.67222,171.087539 152.369018,179.797751 152.380003,190.54 L152.380003,190.54 Z" id="Path" fill="url(#radialGradient-24)"></path>
                <path d="M201.84,194.24 C198.84,189.07 194.01,186.24 191.02,187.99 C188.03,189.74 188.02,195.31 191.02,200.49 C194.02,205.67 198.86,208.49 201.84,206.74 C204.82,204.99 204.83,199.42 201.84,194.24 Z" id="Path" fill="#4CEAF5" opacity="0.3"></path>
                <path d="M201.26,194.6 C198.59,190.01 194.26,187.49 191.61,189.03 C188.96,190.57 188.94,195.55 191.61,200.17 C194.28,204.79 198.61,207.28 201.26,205.74 C203.91,204.2 203.92,199.18 201.26,194.6 Z" id="Path" fill="#4CEAF5" opacity="0.5"></path>
                <path d="M200.81,194.84 C198.39,190.66 194.48,188.4 192.06,189.84 C189.64,191.28 189.65,195.75 192.06,199.93 C194.47,204.11 198.39,206.38 200.81,204.98 C203.23,203.58 203.25,199 200.81,194.84 Z" id="Path" fill="#4CEAF5"></path>
                <path d="M200.32,195.12 C198.18,191.4 194.69,189.39 192.54,190.63 C190.39,191.87 190.39,195.89 192.54,199.63 C194.69,203.37 198.18,205.37 200.32,204.12 C202.46,202.87 202.49,198.84 200.32,195.12 Z" id="Path" fill="#D4FFFF"></path>
                <path d="M200.81,194.84 C198.39,190.66 194.48,188.4 192.06,189.84 C191.978802,189.886505 191.901841,189.940044 191.83,190 L153.83,211.23 L166.94,223.83 L200.77,205 L200.77,205 L201.09,204.82 L201.09,204.82 C203.25,203.09 203.1,198.81 200.81,194.84 Z" id="Path" fill="url(#linearGradient-25)" opacity="0.3"></path>
                <path d="M215.590003,198 C215.594045,205.879833 210.850461,212.986017 203.571605,216.004302 C196.292749,219.022587 187.912414,217.35843 182.339099,211.787976 C176.765785,206.217523 175.097325,197.838043 178.111872,190.557638 C181.126419,183.277233 188.230166,178.53 196.11,178.53 C206.860039,178.541013 215.573467,187.249968 215.590003,198 L215.590003,198 Z" id="Path" fill="url(#radialGradient-26)"></path>
            </g>
        </g>
    </g>
</svg>
