<svg xmlns="http://www.w3.org/2000/svg" width="239" height="161" viewBox="0 0 239 161" preserveAspectRatio="none">
    <defs>
        <radialGradient id="a" cx="50.001%" cy="49.98%" r="49.993%" fx="50.001%" fy="49.98%">
            <stop offset="0%" stop-color="#4CEAF5"/>
            <stop offset="99.987%" stop-color="#D3DDF3" stop-opacity="0"/>
        </radialGradient>
        <linearGradient id="b" x1="100%" x2="8.113%" y1="33.332%" y2="63.968%">
            <stop offset="0%" stop-color="#1ED6FE"/>
            <stop offset="100%" stop-color="#F8FAFC" stop-opacity="0"/>
        </linearGradient>
        <linearGradient id="c" x1="-.037%" y1="49.998%" y2="49.998%">
            <stop offset="0%" stop-color="#D3DDF3" stop-opacity="0"/>
            <stop offset="100%" stop-color="#48D8F5"/>
        </linearGradient>
        <radialGradient id="d" cx="50.02%" cy="49.98%" r="49.999%" fx="50.02%" fy="49.98%">
            <stop offset="0%" stop-color="#4CEAF5"/>
            <stop offset="100%" stop-color="#D3DDF3" stop-opacity="0"/>
        </radialGradient>
        <linearGradient id="e" x1="100%" x2="3.463%" y1="33.332%" y2="66.668%">
            <stop offset="0%" stop-color="#1ED6FE"/>
            <stop offset="100%" stop-color="#D3DDF3" stop-opacity="0"/>
        </linearGradient>
    </defs>
    <g fill="none" fill-rule="nonzero">
        <path fill="url(#a)" d="M108.627 19.513A19.521 19.521 0 1 1 89.106 0c10.778 0 19.517 8.735 19.52 19.513z" opacity=".341" style="mix-blend-mode:screen" transform="translate(-.392 .19)"/>
        <path fill="url(#b)" d="M6.1 65.22l4.043 2.34 81.79-47.229L87.89 18z" style="mix-blend-mode:screen" transform="translate(-.392 .19)"/>
        <path fill="#4CEAF5" d="M82.37 19.703a6.344 6.344 0 1 0 6.343-6.336 6.352 6.352 0 0 0-6.344 6.336z" opacity=".1" style="mix-blend-mode:color-dodge"/>
        <path fill="#4CEAF5" d="M83.592 19.703a5.121 5.121 0 1 0 10.242.015 5.121 5.121 0 0 0-10.242-.015z" opacity=".3" style="mix-blend-mode:color-dodge"/>
        <path fill="#4CEAF5" d="M84.609 19.703a4.104 4.104 0 1 0 8.209.015 4.104 4.104 0 0 0-8.21-.015z" opacity=".3" style="mix-blend-mode:color-dodge"/>
        <path fill="url(#c)" d="M102.42 101.312a4.303 4.303 0 0 0 1.95-3.378c0-1.246-.872-1.75-1.95-1.131L0 155.954v4.51l102.42-59.152z" opacity=".3" style="mix-blend-mode:color-dodge" transform="translate(-.392 .19)"/>
        <path fill="#1ED6FE" d="M69.789 62.506a3.868 3.868 0 1 1-7.735 0 3.868 3.868 0 0 1 7.735 0z" opacity=".3" style="mix-blend-mode:color-dodge"/>
        <path fill="#1ED6FE" d="M68.397 62.506a2.476 2.476 0 1 1-4.952 0 2.476 2.476 0 0 1 4.952 0z" opacity=".3" style="mix-blend-mode:color-dodge"/>
        <path fill="#1ED6FE" d="M67.572 62.506a1.651 1.651 0 1 1-3.302 0 1.651 1.651 0 0 1 3.302 0z" style="mix-blend-mode:color-dodge"/>
        <path fill="#1ED6FE" d="M48.624 88.225a1.705 1.705 0 1 1-1.704-1.696 1.697 1.697 0 0 1 1.704 1.696z" opacity=".3" style="mix-blend-mode:color-dodge"/>
        <path fill="#1ED6FE" d="M48.013 88.225a1.093 1.093 0 1 1-1.093-1.085 1.085 1.085 0 0 1 1.093 1.085z" opacity=".3" style="mix-blend-mode:color-dodge"/>
        <path fill="#1ED6FE" d="M47.654 88.225a.764.764 0 0 1-.765.727.764.764 0 0 1 0-1.453c.408 0 .744.32.765.726z" style="mix-blend-mode:color-dodge"/>
        <path fill="#1ED6FE" d="M16.637 87.14a1.704 1.704 0 1 1-3.409 0 1.704 1.704 0 0 1 3.409 0z" opacity=".3" style="mix-blend-mode:color-dodge"/>
        <path fill="#1ED6FE" d="M16.025 87.14a1.093 1.093 0 1 1-2.186 0 1.093 1.093 0 0 1 2.186 0z" opacity=".3" style="mix-blend-mode:color-dodge"/>
        <path fill="#1ED6FE" d="M15.659 87.14a.726.726 0 1 1-1.453 0 .726.726 0 0 1 1.453 0z" style="mix-blend-mode:color-dodge"/>
        <path fill="#4CEAF5" d="M85.817 19.703a2.897 2.897 0 1 0 5.793.03 2.897 2.897 0 0 0-5.793-.03z"/>
        <path fill="#1ED6FE" d="M20.451 50.131a3.868 3.868 0 1 1-7.735 0 3.868 3.868 0 0 1 7.735 0z" opacity=".3" style="mix-blend-mode:color-dodge"/>
        <path fill="#1ED6FE" d="M19.06 50.131a2.476 2.476 0 1 1-4.953 0 2.476 2.476 0 0 1 4.953 0z" opacity=".3" style="mix-blend-mode:color-dodge"/>
        <path fill="#1ED6FE" d="M18.234 50.131a1.651 1.651 0 1 1-3.302 0 1.651 1.651 0 0 1 3.302 0z" style="mix-blend-mode:color-dodge"/>
        <path fill="#1ED6FE" d="M131.401 113.83a1.704 1.704 0 1 1-1.704-1.704 1.697 1.697 0 0 1 1.704 1.705z" opacity=".3" style="mix-blend-mode:color-dodge"/>
        <path fill="#1ED6FE" d="M130.828 113.83a1.093 1.093 0 1 1-2.186 0 1.093 1.093 0 0 1 2.186 0z" opacity=".3" style="mix-blend-mode:color-dodge"/>
        <path fill="#1ED6FE" d="M130.423 113.83a.726.726 0 1 1-1.452-.001.726.726 0 0 1 1.452.002z" style="mix-blend-mode:color-dodge"/>
        <path fill="#1ED6FE" d="M105.682 143.082a1.705 1.705 0 1 1-3.41.015 1.705 1.705 0 0 1 3.41-.015z" opacity=".3" style="mix-blend-mode:color-dodge"/>
        <path fill="#1ED6FE" d="M105.07 143.082a1.093 1.093 0 1 1-2.186.015 1.093 1.093 0 0 1 2.186-.015z" opacity=".3" style="mix-blend-mode:color-dodge"/>
        <path fill="#1ED6FE" d="M104.703 143.082a.726.726 0 1 1-.726-.727.718.718 0 0 1 .726.727z" style="mix-blend-mode:color-dodge"/>
        <path fill="url(#d)" d="M239.61 44.484a19.521 19.521 0 1 1-19.52-19.513 19.513 19.513 0 0 1 19.52 19.513z" style="mix-blend-mode:screen" transform="translate(-.392 .19)"/>
        <path fill="url(#e)" d="M137.09 90.191l4.044 2.339 81.79-47.22-4.05-2.34z" style="mix-blend-mode:screen" transform="translate(-.392 .19)"/>
        <path fill="#4CEAF5" d="M213.376 44.674a6.344 6.344 0 1 0 6.336-6.336 6.336 6.336 0 0 0-6.336 6.336z" opacity=".1" style="mix-blend-mode:color-dodge"/>
        <path fill="#4CEAF5" d="M214.583 44.674a5.121 5.121 0 1 0 10.242.015 5.121 5.121 0 0 0-10.242-.015z" opacity=".3" style="mix-blend-mode:color-dodge"/>
        <path fill="#4CEAF5" d="M215.6 44.674a4.104 4.104 0 1 0 4.097-4.097 4.097 4.097 0 0 0-4.097 4.097z" opacity=".3" style="mix-blend-mode:color-dodge"/>
        <path fill="#4CEAF5" d="M216.808 44.674a2.897 2.897 0 1 0 5.793.015 2.897 2.897 0 0 0-5.793-.015z"/>
    </g>
</svg>
