<?xml version="1.0" encoding="UTF-8"?>
<svg width="587px" height="453px" viewBox="0 0 587 453" version="1.1" preserveAspectRatio="none" xmlns="http://www.w3.org/2000/svg" xmlns:xlink="http://www.w3.org/1999/xlink">
    <!-- Generator: Sketch 62 (91390) - https://sketch.com -->
    <title>light</title>
    <desc>Created with Sketch.</desc>
    <defs>
        <linearGradient x1="79.1618558%" y1="30.6979796%" x2="-0.0865959903%" y2="80.8160587%" id="linearGradient-1">
            <stop stop-color="#32C5FF" stop-opacity="0" offset="0%"></stop>
            <stop stop-color="#4CEAF5" offset="100%"></stop>
        </linearGradient>
        <linearGradient x1="20.8305814%" y1="67.809332%" x2="95.8851196%" y2="23.7709397%" id="linearGradient-2">
            <stop stop-color="#32C5FF" stop-opacity="0" offset="0%"></stop>
            <stop stop-color="#48D8F5" offset="100%"></stop>
        </linearGradient>
    </defs>
    <g id="DWo" stroke="none" stroke-width="1" fill="none" fill-rule="evenodd">
        <g id="New-/-features" transform="translate(-83.000000, -3176.000000)" fill-rule="nonzero">
            <g id="light" transform="translate(71.000000, 3176.000000)">
                <path d="M318.359236,104.667516 C323.242992,107.565368 327.958814,110.73732 332.484076,114.168153 L332.002548,122.682803 C347.686624,134.912102 362.071338,150.695541 374.208917,168.435669 L380.193631,164.973248 C387.695853,176.032455 394.295517,187.677719 399.928662,199.796178 L393.936306,203.266242 C402.718471,222.374522 408.749045,242.346497 411.118471,261.592357 L418.670064,265.414013 C419.151592,270.313376 419.434395,275.166879 419.434395,279.936306 C419.434395,283.864968 419.243312,287.625478 418.91465,291.256051 L599.296815,186.970701 L480,2.84217094e-14 L308.025478,99.3095541 C311.419108,100.873885 314.863694,102.659873 318.359236,104.667516 Z" id="top-light" fill="url(#linearGradient-1)" opacity="0.24827939"></path>
                <path d="M361.895541,323.97707 C370.463694,318.076433 376.784713,308.46879 379.987261,295.628025 L379.612739,295.391083 C380.536731,290.008915 380.989403,284.556395 380.965605,279.095541 C380.946523,274.753679 380.691369,270.416066 380.201274,266.101911 L381.898089,265.115924 C380.51465,249.064968 375.852229,232.249682 368.743949,216.09172 L366.359236,217.138854 C361.399206,206.036076 355.432894,195.410821 348.535032,185.396178 L350.682803,183.814013 C340.349045,168.993631 328.066242,155.915924 314.705732,146.101911 L312.771975,147.225478 C308.663543,144.085037 304.362097,141.205493 299.892994,138.603822 C295.757886,136.204105 291.450537,134.114299 287.006369,132.351592 L286.96051,131.403822 C272.743949,126.817834 259.979618,127.582166 249.829299,132.932484 L249.829299,132.932484 L-7.67386155e-13,277.13121 L139.001274,452.828025 L361.895541,324.145223 L361.895541,323.97707 Z" id="bot-light" fill="url(#linearGradient-2)" opacity="0.247767857"></path>
            </g>
        </g>
    </g>
</svg>
