<svg xmlns="http://www.w3.org/2000/svg" width="131" height="151" viewBox="0 0 131 151" preserveAspectRatio="none">
    <defs>
        <linearGradient id="a" x1="100%" x2="0%" y1="33.331%" y2="66.669%">
            <stop offset="0%" stop-color="#1ED6FE"/>
            <stop offset="100%" stop-color="#D3DDF3" stop-opacity="0"/>
        </linearGradient>
        <radialGradient id="b" cx="50.027%" cy="49.973%" r="49.999%" fx="50.027%" fy="49.973%">
            <stop offset="0%" stop-color="#4CEAF5"/>
            <stop offset="100%" stop-color="#D3DDF3" stop-opacity="0"/>
        </radialGradient>
        <radialGradient id="c" cx="50.001%" cy="49.959%" r="49.959%" fx="50.001%" fy="49.959%">
            <stop offset="0%" stop-color="#4CEAF5"/>
            <stop offset="100%" stop-opacity="0"/>
        </radialGradient>
        <linearGradient id="d" x1="-2.351%" y1="68.744%" y2="31.243%">
            <stop offset=".037%" stop-color="#D3DDF3" stop-opacity="0"/>
            <stop offset="100%" stop-color="#48D8F5"/>
        </linearGradient>
        <linearGradient id="e" x1="100%" x2="0%" y1="33.329%" y2="66.671%">
            <stop offset="0%" stop-color="#1ED6FE"/>
            <stop offset="100%" stop-opacity="0"/>
        </linearGradient>
    </defs>
    <g fill="#fff" fill-rule="nonzero">
        <path fill="url(#a)" d="M7.949 32.01l1.987 1.147L50.071 9.982l-1.987-1.146z" opacity=".157" transform="translate(.885 .245)"/>
        <path fill="url(#b)" d="M130.364 82.211a14.63 14.63 0 1 1-14.621-14.621c8.073.004 14.617 6.548 14.621 14.621z" style="mix-blend-mode:screen" transform="translate(.885 .245)"/>
        <path fill="#4CEAF5" d="M111.874 82.456a4.754 4.754 0 1 0 9.508.015 4.754 4.754 0 0 0-9.508-.015z" opacity=".1" style="mix-blend-mode:color-dodge"/>
        <path fill="#4CEAF5" d="M112.791 82.456a3.822 3.822 0 1 0 7.643 0 3.822 3.822 0 0 0-7.643 0z" opacity=".3" style="mix-blend-mode:color-dodge"/>
        <path fill="#4CEAF5" d="M113.555 82.456a3.057 3.057 0 1 0 6.115 0 3.057 3.057 0 0 0-6.115 0z" opacity=".3" style="mix-blend-mode:color-dodge"/>
        <path fill="#4CEAF5" d="M114.457 82.456a2.17 2.17 0 1 0 4.342 0 2.17 2.17 0 0 0-4.342 0z"/>
        <path fill="url(#c)" d="M58.265 9.577a9.585 9.585 0 1 1-19.17.015 9.585 9.585 0 0 1 19.17-.015z" opacity=".203" style="mix-blend-mode:color-dodge" transform="translate(.885 .245)"/>
        <path fill="#4CEAF5" d="M46.455 9.822a3.11 3.11 0 1 0 6.221 0 3.11 3.11 0 0 0-6.221 0z" opacity=".1" style="mix-blend-mode:color-dodge"/>
        <path fill="#4CEAF5" d="M47.059 9.822a2.515 2.515 0 1 0 2.507-2.507 2.507 2.507 0 0 0-2.507 2.507z" opacity=".3" style="mix-blend-mode:color-dodge"/>
        <path fill="#4CEAF5" d="M47.555 9.822a2.01 2.01 0 1 0 2.01-2.01 2.018 2.018 0 0 0-2.01 2.01z" opacity=".3" style="mix-blend-mode:color-dodge"/>
        <path fill="#4CEAF5" d="M48.144 9.822a1.422 1.422 0 1 0 2.843.015 1.422 1.422 0 0 0-2.843-.015z"/>
        <path fill="url(#d)" d="M126.948 4.968a4.326 4.326 0 0 0 1.949-3.378c0-1.246-.872-1.75-1.95-1.131L24.528 59.61v4.51l102.42-59.152z" opacity=".197" transform="translate(.885 .245)"/>
        <path fill="#1ED6FE" d="M90.778 6.749a1.949 1.949 0 1 1-3.898 0 1.949 1.949 0 0 1 3.898 0z" opacity=".3" style="mix-blend-mode:color-dodge"/>
        <path fill="#1ED6FE" d="M90.075 6.749a1.246 1.246 0 1 1-2.492 0 1.246 1.246 0 0 1 2.492 0z" opacity=".3" style="mix-blend-mode:color-dodge"/>
        <path fill="#1ED6FE" d="M89.662 6.749a.833.833 0 1 1-1.666 0 .833.833 0 0 1 1.666 0z" style="mix-blend-mode:color-dodge"/>
        <path fill="#1ED6FE" d="M66.48 62.362a1.949 1.949 0 1 1-3.898 0 1.949 1.949 0 0 1 3.898 0z" opacity=".3" style="mix-blend-mode:color-dodge"/>
        <path fill="#1ED6FE" d="M65.785 62.362a1.254 1.254 0 1 1-2.5.195 1.254 1.254 0 0 1 2.5-.195z" opacity=".3" style="mix-blend-mode:color-dodge"/>
        <path fill="#1ED6FE" d="M65.364 62.362a.833.833 0 1 1-1.666 0 .833.833 0 0 1 1.666 0z" style="mix-blend-mode:color-dodge"/>
        <path fill="#1ED6FE" d="M4.783 17.885a1.949 1.949 0 1 1-3.898 0 1.949 1.949 0 0 1 3.898 0z" opacity=".3" style="mix-blend-mode:color-dodge"/>
        <path fill="#1ED6FE" d="M4.08 17.885a1.246 1.246 0 1 1-2.491-.015 1.246 1.246 0 0 1 2.491.015z" opacity=".3" style="mix-blend-mode:color-dodge"/>
        <path fill="#1ED6FE" d="M3.668 17.885a.833.833 0 1 1-.834-.833.825.825 0 0 1 .834.833z" style="mix-blend-mode:color-dodge"/>
        <path fill="#1ED6FE" d="M88.83 85.651a1.949 1.949 0 1 1-3.899 0 1.949 1.949 0 0 1 3.898 0z" opacity=".3" style="mix-blend-mode:color-dodge"/>
        <path fill="#1ED6FE" d="M88.126 85.651a1.246 1.246 0 1 1-2.492 0 1.246 1.246 0 0 1 2.492 0z" opacity=".3" style="mix-blend-mode:color-dodge"/>
        <path fill="#1ED6FE" d="M87.713 85.651a.833.833 0 1 1-1.666 0 .833.833 0 0 1 1.666 0z" style="mix-blend-mode:color-dodge"/>
        <path fill="#1ED6FE" d="M82.554 148.425a1.949 1.949 0 1 1-1.949-1.949 1.957 1.957 0 0 1 1.95 1.95z" opacity=".3" style="mix-blend-mode:color-dodge"/>
        <path fill="#1ED6FE" d="M81.859 148.425a1.254 1.254 0 1 1-2.507.016 1.254 1.254 0 0 1 2.507-.016z" opacity=".3" style="mix-blend-mode:color-dodge"/>
        <path fill="#1ED6FE" d="M81.438 148.425a.833.833 0 1 1-1.666.016.833.833 0 0 1 1.666-.016z" style="mix-blend-mode:color-dodge"/>
        <path fill="#1ED6FE" d="M53.541 116.461l3.035 1.75 61.284-35.388-3.035-1.75z" style="mix-blend-mode:overlay" transform="translate(.885 .245)"/>
    </g>
</svg>
