<svg xmlns="http://www.w3.org/2000/svg" xmlns:xlink="http://www.w3.org/1999/xlink" width="69" height="20" viewBox="0 0 69 20">
    <defs>
        <path id="a" d="M34.557 0h34.136v20H.417V0z"/>
    </defs>
    <g fill="none" fill-rule="evenodd">
        <mask id="b" fill="#fff">
            <use xlink:href="#a"/>
        </mask>
        <path fill="#FFF" fill-rule="nonzero" d="M63.313 15.993a3.405 3.405 0 0 1-2.007.752 5.582 5.582 0 0 1-2.907-.49 3.274 3.274 0 0 1-1.582-1.829c-.125-.295-.157-.615-.253-.914-.1-.21-.37-.138-.558-.166-.988 0-1.98-.032-2.971-.028.49-1.552.626-3.195.401-4.808a6.02 6.02 0 0 0 2.734 1.85c1.715.655 3.562.809 5.312 1.33.681.182 1.322.49 1.891.907.383.289.642.712.727 1.186a2.516 2.516 0 0 1-.803 2.21m-14.996-2.376a5.074 5.074 0 0 1-2.164 2.125 5.633 5.633 0 0 1-3.413.481 4.987 4.987 0 0 1-2.59-1.246 5.348 5.348 0 0 1-1.517-2.452 8.595 8.595 0 0 1-.306-3.558 6.24 6.24 0 0 1 1.55-3.573 5.096 5.096 0 0 1 3.16-1.578 5.522 5.522 0 0 1 2.983.47 5.194 5.194 0 0 1 2.325 2.253 7.29 7.29 0 0 1 .803 3.238 7.74 7.74 0 0 1-.803 3.844m-14.454-3.375a8.584 8.584 0 0 0-3.116-1.707c-1.204-.405-2.457-.571-3.674-.899a7.312 7.312 0 0 1-1.867-.716 2.168 2.168 0 0 1-.975-1.125 1.988 1.988 0 0 1 .213-1.728c.312-.43.764-.738 1.276-.87a5.224 5.224 0 0 1 2.08-.121 3.317 3.317 0 0 1 1.935.89c.453.455.756 1.04.868 1.675 0 .166.124.348.309.344 1.24 0 2.481.028 3.722.032a10.386 10.386 0 0 0-.783 4.221m-3.14 5.148a2.527 2.527 0 0 1-1.26 1.084 4.696 4.696 0 0 1-2.008.296 4.343 4.343 0 0 1-2.85-1.004 3.652 3.652 0 0 1-1.073-2.08c0-.154-.116-.32-.285-.312-1.205-.04-2.373-.024-3.557-.06V7.146c.123.409.302.798.53 1.158.469.677 1.1 1.224 1.835 1.59 1.34.716 2.842 1.024 4.32 1.323 1.135.182 2.243.51 3.296.976.627.27 1.11.797 1.325 1.448a2.6 2.6 0 0 1-.273 1.749m-16.06-1.62a4.722 4.722 0 0 1-2.365 2.105 5.528 5.528 0 0 1-4.047.093 5.232 5.232 0 0 1-2.674-2.327 7.393 7.393 0 0 1-.867-4.269 6.63 6.63 0 0 1 1.714-4.047 4.934 4.934 0 0 1 2.81-1.48 5.936 5.936 0 0 1 3.514.497 4.613 4.613 0 0 1 2.128 2.222 8.01 8.01 0 0 1 .65 3.237 7.821 7.821 0 0 1-.831 3.933m52.493-3.31a8.112 8.112 0 0 0-3.212-1.877c-1.586-.555-3.289-.684-4.867-1.275a3.55 3.55 0 0 1-1.4-.874 1.987 1.987 0 0 1-.31-2.092c.207-.428.556-.77.988-.963.71-.3 1.484-.41 2.248-.32a3.482 3.482 0 0 1 2.132.85c.49.466.82 1.079.94 1.748.02.174.14.356.333.34 1.236 0 2.473.032 3.71.028a.256.256 0 0 0 .228-.077.26.26 0 0 0 .065-.234A6.652 6.652 0 0 0 66.99 2.88 6.102 6.102 0 0 0 64.18.664 10.16 10.16 0 0 0 60.911 0h-1.28c-1.38.028-2.741.314-4.016.846a5.053 5.053 0 0 0-2.276 1.938 5.415 5.415 0 0 0-.731 2.8 10.1 10.1 0 0 0-2.855-3.504A9.866 9.866 0 0 0 44.177 0H43.13a9.543 9.543 0 0 0-3.966 1.12 10.4 10.4 0 0 0-4.268 4.315 6.99 6.99 0 0 0-.803-2.194 5.81 5.81 0 0 0-2.257-2.18A9.337 9.337 0 0 0 27.82.027h-1.329a12.6 12.6 0 0 0-2.975.47 5.867 5.867 0 0 0-2.951 1.837 4.891 4.891 0 0 0-.887 1.776V.947a.407.407 0 0 0-.1-.332.431.431 0 0 0-.33-.089h-3.353a.31.31 0 0 0-.309.308v.91a.183.183 0 0 1-.084.182 1.82 1.82 0 0 1-.317-.198A8.995 8.995 0 0 0 10.592.024h-.884c-.9.041-1.789.21-2.642.502-1.48.529-2.815 1.4-3.898 2.545a9.39 9.39 0 0 0-2.542 4.76 12.137 12.137 0 0 0-.209 1.618v1.109c.055 1.23.334 2.44.824 3.569.811 1.785 2.109 3.3 3.742 4.37a9.297 9.297 0 0 0 5.22 1.494 8.171 8.171 0 0 0 5.09-1.838c.08-.052.225-.202.297-.06.036.352 0 .712 0 1.064a.31.31 0 0 0 .301.308h3.485a.321.321 0 0 0 .305-.344v-3.116a6.338 6.338 0 0 0 1.378 1.983 7.14 7.14 0 0 0 3.65 1.76 15.32 15.32 0 0 0 3.388.214c1.2-.041 2.388-.254 3.53-.63a6.909 6.909 0 0 0 2.469-1.425 4.747 4.747 0 0 0 1.377-2.36c.3.44.632.858.992 1.25a9.62 9.62 0 0 0 4.962 2.914c2.176.52 4.461.29 6.492-.651a10.236 10.236 0 0 0 4.457-4.237 6.633 6.633 0 0 0 1.554 2.958 6.29 6.29 0 0 0 2.409 1.566c1.58.53 3.25.741 4.91.62a11.935 11.935 0 0 0 3.991-.81 5.942 5.942 0 0 0 2.526-1.874c.55-.756.872-1.657.927-2.593v-.879a5.308 5.308 0 0 0-1.521-3.358" mask="url(#b)"/>
    </g>
</svg>
