<svg xmlns="http://www.w3.org/2000/svg" width="40" height="28" viewBox="0 0 40 28">
    <g fill="#FFF" fill-rule="nonzero">
        <path d="M38.51 19.534c.151.088.322.134.496.133a.952.952 0 0 0 .496-.133.875.875 0 0 0 .367-.369c.086-.151.131-.323.131-.498s-.045-.347-.131-.5a.887.887 0 0 0-.372-.368 1.04 1.04 0 0 0-.496-.132c-.173.003-.343.049-.495.132a.937.937 0 0 0-.375.369 1.002 1.002 0 0 0-.131.499c0 .175.045.347.131.498a.89.89 0 0 0 .367.37h.013zm-.223-1.286a.81.81 0 0 1 .31-.312.873.873 0 0 1 .407-.11c.143.003.283.04.409.11a.842.842 0 0 1 .416.733.827.827 0 0 1-.11.414.763.763 0 0 1-.301.307.824.824 0 0 1-.826 0 .77.77 0 0 1-.305-.307.834.834 0 0 1-.114-.414c.001-.148.04-.293.114-.421z"/>
        <path d="M38.395 18.612h.107a.207.207 0 0 1 .146.042.091.091 0 0 1 .023.019c.067.073.124.154.17.243l.102.185h.216l-.13-.227a1.625 1.625 0 0 0-.17-.225.29.29 0 0 0-.096-.06.36.36 0 0 0 .234-.106.303.303 0 0 0 .092-.22.266.266 0 0 0-.055-.163.261.261 0 0 0-.146-.111.617.617 0 0 0-.217-.032h-.46v1.149h.184v-.494zm0-.502h.276a.87.87 0 0 1 .115.019.15.15 0 0 1 .102.153.151.151 0 0 1-.055.121.259.259 0 0 1-.162.05h-.276v-.343zm-27.1.13h1.627l-1.628-2.75-1.378-2.312-5.845 3.554.892 1.508h6.331zm15.158 0h7.96l-4.956-8.355-5.48-9.218-2.258 1.373-3.583 2.178 3.583 6.04 4.734 7.982zm-2.784 2.754a3.504 3.504 0 0 0-1.931-.581h-.019c-1.941.053-3.488 1.661-3.488 3.627 0 1.965 1.547 3.574 3.488 3.627h.019c.685 0 1.356-.202 1.93-.581v.38h1.65V18.24h-1.65v2.754zm0 3.433a1.984 1.984 0 0 1-1.931 1.618h-.019a1.982 1.982 0 0 1-1.97-1.993c0-1.101.882-1.994 1.97-1.994h.019c.941.001 1.75.676 1.93 1.61v.759zm7.742-3.433a3.49 3.49 0 0 0-1.93-.581h-.019c-1.942.053-3.489 1.661-3.489 3.627 0 1.965 1.547 3.574 3.489 3.627h.018a3.49 3.49 0 0 0 1.931-.581v.38h1.647V20.6h-1.647v.4-.006zm0 3.433a1.987 1.987 0 0 1-1.93 1.618h-.019a1.982 1.982 0 0 1-1.97-1.993c0-1.101.882-1.994 1.97-1.994h.018c.941.002 1.75.677 1.931 1.61v.759zm7.5-.84c-.06-.03-.143-.06-.24-.098a18.14 18.14 0 0 0-1.798-.47c-.73-.163-1.098-.377-1.098-.647a.579.579 0 0 1 .193-.451c.269-.174.588-.25.905-.22.341-.033.681.07.947.288.144.176.235.39.261.616h1.751a1.97 1.97 0 0 0-1.043-1.867.608.608 0 0 0-.115-.064 4.499 4.499 0 0 0-1.9-.34c-.96 0-1.683.264-2.166.776-.389.41-.6.959-.587 1.526 0 .745.363 1.284 1.099 1.632.658.246 1.336.431 2.027.555.718.158 1.08.385 1.08.673a.578.578 0 0 1-.229.452 1.377 1.377 0 0 1-.906.264 1.864 1.864 0 0 1-1.14-.264.878.878 0 0 1-.34-.74h-1.826a2.044 2.044 0 0 0 1.044 1.888c.682.353 1.442.52 2.208.489a4.06 4.06 0 0 0 1.618-.307c.096-.042.18-.084.26-.134a2.046 2.046 0 0 0 1.08-1.923c0-.72-.367-1.256-1.11-1.613l.025-.021zM5.433 20.994a3.522 3.522 0 0 0-1.944-.581C1.547 20.466 0 22.074 0 24.04c0 1.965 1.547 3.574 3.489 3.627.687 0 1.36-.202 1.936-.581v.38h1.65V20.6H5.432v.4-.006zm0 3.433a1.984 1.984 0 0 1-1.944 1.61 1.982 1.982 0 0 1-1.97-1.993c0-1.101.882-1.994 1.97-1.994.943 0 1.754.675 1.936 1.61v.759l.008.008zm10.284-4.558h1.79v-1.592h-1.79v1.592zm0 7.597h1.79v-7.053h-1.79v7.053zm-2.468-6.472a3.522 3.522 0 0 0-1.931-.581h-.019c-1.942.053-3.489 1.661-3.489 3.627 0 1.965 1.547 3.574 3.49 3.627h.018c.687 0 1.36-.202 1.936-.581v.38H14.9V18.24h-1.652v2.754zm0 3.433a1.987 1.987 0 0 1-1.931 1.61h-.019a1.982 1.982 0 0 1-1.97-1.993c0-1.101.882-1.994 1.97-1.994h.019c.942 0 1.753.675 1.936 1.61v.759l-.005.008zm10.415-6.187l-1.945-3.285-4.77-8.035-5.655 3.443-.193.116.193.322 4.416 7.439h7.954z"/>
    </g>
</svg>
