<svg xmlns="http://www.w3.org/2000/svg" width="100" height="30" viewBox="0 0 100 30">
    <g fill="#FFF" fill-rule="nonzero">
        <path d="M61.748 23.402c-5.771 4.258-14.134 6.52-21.34 6.52a38.611 38.611 0 0 1-26.062-9.952c-.538-.49-.057-1.157.59-.778A52.448 52.448 0 0 0 41.02 26.12a51.824 51.824 0 0 0 19.892-4.076c.975-.407 1.794.644.84 1.35"/>
        <path d="M64.148 20.663c.738.945-.815 4.837-1.516 6.578-.212.525.24.737.718.338 3.093-2.588 3.892-8.013 3.26-8.8-.632-.786-6.04-1.442-9.341.877-.51.355-.408.848.139.779 1.862-.22 5.999-.718 6.74.228M57.542 3.26a.558.558 0 0 0 .583.567h5.278l-6.065 8.71a2.727 2.727 0 0 0-.375 1.548v2.282c0 .334.367.71.722.526a11.62 11.62 0 0 1 10.673 0c.38.2.742-.183.742-.514v-2.404a1.023 1.023 0 0 0-.534-.88 11.195 11.195 0 0 0-5.762-1.223l5.232-7.47c.485-.673.759-1.097.759-1.419V1.015a.562.562 0 0 0-.58-.57H58.114a.558.558 0 0 0-.571.57V3.26m-36.85 14.085a.575.575 0 0 0 .59-.566V8.416c.004-1.826-.09-4.34 2.128-4.34 2.217 0 1.89 2.587 1.89 4.344v8.363a.57.57 0 0 0 .55.562h3.086a.579.579 0 0 0 .591-.566V8.416c0-.897-.029-2.221.285-3.016a2.038 2.038 0 0 1 1.838-1.296c.889 0 1.578.298 1.806 1.361.147.628.09 2.29.09 2.95v8.368a.57.57 0 0 0 .55.562h3.069a.583.583 0 0 0 .595-.566V6.826c0-1.695.195-3.623-.779-4.947a4.54 4.54 0 0 0-7.8 1.194C28.317 1.084 27.114.155 25.19.155c-1.924 0-3.301.93-4.043 2.918h-.057V1.035a.579.579 0 0 0-.563-.53h-2.853a.583.583 0 0 0-.595.567v15.756a.575.575 0 0 0 .55.517h3.074M77.492.151c-4.447 0-6.929 3.819-6.929 8.734s2.446 8.795 6.929 8.795c4.303 0 7.03-3.82 7.03-8.632 0-4.972-2.47-8.897-7.03-8.897zm0 14.264c-2.409 0-2.38-4.116-2.38-6.044s.142-5.013 2.408-5.013c.978 0 1.663.432 2.01 1.529a14.53 14.53 0 0 1 .46 4.181c0 2.038-.11 5.36-2.498 5.36v-.013zm12.943 2.93a.587.587 0 0 0 .6-.566V8.285a7.042 7.042 0 0 1 .489-2.987 2.005 2.005 0 0 1 1.777-1.26c2.127 0 1.923 2.52 1.923 4.247v8.56c.036.278.269.49.55.5h3.081a.583.583 0 0 0 .587-.497v-9.92c0-1.524 0-3.668-.815-4.91a4.03 4.03 0 0 0-3.586-1.86c-2.124 0-3.33 1.028-4.19 3.184h-.057V.925a.587.587 0 0 0-.546-.44h-2.853a.587.587 0 0 0-.587.513v15.785a.57.57 0 0 0 .55.562h3.061m-35.457-2.89c-.562-.778-1.161-1.405-1.161-2.852v-4.78c0-2.038.142-3.897-1.353-5.299C51.27.408 49.314 0 47.822 0c-2.926 0-6.19 1.092-6.875 4.707a.538.538 0 0 0 .46.64l2.98.326c.283-.05.499-.28.53-.566.26-1.247 1.3-1.847 2.473-1.847.674-.03 1.32.275 1.724.816.432.631.375 1.495.375 2.229v.407c-1.781.2-4.112.33-5.78 1.064a5.217 5.217 0 0 0-3.26 5.021c0 3.195 2.014 4.793 4.598 4.793 2.188 0 3.382-.518 5.07-2.234a7.458 7.458 0 0 0 1.76 2.038.636.636 0 0 0 .726-.069c.61-.55 1.728-1.52 2.355-2.038a.579.579 0 0 0 .004-.831zM49.49 9.815c0 1.198.028 2.192-.575 3.26a2.494 2.494 0 0 1-2.127 1.394c-1.182 0-1.87-.897-1.87-2.225 0-2.617 2.347-3.093 4.572-3.093v.664zm-34.817 4.642c-.563-.779-1.162-1.406-1.162-2.853v-4.78c0-2.038.147-3.897-1.349-5.299C11.004.408 9.027 0 7.531 0 4.61 0 1.346 1.092.662 4.707a.538.538 0 0 0 .456.64l2.979.326a.656.656 0 0 0 .534-.566C4.89 3.86 5.93 3.26 7.1 3.26c.674-.03 1.32.275 1.723.816.432.631.375 1.495.375 2.229v.407c-1.78.2-4.108.33-5.779 1.064a5.217 5.217 0 0 0-3.26 5.021c0 3.195 2.013 4.793 4.601 4.793 2.185 0 3.379-.518 5.066-2.234.46.78 1.056 1.47 1.76 2.038a.636.636 0 0 0 .726-.069c.611-.55 1.728-1.52 2.356-2.038a.575.575 0 0 0 .004-.831zM9.198 9.814c0 1.198.029 2.192-.574 3.26a2.494 2.494 0 0 1-2.128 1.394c-1.177 0-1.87-.897-1.87-2.225 0-2.617 2.351-3.093 4.572-3.093v.664z"/>
    </g>
</svg>
