<!-- group per page -->
<svg xmlns="http://www.w3.org/2000/svg" xmlns:xlink="http://www.w3.org/1999/xlink">
  <symbol id="search" fill-rule="nonzero" mask="url(#b)">
    <path id="cc" fill="#4A4A4A" fill-rule="evenodd" d="M.5 14a.5.5 0 0 1-.5-.5V.5A.5.5 0 0 1 .5 0h19a.5.5 0 0 1 .5.5v13a.5.5 0 0 1-.41.492L19.5 14H.5zM19 13V6H1v7h18zM6.5 8a.5.5 0 1 1 0 1h-3a.5.5 0 1 1 0-1h3zM19 5V1H1v4h18z"/>
  </symbol>
  <symbol id="calendar" fill-rule="nonzero" mask="url(#b)">
    <path fill="#4A4A4A" fill-rule="evenodd" d="M.5 15a.5.5 0 0 1-.5-.5v-13A.5.5 0 0 1 .5 1H5V.5a.5.5 0 1 1 1 0V1h8V.5a.5.5 0 1 1 1 0V1h4.5a.5.5 0 0 1 .5.5v13a.5.5 0 0 1-.41.492L19.5 15H.5zM19 14V7H1v7h18zM5.5 11a.5.5 0 1 1 0 1h-2a.5.5 0 1 1 0-1h2zm1-2a.5.5 0 1 1 0 1h-3a.5.5 0 1 1 0-1h3zM5 2.5V2H1v4h18V2h-4v.5a.5.5 0 1 1-1 0V2H6v.5a.5.5 0 1 1-1 0z"/>
  </symbol>
  <symbol id="lock" fill-rule="nonzero" mask="url(#b)">
    <path fill="#4A4A4A" fill-rule="nonzero" d="M13.495 8.716h-.286V6.11C13.209 2.742 10.548 0 7.27 0 3.998 0 1.333 2.738 1.333 6.11c0 .31.241.56.543.56a.55.55 0 0 0 .544-.56c0-2.75 2.174-4.992 4.85-4.992 2.674 0 4.852 2.237 4.852 4.992v2.606H1.05C.47 8.716 0 9.2 0 9.797v6.964C0 18.546 1.413 20 3.148 20h8.25c1.734 0 3.147-1.454 3.147-3.24V9.798c0-.597-.47-1.081-1.05-1.081zm-.037 8.045c0 1.168-.921 2.12-2.06 2.12H3.151c-1.135 0-2.061-.948-2.061-2.12V9.834h12.367v6.927z"/>
  </symbol>
</svg>
