<svg xmlns="http://www.w3.org/2000/svg" xmlns:xlink="http://www.w3.org/1999/xlink" width="1440" height="318" viewBox="0 0 1440 318">
    <defs>
        <linearGradient id="b" x1="0%" y1="0%" y2="0%">
            <stop offset="0%" stop-color="#2E4DAB"/>
            <stop offset="100%" stop-color="#0066E6"/>
        </linearGradient>
        <path id="a" d="M0 0h1440v318H0z"/>
        <path id="d" d="M.025.098H445v338.619H.025z"/>
        <path id="f" d="M.381.38h457.406v316.224H.38z"/>
        <path id="h" d="M.025.098H445v338.619H.025z"/>
        <path id="j" d="M.381.38h457.406v316.224H.38z"/>
    </defs>
    <g fill="none" fill-rule="evenodd">
        <mask id="c" fill="#fff">
            <use xlink:href="#a"/>
        </mask>
        <use fill="url(#b)" xlink:href="#a"/>
        <g mask="url(#c)" style="mix-blend-mode:soft-light">
            <g transform="translate(1055 -64)">
                <mask id="e" fill="#fff">
                    <use xlink:href="#d"/>
                </mask>
                <path fill="#FFF" d="M348.783 89.42l66.43-39.791v79.676l-66.43 39.791V89.42zM280.89 47.189l67.22-40.266c.418-.25.673-.699.673-1.184V-74.72l66.43 39.792v81.334L347.4 87.026 280.89 47.19zm65.125 121.907l-66.43-39.79V49.628l66.43 39.79v79.677zm-66.43 41.45v-78.019l65.125 39.01-65.125 39.01zm66.43 44.672v79.675l-66.43-39.79v-79.677l66.43 39.792zm0-329.938V4.957l-66.43 39.79v-79.675l66.43-39.792zm-134.322-2.44L278.2-117 344.71-77.16 278.2-37.322 211.693-77.16zm65.124 121.908l-66.43-39.791V-74.72l66.43 39.792v79.676zm0 82.9l-65.124-39.01 65.124-39.01v78.02zm0 82.898l-66.43-39.791V91.078l66.43 39.792v79.676zM142.495 47.19l66.508-39.84 66.509 39.84-66.509 39.838-66.508-39.838zm65.124 123.566l-66.43 39.791V130.87l66.43-39.792v79.677zm-67.816-42.278L73.295 88.639l66.51-39.84 66.509 39.839-66.511 39.839zm1.385-163.405L207.62-74.72V4.957l-66.43 39.79v-79.675zM457.795 318.95l-39.814-23.847V213.77l39.814-23.849v-3.222l-41.198 24.677-66.508-39.839 67.22-40.264c.417-.25.672-.7.672-1.185V49.63l39.814 23.848v-3.223L419.287 47.19l38.508-23.068V20.9l-39.814 23.848v-79.676l39.814-23.849V-62l-41.198 24.678L350.09-77.16l67.22-40.266c.417-.25.672-.699.672-1.184v-41.404h-2.768v40.622L347.4-78.772 280.89-118.61l67.22-40.265 1.902-1.139h-5.379l-65.048 38.964v-38.964h-2.768v38.964l-65.048-38.964h-4.144c.016.467.262.897.667 1.139l67.22 40.265-67.22 40.265-69.199 41.45c-.417.25-.671.699-.671 1.184v80.459L63.226-3.182a1.386 1.386 0 0 0-1.899.474 1.38 1.38 0 0 0 .475 1.896l75.313 48-67.22 40.266c-.004.001-.008.005-.012.008L.697 128.904c-.417.25-.672.7-.672 1.185v82.9a1.383 1.383 0 0 0 2.768 0V130.87l67.814-40.62 67.815 40.62v79.675l-67.103-40.193a1.385 1.385 0 0 0-1.898.473 1.38 1.38 0 0 0 .474 1.895l67.222 40.266-67.222 40.267a1.38 1.38 0 0 0 .713 2.565c.242 0 .489-.062.71-.196l69.2-41.45.008-.007 68.477-41.018 66.509 39.839-67.22 40.264a1.38 1.38 0 0 0 .713 2.566c.242 0 .488-.062.71-.196l67.102-40.195v80.46c0 .486.255.936.673 1.184l69.198 41.448c.01.006.022.008.031.014.088.05.18.089.28.119.02.006.04.014.061.019.11.028.222.047.339.047.115 0 .223-.019.33-.044.017-.004.034-.011.052-.016.087-.025.172-.06.253-.101.022-.01.042-.023.064-.034a1.47 1.47 0 0 0 .24-.177c.006-.007.016-.012.023-.02.08-.078.15-.167.21-.264l.015-.017c.012-.02.018-.042.03-.064.026-.05.053-.1.073-.155.015-.038.026-.078.037-.117.011-.045.025-.09.034-.138.008-.051.012-.1.015-.15.001-.03.008-.056.008-.084v-82.9c0-.485-.255-.935-.672-1.185l-67.22-40.264 66.508-39.84 67.814 40.622v82.117c0 .012.003.02.004.033 0 .052.009.104.015.156.006.039.009.079.018.117.01.046.027.09.042.135.014.04.025.08.041.12.02.042.046.082.07.123.02.036.038.073.062.106.026.038.058.072.089.109.029.032.054.065.085.094.031.03.066.054.098.082.04.03.078.062.12.09.01.005.018.013.028.02l41.91 25.102v-3.222z" mask="url(#e)"/>
            </g>
            <g transform="translate(946 65)">
                <mask id="g" fill="#fff">
                    <use xlink:href="#f"/>
                </mask>
                <path fill="#FFF" d="M109.307 249.865l-66.378 39.82V209.95l66.378-39.82v79.736zm67.839 42.263l-67.168 40.295c-.416.25-.671.7-.671 1.185v80.52l-66.378-39.821V292.91l67.76-40.651 66.457 39.868zm-65.073-122l66.376 39.821v79.736l-66.376-39.82v-79.737zm66.376-41.48v78.077l-65.072-39.038 65.072-39.04zm-66.376-44.705V4.207l66.376 39.82v79.736l-66.376-39.82zm0 330.184v-79.736l66.376-39.821v79.737l-66.376 39.82zm134.215 2.443l-66.456 39.868-66.455-39.868 66.455-39.868 66.456 39.868zm-65.073-122l66.378 39.82v79.737l-66.378-39.82V294.57zm0-82.962l65.073 39.039-65.073 39.038v-78.077zm0-82.96l66.378 39.821v79.736l-66.378-39.821v-79.737zm134.216 163.48l-66.456 39.868-66.456-39.868 66.456-39.868 66.456 39.868zm-65.073-123.659l66.378-39.822v79.737l-66.378 39.82V168.47zm67.763 42.31l66.455 39.867-66.457 39.87-66.456-39.869 66.458-39.869zm-1.385 163.528l-66.378 39.82v-79.736l66.378-39.821v79.737zm-208.734-206.62L40.836 207.98c-.417.25-.672.7-.672 1.185v80.52l-1.305 2.442L.38 315.212v3.224l39.783-23.866v79.737L.38 398.172v3.225l41.165-24.695 66.456 39.868-67.166 40.295c-.417.25-.672.7-.672 1.185v41.435h2.765v-40.652l67.76-40.65 66.457 39.867-67.168 40.295-1.899 1.14h5.374l64.996-38.992v38.992h2.766v-38.992l64.997 38.992h4.14a1.379 1.379 0 0 0-.666-1.14L182.52 458.05l67.167-40.295 69.143-41.48c.418-.25.672-.7.672-1.186v-80.52l67.049 40.224a1.383 1.383 0 0 0 1.422-2.37l-67.166-40.295 67.166-40.296c.005-.002.009-.005.012-.008l69.131-41.474c.417-.25.672-.7.672-1.186v-82.96a1.383 1.383 0 1 0-2.765 0v82.178l-67.76 40.65-67.761-40.65v-79.735l67.049 40.224a1.383 1.383 0 0 0 1.423-2.37l-67.17-40.297 67.17-40.296a1.382 1.382 0 1 0-1.423-2.37l-69.144 41.48-.008.007-68.423 41.05-66.456-39.87 67.167-40.294a1.383 1.383 0 1 0-1.422-2.372l-67.049 40.224V43.244c0-.487-.254-.937-.672-1.185L111.4.579c-.01-.005-.022-.008-.031-.014a1.356 1.356 0 0 0-.28-.119c-.02-.006-.04-.013-.061-.018a1.343 1.343 0 0 0-.338-.047c-.116 0-.223.018-.33.043-.017.005-.034.012-.052.016a1.316 1.316 0 0 0-.252.102c-.023.01-.043.023-.065.034a1.469 1.469 0 0 0-.24.177l-.022.019c-.081.079-.151.168-.21.264-.006.007-.011.011-.015.018-.013.02-.019.042-.03.064-.027.05-.054.1-.074.155-.015.038-.025.078-.036.118-.012.045-.026.09-.034.137-.008.051-.012.1-.015.152-.001.028-.008.055-.008.083v82.962c0 .486.255.936.671 1.186l67.168 40.294-66.456 39.87-2.688 1.612z" mask="url(#g)"/>
            </g>
            <g>
                <g transform="matrix(-1 0 0 1 402 -64)">
                    <mask id="i" fill="#fff">
                        <use xlink:href="#h"/>
                    </mask>
                    <path fill="#FFF" d="M348.783 89.42l66.43-39.791v79.676l-66.43 39.791V89.42zM280.89 47.189l67.22-40.266c.418-.25.673-.699.673-1.184V-74.72l66.43 39.792v81.334L347.4 87.026 280.89 47.19zm65.125 121.907l-66.43-39.79V49.628l66.43 39.79v79.677zm-66.43 41.45v-78.019l65.125 39.01-65.125 39.01zm66.43 44.672v79.675l-66.43-39.79v-79.677l66.43 39.792zm0-329.938V4.957l-66.43 39.79v-79.675l66.43-39.792zm-134.322-2.44L278.2-117 344.71-77.16 278.2-37.322 211.693-77.16zm65.124 121.908l-66.43-39.791V-74.72l66.43 39.792v79.676zm0 82.9l-65.124-39.01 65.124-39.01v78.02zm0 82.898l-66.43-39.791V91.078l66.43 39.792v79.676zM142.495 47.19l66.508-39.84 66.509 39.84-66.509 39.838-66.508-39.838zm65.124 123.566l-66.43 39.791V130.87l66.43-39.792v79.677zm-67.816-42.278L73.295 88.639l66.51-39.84 66.509 39.839-66.511 39.839zm1.385-163.405L207.62-74.72V4.957l-66.43 39.79v-79.675zM457.795 318.95l-39.814-23.847V213.77l39.814-23.849v-3.222l-41.198 24.677-66.508-39.839 67.22-40.264c.417-.25.672-.7.672-1.185V49.63l39.814 23.848v-3.223L419.287 47.19l38.508-23.068V20.9l-39.814 23.848v-79.676l39.814-23.849V-62l-41.198 24.678L350.09-77.16l67.22-40.266c.417-.25.672-.699.672-1.184v-41.404h-2.768v40.622L347.4-78.772 280.89-118.61l67.22-40.265 1.902-1.139h-5.379l-65.048 38.964v-38.964h-2.768v38.964l-65.048-38.964h-4.144c.016.467.262.897.667 1.139l67.22 40.265-67.22 40.265-69.199 41.45c-.417.25-.671.699-.671 1.184v80.459L63.226-3.182a1.386 1.386 0 0 0-1.899.474 1.38 1.38 0 0 0 .475 1.896l75.313 48-67.22 40.266c-.004.001-.008.005-.012.008L.697 128.904c-.417.25-.672.7-.672 1.185v82.9a1.383 1.383 0 0 0 2.768 0V130.87l67.814-40.62 67.815 40.62v79.675l-67.103-40.193a1.385 1.385 0 0 0-1.898.473 1.38 1.38 0 0 0 .474 1.895l67.222 40.266-67.222 40.267a1.38 1.38 0 0 0 .713 2.565c.242 0 .489-.062.71-.196l69.2-41.45.008-.007 68.477-41.018 66.509 39.839-67.22 40.264a1.38 1.38 0 0 0 .713 2.566c.242 0 .488-.062.71-.196l67.102-40.195v80.46c0 .486.255.936.673 1.184l69.198 41.448c.01.006.022.008.031.014.088.05.18.089.28.119.02.006.04.014.061.019.11.028.222.047.339.047.115 0 .223-.019.33-.044.017-.004.034-.011.052-.016.087-.025.172-.06.253-.101.022-.01.042-.023.064-.034a1.47 1.47 0 0 0 .24-.177c.006-.007.016-.012.023-.02.08-.078.15-.167.21-.264l.015-.017c.012-.02.018-.042.03-.064.026-.05.053-.1.073-.155.015-.038.026-.078.037-.117.011-.045.025-.09.034-.138.008-.051.012-.1.015-.15.001-.03.008-.056.008-.084v-82.9c0-.485-.255-.935-.672-1.185l-67.22-40.264 66.508-39.84 67.814 40.622v82.117c0 .012.003.02.004.033 0 .052.009.104.015.156.006.039.009.079.018.117.01.046.027.09.042.135.014.04.025.08.041.12.02.042.046.082.07.123.02.036.038.073.062.106.026.038.058.072.089.109.029.032.054.065.085.094.031.03.066.054.098.082.04.03.078.062.12.09.01.005.018.013.028.02l41.91 25.102v-3.222z" mask="url(#i)"/>
                </g>
                <g transform="matrix(-1 0 0 1 511 65)">
                    <mask id="k" fill="#fff">
                        <use xlink:href="#j"/>
                    </mask>
                    <path fill="#FFF" d="M109.307 249.865l-66.378 39.82V209.95l66.378-39.82v79.736zm67.839 42.263l-67.168 40.295c-.416.25-.671.7-.671 1.185v80.52l-66.378-39.821V292.91l67.76-40.651 66.457 39.868zm-65.073-122l66.376 39.821v79.736l-66.376-39.82v-79.737zm66.376-41.48v78.077l-65.072-39.038 65.072-39.04zm-66.376-44.705V4.207l66.376 39.82v79.736l-66.376-39.82zm0 330.184v-79.736l66.376-39.821v79.737l-66.376 39.82zm134.215 2.443l-66.456 39.868-66.455-39.868 66.455-39.868 66.456 39.868zm-65.073-122l66.378 39.82v79.737l-66.378-39.82V294.57zm0-82.962l65.073 39.039-65.073 39.038v-78.077zm0-82.96l66.378 39.821v79.736l-66.378-39.821v-79.737zm134.216 163.48l-66.456 39.868-66.456-39.868 66.456-39.868 66.456 39.868zm-65.073-123.659l66.378-39.822v79.737l-66.378 39.82V168.47zm67.763 42.31l66.455 39.867-66.457 39.87-66.456-39.869 66.458-39.869zm-1.385 163.528l-66.378 39.82v-79.736l66.378-39.821v79.737zm-208.734-206.62L40.836 207.98c-.417.25-.672.7-.672 1.185v80.52l-1.305 2.442L.38 315.212v3.224l39.783-23.866v79.737L.38 398.172v3.225l41.165-24.695 66.456 39.868-67.166 40.295c-.417.25-.672.7-.672 1.185v41.435h2.765v-40.652l67.76-40.65 66.457 39.867-67.168 40.295-1.899 1.14h5.374l64.996-38.992v38.992h2.766v-38.992l64.997 38.992h4.14a1.379 1.379 0 0 0-.666-1.14L182.52 458.05l67.167-40.295 69.143-41.48c.418-.25.672-.7.672-1.186v-80.52l67.049 40.224a1.383 1.383 0 0 0 1.422-2.37l-67.166-40.295 67.166-40.296c.005-.002.009-.005.012-.008l69.131-41.474c.417-.25.672-.7.672-1.186v-82.96a1.383 1.383 0 1 0-2.765 0v82.178l-67.76 40.65-67.761-40.65v-79.735l67.049 40.224a1.383 1.383 0 0 0 1.423-2.37l-67.17-40.297 67.17-40.296a1.382 1.382 0 1 0-1.423-2.37l-69.144 41.48-.008.007-68.423 41.05-66.456-39.87 67.167-40.294a1.383 1.383 0 1 0-1.422-2.372l-67.049 40.224V43.244c0-.487-.254-.937-.672-1.185L111.4.579c-.01-.005-.022-.008-.031-.014a1.356 1.356 0 0 0-.28-.119c-.02-.006-.04-.013-.061-.018a1.343 1.343 0 0 0-.338-.047c-.116 0-.223.018-.33.043-.017.005-.034.012-.052.016a1.316 1.316 0 0 0-.252.102c-.023.01-.043.023-.065.034a1.469 1.469 0 0 0-.24.177l-.022.019c-.081.079-.151.168-.21.264-.006.007-.011.011-.015.018-.013.02-.019.042-.03.064-.027.05-.054.1-.074.155-.015.038-.025.078-.036.118-.012.045-.026.09-.034.137-.008.051-.012.1-.015.152-.001.028-.008.055-.008.083v82.962c0 .486.255.936.671 1.186l67.168 40.294-66.456 39.87-2.688 1.612z" mask="url(#k)"/>
                </g>
            </g>
        </g>
    </g>
</svg>
