<svg xmlns="http://www.w3.org/2000/svg" width="100" height="17" viewBox="0 0 100 17">
    <path fill="#FFF" fill-rule="nonzero" d="M40.75.223a1.525 1.525 0 0 0-1.411.927 1.492 1.492 0 0 0 .328 1.642c.436.432 1.092.561 1.661.328.57-.233.942-.782.942-1.391.001-.4-.159-.782-.444-1.065a1.53 1.53 0 0 0-1.077-.44zm23.977 10.01a1.525 1.525 0 0 0-1.417.92 1.492 1.492 0 0 0 .32 1.644c.435.433 1.09.565 1.662.334.571-.231.945-.78.946-1.39a1.515 1.515 0 0 0-1.511-1.509zM14.289 3.91c-2.768 0-4.778 1.97-4.778 4.685 0 2.716 2.01 4.682 4.778 4.682 2.769 0 4.798-1.969 4.798-4.682 0-2.712-2.016-4.685-4.798-4.685zm0 7.179c-1.308 0-2.218-1.026-2.218-2.494 0-1.467.91-2.493 2.218-2.493 1.31 0 2.251 1.026 2.251 2.493 0 1.468-.913 2.494-2.25 2.494zm22-2.262a2.224 2.224 0 0 0-.363-.502l-.084-.089.087-.082c.141-.147.27-.305.383-.473l2.444-3.587h-2.968l-1.833 2.799a.722.722 0 0 1-.643.228h-.418v-5.31c0-1.061-.669-1.208-1.392-1.208h-1.225v12.538h2.627V9.384h.247c.3 0 .502.035.595.194l1.453 2.716c.406.733.81.857 1.57.857h2.012L37.3 10.705l-1.01-1.877zm12.76-4.94a3.604 3.604 0 0 0-2.67 1.084l-.157.159-.058-.216c-.141-.53-.614-.823-1.325-.823h-1.18v9.047h2.608V8.968c-.006-.368.05-.733.164-1.083a2.14 2.14 0 0 1 2.116-1.588c.813 0 1.131.425 1.131 1.521v3.945c0 .953.438 1.376 1.39 1.376h1.24V7.383c.007-2.284-1.122-3.494-3.26-3.494zm-8.264.207H39.55v9.04h2.598v-7.67c.01-.922-.437-1.37-1.363-1.37zm-16.242-.184c-2.771 0-4.78 1.97-4.78 4.685 0 2.716 2.009 4.682 4.78 4.682 2.772 0 4.798-1.969 4.798-4.682 0-2.712-2.01-4.685-4.798-4.685zm0 7.179c-1.308 0-2.218-1.026-2.218-2.494 0-1.467.91-2.493 2.218-2.493 1.31 0 2.251 1.026 2.251 2.493 0 1.468-.913 2.494-2.25 2.494zM80.502 3.91c-2.772 0-4.782 1.97-4.782 4.685 0 2.716 2.01 4.682 4.782 4.682 2.771 0 4.797-1.969 4.797-4.682 0-2.712-2.02-4.685-4.797-4.685zm0 7.179c-1.31 0-2.219-1.026-2.219-2.494 0-1.467.91-2.493 2.219-2.493 1.308 0 2.234 1.026 2.234 2.493 0 1.468-.9 2.494-2.234 2.494zm-19.53-7.02a1.139 1.139 0 0 0-1.068.553l-.074.136-.12-.089a3.565 3.565 0 0 0-2.405-.788c-2.44 0-4.083 1.811-4.083 4.508s1.7 4.57 4.132 4.57a3.244 3.244 0 0 0 2.01-.577l.202-.15v.251c0 1.207-.791 1.874-2.225 1.874a5.315 5.315 0 0 1-1.756-.317c-.553-.165-.878-.029-1.103.52l-.209.509-.292.718.183.098c.989.497 2.08.759 3.19.766 2.225 0 4.823-1.121 4.823-4.285v-8.3l-1.206.003zm-3.152 6.635c-1.428 0-1.93-1.229-1.93-2.382 0-.508.13-2.163 1.798-2.163.83 0 1.93.235 1.93 2.249-.004 1.884-.981 2.296-1.798 2.296zM7.283 6.72l-.386-.213.322-.282A3.007 3.007 0 0 0 8.264 3.86c0-1.97-1.547-3.24-3.94-3.24H1.287A1.323 1.323 0 0 0 0 1.92v11.177h4.392c2.66 0 4.376-1.432 4.376-3.646a3.03 3.03 0 0 0-1.485-2.732zM2.46 3.543c0-.579.247-.855.79-.89h1.088c.406-.036.807.107 1.095.392.288.285.434.681.397 1.082 0 .702-.383 1.525-1.457 1.525h-1.93V4.216l.017-.673zm2.125 7.43H2.444V8.481c0-.537.209-.813.675-.88h1.45a1.6 1.6 0 0 1 1.244.459c.327.324.494.774.457 1.231 0 1.058-.653 1.693-1.7 1.693l.015-.013zM96.961 3.92a3.611 3.611 0 0 0-2.803 1.34l-.19.235-.148-.264c-.482-.87-1.315-1.311-2.473-1.311a3.336 3.336 0 0 0-2.405 1.067l-.247.267-.094-.35c-.138-.502-.591-.778-1.286-.778H86.22v9.015h2.492V9.159c.001-.356.046-.71.131-1.055.238-.953.894-1.995 1.994-1.906.678.064 1.006.581 1.006 1.588v5.353h2.512v-3.98c-.01-.369.038-.736.141-1.09.203-.918.884-1.858 1.946-1.858.768 0 1.051.429 1.051 1.588v4.021c0 .909.412 1.319 1.331 1.319H100V7.383c0-2.297-1.026-3.462-3.039-3.462zm-22.684 6.086s-1.08 1.127-2.492 1.127c-1.287 0-2.589-.781-2.589-2.522 0-1.502 1.01-2.54 2.454-2.54.466 0 1 .164 1.083.444v.047a.915.915 0 0 0 .9.648H75V6.04c0-1.556-2.003-2.118-3.35-2.118-2.894 0-4.975 1.982-4.975 4.71 0 2.729 2.068 4.71 4.92 4.71a5.175 5.175 0 0 0 3.833-1.622l.074-.09-1.084-1.772-.141.15z"/>
</svg>
