<svg xmlns="http://www.w3.org/2000/svg" width="514" height="23" viewBox="0 0 514 23">
    <g fill="none" fill-rule="evenodd">
        <path fill="#AAB7C4" fill-rule="nonzero" d="M20.7 5l-2.8 13h-3.4l2.8-13h3.4zm14.1 8.4l1.8-4.9 1 4.9h-2.8zm3.8 4.6h3.1L39 5h-2.9a1.5 1.5 0 0 0-1.4 1l-5 12h3.5l.7-1.9h4.3l.4 1.9zm-8.8-4.3c0-3.4-4.7-3.6-4.7-5.1a1.32 1.32 0 0 1 1.4-1.1 6.28 6.28 0 0 1 3.3.6l.6-2.8a8.53 8.53 0 0 0-3.1-.6c-3.3 0-5.7 1.8-5.7 4.3 0 1.9 1.7 2.9 2.9 3.5 1.2.6 1.8 1 1.7 1.6 0 .9-1 1.3-2 1.3a8.53 8.53 0 0 1-3.5-.8l-.6 2.8a9.71 9.71 0 0 0 3.7.7c3.7.1 6-1.7 6-4.4M15.9 5l-5.4 13H6.9L4.2 7.6a1.33 1.33 0 0 0-.8-1.1A11.66 11.66 0 0 0 .1 5.4L.2 5h5.7a1.51 1.51 0 0 1 1.5 1.3l1.4 7.5L12.4 5h3.5zM163.4 10.5V9.2a1.08 1.08 0 0 0-1-1H161v2.3h-1.5V4h3.7a1.69 1.69 0 0 1 1.9 1.4v.5a1.65 1.65 0 0 1-.9 1.5c.515.312.791.904.7 1.5v1.6h-1.5m-2.5-3.8h1.6a.68.68 0 0 0 .8-.4.68.68 0 0 0-.4-.8h-2v1.2m21.3 3.8l-2.4-4.4v4.4h-3l-.5-1.4h-2.8l-.5 1.4h-3.2s-2-.3-2-3.1c0-3.4 1.7-3.5 2.4-3.5h1.9v1.5h-1.5a1.24 1.24 0 0 0-1.1 1.4v.5c0 2.2 2.6 1.5 2.7 1.5l1.9-4.9h2.1l2.3 5.9V4h2.1l2.4 4.3V4h1.5v6.6l-2.3-.1m-8-3h1.5l-.7-1.9-.8 1.9m-22.7 3V6l-1.9 4.5h-1.2L146.5 6v4.5h-3l-.5-1.4h-2.8l-.5 1.4H138l2.5-6.6h2.1l2.3 6V4h2.4l1.7 4.1 1.7-4.1h2.4v6.6l-1.6-.1m-10.7-3h1.5l-.7-1.9-.8 1.9m13.1 3V4h4.7v1.5h-3.2v1h3.1V8h-3.1v1.1h3.2v1.4h-4.7m11.8.1V4h1.5v6.6h-1.5M169 19v-1.3a1 1 0 0 0-1.1-1h-1.6V19h-1.6v-6.5h3.9a1.67 1.67 0 0 1 2 1.5v.4a1.65 1.65 0 0 1-.9 1.5c.506.33.809.896.8 1.5V19H169m-2.6-3.8h1.7a.632.632 0 0 0 .4-1.2.3.3 0 0 0-.4 0h-1.7v1.2m-8.1 3.8h-1.4l-1.7-1.9-1.7 1.9h-6v-6.5h5.9l1.8 2.1 1.9-2.1h5.1a1.73 1.73 0 0 1 2 1.5v.4c0 1.9-.7 2.5-2.8 2.5h-1.6V19h-1.5m-2-3.2l2 2.3v-4.5l-2 2.2m-7.2 1.8h3.4l1.6-1.8-1.6-1.8h-3.4v1h3.3v1.5h-3.3v1.1m10.8-2.4h1.7a.632.632 0 0 0 .4-1.2.3.3 0 0 0-.4 0h-1.7v1.2M180 19h-2.9v-1.5h2.5s.9.1.9-.5-1.4-.5-1.4-.5a1.93 1.93 0 0 1-2.2-1.6v-.3a1.88 1.88 0 0 1 1.7-2h3.4V14h-2.5s-.9-.2-.9.5c0 .5 1.2.5 1.2.5s2.5-.2 2.5 1.8a2.1 2.1 0 0 1-1.8 2.3h-.4l-.1-.1m-8.6 0v-6.5h5V14H173v1h3.3v1.5H173v1.1h3.4V19h-5m14.2 0h-2.9v-1.5h2.5s.9.1.9-.5-1.4-.5-1.4-.5a1.93 1.93 0 0 1-2.2-1.7v-.3a1.88 1.88 0 0 1 1.7-2h3.4V14h-2.5s-.9-.2-.9.5c0 .5 1.2.5 1.2.5s2.5-.2 2.5 1.8a2.1 2.1 0 0 1-1.8 2.3h-.4c0-.1 0-.1-.1-.1m46.7 4h-4.1c-6.213-.12-11.19-5.186-11.2-11.4-.242-6.156 4.545-11.346 10.7-11.6h4.6c6.404-.05 11.64 5.096 11.7 11.5v.1c-.173 6.34-5.358 11.392-11.7 11.4zm-3.8-21a9.5 9.5 0 1 0 9.5 9.5 9.56 9.56 0 0 0-9.5-9.5zm1.5 15.9V5.2a6.54 6.54 0 0 1 0 12.7zm-3 0a6.56 6.56 0 0 1 0-12.7v12.7zM276.5 7H274v8.9h2.5a4.45 4.45 0 0 0 3.1-1 4.58 4.58 0 0 0 1.6-3.4A4.35 4.35 0 0 0 277 7h-.5zm2 6.7a3.17 3.17 0 0 1-2.3.7h-.5V8.5h.5a3.17 3.17 0 0 1 2.3.7 3.1 3.1 0 0 1 .9 2.2 3.17 3.17 0 0 1-.9 2.3zm3.4 2.2h1.7V7h-1.7v8.9zm5.8-5.5c-1-.4-1.3-.6-1.3-1.1a1.11 1.11 0 0 1 1.2-1 2.1 2.1 0 0 1 1.4.7l.9-1.2a4 4 0 0 0-2.5-1 2.56 2.56 0 0 0-2.7 2.4v.1c0 1.2.5 1.9 2.1 2.4a6.12 6.12 0 0 1 1.2.5c.312.192.502.533.5.9a1.31 1.31 0 0 1-1.2 1.3h-.1a2 2 0 0 1-1.8-1.2l-1.1 1.1a3.4 3.4 0 0 0 3 1.7 2.82 2.82 0 0 0 3-2.7V13c-.1-1.2-.6-1.8-2.6-2.6zm3.1 1.1a4.57 4.57 0 0 0 4.5 4.6 5.45 5.45 0 0 0 2.2-.5v-2a2.61 2.61 0 0 1-2 1 2.82 2.82 0 0 1-2.9-2.8v-.2a3 3 0 0 1 2.8-3.1 2.81 2.81 0 0 1 2.1 1v-2a3.84 3.84 0 0 0-2.1-.5 4.33 4.33 0 0 0-4.6 4.5zm20.3 1.5l-2.3-6H307l3.7 9.1h.9l3.7-9.1h-1.8l-2.4 6zm5 2.9h4.8v-1.5h-3.1V12h3v-1.5h-3v-2h3.1V7h-4.8v8.9zm11.5-6.3c0-1.7-1.1-2.6-3.1-2.6H322v8.9h1.7v-3.6h.2l2.3 3.6h2.1l-2.7-3.7a2.43 2.43 0 0 0 2-2.6zm-3.4 1.5h-.5V8.4h.5c1.1 0 1.6.5 1.6 1.3s-.5 1.4-1.6 1.4z"/>
        <path fill="#AAB7C4" fill-rule="nonzero" d="M302.7 6.9a4.59 4.59 0 0 0-4.6 4.6 4.74 4.74 0 0 0 4.6 4.7 4.61 4.61 0 0 0 4.7-4.6 4.76 4.76 0 0 0-4.7-4.7z" opacity=".5"/>
        <path fill="#AAB7C4" fill-rule="nonzero" d="M360.2 2a3.16 3.16 0 0 0-3.2 3.2v8a5 5 0 0 0 2.7.8 1.73 1.73 0 0 0 1.7-1.6V8h2.7v4.2c0 1.6-.9 3-3.8 3a16.48 16.48 0 0 1-3.2-.4V21h4.8a3.16 3.16 0 0 0 3.2-3.2V2h-4.9z"/>
        <path fill="#AAB7C4" fill-rule="nonzero" d="M369.2 2a3.16 3.16 0 0 0-3.2 3.2V9c.8-.8 2.2-1.3 4.5-1.2.841.077 1.677.21 2.5.4v1.5a6.81 6.81 0 0 0-2.4-.8 2.64 2.64 0 0 0-2.8 2.2 2.64 2.64 0 0 0 2.2 2.8h.5a6.19 6.19 0 0 0 2.4-.8v1.5a10.86 10.86 0 0 1-2.5.4c-2.3.1-3.7-.4-4.5-1.2v7h4.8a3.16 3.16 0 0 0 3.2-3.2V2h-4.7z" opacity=".75"/>
        <path fill="#AAB7C4" fill-rule="nonzero" d="M378.2 2a3.16 3.16 0 0 0-3.2 3.2V8h4.9a1.75 1.75 0 0 1 1.8 1.6v.1a1.65 1.65 0 0 1-1.5 1.7 2 2 0 0 1 1.9 1.8 1.88 1.88 0 0 1-1.9 1.8H375v6h4.7a3.16 3.16 0 0 0 3.2-3.2V2h-4.7zM377 13.9h2.3a1.15 1.15 0 0 0 .7-1.3 1.21 1.21 0 0 0-.7-.7H377v2zm2.8-4a1 1 0 0 0-.7-.9H377v1.8h2.1a1 1 0 0 0 .7-.9z" opacity=".5"/>
        <path fill="#AAB7C4" fill-rule="nonzero" d="M82.2 9a2 2 0 0 0-1.8.9 1.94 1.94 0 0 0-1.7-.9 1.66 1.66 0 0 0-1.5.7v-.6h-1.1V14h1.1v-2.7a1.26 1.26 0 0 1 1.3-1.3c.7 0 1.1.5 1.1 1.3V14h1.1v-2.7A1.26 1.26 0 0 1 82 10c.7 0 1.1.5 1.1 1.3V14h1.1v-3a1.89 1.89 0 0 0-2-2zm6.9.8a1.81 1.81 0 0 0-1.5-.7 2.42 2.42 0 0 0-2.4 2.6 2.48 2.48 0 0 0 2.4 2.6 1.81 1.81 0 0 0 1.5-.7v.4h1.1V9.1h-1.1v.7zm-1.4 3.4a1.5 1.5 0 0 1-1.5-1.6 1.5 1.5 0 0 1 3 0 1.5 1.5 0 0 1-1.5 1.6zm6.2-2.1l-.5-.1c-.4-.1-.8-.2-.8-.5s.3-.6.9-.6a3 3 0 0 1 1.5.4l.5-.8a3.94 3.94 0 0 0-2-.5c-1.2 0-2 .6-2 1.6 0 .8.6 1.3 1.6 1.4l.5.1c.6.1.8.3.8.5 0 .4-.4.6-1.1.6a2.17 2.17 0 0 1-1.6-.5l-.5.8a3.77 3.77 0 0 0 2.1.6c1.4 0 2.2-.7 2.2-1.6 0-.9-.5-1.2-1.6-1.4zm5.4 2.1a.82.82 0 0 1-.8-.9v-2.1h1.9v-1h-1.9V7.7h-1.1v1.5h-1v1h1v2.1c0 1.3.6 1.9 1.7 1.9a2.46 2.46 0 0 0 1.5-.5l-.4-.9a1.8 1.8 0 0 1-.9.4zm4.4-4.2a2.37 2.37 0 0 0-2.4 2.6 2.39 2.39 0 0 0 2.5 2.6 3.06 3.06 0 0 0 2-.7l-.5-.8a2.39 2.39 0 0 1-1.4.5 1.32 1.32 0 0 1-1.4-1.2h3.6v-.4a2.48 2.48 0 0 0-2.4-2.6zm-1.3 2.2a1.24 1.24 0 0 1 1.3-1.2c.667 0 1.067.4 1.2 1.2h-2.5zm5.9-1.5v-.6h-1.1V14h1.1v-2.7a1.18 1.18 0 0 1 1.2-1.3c.278.007.551.075.8.2l.3-1.1a2 2 0 0 0-.8-.1 1.58 1.58 0 0 0-1.5.7zm5 .3a1.84 1.84 0 0 1 1.2.5l.7-.7a2.34 2.34 0 0 0-1.8-.8 2.52 2.52 0 0 0-2.6 2.6 2.47 2.47 0 0 0 2.6 2.6 2.34 2.34 0 0 0 1.8-.8l-.7-.7a1.66 1.66 0 0 1-1.2.5 1.43 1.43 0 0 1-1.4-1.6 1.43 1.43 0 0 1 1.4-1.6zm6.4-.2a1.81 1.81 0 0 0-1.5-.7 2.42 2.42 0 0 0-2.4 2.6 2.48 2.48 0 0 0 2.4 2.6 1.81 1.81 0 0 0 1.5-.7v.4h1.1V9.1h-1.1v.7zm-1.4 3.4a1.5 1.5 0 0 1-1.5-1.6 1.5 1.5 0 0 1 3 0 1.5 1.5 0 0 1-1.5 1.6zm5.1-3.5v-.6h-1.1V14h1.1v-2.7a1.18 1.18 0 0 1 1.2-1.3c.278.007.551.075.8.2l.3-1.1a2 2 0 0 0-.8-.1 1.58 1.58 0 0 0-1.5.7zm6.4-3v3a1.81 1.81 0 0 0-1.5-.7 2.42 2.42 0 0 0-2.4 2.6 2.48 2.48 0 0 0 2.4 2.6 1.81 1.81 0 0 0 1.5-.7v.5h1.1V6.7h-1.1zm-1.4 6.5a1.5 1.5 0 0 1-1.5-1.6 1.5 1.5 0 0 1 3 0 1.5 1.5 0 0 1-1.5 1.6zm-72.2-1.6A7.6 7.6 0 0 1 59 5.7a7.55 7.55 0 0 0-4.6-1.6 7.34 7.34 0 0 0-7.4 7.5 7.41 7.41 0 0 0 12 6 8 8 0 0 1-2.8-6z"/>
        <path fill="#AAB7C4" fill-rule="nonzero" d="M63.6 4A7.55 7.55 0 0 0 59 5.6a7.62 7.62 0 0 1 0 11.8 7.55 7.55 0 0 0 4.6 1.6 7.5 7.5 0 0 0 0-15z" opacity=".5"/>
        <path fill="#AAB7C4" fill-rule="nonzero" d="M61.8 11.6A7.6 7.6 0 0 0 59 5.7c-1.7 1.4-3.8 3.5-3.8 5.9 0 2.4 2 4.5 3.8 5.9a7.6 7.6 0 0 0 2.8-5.9z" opacity=".75"/>
        <path fill="#A9B6C4" fill-rule="nonzero" d="M413.2 2h7.6a1.5 1.5 0 0 1 1.5 1.9l-3.5 15.2a2.46 2.46 0 0 1-2.4 1.9h-7.6a1.5 1.5 0 0 1-1.5-1.9L410.8 4a2.65 2.65 0 0 1 2.4-2"/>
        <path fill="#BCC6D2" fill-rule="nonzero" d="M420.2 2h8.7c1.1 0 .6.9.3 1.9l-3.5 15.2c-.2 1.1-.2 1.9-1.2 1.9h-8.7a1.5 1.5 0 0 1-1.5-1.9L417.8 4a2.65 2.65 0 0 1 2.4-2"/>
        <path fill="#CFD6DE" fill-rule="nonzero" d="M428.6 2h7.6a1.5 1.5 0 0 1 1.5 1.9l-3.5 15.2a2.46 2.46 0 0 1-2.4 1.9h-7.6a1.5 1.5 0 0 1-1.5-1.9L426.2 4a2.56 2.56 0 0 1 2.4-2"/>
        <path fill="#FFF" fill-rule="nonzero" d="M427.3 16.3h.7l.2-.7h-.7l-.2.7zm.6-1.9l-.2.8a1.42 1.42 0 0 0 .4-.2 2.27 2.27 0 0 0 .4-.1l.2-.6h-.8v.1zm.3-1.2l-.2.8a1.42 1.42 0 0 0 .4-.2 2.27 2.27 0 0 0 .4-.1l.2-.6h-.8v.1zm1.6 0l-.9 3.1h.2l-.2.6h-.2l-.1.2h-.9l.1-.2H426l.2-.6h.2l.9-3.1.2-.6h.9l-.1.3a.77.77 0 0 1 .5-.2 8.64 8.64 0 0 1 1.5-.1l-.2.6h-.3z"/>
        <path fill="#FFF" fill-rule="nonzero" d="M430.2 12.6h1v.4c0 .1 0 .1.2.1h.2l-.2.6h-.5c-.4 0-.6-.2-.6-.4l-.1-.7zM430.3 15.4h-.9l.2-.5h1l.1-.5h-1l.2-.6h2.9l-.2.6h-1l-.2.5h1l-.2.5h-1l-.2.2h.4l.1.7v.1h.3l-.2.6h-.5a.35.35 0 0 1-.2-.1c-.1 0-.1-.1-.2-.2l-.1-.7-.5.7a1 1 0 0 1-.7.4h-.7l.2-.6h.3c.1 0 .1 0 .2-.1a.1.1 0 0 0 .1-.1l.8-.9zM420.3 14h2.4l-.2.6h-1l-.1.5h1l-.2.6h-1l-.2.8c0 .1.2.1.3.1l.5-.1-.2.7h-1.4c-.1 0-.1-.1-.2-.1s-.1-.1-.1-.3l.3-1.1h-.5l.2-.6h.6l.1-.5h-.5l.2-.6zM421.9 12.9h1l-.2.6h-1.4l-.1.1c-.1.1-.1 0-.2.1s-.2.1-.4.1h-.4l.2-.6h.3a.35.35 0 0 0 .1-.2l.2-.5h1l-.1.4zM423.8 13.9a2.49 2.49 0 0 1 .7-.3h.8l.1-.3H424l-.2.6zm1.4.3h-1.4l-.1.3h1.4l.1-.3zm-1.8-1.6h.8l-.1.4s.3-.2.5-.3a1.76 1.76 0 0 1 .6-.1h1.4l-.5 1.6c-.1.3-.2.4-.2.5l-.2.2a.37.37 0 0 1-.3.1h-1.7l-.4 1.2c0 .1-.1.2 0 .2l.1.1.6-.1-.2.7h-1.3a.37.37 0 0 1-.3-.1c-.1-.1-.2-.1-.2-.2a.37.37 0 0 1 .1-.3l1.3-3.9z"/>
        <path fill="#FFF" fill-rule="nonzero" d="M425.8 15.1l-.1.4c0 .1-.1.2-.2.3a.59.59 0 0 1-.5.2h-.5v.5h.6l-.2.6h-.5c-.4 0-.6 0-.7-.1-.1-.1-.1-.1-.1-.2v-1.6h.8v.3h.3l.1-.1.1-.3h.9zM414.1 6.9c0 .1-.6 2.6-.6 2.6a1.88 1.88 0 0 1-.5 1.1 1.07 1.07 0 0 1-.6.2.63.63 0 0 1-.6-.5v-.1l.1-.7s.6-2.2.7-2.5h-1.3v.2l-.6 2.5v.2l-.1.7a.75.75 0 0 0 .1.5c.3.5 1 .5 1.4.5a3.19 3.19 0 0 0 1.4-.3c.6-.3.7-.9.9-1.4l.1-.2s.6-2.3.7-2.6a5.42 5.42 0 0 0-1.1-.2M417.2 11.5h-1c0-.2.1-.3.1-.5l.1-.2a8.14 8.14 0 0 0 .2-.9c0-.1 0-.3-.2-.3a.37.37 0 0 0-.3.1 3 3 0 0 0-.2 1 2.91 2.91 0 0 1-.2.8h-1a2.92 2.92 0 0 0 .2-.9c.2-.8.2-1.2.3-1.6.4-.1.5-.1 1-.2l-.1.3a.35.35 0 0 0 .2-.1 1.49 1.49 0 0 1 .6-.1.55.55 0 0 1 .5.3c.1.2 0 .5-.1 1l-.1.3c.1.326.1.674 0 1zM418.8 11.5h-1a.76.76 0 0 0 .1-.4c0-.1.1-.2.1-.4a2 2 0 0 0 .1-.7.9.9 0 0 1 .1-.5 4.33 4.33 0 0 0 .5-.1c.2 0 .3-.1.5-.1a4.33 4.33 0 0 1-.1.5 4.33 4.33 0 0 1-.1.5 2.14 2.14 0 0 0-.1.6 1.27 1.27 0 0 1-.1.6zM421.2 10.1a1.42 1.42 0 0 1-.2.6c-.1.1-.2.2-.3.2-.1 0-.2 0-.2-.3a.6.6 0 0 1 .1-.4c.1-.4.2-.8.5-.8s.2.3.1.7m1 0c.1-.6 0-.9-.1-1-.2-.3-.5-.3-.9-.3a1.48 1.48 0 0 0-1.1.4 1.91 1.91 0 0 0-.5 1c-.1.4-.2 1 .4 1.2.189.081.395.116.6.1.456.03.9-.155 1.2-.5a1.39 1.39 0 0 0 .4-.9M431.6 11.5h-1c.1-.4.2-.9.3-1.3.1-.394.166-.795.2-1.2l1.1-.2c-.1.4-.2.7-.3 1.1a11.61 11.61 0 0 1-.3 1.6z"/>
        <path fill="#FFF" fill-rule="nonzero" d="M430.9 10.2a1.42 1.42 0 0 1-.2.6.76.76 0 0 1-.4.2s-.2 0-.2-.3a.6.6 0 0 1 .1-.4c.1-.4.2-.8.5-.8s.3.2.2.7m.9 0c.1-.6-.4-.1-.5-.2-.1-.3 0-.9-.6-1.1a1.16 1.16 0 0 0-1.1.4 1.91 1.91 0 0 0-.5 1c-.1.4-.2 1 .4 1.2.156.072.328.107.5.1.6 0 1-.9 1.4-1.3.4-.4.4.1.4-.1M424.8 11.5h-1c0-.2.1-.3.1-.5l.1-.2a8.14 8.14 0 0 0 .2-.9c0-.1 0-.3-.2-.3a.37.37 0 0 0-.3.1 3 3 0 0 0-.2 1 2.91 2.91 0 0 1-.2.8h-1c.1-.3.1-.6.2-.9.2-.8.2-1.2.3-1.6.4-.1.5-.1 1-.2l-.1.3a.35.35 0 0 0 .2-.1 1.49 1.49 0 0 1 .6-.1.55.55 0 0 1 .5.3c.1.2 0 .5-.1 1l-.1.3c.2.4.2.5 0 1zM428.2 6.9h-1.6v.2l-.3 1.4s-.7 2.9-.7 3.1h1.1c0-.1.2-1 .2-1s.1-.6.2-.6a.1.1 0 0 1 .1-.1h.1a3.28 3.28 0 0 0 1.9-.4 1.85 1.85 0 0 0 .7-1.2c0-.1.1-.3.1-.4 0-.1 0-.4-.2-.5a1.84 1.84 0 0 0-1.6-.5m.4 1.4a1.28 1.28 0 0 1-.5.7 1.7 1.7 0 0 1-.7.1h-.2V9l.3-1.4v-.2h.1s.6.1.7.1c.2.218.307.505.3.8M435.3 8.8a3.75 3.75 0 0 1-1 .1c-.18.41-.38.81-.6 1.2V10l-.1-1.3-1 .2V9c.1.3 0 .2.1.7 0 .2.1.5.1.7 0 .4.1.6.1 1.1-.21.38-.444.748-.7 1.1h.9l.1-.1c.3-.4 2.1-3.7 2.1-3.7M419.2 9.1c.3-.2.3-.4.1-.5a.78.78 0 0 0-.8.1c-.3.2-.3.4-.1.5a.78.78 0 0 0 .8-.1M433.2 12.6l-.4.6a.72.72 0 0 1-.7.4h-.6l.2-.6h.2a.1.1 0 0 0 .1-.1l.2-.3h1z"/>
        <path fill="#CFD6DE" fill-rule="nonzero" d="M460.62 4.14a7.47 7.47 0 0 0-4.5 1.51 7.48 7.48 0 0 1 0 12 7.41 7.41 0 0 0 4.5 1.51 7.5 7.5 0 0 0 0-15v-.02z"/>
        <path fill="#BCC6D2" fill-rule="nonzero" d="M459.12 11.64a7.48 7.48 0 0 0-3-6c-1.82 1.4-4 3.55-4 6s2.18 4.63 4 6a7.45 7.45 0 0 0 3-6z"/>
        <path fill="#A9B6C4" fill-rule="nonzero" d="M481.2 13.94v-3.13a1.86 1.86 0 0 0-2-2 1.94 1.94 0 0 0-1.76.89 1.84 1.84 0 0 0-1.65-.89 1.65 1.65 0 0 0-1.46.74v-.6h-1.09v5h1.1v-2.78a1.17 1.17 0 0 1 1.22-1.33c.72 0 1.09.47 1.09 1.32v2.78h1.1v-2.77A1.18 1.18 0 0 1 479 9.85c.74 0 1.1.47 1.1 1.32v2.78l1.1-.01zm6.13-2.5V8.95h-1.09v.61a1.9 1.9 0 0 0-1.58-.73 2.5 2.5 0 0 0-2.5 2.62 2.5 2.5 0 0 0 2.5 2.62 1.9 1.9 0 0 0 1.58-.73v.61h1.09v-2.51zm-4 0a1.51 1.51 0 1 1 3 0 1.51 1.51 0 1 1-3 0zm27.32-2.63a2.82 2.82 0 0 1 1.07.2c.316.126.605.313.85.55.24.237.43.519.56.83a2.78 2.78 0 0 1 0 2.09 2.53 2.53 0 0 1-.56.83 2.61 2.61 0 0 1-.85.55 3 3 0 0 1-2.15 0 2.59 2.59 0 0 1-.85-.55 2.56 2.56 0 0 1-.56-.83 2.78 2.78 0 0 1 0-2.09c.13-.31.32-.593.56-.83a2.59 2.59 0 0 1 .85-.55 2.82 2.82 0 0 1 1.02-.19l.06-.01zm0 1a1.62 1.62 0 0 0-.65.19 1.47 1.47 0 0 0-.83.84 1.82 1.82 0 0 0 0 1.3 1.47 1.47 0 0 0 .83.84 1.7 1.7 0 0 0 1.24 0 1.5 1.5 0 0 0 .5-.33 1.52 1.52 0 0 0 .33-.51 1.82 1.82 0 0 0 0-1.3 1.52 1.52 0 0 0-.33-.51 1.5 1.5 0 0 0-.5-.33 1.62 1.62 0 0 0-.65-.16l.06-.03zm-17.35 1.6a2.4 2.4 0 0 0-2.37-2.62 2.44 2.44 0 0 0-2.49 2.62 2.46 2.46 0 0 0 2.56 2.62 3 3 0 0 0 2-.7l-.53-.81a2.38 2.38 0 0 1-1.45.52 1.39 1.39 0 0 1-1.5-1.22h3.71c0-.09.01-.23.01-.37l.06-.04zm-3.78-.41a1.29 1.29 0 0 1 1.33-1.21 1.24 1.24 0 0 1 1.26 1.21h-2.59zm8.77-1.66a3.74 3.74 0 0 0-2-.52c-1.27 0-2.08.61-2.08 1.6 0 .82.61 1.32 1.73 1.47l.51.07c.6.08.88.24.88.52s-.4.61-1.14.61a2.66 2.66 0 0 1-1.66-.52l-.51.85a3.61 3.61 0 0 0 2.16.65c1.44 0 2.28-.68 2.28-1.63 0-.95-.66-1.34-1.75-1.5l-.51-.07c-.47-.06-.85-.16-.85-.49 0-.33.36-.59 1-.59a3.22 3.22 0 0 1 1.56.43l.38-.88zm4.75-.4h-1.78V7.43h-1.1v1.52h-1v1h1v2.28c0 1.16.45 1.85 1.74 1.85a2.55 2.55 0 0 0 1.36-.39l-.31-.93a2 2 0 0 1-1 .28c-.54 0-.72-.33-.72-.84V9.94H503l.04-1zm3.76-.13a1.47 1.47 0 0 0-1.32.73v-.59h-1.08v5h1.09v-2.8c0-.83.36-1.29 1.07-1.29a1.77 1.77 0 0 1 .68.13l.33-1a2.32 2.32 0 0 0-.77-.14v-.04zM453.12 11.64a7.48 7.48 0 0 1 3-6 7.5 7.5 0 1 0 0 12 7.45 7.45 0 0 1-3-6z"/>
        <path d="M-1-1h514.29v25H-1z"/>
    </g>
</svg>
