<?xml version="1.0" encoding="UTF-8"?>
<svg width="225px" height="221px" viewBox="0 0 225 221" version="1.1" preserveAspectRatio="none" xmlns="http://www.w3.org/2000/svg" xmlns:xlink="http://www.w3.org/1999/xlink">
    <!-- Generator: Sketch 62 (91390) - https://sketch.com -->
    <title>circle-top</title>
    <desc>Created with Sketch.</desc>
    <defs>
        <linearGradient x1="22.9237858%" y1="91.0176236%" x2="78.8680225%" y2="10.8015918%" id="linearGradient-1">
            <stop stop-color="#0180F5" offset="0%"></stop>
            <stop stop-color="#000561" offset="100%"></stop>
        </linearGradient>
        <linearGradient x1="72.465161%" y1="-6.48574169%" x2="21.5281115%" y2="105.395375%" id="linearGradient-2">
            <stop stop-color="#0080F5" offset="0%"></stop>
            <stop stop-color="#0180F5" offset="100%"></stop>
        </linearGradient>
        <linearGradient x1="0%" y1="49.9985083%" x2="100%" y2="49.9985083%" id="linearGradient-3">
            <stop stop-color="#006FD4" offset="0%"></stop>
            <stop stop-color="#000675" offset="100%"></stop>
        </linearGradient>
        <linearGradient x1="47.9410749%" y1="-120.810311%" x2="51.1006832%" y2="227.189689%" id="linearGradient-4">
            <stop stop-color="#006FD4" offset="0%"></stop>
            <stop stop-color="#000675" offset="100%"></stop>
        </linearGradient>
        <linearGradient x1="18.4867395%" y1="61.5004371%" x2="244.669787%" y2="-21.0337597%" id="linearGradient-5">
            <stop stop-color="#0080F5" offset="0%"></stop>
            <stop stop-color="#000561" offset="100%"></stop>
        </linearGradient>
        <linearGradient x1="70.9027089%" y1="223.593466%" x2="42.3447222%" y2="-13.5208711%" id="linearGradient-6">
            <stop stop-color="#0080F5" offset="0%"></stop>
            <stop stop-color="#000561" offset="100%"></stop>
        </linearGradient>
        <linearGradient x1="22.4787033%" y1="119.114057%" x2="136.124791%" y2="-184.897105%" id="linearGradient-7">
            <stop stop-color="#006FD4" offset="0%"></stop>
            <stop stop-color="#000675" offset="100%"></stop>
        </linearGradient>
        <linearGradient x1="26.681157%" y1="236.872111%" x2="75.9700618%" y2="-150.832049%" id="linearGradient-8">
            <stop stop-color="#006FD4" offset="0%"></stop>
            <stop stop-color="#000675" offset="100%"></stop>
        </linearGradient>
        <linearGradient x1="44.8100093%" y1="82.8164551%" x2="61.6311399%" y2="34.4035191%" id="linearGradient-9">
            <stop stop-color="#022089" offset="0%"></stop>
            <stop stop-color="#000675" offset="100%"></stop>
        </linearGradient>
        <linearGradient x1="49.1359148%" y1="89.0958246%" x2="55.9992198%" y2="55.3018925%" id="linearGradient-10">
            <stop stop-color="#0063C9" offset="0%"></stop>
            <stop stop-color="#0166CB" offset="100%"></stop>
        </linearGradient>
        <linearGradient x1="34.7788563%" y1="47.2965494%" x2="410.778856%" y2="157.074475%" id="linearGradient-11">
            <stop stop-color="#006FD4" offset="0%"></stop>
            <stop stop-color="#000675" offset="100%"></stop>
        </linearGradient>
        <linearGradient x1="16.3424125%" y1="98.767347%" x2="147.301641%" y2="-89.366822%" id="linearGradient-12">
            <stop stop-color="#0080F5" offset="0%"></stop>
            <stop stop-color="#000561" offset="100%"></stop>
        </linearGradient>
        <linearGradient x1="25.2611899%" y1="248.066759%" x2="70.8269096%" y2="-116.926287%" id="linearGradient-13">
            <stop stop-color="#0080F5" offset="0%"></stop>
            <stop stop-color="#000561" offset="100%"></stop>
        </linearGradient>
        <linearGradient x1="38.8491484%" y1="48.8189179%" x2="348.849148%" y2="55.0633788%" id="linearGradient-14">
            <stop stop-color="#0080F5" offset="0%"></stop>
            <stop stop-color="#000561" offset="100%"></stop>
        </linearGradient>
        <linearGradient x1="51.8791452%" y1="31.2223961%" x2="43.0361091%" y2="95.1398871%" id="linearGradient-15">
            <stop stop-color="#022587" offset="0%"></stop>
            <stop stop-color="#012183" offset="100%"></stop>
        </linearGradient>
        <linearGradient x1="41.1964247%" y1="36.4266667%" x2="565.097659%" y2="1083.00778%" id="linearGradient-16">
            <stop stop-color="#006FD4" offset="0%"></stop>
            <stop stop-color="#000675" offset="100%"></stop>
        </linearGradient>
        <linearGradient x1="-43.0447389%" y1="279.261226%" x2="263.413814%" y2="-463.785611%" id="linearGradient-17">
            <stop stop-color="#006FD4" offset="0%"></stop>
            <stop stop-color="#000675" offset="100%"></stop>
        </linearGradient>
        <linearGradient x1="-76.2866105%" y1="296.818082%" x2="208.677708%" y2="-260.280887%" id="linearGradient-18">
            <stop stop-color="#0080F5" offset="0%"></stop>
            <stop stop-color="#000561" offset="100%"></stop>
        </linearGradient>
        <linearGradient x1="33.5809245%" y1="93.3040331%" x2="190.552213%" y2="-354.912099%" id="linearGradient-19">
            <stop stop-color="#006FD4" offset="0%"></stop>
            <stop stop-color="#000675" offset="100%"></stop>
        </linearGradient>
        <linearGradient x1="1.11284993%" y1="342.931319%" x2="97.2569041%" y2="-237.738966%" id="linearGradient-20">
            <stop stop-color="#006FD4" offset="0%"></stop>
            <stop stop-color="#000675" offset="100%"></stop>
        </linearGradient>
        <linearGradient x1="-56.0098538%" y1="739.215231%" x2="92.8931163%" y2="-232.644532%" id="linearGradient-21">
            <stop stop-color="#0080F5" offset="0%"></stop>
            <stop stop-color="#000561" offset="100%"></stop>
        </linearGradient>
        <linearGradient x1="29.5580633%" y1="47.8210674%" x2="806.558063%" y2="207.110984%" id="linearGradient-22">
            <stop stop-color="#0080F5" offset="0%"></stop>
            <stop stop-color="#000561" offset="100%"></stop>
        </linearGradient>
        <linearGradient x1="-25.6197183%" y1="30.9696831%" x2="429.893726%" y2="154.465579%" id="linearGradient-23">
            <stop stop-color="#0080F5" offset="0%"></stop>
            <stop stop-color="#000561" offset="100%"></stop>
        </linearGradient>
        <linearGradient x1="21.3155747%" y1="37.9929271%" x2="89.8328499%" y2="62.1569146%" id="linearGradient-24">
            <stop stop-color="#D3DDF3" stop-opacity="0" offset="0%"></stop>
            <stop stop-color="#4CEAF5" offset="100%"></stop>
        </linearGradient>
        <radialGradient cx="50%" cy="50%" fx="50%" fy="50%" r="50%" id="radialGradient-25">
            <stop stop-color="#4CEAF5" offset="0%"></stop>
            <stop stop-color="#FFFFFF" stop-opacity="0" offset="100%"></stop>
        </radialGradient>
        <linearGradient x1="21.3828872%" y1="37.9725864%" x2="89.8983321%" y2="62.150995%" id="linearGradient-26">
            <stop stop-color="#D3DDF3" stop-opacity="0" offset="0%"></stop>
            <stop stop-color="#4CEAF5" offset="100%"></stop>
        </linearGradient>
        <radialGradient cx="50.0109498%" cy="50.0091248%" fx="50.0109498%" fy="50.0091248%" r="49.9986121%" gradientTransform="translate(0.500109,0.500091),scale(1.000000,0.999979),translate(-0.500109,-0.500091)" id="radialGradient-27">
            <stop stop-color="#4CEAF5" offset="0%"></stop>
            <stop stop-color="#FFFFFF" stop-opacity="0" offset="100%"></stop>
        </radialGradient>
        <linearGradient x1="21.3470677%" y1="37.9700032%" x2="89.8338694%" y2="62.1452523%" id="linearGradient-28">
            <stop stop-color="#D3DDF3" stop-opacity="0" offset="0%"></stop>
            <stop stop-color="#4CEAF5" offset="100%"></stop>
        </linearGradient>
        <radialGradient cx="50.6988659%" cy="50.0300762%" fx="50.6988659%" fy="50.0300762%" r="49.9864357%" id="radialGradient-29">
            <stop stop-color="#4CEAF5" offset="0%"></stop>
            <stop stop-color="#FFFFFF" stop-opacity="0" offset="100%"></stop>
        </radialGradient>
        <linearGradient x1="16.9827365%" y1="66.5471741%" x2="95.1897161%" y2="34.027184%" id="linearGradient-30">
            <stop stop-color="#FFFFFF" stop-opacity="0" offset="0%"></stop>
            <stop stop-color="#4CEAF5" offset="100%"></stop>
        </linearGradient>
        <radialGradient cx="49.973622%" cy="50.026378%" fx="49.973622%" fy="50.026378%" r="49.9736154%" id="radialGradient-31">
            <stop stop-color="#4CEAF5" offset="0%"></stop>
            <stop stop-color="#FFFFFF" stop-opacity="0" offset="100%"></stop>
        </radialGradient>
    </defs>
    <g id="DWo" stroke="none" stroke-width="1" fill="none" fill-rule="evenodd">
        <g id="New-/-features" transform="translate(-265.000000, -3271.000000)" fill-rule="nonzero">
            <g id="circle-top" transform="translate(262.000000, 3271.000000)">
                <path d="M53.6,41.69 L47.49,42.45 L51,38.94 L42.4,43.81 L41.56,46.7 L43.62,45.89 C41.5535687,48.2708101 39.7373558,50.8577406 38.2,53.61 C40.978749,54.2433808 43.6665947,55.2244445 46.2,56.53 C47.8791742,51.2283028 50.3759156,46.2213241 53.6,41.69 L53.6,41.69 Z" id="Path" fill="url(#linearGradient-1)"></path>
                <path d="M63,37.17 C54.37,40.17 47.25,46.17 42.19,54.78 C44.3173959,55.5508479 46.3638959,56.5288806 48.3,57.7 C51.6,48.86 56.62,41.93 63,37.17 Z" id="Path" fill="url(#linearGradient-2)"></path>
                <path d="M112.09,42.29 C79.61,23.54 51.58,29.39 38.6,53.71 C39.8053487,54.0012675 40.9938028,54.3584714 42.16,54.78 C55.1,32.78 81.56,27.92 112.1,45.55 C155.38,70.55 190.46,131.31 190.46,181.29 C190.46,196.74 187.11,209.35 181.19,218.66 C182.67,218.49 184.14,218.36 185.61,218.28 C190.52,209.04 193.28,197.13 193.28,182.89 C193.28,131.11 156.93,68.18 112.09,42.29 Z" id="Path" fill="url(#linearGradient-3)"></path>
                <polygon id="Path" fill="url(#linearGradient-4)" points="77.82 24.98 59.31 35.69 46.1 10.72 64.6 0"></polygon>
                <polygon id="Path" fill="url(#linearGradient-5)" points="226.79 171.84 206.84 161.82 188.33 172.53 208.29 182.54"></polygon>
                <polygon id="Path" fill="url(#linearGradient-6)" points="140.61 20.62 122.1 31.33 120.83 53.68 139.34 42.97"></polygon>
                <path d="M160.69,91.54 L171.29,84.15 C158.17,64.51 142.29,47.15 124.89,34.2 L123.89,51.86 C137.62,62.31 150.18,76.06 160.69,91.54 Z" id="Path" fill="url(#linearGradient-7)"></path>
                <path d="M207.19,178.62 C205.04,157.28 198.27,134.91 188.14,113.72 L175.91,118.19 C184.04,135.38 189.52,153.46 191.42,170.79 L207.19,178.62 Z" id="Path" fill="url(#linearGradient-8)"></path>
                <path d="M204.86,219.14 C205.54,216.48 206.13,213.72 206.58,210.83 L190.46,202.15 C189.372867,207.760329 187.536419,213.19904 185,218.32 C191.63115,217.986109 198.278946,218.26059 204.86,219.14 L204.86,219.14 Z" id="Path" fill="url(#linearGradient-9)"></path>
                <path d="M41.42,46.73 L37,21.91 C27.62,29.28 20.7,40.55 17,55.2 C23.7176295,52.6426523 31.0316968,52.0835047 38.06,53.59 C39.8100701,50.4520271 41.9247247,47.5317898 44.36,44.89 L41.42,46.73 Z" id="Path" fill="url(#linearGradient-10)"></path>
                <path d="M99.47,19.16 C81.78,11.37 65.56,9.92 52.08,14 L62.15,33.87 C72.85,30.74 85.57,31.77 99.44,37.5 L99.47,19.16 Z" id="Path" fill="url(#linearGradient-11)"></path>
                <path d="M171.29,84.15 L184,77.4 C170.86,57.59 154.86,40 137.35,27 L124.89,34.2 C142.28,47.12 158.17,64.51 171.29,84.15 Z" id="Path" fill="url(#linearGradient-12)"></path>
                <path d="M219.64,171.57 C217.51,150.28 210.77,127.93 200.69,106.77 L188.14,113.77 C198.27,134.96 205.04,157.34 207.19,178.67 L219.64,171.57 Z" id="Path" fill="url(#linearGradient-13)"></path>
                <path d="M64.25,6.93 L52.11,14 C65.56,9.88 81.78,11.33 99.5,19.12 L113.76,12.74 C95.21,4.21 78.21,2.55 64.25,6.93 Z" id="Path" fill="url(#linearGradient-14)"></path>
                <path d="M218.44,206.9 L206.58,210.84 C206.13,213.72 205.58,216.48 204.87,219.14 C208.11,219.53 211.35,219.99 214.61,220.46 C216.275784,216.05906 217.55724,211.522104 218.44,206.9 L218.44,206.9 Z" id="Path" fill="url(#linearGradient-15)"></path>
                <path d="M59.31,35.69 L46.1,10.69 C38.6432936,13.0343859 31.8663108,17.1520463 26.35,22.69 L41.42,46.69 C46.2653433,41.4564977 52.4530378,37.6518784 59.31,35.69 L59.31,35.69 Z" id="Path" fill="url(#linearGradient-16)"></path>
                <path d="M189.55,117 C183.921716,104.878988 177.320096,93.2341835 169.81,82.18 L156.63,91.89 C163.54026,101.891751 169.518633,112.506208 174.49,123.6 L189.55,117 Z" id="Path" fill="url(#linearGradient-17)"></path>
                <path d="M208.05,106.25 C202.419104,94.132314 195.821094,82.4879789 188.32,71.43 L169.81,82.13 C177.322451,93.2001994 183.924119,104.861809 189.55,117 L208.05,106.25 Z" id="Path" fill="url(#linearGradient-18)"></path>
                <path d="M108,45.06 C112.469582,47.6608206 116.771385,50.5398223 120.88,53.68 L122.15,31.33 C117.611987,27.9571689 112.88786,24.8422495 108,22 C103.422593,19.3628511 98.6793515,17.0246337 93.8,15 L95.07,38.82 C99.5294106,40.5750335 103.851444,42.6608406 108,45.06 L108,45.06 Z" id="Path" fill="url(#linearGradient-19)"></path>
                <path d="M207.77,214.88 C208.643265,208.960403 209.071133,202.983626 209.05,197 C209.05,192.27 208.77,187.4 208.29,182.51 L188.29,172.51 C188.781256,176.826247 189.0383,181.165941 189.06,185.51 C189.082549,190.969269 188.627481,196.420046 187.7,201.8 L207.77,214.88 Z" id="Path" fill="url(#linearGradient-20)"></path>
                <path d="M226.27,204.21 C227.149215,198.301011 227.580444,192.334007 227.56,186.36 C227.56,181.61 227.27,176.74 226.79,171.84 L208.29,182.54 C208.77,187.44 209.05,192.29 209.05,197.06 C209.06881,203.033586 208.640951,209.000218 207.77,214.91 L226.27,204.21 Z" id="Path" fill="url(#linearGradient-21)"></path>
                <path d="M46.1,10.72 L64.6,0 C60.6815326,1.23649454 56.9351498,2.96352662 53.45,5.14 L37.13,14.57 C39.9794442,12.9812009 42.9853995,11.6910194 46.1,10.72 L46.1,10.72 Z" id="Path" fill="url(#linearGradient-22)"></path>
                <path d="M126.46,11.12 C121.894206,8.4869021 117.164535,6.14878773 112.3,4.12 L93.8,15 C98.6793515,17.0246337 103.422593,19.3628511 108,22 C112.887618,24.8390067 117.61174,27.9505842 122.15,31.32 L140.66,20.62 C136.124152,17.1889113 131.400122,14.0139621 126.51,11.11 L126.46,11.12 Z" id="Path" fill="url(#linearGradient-23)"></path>
                <path d="M176.94,111.56 C179.94,109.83 179.94,104.25 176.94,99.06 C173.94,93.87 169.1,91.06 166.11,92.82 C163.12,94.58 163.11,100.14 166.11,105.31 C169.11,110.48 174,113.29 176.94,111.56 Z" id="Path" fill="#4CEAF5" opacity="0.3"></path>
                <path d="M176.35,110.56 C179.01,109.02 179.01,104.03 176.35,99.42 C173.69,94.81 169.35,92.31 166.7,93.85 C164.05,95.39 164.04,100.37 166.7,104.99 C169.36,109.61 173.69,112.1 176.35,110.56 Z" id="Path" fill="#4CEAF5" opacity="0.5"></path>
                <path d="M175.9,109.77 C178.34,108.36 178.31,103.86 175.9,99.68 C173.49,95.5 169.57,93.23 167.15,94.63 C164.73,96.03 164.74,100.55 167.15,104.73 C169.56,108.91 173.45,111.17 175.9,109.77 Z" id="Path" fill="#4CEAF5"></path>
                <path d="M175.41,108.94 C177.56,107.69 177.56,103.65 175.41,99.94 C173.26,96.23 169.78,94.21 167.63,95.44 C165.48,96.67 165.49,100.71 167.63,104.44 C169.77,108.17 173.27,110.19 175.41,108.94 Z" id="Path" fill="#D4FFFF"></path>
                <path d="M175.86,109.77 L175.93,109.77 L176.25,109.57 C178.3,107.93 178.2,103.65 175.9,99.68 C173.48,95.5 169.57,93.23 167.15,94.63 L166.92,94.79 L128.92,116.03 L142,128.62 L175.86,109.77 Z" id="Path" fill="url(#linearGradient-24)" opacity="0.3"></path>
                <circle id="Oval" fill="url(#radialGradient-25)" cx="171.2" cy="102.89" r="19.48"></circle>
                <path d="M112.64,30.23 C109.64,25.05 104.81,22.23 101.82,23.98 C98.83,25.73 98.82,31.3 101.82,36.48 C104.82,41.66 109.65,44.48 112.64,42.73 C115.63,40.98 115.63,35.4 112.64,30.23 Z" id="Path" fill="#4CEAF5" opacity="0.3"></path>
                <path d="M112.05,30.57 C109.39,25.99 105.05,23.46 102.41,25 C99.77,26.54 99.75,31.53 102.41,36.14 C105.07,40.75 109.41,43.25 112.05,41.71 C114.69,40.17 114.72,35.18 112.05,30.57 Z" id="Path" fill="#4CEAF5" opacity="0.5"></path>
                <path d="M111.6,30.83 C109.19,26.64 105.27,24.39 102.86,25.83 C100.45,27.27 100.44,31.75 102.86,35.93 C105.28,40.11 109.19,42.37 111.6,40.93 C114.01,39.49 114,35 111.6,30.83 Z" id="Path" fill="#4CEAF5"></path>
                <path d="M111.12,31.11 C108.97,27.39 105.49,25.38 103.34,26.61 C101.19,27.84 101.19,31.88 103.34,35.61 C105.49,39.34 108.97,41.35 111.12,40.11 C113.27,38.87 113.27,34.86 111.12,31.11 Z" id="Path" fill="#D4FFFF"></path>
                <path d="M111.54,41 L111.54,41 L111.86,40.81 C113.97,39.1 113.86,34.81 111.56,30.81 C109.15,26.62 105.23,24.37 102.82,25.81 L102.59,25.97 L64.59,47.2 L77.71,59.78 L111.54,41 Z" id="Path" fill="url(#linearGradient-26)" opacity="0.3"></path>
                <path d="M114.37,52 C122.294484,48.7126025 127.135323,40.6277792 126.291173,32.0901072 C125.447023,23.5524353 119.116643,16.57215 110.701819,14.9002781 C102.286994,13.2284061 93.769034,17.2585976 89.7252726,24.8251309 C85.6815112,32.3916641 87.0640711,41.712963 93.13,47.78 C98.7038727,53.354891 107.088334,55.0207303 114.37,52 Z" id="Path" fill="url(#radialGradient-27)"></path>
                <path d="M48,26 C45,20.83 40.16,18 37.18,19.76 C34.2,21.52 34.18,27.08 37.18,32.26 C40.18,37.44 45.01,40.26 48,38.5 C50.99,36.74 51,31.21 48,26 Z" id="Path" fill="#4CEAF5" opacity="0.3"></path>
                <path d="M47.45,26.38 C44.79,21.79 40.45,19.27 37.8,20.81 C35.15,22.35 35.14,27.33 37.8,31.94 C40.46,36.55 44.8,39.05 47.45,37.51 C50.1,35.97 50.12,31 47.45,26.38 Z" id="Path" fill="#4CEAF5" opacity="0.5"></path>
                <path d="M47,26.64 C44.58,22.45 40.67,20.19 38.25,21.58 C35.83,22.97 35.84,27.5 38.25,31.68 C40.66,35.86 44.58,38.12 47,36.68 C49.42,35.24 49.41,30.82 47,26.64 Z" id="Path" fill="#4CEAF5"></path>
                <path d="M46.52,26.91 C44.37,23.19 40.88,21.18 38.74,22.42 C36.6,23.66 36.59,27.68 38.74,31.42 C40.89,35.16 44.37,37.15 46.52,35.91 C48.67,34.67 48.66,30.63 46.52,26.91 Z" id="Path" fill="#D4FFFF"></path>
                <path d="M47,36.75 L47,36.75 L47.32,36.57 C49.4,34.86 49.32,30.57 46.99,26.64 C44.57,22.45 40.66,20.19 38.24,21.58 L38.02,21.75 L0,43 L13.1,55.6 L47,36.75 Z" id="Path" fill="url(#linearGradient-28)" opacity="0.3"></path>
                <path d="M61.7800026,29.8 C61.7840445,37.6807431 57.0393779,44.7875588 49.7592938,47.8052572 C42.4792097,50.8229556 34.0980901,49.1569651 28.5255625,43.5844375 C22.9530349,38.0119099 21.2870444,29.6307903 24.3047428,22.3507062 C27.3224412,15.0706221 34.4292569,10.3259555 42.31,10.3299974 C53.0606979,10.3355174 61.7744826,19.0493021 61.7800026,29.8 Z" id="Path" fill="url(#radialGradient-29)"></path>
                <path d="M203.89,201.75 C206.89,200.03 206.89,194.45 203.89,189.26 C200.89,184.07 196.05,181.26 193.06,183 C190.07,184.74 190.06,190.33 193.06,195.5 C196.06,200.67 200.9,203.47 203.89,201.75 Z" id="Path" fill="#4CEAF5" opacity="0.3"></path>
                <path d="M203.3,200.74 C205.96,199.21 205.96,194.22 203.3,189.61 C200.64,185 196.3,182.5 193.65,184.04 C191,185.58 190.99,190.56 193.65,195.18 C196.31,199.8 200.64,202.28 203.3,200.74 Z" id="Path" fill="#4CEAF5" opacity="0.5"></path>
                <path d="M202.85,200 C205.25,198.61 205.26,194.09 202.85,189.91 C200.44,185.73 196.52,183.46 194.1,184.86 C191.68,186.26 191.69,190.77 194.1,194.96 C196.51,199.15 200.44,201.36 202.85,200 Z" id="Path" fill="#4CEAF5"></path>
                <path d="M202.36,199.13 C204.51,197.89 204.52,193.84 202.36,190.13 C200.2,186.42 196.74,184.4 194.58,185.65 C192.42,186.9 192.44,190.9 194.58,194.65 C196.72,198.4 200.22,200.37 202.36,199.13 Z" id="Path" fill="#D4FFFF"></path>
                <path d="M202.82,200 L203.14,199.81 C205.25,198.15 205.14,193.88 202.85,189.91 C200.44,185.73 196.52,183.46 194.1,184.86 L193.87,185.02 L155.87,206.26 L169,218.81 L202.82,200 Z" id="Path" fill="url(#linearGradient-30)" opacity="0.3"></path>
                <path d="M198.15,212.560003 C206.034788,212.564045 213.14525,207.816941 216.164496,200.533121 C219.183742,193.2493 217.516896,184.863879 211.941509,179.288491 C206.366121,173.713104 197.9807,172.046258 190.696879,175.065504 C183.413059,178.08475 178.665955,185.195212 178.669997,193.08 C178.675517,203.836221 187.393779,212.554483 198.15,212.560003 L198.15,212.560003 Z" id="Path" fill="url(#radialGradient-31)"></path>
            </g>
        </g>
    </g>
</svg>
