<svg xmlns="http://www.w3.org/2000/svg" width="583" height="453" viewBox="0 0 583 453" preserveAspectRatio="none" >
    <defs>
        <linearGradient id="a" x1="4.528%" x2="117.374%" y1="176.799%" y2="-137.764%">
            <stop offset="0%" stop-color="#0080F5"/>
            <stop offset="100%" stop-color="#000561"/>
        </linearGradient>
        <linearGradient id="b" x1="29.559%" x2="43.564%" y1="18.093%" y2="56.692%">
            <stop offset="0%" stop-color="#006FD4"/>
            <stop offset="100%" stop-color="#000675"/>
        </linearGradient>
        <linearGradient id="c" x1="-134.297%" x2="132.482%" y1="590.884%" y2="-231.258%">
            <stop offset="0%" stop-color="#0B66B9"/>
            <stop offset="100%" stop-color="#000675"/>
        </linearGradient>
        <linearGradient id="d" x1="-396.243%" x2="205.067%" y1="1139.069%" y2="-324.615%">
            <stop offset="0%" stop-color="#0080F5"/>
            <stop offset="100%" stop-color="#000561"/>
        </linearGradient>
        <linearGradient id="e" x1="-305.67%" x2="312.502%" y1="-565.661%" y2="510.339%">
            <stop offset="0%" stop-color="#006FD4"/>
            <stop offset="100%" stop-color="#000675"/>
        </linearGradient>
        <linearGradient id="f" x1="37.765%" x2="339.851%" y1="49.464%" y2="62.575%">
            <stop offset="0%" stop-color="#0080F5"/>
            <stop offset="100%" stop-color="#000561"/>
        </linearGradient>
        <linearGradient id="g" x1="38.33%" x2="87.448%" y1="139.418%" y2="-253.492%">
            <stop offset="0%" stop-color="#006FD4"/>
            <stop offset="100%" stop-color="#000675"/>
        </linearGradient>
        <linearGradient id="h" x1="-8.832%" x2="114.492%" y1="202.992%" y2="-107.36%">
            <stop offset="0%" stop-color="#006FD4"/>
            <stop offset="100%" stop-color="#000675"/>
        </linearGradient>
        <linearGradient id="i" x1="24.525%" x2="225.098%" y1="56.017%" y2="8.59%">
            <stop offset="0%" stop-color="#0080F5"/>
            <stop offset="100%" stop-color="#000561"/>
        </linearGradient>
        <linearGradient id="j" x1="58.178%" x2="58.178%" y1="-122.456%" y2="110.544%">
            <stop offset="0%" stop-color="#0080F5"/>
            <stop offset="100%" stop-color="#000561"/>
        </linearGradient>
        <linearGradient id="k" x1="60.412%" x2="36.236%" y1="25.528%" y2="89.475%">
            <stop offset="0%" stop-color="#0080F5"/>
            <stop offset="100%" stop-color="#000561"/>
        </linearGradient>
        <linearGradient id="l" x1="59.993%" x2="37.236%" y1="23.37%" y2="90.57%">
            <stop offset="0%" stop-color="#0080F5"/>
            <stop offset="100%" stop-color="#000561"/>
        </linearGradient>
        <linearGradient id="m" x1="0%" y1="49.981%" y2="49.981%">
            <stop offset="0%" stop-color="#006FD4"/>
            <stop offset="100%" stop-color="#000675"/>
        </linearGradient>
        <linearGradient id="n" x1="-225.216%" x2="197.483%" y1="-60.902%" y2="104.957%">
            <stop offset="0%" stop-color="#006FD4"/>
            <stop offset="100%" stop-color="#000675"/>
        </linearGradient>
        <linearGradient id="o" x1="36.085%" x2="213.093%" y1="73.73%" y2="-583.107%">
            <stop offset="0%" stop-color="#006FD4"/>
            <stop offset="100%" stop-color="#000675"/>
        </linearGradient>
        <linearGradient id="p" x1="42.431%" x2="133.355%" y1="99.791%" y2="-464%">
            <stop offset="0%" stop-color="#006FD4"/>
            <stop offset="100%" stop-color="#000675"/>
        </linearGradient>
        <linearGradient id="q" x1="-67.896%" x2="182.998%" y1="-426.226%" y2="548.53%">
            <stop offset="0%" stop-color="#006FD4"/>
            <stop offset="100%" stop-color="#000675"/>
        </linearGradient>
        <linearGradient id="r" x1="-42.414%" x2="276.811%" y1="258.826%" y2="-476.138%">
            <stop offset="0%" stop-color="#006FD4"/>
            <stop offset="100%" stop-color="#000675"/>
        </linearGradient>
        <linearGradient id="s" x1="21.367%" x2="89.832%" y1="38.007%" y2="62.155%">
            <stop offset="0%" stop-color="#D3DDF3" stop-opacity="0"/>
            <stop offset="100%" stop-color="#4CEAF5"/>
        </linearGradient>
        <radialGradient id="t" cx="49.999%" cy="49.997%" r="49.962%" fx="49.999%" fy="49.997%">
            <stop offset="0%" stop-color="#4CEAF5"/>
            <stop offset="99.929%" stop-color="#FFF" stop-opacity="0"/>
        </radialGradient>
        <linearGradient id="u" x1="21.332%" x2="89.881%" y1="37.937%" y2="62.15%">
            <stop offset="0%" stop-color="#D3DDF3" stop-opacity="0"/>
            <stop offset="100%" stop-color="#4CEAF5"/>
        </linearGradient>
        <radialGradient id="v" cx="49.999%" cy="49.997%" r="49.997%" fx="49.999%" fy="49.997%">
            <stop offset="0%" stop-color="#4CEAF5"/>
            <stop offset="100%" stop-color="#FFF" stop-opacity="0"/>
        </radialGradient>
        <linearGradient id="w" x1="14.102%" x2="105.139%" y1="61.32%" y2="38.935%">
            <stop offset="0%" stop-color="#D3DDF3" stop-opacity="0"/>
            <stop offset="100%" stop-color="#4CEAF5"/>
        </linearGradient>
        <radialGradient id="x" r="49.986%" fx="50%" fy="50%">
            <stop offset="0%" stop-color="#4CEAF5"/>
            <stop offset="100%" stop-color="#FFF" stop-opacity="0"/>
        </radialGradient>
        <linearGradient id="y" x1="11.387%" x2="101.455%" y1="61.334%" y2="38.95%">
            <stop offset="0%" stop-color="#D3DDF3" stop-opacity="0"/>
            <stop offset="100%" stop-color="#4CEAF5"/>
        </linearGradient>
        <radialGradient id="z" r="50.012%" fx="50%" fy="50%">
            <stop offset="0%" stop-color="#4CEAF5"/>
            <stop offset="100%" stop-color="#FFF" stop-opacity="0"/>
        </radialGradient>
        <linearGradient id="A" x1="79.162%" x2="-.087%" y1="30.698%" y2="80.816%">
            <stop offset="0%" stop-color="#32C5FF" stop-opacity="0"/>
            <stop offset="100%" stop-color="#4CEAF5"/>
        </linearGradient>
        <linearGradient id="B" x1="20.831%" x2="95.885%" y1="67.809%" y2="23.771%">
            <stop offset="0%" stop-color="#32C5FF" stop-opacity="0"/>
            <stop offset="100%" stop-color="#48D8F5"/>
        </linearGradient>
    </defs>
    <g fill="none" fill-rule="nonzero">
        <path fill="url(#a)" d="M198.81 179.64l15.05 23.9 18.5-10.71-15.05-23.9z" transform="translate(153 147)"/>
        <path fill="url(#b)" d="M213.86 203.54a48 48 0 0 1-8 5.94l16.16-9.4a48.18 48.18 0 0 0 10.37-7.25l-18.53 10.71z" transform="translate(153 147)"/>
        <path fill="url(#c)" d="M211 165.57a45.51 45.51 0 0 1-9.09 12.43l.06.08 11.76 18.85c7.9-7.25 13.8-17.53 17.11-30.5a108.68 108.68 0 0 0-19.84-.86z" transform="translate(153 147)"/>
        <path fill="url(#d)" d="M230.85 166.39c-3.32 13-9.22 23.26-17.12 30.51l12.49-7.26a57.07 57.07 0 0 0 14.37-21.93c-3.26-.47-6.5-.93-9.74-1.32z" transform="translate(153 147)"/>
        <path fill="url(#e)" d="M180.36 189.57l13.21 25.05a48.38 48.38 0 0 0 20.29-11.08l-15.05-23.9a39 39 0 0 1-18.45 9.93z" transform="translate(153 147)"/>
        <path fill="url(#f)" d="M54 111.25l15.05-6.53 18.5-10.71-15.05 6.53z" transform="translate(153 147)"/>
        <path fill="url(#g)" d="M40.8 42.9c2.22 21.5 9.11 44 19.38 65.3L72 103c-8.74-18.52-14.43-38.08-15.87-56.62L40.8 42.9z" transform="translate(153 147)"/>
        <path fill="#1158B0" d="M227.28 292.75l18.51-10.7 13.21-9.8-18.51 10.71z"/>
        <path fill="url(#h)" d="M90.47 134.21L80.06 142c13 18.46 28.51 34.67 45.32 46.69l1.09-17.54c-13.27-9.66-25.54-22.41-36-36.94z" transform="translate(153 147)"/>
        <path fill="url(#i)" d="M33.6 13.95l19.95 13.01 18.5-10.71L52.1 3.24z" transform="translate(153 147)"/>
        <path fill="url(#j)" d="M166.59 198.99l-18.51 10.71-1.34-23.84 18.51-10.71z" transform="translate(153 147)"/>
        <path fill="url(#k)" d="M64.13.86a65.46 65.46 0 0 0-7.5 24v.31l-3 1.72a97.272 97.272 0 0 0-.76 12.18c.005 6.001.453 11.994 1.34 17.93l3-1.73A169.61 169.61 0 0 0 72.07 103l-3 1.73A198.53 198.53 0 0 0 87.53 136l3-1.72a166.81 166.81 0 0 0 33.63 35.11l-3 1.71a124.79 124.79 0 0 0 12.84 8.55 97.19 97.19 0 0 0 12.82 6.23l2.93-1.7c12.37 4.9 23.79 6 33.63 3.83l-2.81 1.59.92.62 12.06-2.5 8.81-9.1-9.42 2.66c-9.17 1.45-19.61.12-30.82-4.32l3.14-1.81a96.58 96.58 0 0 1-12.82-6.23 123.84 123.84 0 0 1-12.82-8.57l-3.1 1.8a170.18 170.18 0 0 1-33.63-35.08l3.14-1.82A199.36 199.36 0 0 1 87.57 94l-3.06 1.8a171.41 171.41 0 0 1-14.89-47.73l3.11-1.79a122.56 122.56 0 0 1-1.36-17.85 99.21 99.21 0 0 1 .77-12.18L69 18.07a74.62 74.62 0 0 1 3.16-14.29A33.92 33.92 0 0 0 64.13.86z" transform="translate(153 147)"/>
        <path fill="url(#l)" d="M68.14 2c-5.4 9.16-8.45 21.3-8.45 36 0 50 35.09 110.76 78.37 135.75 23.6 13.62 44.75 13.8 59.12 3.06-13.43 4.75-30.51 2.34-49.1-8.39-43.28-25-78.37-85.77-78.37-135.75 0-10.66 1.61-20 4.55-27.76A34.3 34.3 0 0 0 68.14 2z" transform="translate(153 147)"/>
        <path fill="url(#m)" d="M138.06 173.79C94.78 148.8 59.7 88 59.7 38c0-14.71 3-26.85 8.44-36a33.89 33.89 0 0 0-3.56-1c-4.94 9.26-7.71 21.19-7.71 35.46 0 51.77 36.32 114.74 81.19 140.6 32.53 18.74 60.56 12.88 73.53-11.49-1.47.08-2.94.21-4.42.38-13.17 20.77-39.17 25.1-69.11 7.84z" transform="translate(153 147)"/>
        <path fill="url(#n)" d="M180.36 189.57l3.24-1.68c-9.94 2.3-21.45 1.22-33.93-3.73l1.14 18.84c15.05 6.2 29 7.78 41 5.19l-11.45-18.62z" transform="translate(153 147)"/>
        <path fill="url(#o)" d="M43 2.45a97.28 97.28 0 0 0-2.25 12.44L56.34 25l.17.06A66.08 66.08 0 0 1 64.06.84 37.25 37.25 0 0 0 43 2.45z" transform="translate(153 147)"/>
        <path fill="url(#p)" d="M53.58 27l-20-13a122.41 122.41 0 0 0-.77 13.67A152.16 152.16 0 0 0 34.14 47l20.07 10a121.72 121.72 0 0 1-1.39-17.88c0-4.052.254-8.1.76-12.12z" transform="translate(153 147)"/>
        <path fill="url(#q)" d="M133.93 179.63a123.84 123.84 0 0 1-12.82-8.57l-1.33 22.3a147.48 147.48 0 0 0 14.15 9.31 121 121 0 0 0 14.15 7l-1.34-23.84a96.46 96.46 0 0 1-12.81-6.23v.03z" transform="translate(153 147)"/>
        <path fill="url(#r)" d="M54 111.28a248.2 248.2 0 0 0 20.29 34.51l13.2-9.8a198.81 198.81 0 0 1-18.44-31.27L54 111.28z" transform="translate(153 147)"/>
        <path fill="#4CEAF5" d="M190.22 172.62c-3 1.72-3 7.32 0 12.49s7.84 8 10.83 6.26c2.99-1.74 3-7.33 0-12.5s-7.84-7.98-10.83-6.25z" opacity=".3"/>
        <path fill="#4CEAF5" d="M190.81 173.64c-2.66 1.54-2.67 6.52 0 11.14 2.67 4.62 7 7.11 9.65 5.56 2.65-1.55 2.66-6.52 0-11.13-2.66-4.61-6.99-7.11-9.65-5.57z" opacity=".5"/>
        <path fill="#4CEAF5" d="M191.26 174.42c-2.41 1.4-2.41 5.92 0 10.1s6.33 6.44 8.75 5c2.42-1.44 2.41-5.91 0-10.09s-6.33-6.43-8.75-5.01z"/>
        <path fill="#D4FFFF" d="M191.78 175.25c-2.15 1.24-2.15 5.26 0 9s5.64 5.74 7.78 4.5c2.14-1.24 2.11-5.27 0-9-2.11-3.73-5.63-5.75-7.78-4.5z"/>
        <path fill="url(#s)" d="M38.26 27.42a1.88 1.88 0 0 0-.23.16L0 48.81l13.11 12.6L47 42.59l.32-.19c2.08-1.69 2-6-.32-9.93-2.41-4.19-6.32-6.47-8.74-5.05z" opacity=".3" transform="translate(153 147)"/>
        <path fill="url(#t)" d="M42.31 16.13a19.48 19.48 0 1 0 .002 38.96 19.48 19.48 0 0 0-.002-38.96z" opacity=".44" transform="translate(153 147)"/>
        <path fill="#4CEAF5" d="M219 262.18c-3 1.73-3 7.32 0 12.5s7.84 8 10.82 6.24c2.98-1.76 3-7.35 0-12.49-3-5.14-7.82-7.98-10.82-6.25z" opacity=".3"/>
        <path fill="#4CEAF5" d="M219.61 263.2c-2.66 1.53-2.67 6.53 0 11.13 2.67 4.6 7 7.11 9.65 5.58 2.65-1.53 2.66-6.53 0-11.14s-6.99-7.11-9.65-5.57z" opacity=".5"/>
        <path fill="#4CEAF5" d="M220.05 264c-2.42 1.39-2.4 5.91 0 10.09s6.34 6.45 8.76 5.06c2.42-1.39 2.41-5.92 0-10.1s-6.33-6.46-8.76-5.05z"/>
        <path fill="#D4FFFF" d="M220.54 264.81c-2.14 1.24-2.14 5.27 0 9 2.14 3.73 5.63 5.73 7.78 4.49 2.15-1.24 2.15-5.26 0-9s-5.63-5.73-7.78-4.49z"/>
        <path fill="url(#u)" d="M67.05 117a1.53 1.53 0 0 0-.22.16l-38 21.23L41.91 151l33.86-18.83.32-.18c2.08-1.68 2-6-.32-9.93-2.38-4.22-6.29-6.47-8.72-5.06z" opacity=".3" transform="translate(153 147)"/>
        <path fill="url(#v)" d="M71.11 105.72a19.48 19.48 0 1 0 .002 38.96 19.48 19.48 0 0 0-.002-38.96z" transform="translate(153 147)"/>
        <path fill="#4CEAF5" d="M291.63 333.77c-3-5.18-7.83-8-10.82-6.25s-3 7.32 0 12.5 7.84 8 10.82 6.25c2.98-1.75 2.99-7.33 0-12.5z" opacity=".3"/>
        <path fill="#4CEAF5" d="M291.05 334.11c-2.67-4.58-7-7.11-9.65-5.57-2.65 1.54-2.67 6.53 0 11.14s7 7.11 9.65 5.57c2.65-1.54 2.66-6.53 0-11.14z" opacity=".5"/>
        <path fill="#4CEAF5" d="M290.59 334.36c-2.41-4.18-6.33-6.44-8.75-5-2.42 1.44-2.41 5.92 0 10.1s6.34 6.44 8.75 5.05c2.41-1.39 2.41-5.97 0-10.15z"/>
        <path fill="#D4FFFF" d="M290.11 334.65c-2.15-3.72-5.63-5.74-7.78-4.5-2.15 1.24-2.15 5.27 0 9 2.15 3.73 5.63 5.73 7.78 4.49 2.15-1.24 2.15-5.27 0-8.99z"/>
        <path fill="url(#w)" d="M137.59 187.36c-2.41-4.18-6.33-6.44-8.75-5l-.23.16-38 21.23 13.11 12.6 33.86-18.83.33-.19c2.09-1.71 1.98-5.99-.32-9.97z" opacity=".3" transform="translate(153 147)"/>
        <path fill="url(#x)" d="M152.38 190.54a19.49 19.49 0 1 1-19.45-19.48c10.742.028 19.439 8.738 19.45 19.48z" transform="translate(153 147)"/>
        <path fill="#4CEAF5" d="M354.84 341.24c-3-5.17-7.83-8-10.82-6.25s-3 7.32 0 12.5 7.84 8 10.82 6.25c2.98-1.75 2.99-7.32 0-12.5z" opacity=".3"/>
        <path fill="#4CEAF5" d="M354.26 341.6c-2.67-4.59-7-7.11-9.65-5.57-2.65 1.54-2.67 6.52 0 11.14 2.67 4.62 7 7.11 9.65 5.57 2.65-1.54 2.66-6.56 0-11.14z" opacity=".5"/>
        <path fill="#4CEAF5" d="M353.81 341.84c-2.42-4.18-6.33-6.44-8.75-5-2.42 1.44-2.41 5.91 0 10.09s6.33 6.45 8.75 5.05c2.42-1.4 2.44-5.98 0-10.14z"/>
        <path fill="#D4FFFF" d="M353.32 342.12c-2.14-3.72-5.63-5.73-7.78-4.49-2.15 1.24-2.15 5.26 0 9s5.64 5.74 7.78 4.49c2.14-1.25 2.17-5.28 0-9z"/>
        <path fill="url(#y)" d="M200.81 194.84c-2.42-4.18-6.33-6.44-8.75-5a1.6 1.6 0 0 0-.23.16l-38 21.23 13.11 12.6L200.77 205l.32-.18c2.16-1.73 2.01-6.01-.28-9.98z" opacity=".3" transform="translate(153 147)"/>
        <path fill="url(#z)" d="M215.59 198a19.48 19.48 0 1 1-19.48-19.47c10.75.011 19.463 8.72 19.48 19.47z" transform="translate(153 147)"/>
        <path fill="url(#A)" d="M314.334 104.668c4.884 2.897 9.6 6.07 14.125 9.5l-.482 8.515c15.684 12.23 30.069 28.013 42.206 45.753l5.985-3.463a248.981 248.981 0 0 1 19.735 34.823l-5.992 3.47c8.782 19.109 14.813 39.08 17.182 58.326l7.552 3.822c.481 4.9.764 9.753.764 14.522 0 3.929-.191 7.69-.52 11.32l180.382-104.285L475.975 0 304 99.31a130.308 130.308 0 0 1 10.334 5.358z" opacity=".248" transform="translate(-12)"/>
        <path fill="url(#B)" d="M361.896 323.977c8.568-5.9 14.889-15.508 18.091-28.349l-.374-.237a93.89 93.89 0 0 0 1.353-16.295c-.02-4.342-.275-8.68-.765-12.994l1.697-.986c-1.383-16.051-6.046-32.866-13.154-49.024l-2.385 1.047a199.192 199.192 0 0 0-17.824-31.743l2.148-1.582c-10.334-14.82-22.617-27.898-35.977-37.712l-1.934 1.123c-4.108-3.14-8.41-6.02-12.879-8.621a96.719 96.719 0 0 0-12.887-6.252l-.045-.948c-14.217-4.586-26.981-3.822-37.132 1.528L0 277.132l139.001 175.696 222.895-128.683v-.168z" opacity=".248" transform="translate(-12)"/>
    </g>
</svg>
