<!-- group per page -->
<svg xmlns="http://www.w3.org/2000/svg" xmlns:xlink="http://www.w3.org/1999/xlink">
  <symbol id="close" fill-rule="nonzero" mask="url(#b)">
    <path fill="#2E4DAB" fill-rule="nonzero" d="M19.959 1.14L18.819 0l-8.84 8.839L1.14 0 0 1.14l8.839 8.84L0 18.817l1.14 1.14 8.84-8.838 8.838 8.839 1.14-1.14-8.838-8.84z"/>
  </symbol>
  <symbol id="caret" fill-rule="nonzero" mask="url(#b)">
    <path fill="#DFE2E6" fill-rule="nonzero" d="M.807 0h10.386a.806.806 0 0 1 .569 1.376l-5.19 5.195a.809.809 0 0 1-1.143 0L.239 1.376A.806.806 0 0 1 .806 0z"/>
  </symbol>
  <symbol id="apple-pay" fill-rule="nonzero" width="38" height="18" mask="url(#b)">
      <path fill="#c0c9d2" d="M7.584 2.23c.483-.584.826-1.415.732-2.23C7.6.03 6.743.477 6.23 1.062c-.452.523-.857 1.353-.748 2.169.794.061 1.604-.4 2.102-1M9.625 7.43c-.016-1.768 1.464-2.63 1.526-2.66-.826-1.2-2.118-1.37-2.585-1.385-1.106-.108-2.15.646-2.71.646S4.439 3.4 3.52 3.43c-1.2.015-2.305.692-2.928 1.754-1.246 2.138-.312 5.307.903 7.046.592.846 1.293 1.8 2.227 1.769.903-.03 1.23-.57 2.32-.57 1.09 0 1.387.57 2.337.555.965-.031 1.588-.877 2.18-1.739.685-.984.966-1.938.981-1.984-.031-.016-1.884-.708-1.915-2.831M21.118 2.23a3.678 3.678 0 0 0-1.386-.8c-.545-.184-1.215-.276-1.962-.276-.514 0-1.013.03-1.449.077-.436.046-.84.107-1.199.169l-.109.015v12.462h1.153v-5.23c.389.06.825.091 1.323.091.654 0 1.262-.076 1.807-.246.56-.169 1.043-.415 1.448-.754a3.65 3.65 0 0 0 .966-1.246c.233-.492.358-1.077.358-1.723a4.14 4.14 0 0 0-.25-1.446 3.002 3.002 0 0 0-.7-1.092m-1.059 4.754c-.592.492-1.433.738-2.492.738-.296 0-.56-.015-.825-.03a3.004 3.004 0 0 1-.576-.093V2.292c.155-.03.342-.046.56-.077.28-.03.623-.046 1.013-.046.482 0 .918.062 1.308.17.39.107.732.276 1.012.492.28.215.498.492.639.815.155.339.233.739.233 1.185.016.954-.28 1.677-.872 2.154M28.983 12.723c-.016-.354-.016-.708-.016-1.061V8.2c0-.415-.047-.83-.124-1.246A2.941 2.941 0 0 0 28.36 5.8c-.234-.354-.56-.63-.966-.846-.405-.216-.934-.323-1.588-.323-.467 0-.935.061-1.355.184a4.574 4.574 0 0 0-1.277.6l-.094.062.39.892.14-.092c.296-.2.638-.354.997-.477.358-.108.732-.17 1.105-.17.483 0 .857.093 1.137.262.28.17.483.385.623.631.14.262.234.523.265.815.047.293.062.554.062.785v.108c-1.713 0-3.037.277-3.924.83-.935.585-1.402 1.431-1.402 2.493 0 .308.062.615.171.923.11.308.28.585.499.83.218.231.514.431.856.585.343.154.748.216 1.2.216.358 0 .685-.046.996-.139.296-.092.576-.2.81-.354.234-.153.452-.307.623-.492.078-.077.156-.154.218-.246h.047l.109 1.015h1.105l-.03-.154a7.458 7.458 0 0 1-.094-1.015m-1.184-1.785c0 .124-.031.293-.093.493a2.547 2.547 0 0 1-.312.615c-.14.2-.296.37-.498.523a2.52 2.52 0 0 1-.7.37 2.81 2.81 0 0 1-.92.138c-.202 0-.405-.03-.607-.108a1.474 1.474 0 0 1-.514-.307 1.76 1.76 0 0 1-.358-.508c-.094-.2-.14-.462-.14-.754 0-.492.14-.877.389-1.17a2.524 2.524 0 0 1 1.028-.692c.42-.153.887-.261 1.386-.307.405-.031.81-.062 1.183-.062h.14v1.77h.016zM31.397 17.646a5.33 5.33 0 0 0 .98-.692 5.32 5.32 0 0 0 .826-.923c.25-.339.483-.754.717-1.2.233-.446.467-.954.7-1.523.234-.554.483-1.185.732-1.862L38 4.8h-1.23l-2.15 5.77c-.14.353-.264.692-.373 1.045-.047.17-.11.339-.156.493h-.047c-.046-.17-.109-.323-.171-.508a14.548 14.548 0 0 0-.358-.985l-2.29-5.8h-1.23l3.286 8.354c.094.2.11.293.11.339 0 .015 0 .077-.11.338-.202.492-.436.939-.7 1.277-.265.354-.499.646-.717.846-.25.246-.514.446-.763.6-.265.154-.514.277-.732.385l-.125.061.405.954"/>
  </symbol>
  <symbol id="chevron" width="12" height="7" viewBox="0 0 12 7">
    <path fill-rule="nonzero" d="M.807 0h10.386a.806.806 0 0 1 .569 1.376l-5.19 5.195a.809.809 0 0 1-1.143 0L.239 1.376A.806.806 0 0 1 .806 0z"/>
  </symbol>

</svg>
