<!-- group per page -->
<svg xmlns="http://www.w3.org/2000/svg" xmlns:xlink="http://www.w3.org/1999/xlink">
  <symbol id="yellow-arrow" fill-rule="nonzero" mask="url(#b)">
    <path fill-rule="nonzero" d="M0 10c0 5.524 4.476 10 10 10s10-4.476 10-10S15.524 0 10 0 0 4.476 0 10zm18.065 0A8.062 8.062 0 0 1 10 18.065 8.062 8.062 0 0 1 1.935 10 8.062 8.062 0 0 1 10 1.935 8.062 8.062 0 0 1 18.065 10zM5.039 9.194v1.612c0 .267.218.484.484.484h4.678v2.702c0 .431.52.645.826.343l3.992-3.992a.484.484 0 0 0 0-.686l-3.992-3.992a.484.484 0 0 0-.826.343V8.71H5.523a.485.485 0 0 0-.484.484z"/>
  </symbol>
</svg>
