<svg xmlns="http://www.w3.org/2000/svg" width="113" height="31" viewBox="0 0 113 31">
    <path fill="#FFF" fill-rule="nonzero" d="M41.282 22.899h2.578l-.438-1.98V9.146H40.96v5.364a3.878 3.878 0 0 0-2.968-1.346c-2.464 0-4.375 2.03-4.375 4.97s1.911 4.97 4.375 4.97a3.84 3.84 0 0 0 3.015-1.42l.276 1.207v.007zM90 15.799c.498-.002.983.155 1.384.448l1.172-2.599a3.378 3.378 0 0 0-1.792-.48 2.987 2.987 0 0 0-2.625 1.42l-.25-1.206h-2.536l.416 1.867v7.675h2.463v-6.088a1.885 1.885 0 0 1 1.771-1.026L90 15.8zm7.206 4.743c-1.434 0-2.484-.934-2.484-2.393 0-1.459 1.057-2.396 2.484-2.396s2.489.912 2.489 2.396-1.036 2.393-2.489 2.393zm-61.195-2.407c0-1.48 1.058-2.393 2.485-2.393 1.427 0 2.488.913 2.488 2.393 0 1.48-1.036 2.396-2.488 2.396a2.34 2.34 0 0 1-1.783-.648 2.292 2.292 0 0 1-.702-1.748zm72.134 2.418c-1.434 0-2.488-.934-2.488-2.393 0-1.46 1.058-2.396 2.488-2.396 1.431 0 2.485.912 2.485 2.396a2.328 2.328 0 0 1-.715 1.733 2.376 2.376 0 0 1-1.77.66zm-58.298-4.945c1.266 0 2.094.592 2.37 1.686h-4.74c.251-1.118 1.105-1.686 2.37-1.686zm29.447 0c1.266 0 2.097.592 2.373 1.686H76.91c.297-1.118 1.13-1.686 2.37-1.686h.014zm-12.018 7.291h3.962l2.578-9.55h-2.693l-1.868 7.75-1.886-7.728h-2.65l2.557 9.528zm-6.332 0h2.463v-9.55h-2.463v9.55zm-10.727.185a7.246 7.246 0 0 0 3.843-1.094l-.943-2.098a6.057 6.057 0 0 1-2.868.71c-1.287 0-2.187-.5-2.6-1.42h6.953c.075-.368.113-.742.114-1.118 0-2.964-2.072-4.924-4.811-4.924-2.74 0-4.812 2.006-4.812 4.97-.025 3.032 2 4.97 5.134 4.97l-.01.004zM113 18.135c0-2.96-2.069-4.97-4.855-4.97-2.785 0-4.858 2.03-4.858 4.97s2.073 4.97 4.858 4.97c2.786 0 4.855-2.006 4.855-4.97zm-33.344 4.97a7.04 7.04 0 0 0 3.844-1.093l-.943-2.098a6.06 6.06 0 0 1-2.869.73c-1.29 0-2.187-.503-2.603-1.42h6.956c.075-.366.114-.74.115-1.114 0-2.964-2.073-4.927-4.812-4.927-2.74 0-4.836 1.999-4.836 4.952 0 3.057 2 4.97 5.134 4.97h.014zm17.568 0c2.811 0 4.859-2.027 4.859-4.97 0-2.943-2.073-4.97-4.859-4.97-2.785 0-4.858 2.03-4.858 4.97s2.051 4.97 4.858 4.97zm-40.934-.206h2.463V9.147H56.29v13.752zm5.916-10.848a1.56 1.56 0 0 0 1.567-1.552 1.56 1.56 0 0 0-1.567-1.551 1.56 1.56 0 0 0-1.567 1.551c-.005.413.159.81.454 1.103.295.291.696.453 1.113.449zM19.85.446l-1.406 13.223-2.395-11.146-7.55 1.572 2.37 11.147L0 17.52l1.936 8.875 19.132 4.05 4.374-9.688 2.072-19.524L19.85.446zM13.807 19.64c-.39.355-.9.32-1.473.139-.574-.181-.782-.82-.6-1.644.162-.593.876-.682 1.267-.682a.926.926 0 0 1 .415.09c.251.113.689.354.782.73a1.309 1.309 0 0 1-.39 1.367zm5.547.593c-.298.5-1.036.572-1.793.206-.527-.252-.527-.845-.452-1.232a1.06 1.06 0 0 1 .251-.568c.183-.279.476-.47.807-.525a1.402 1.402 0 0 1 1.312.685c.276.454.14.955-.14 1.42l.015.014z"/>
</svg>
