<svg xmlns="http://www.w3.org/2000/svg" width="100" height="29" viewBox="0 0 100 29">
    <g fill="#FFF" fill-rule="nonzero">
        <path d="M.157 19.871h5.125c4.25 0 8.043-2.49 8.043-7.11 0-5.224-3.854-7.175-8.463-7.175H.157v14.285M3.304 8.484h1.865c2.659 0 4.91 1.312 4.91 4.123 0 3.25-2.2 4.364-5.125 4.364h-1.65V8.484zm10.728 6.478c0 3.136 2.42 5.124 5.446 5.124 3.027 0 5.467-2.019 5.467-5.124 0-3.106-2.419-5.125-5.467-5.125-3.047 0-5.446 2.019-5.446 5.125m3.024 0a2.3 2.3 0 0 1 2.077-2.481h.342a2.29 2.29 0 0 1 2.422 2.153c.01.113.01.227 0 .341a2.3 2.3 0 0 1-2.1 2.484 2.467 2.467 0 0 1-.319 0 2.293 2.293 0 0 1-2.425-2.152 2.733 2.733 0 0 1 0-.342m17.68-3.83a4.903 4.903 0 0 0-3.495-1.312c-3.034 0-5.446 2.02-5.446 5.125 0 3.106 2.423 5.125 5.446 5.125a4.903 4.903 0 0 0 3.496-1.312l-2.002-2.129a1.937 1.937 0 0 1-1.476.749 2.293 2.293 0 0 1-2.426-2.153 2.2 2.2 0 0 1 0-.342 2.293 2.293 0 0 1 2.09-2.477c.114-.009.229-.009.342 0a1.876 1.876 0 0 1 1.476.749l2.003-2.095m10.331-.97h-3.047v4.886c0 1.277-.24 2.504-1.818 2.504s-1.568-1.473-1.568-2.556v-4.834h-3.034v5.37c0 2.625.564 4.644 3.639 4.644a3.167 3.167 0 0 0 2.866-1.575v1.329h2.949v-9.826m.789 8.992h4.797v.988h-4.797v-.988zm7.028 0h4.797v.988h-4.797v-.988zm7.042 0h4.797v.988h-4.797v-.988zm7.031 0h4.797v.988H66.95v-.988zm7.032 0h4.797v.988H73.98v-.988zm7.028 0h4.797v.988h-4.797v-.988zm7.031 0h4.797v.988H88.04v-.988zm7.032 0h4.797v.988h-4.797v-.988z"/>
        <path d="M72.659 17.562c-.52-.523 4.738-4.722 6.324-4.51-.605 1.824-5.809 5.029-6.324 4.51m6.187 1.745a29.503 29.503 0 0 0 2.71-6.529c0-1.182-1.073-1.807-2.232-1.807-3.81 0-9.956 6.492-11.25 6.492-1.477 0 .782-3.11.782-4.33 0-.81-.725-1.643-1.302-1.643-1.124 0-4.68 3.417-7.008 4.158a5.227 5.227 0 0 0 .786-2.337c0-4.158-11.787-2.555-11.787-4.906 0-2.098 7.373-5.713 11.692-5.713.608 0 4.585.267 4.585 1.647 0 .52-.851.683-.851 1.21 0 .526.434.601.97.601a1.404 1.404 0 0 0 1.302-1.503v-.055c0-3.53-3.075-4.264-5.542-4.264-6.382 0-13.943 5.542-13.943 8.056 0 3.287 10.738 2.683 10.738 5.631 0 3.547-11.514 6.751-11.514 7.62 0 .867.615.785 1.306.785 4.677 0 16.967-7.797 18.009-8.839.085 1.818-.684 3.547-.684 4.322 0 .776.598 1.832 1.476 1.832s2.143-1.285 4.053-2.31c-.086.605.433 1.558 1.124 1.558 1.476 0 5.965-3.639 6.833-4.26a10.25 10.25 0 0 1-1.883 4.243 5.661 5.661 0 0 0-1.476-.188c-1.793.014-6.724 5.234-6.724 7.67 0 .957.52 1.91 1.473 1.91 1.322 0 6.095-3.929 7.858-7.933.776.085 2.05.663 2.05.051s-.85-1.025-1.517-1.196m-7.984 7.008c-.308 0-.496-.137-.496-.854 0-2.225 4.637-5.378 6.246-5.378-.936 2.108-4.896 6.232-5.75 6.232m-1.5-19.602a1.083 1.083 0 1 1 2.166 0 1.083 1.083 0 0 1-2.166 0m14.486 8.395c-.605.783-2.163 2.556-2.163 3.29 0 .735.342 1.124.851 1.124 1.295 0 5.539-5.125 7.534-5.125 1.476 0-.946 5.286 2.258 5.286 1.159 0 5.036-2.56 5.036-4.049 0-.263-.273-.717-.621-.717-.205 0-2.853 3.205-3.98 3.205-.954 0 0-1.985 0-3.29 0-1.306-.206-2.505-1.572-2.505-1.818 0-4.442 2.334-5.02 2.682a2.3 2.3 0 0 0 .342-1.124 1.756 1.756 0 0 0-1.561-1.476c-.595 0-3.8 1.647-3.8 3.758 0 .52 1.9-1.322 2.676-1.055m13.366 9.805h.375v-.854h.274l.53.854h.389l-.526-.854a.492.492 0 0 0 .499-.488.51.51 0 0 0 0-.072c0-.393-.23-.615-.715-.615h-.785v2.05m.375-1.709h.274c.229 0 .495 0 .495.284s-.256.28-.495.28h-.274v-.564zm-1.479.715a1.78 1.78 0 1 0 1.804-1.753 1.78 1.78 0 0 0-1.78 1.753m.314 0a1.042 1.042 0 1 1-.04.044v-.044"/>
    </g>
</svg>
