<?xml version="1.0" encoding="UTF-8"?>
<svg width="462px" height="337px" viewBox="0 0 462 337" version="1.1" preserveAspectRatio="none" xmlns="http://www.w3.org/2000/svg" xmlns:xlink="http://www.w3.org/1999/xlink">
    <!-- Generator: Sketch 62 (91390) - https://sketch.com -->
    <title>doodle</title>
    <desc>Created with Sketch.</desc>
    <defs>
        <radialGradient cx="50.000728%" cy="49.9796935%" fx="50.000728%" fy="49.9796935%" r="49.992672%" id="radialGradient-1">
            <stop stop-color="#4CEAF5" offset="0%"></stop>
            <stop stop-color="#D3DDF3" stop-opacity="0" offset="99.9868032%"></stop>
        </radialGradient>
        <linearGradient x1="100%" y1="33.3315006%" x2="8.11310531%" y2="63.9682607%" id="linearGradient-2">
            <stop stop-color="#1ED6FE" offset="0%"></stop>
            <stop stop-color="#F8FAFC" stop-opacity="0" offset="100%"></stop>
        </linearGradient>
        <linearGradient x1="-0.0366166239%" y1="49.9976169%" x2="100%" y2="49.9976169%" id="linearGradient-3">
            <stop stop-color="#D3DDF3" stop-opacity="0" offset="0%"></stop>
            <stop stop-color="#48D8F5" offset="100%"></stop>
        </linearGradient>
        <radialGradient cx="50.0203048%" cy="49.9796954%" fx="50.0203048%" fy="49.9796954%" r="49.9992684%" id="radialGradient-4">
            <stop stop-color="#4CEAF5" offset="0%"></stop>
            <stop stop-color="#D3DDF3" stop-opacity="0" offset="100%"></stop>
        </radialGradient>
        <linearGradient x1="100%" y1="33.3315006%" x2="3.46298962%" y2="66.6684994%" id="linearGradient-5">
            <stop stop-color="#1ED6FE" offset="0%"></stop>
            <stop stop-color="#D3DDF3" stop-opacity="0" offset="100%"></stop>
        </linearGradient>
        <linearGradient x1="100%" y1="33.3310005%" x2="0%" y2="66.6689995%" id="linearGradient-6">
            <stop stop-color="#1ED6FE" offset="0%"></stop>
            <stop stop-color="#D3DDF3" stop-opacity="0" offset="100%"></stop>
        </linearGradient>
        <radialGradient cx="50.0268468%" cy="49.9731532%" fx="50.0268468%" fy="49.9731532%" r="49.9992692%" id="radialGradient-7">
            <stop stop-color="#4CEAF5" offset="0%"></stop>
            <stop stop-color="#D3DDF3" stop-opacity="0" offset="100%"></stop>
        </radialGradient>
        <radialGradient cx="50.000717%" cy="49.9593996%" fx="50.000717%" fy="49.9593996%" r="49.9593996%" id="radialGradient-8">
            <stop stop-color="#4CEAF5" offset="0%"></stop>
            <stop stop-color="#000000" stop-opacity="0" offset="100%"></stop>
        </radialGradient>
        <linearGradient x1="-2.35119256%" y1="68.743564%" x2="100%" y2="31.2425739%" id="linearGradient-9">
            <stop stop-color="#D3DDF3" stop-opacity="0" offset="0.0369510135%"></stop>
            <stop stop-color="#48D8F5" offset="100%"></stop>
        </linearGradient>
        <linearGradient x1="100%" y1="33.3292338%" x2="0%" y2="66.6707662%" id="linearGradient-10">
            <stop stop-color="#1ED6FE" offset="0%"></stop>
            <stop stop-color="#000000" stop-opacity="0" offset="100%"></stop>
        </linearGradient>
        <linearGradient x1="6.94161268%" y1="64.872617%" x2="100%" y2="32.9883078%" id="linearGradient-11">
            <stop stop-color="#D3DDF3" stop-opacity="0" offset="0%"></stop>
            <stop stop-color="#4CEAF5" offset="100%"></stop>
        </linearGradient>
        <linearGradient x1="3.45800491%" y1="66.9829862%" x2="104.698157%" y2="31.0765598%" id="linearGradient-12">
            <stop stop-color="#D3DDF3" stop-opacity="0" offset="0%"></stop>
            <stop stop-color="#4CEAF5" offset="100%"></stop>
        </linearGradient>
        <linearGradient x1="14.6445737%" y1="62.8719%" x2="100%" y2="31.2758259%" id="linearGradient-13">
            <stop stop-color="#D3DDF3" stop-opacity="0" offset="0%"></stop>
            <stop stop-color="#48D8F5" offset="100%"></stop>
        </linearGradient>
        <linearGradient x1="1.39819011e-13%" y1="50.0050584%" x2="100%" y2="50.0050584%" id="linearGradient-14">
            <stop stop-color="#D3DDF3" stop-opacity="0" offset="0%"></stop>
            <stop stop-color="#48D8F5" offset="100%"></stop>
        </linearGradient>
        <linearGradient x1="14.8933399%" y1="64.967933%" x2="103.323542%" y2="31.2536387%" id="linearGradient-15">
            <stop stop-color="#D3DDF3" stop-opacity="0" offset="0%"></stop>
            <stop stop-color="#48D8F5" offset="100%"></stop>
        </linearGradient>
        <linearGradient x1="-0.0292911541%" y1="49.9977626%" x2="100%" y2="49.9977626%" id="linearGradient-16">
            <stop stop-color="#D3DDF3" stop-opacity="0" offset="0%"></stop>
            <stop stop-color="#48D8F5" offset="100%"></stop>
        </linearGradient>
        <linearGradient x1="0%" y1="66.4515062%" x2="100%" y2="49.9938593%" id="linearGradient-17">
            <stop stop-color="#D3DDF3" stop-opacity="0" offset="0%"></stop>
            <stop stop-color="#48D8F5" offset="100%"></stop>
        </linearGradient>
    </defs>
    <g id="DWo" stroke="none" stroke-width="1" fill="none" fill-rule="evenodd">
        <g id="New-/-features" transform="translate(-105.000000, -3272.000000)" fill-rule="nonzero">
            <g id="doodle" transform="translate(86.607643, 3272.244586)">
                <path d="M239.457325,116.23949 C239.436486,116.634865 239.102753,116.940665 238.707067,116.926952 C238.311381,116.913239 237.999619,116.585068 238.006202,116.1892 C238.012786,115.793331 238.335287,115.475708 238.73121,115.475159 C239.138344,115.495541 239.457835,115.831847 239.457325,116.23949 Z" id="Path" fill="#1ED6FE" style="mix-blend-mode: color-dodge;"></path>
                <path d="M283.926115,85.0394904 C283.905276,85.434865 283.571543,85.7406652 283.175857,85.7269522 C282.780171,85.7132391 282.468409,85.3850683 282.474992,84.9891997 C282.481575,84.5933312 282.804077,84.275708 283.2,84.2751585 C283.399386,84.2748829 283.590112,84.3566075 283.727439,84.5011621 C283.864766,84.6457167 283.936609,84.840381 283.926115,85.0394904 L283.926115,85.0394904 Z" id="Path" fill="#1ED6FE" style="mix-blend-mode: color-dodge;"></path>
                <path d="M254.835669,86.1324841 C254.815287,86.539618 254.478981,86.8591086 254.071338,86.8585993 C253.757676,86.755503 253.545669,86.4626547 253.545669,86.1324841 C253.545669,85.8023135 253.757676,85.5094652 254.071338,85.4063688 C254.478981,85.4058596 254.815287,85.7253502 254.835669,86.1324841 Z" id="Path" fill="#1ED6FE" style="mix-blend-mode: color-dodge;"></path>
                <g id="light-left" transform="translate(84.000000, 130.945223)">
                    <path d="M108.626753,19.5133758 C108.629843,27.4095858 103.87566,34.5300032 96.5814007,37.5538945 C89.2871411,40.5777857 80.8895494,38.9095374 75.3049921,33.3271667 C69.7204348,27.744796 68.0488979,19.3478583 71.0699324,12.052415 C74.0909669,4.75697165 81.2095219,1.56319402e-13 89.1057325,1.56319402e-13 C99.8839094,1.56319402e-13 108.622531,8.73519966 108.626753,19.5133758 Z" id="Path" fill="url(#radialGradient-1)" opacity="0.341494606" style="mix-blend-mode: screen;"></path>
                    <polygon id="Path" fill="url(#linearGradient-2)" style="mix-blend-mode: screen;" points="6.09936306 65.2203822 10.1426752 67.5592357 91.933758 20.3312102 87.8904459 18"></polygon>
                    <path d="M82.7617788,19.5133758 C82.7586912,22.079957 84.3023826,24.3955357 86.6727075,25.3798672 C89.0430323,26.3641987 91.7729306,25.8233256 93.5888725,24.0095716 C95.4048144,22.1958176 95.9489781,19.4665734 94.9675049,17.0950636 C93.9860316,14.7235538 91.6723155,13.1770701 89.1057325,13.1770701 C85.6067898,13.1812705 82.770202,16.0144407 82.7617788,19.5133758 Z" id="Path" fill="#4CEAF5" opacity="0.1" style="mix-blend-mode: color-dodge;"></path>
                    <path d="M83.9847076,19.5133758 C83.9816209,21.5853274 85.2273546,23.4549813 87.1407014,24.2500266 C89.0540482,25.0450719 91.2579423,24.6088279 92.7241288,23.1448298 C94.1903152,21.6808317 94.6298506,19.4775916 93.8376641,17.5630594 C93.0454775,15.6485272 91.1776864,14.4 89.1057325,14.4 C86.2804539,14.4 83.9889302,16.6881004 83.9847076,19.5133758 Z" id="Path" fill="#4CEAF5" opacity="0.3" style="mix-blend-mode: color-dodge;"></path>
                    <path d="M85.0012667,19.5133758 C84.9981812,21.1741664 85.9962372,22.6731451 87.5297208,23.3108463 C89.0632045,23.9485475 90.8298575,23.5992765 92.0053098,22.4260132 C93.1807621,21.2527498 93.5333253,19.4867509 92.8984835,17.9520813 C92.2636418,16.4174116 90.766526,15.4165605 89.1057325,15.4165605 C86.8418841,15.4165605 85.0054896,17.2495314 85.0012667,19.5133758 Z" id="Path" fill="#4CEAF5" opacity="0.3" style="mix-blend-mode: color-dodge;"></path>
                    <path d="M102.420382,101.312102 C103.572399,100.561961 104.296674,99.3065513 104.369427,97.933758 C104.369427,96.6878981 103.498089,96.1834395 102.420382,96.8025478 L-1.56319402e-13,155.95414 L-1.56319402e-13,160.463694 L102.420382,101.312102 Z" id="Path" fill="url(#linearGradient-3)" opacity="0.3" style="mix-blend-mode: color-dodge;"></path>
                    <path d="M70.1808917,62.3159236 C70.1808917,64.4518936 68.4493459,66.1834395 66.3133758,66.1834395 C64.1774057,66.1834395 62.4458599,64.4518936 62.4458599,62.3159236 C62.4458599,60.1799535 64.1774057,58.4484076 66.3133758,58.4484076 C68.4493459,58.4484076 70.1808917,60.1799535 70.1808917,62.3159236 L70.1808917,62.3159236 Z" id="Path" fill="#1ED6FE" opacity="0.3" style="mix-blend-mode: color-dodge;"></path>
                    <path d="M68.7898089,62.3159236 C68.7898089,63.6836198 67.681072,64.7923567 66.3133758,64.7923567 C64.9456795,64.7923567 63.8369427,63.6836198 63.8369427,62.3159236 C63.8369427,60.9482273 64.9456795,59.8394904 66.3133758,59.8394904 C66.9701667,59.8394904 67.6000572,60.1003996 68.0644784,60.5648209 C68.5288997,61.0292422 68.7898089,61.6591327 68.7898089,62.3159236 L68.7898089,62.3159236 Z" id="Path" fill="#1ED6FE" opacity="0.3" style="mix-blend-mode: color-dodge;"></path>
                    <path d="M67.9643312,62.3159236 C67.9643312,63.2277211 67.2251733,63.966879 66.3133758,63.966879 C65.4015783,63.966879 64.6624204,63.2277211 64.6624204,62.3159236 C64.6624204,61.4041261 65.4015783,60.6649682 66.3133758,60.6649682 C67.2251733,60.6649682 67.9643312,61.4041261 67.9643312,62.3159236 Z" id="Path" fill="#1ED6FE" style="mix-blend-mode: color-dodge;"></path>
                    <path d="M49.0165778,88.0356688 C49.0196551,88.7257451 48.6063448,89.3495945 47.9696835,89.6158222 C47.3330222,89.88205 46.5986541,89.7381164 46.1095962,89.2512517 C45.6205384,88.7643869 45.4733058,88.0306731 45.7366695,87.3928217 C46.0000332,86.7549703 46.6220187,86.3388363 47.3121019,86.3388363 C47.7634482,86.3368204 48.1970059,86.5146935 48.5168755,86.8331288 C48.8367452,87.151564 49.0165778,87.584318 49.0165778,88.0356688 Z" id="Path" fill="#1ED6FE" opacity="0.3" style="mix-blend-mode: color-dodge;"></path>
                    <path d="M48.4050955,88.0356688 C48.4081918,88.4784258 48.1438646,88.8793108 47.7356957,89.0508963 C47.3275269,89.2224819 46.8561627,89.130866 46.541982,88.8188823 C46.2278012,88.5068986 46.1328798,88.036189 46.3015968,87.6268261 C46.4703139,87.2174632 46.869334,86.9503293 47.3121019,86.9503185 C47.6012767,86.948282 47.8793075,87.0617314 48.0845062,87.2654952 C48.289705,87.469259 48.4051225,87.7464868 48.4050955,88.0356688 L48.4050955,88.0356688 Z" id="Path" fill="#1ED6FE" opacity="0.3" style="mix-blend-mode: color-dodge;"></path>
                    <path d="M48.0458599,88.0356688 C48.025478,88.4428027 47.6891721,88.7622933 47.2815287,88.761784 C46.9678666,88.6586877 46.7558598,88.3658394 46.7558598,88.0356688 C46.7558598,87.7054982 46.9678666,87.4126499 47.2815287,87.3095535 C47.6891721,87.3090443 48.025478,87.6285349 48.0458599,88.0356688 Z" id="Path" fill="#1ED6FE" style="mix-blend-mode: color-dodge;"></path>
                    <path d="M17.0292994,86.9503185 C17.0292994,87.6397076 16.6140214,88.2612151 15.9771088,88.5250329 C15.3401963,88.7888507 14.6070783,88.6430244 14.1196065,88.1555527 C13.6321348,87.668081 13.4863085,86.9349629 13.7501264,86.2980504 C14.0139442,85.6611379 14.6354516,85.2458599 15.3248408,85.2458599 C16.2661873,85.2458599 17.0292994,86.008972 17.0292994,86.9503185 Z" id="Path" fill="#1ED6FE" opacity="0.3" style="mix-blend-mode: color-dodge;"></path>
                    <path d="M16.4178344,86.9503185 C16.4178344,87.5539622 15.9284845,88.0433121 15.3248408,88.0433121 C14.7211971,88.0433121 14.2318471,87.5539622 14.2318471,86.9503185 C14.2318471,86.3466748 14.7211971,85.8573248 15.3248408,85.8573248 C15.6147207,85.8573248 15.8927279,85.9724792 16.097704,86.1774553 C16.30268,86.3824313 16.4178344,86.6604385 16.4178344,86.9503185 L16.4178344,86.9503185 Z" id="Path" fill="#1ED6FE" opacity="0.3" style="mix-blend-mode: color-dodge;"></path>
                    <path d="M16.0509554,86.9503185 C16.0509554,87.3513405 15.7258628,87.6764331 15.3248408,87.6764331 C14.9238187,87.6764331 14.5987261,87.3513405 14.5987261,86.9503185 C14.5987261,86.5492964 14.9238187,86.2242038 15.3248408,86.2242038 C15.5174183,86.2242038 15.7021084,86.300705 15.8382814,86.4368779 C15.9744543,86.5730508 16.0509554,86.7577409 16.0509554,86.9503185 L16.0509554,86.9503185 Z" id="Path" fill="#1ED6FE" style="mix-blend-mode: color-dodge;"></path>
                    <path d="M86.2088766,19.5133758 C86.202727,20.6863995 86.9045751,21.747366 87.986536,22.2005585 C89.068497,22.6537509 90.3169678,22.4096992 91.1486238,21.5824319 C91.9802798,20.7551646 92.2309337,19.5080025 91.7834722,18.4236589 C91.3360107,17.3393153 90.2787725,16.6318471 89.1057325,16.6318471 C87.5118164,16.6318471 86.2173284,17.9194819 86.2088766,19.5133758 Z" id="Path" fill="#4CEAF5"></path>
                    <path d="M20.8433121,49.9414013 C20.8433121,52.0773713 19.1117662,53.8089172 16.9757962,53.8089172 C14.8398261,53.8089172 13.1082803,52.0773713 13.1082803,49.9414013 C13.1082803,47.8054312 14.8398261,46.0738854 16.9757962,46.0738854 C19.1117662,46.0738854 20.8433121,47.8054312 20.8433121,49.9414013 Z" id="Path" fill="#1ED6FE" opacity="0.3" style="mix-blend-mode: color-dodge;"></path>
                    <path d="M19.4522293,49.9414013 C19.4522293,51.3090975 18.3434924,52.4178344 16.9757962,52.4178344 C15.6080999,52.4178344 14.4993631,51.3090975 14.4993631,49.9414013 C14.4993631,48.573705 15.6080999,47.4649682 16.9757962,47.4649682 C18.3434924,47.4649682 19.4522293,48.573705 19.4522293,49.9414013 Z" id="Path" fill="#1ED6FE" opacity="0.3" style="mix-blend-mode: color-dodge;"></path>
                    <path d="M18.6267516,49.9414013 C18.6267516,50.8531988 17.8875937,51.5923567 16.9757962,51.5923567 C16.0639987,51.5923567 15.3248408,50.8531988 15.3248408,49.9414013 C15.3248408,49.0296038 16.0639987,48.2904459 16.9757962,48.2904459 C17.8875937,48.2904459 18.6267516,49.0296038 18.6267516,49.9414013 Z" id="Path" fill="#1ED6FE" style="mix-blend-mode: color-dodge;"></path>
                    <path d="M131.793648,113.640764 C131.793648,114.582111 131.030518,115.345223 130.089172,115.345223 C129.147825,115.345223 128.384713,114.582111 128.384713,113.640764 C128.384713,112.699418 129.147825,111.936288 130.089172,111.936288 C130.541846,111.934262 130.97657,112.113182 131.296662,112.433274 C131.616754,112.753366 131.795674,113.18809 131.793648,113.640764 L131.793648,113.640764 Z" id="Path" fill="#1ED6FE" opacity="0.3" style="mix-blend-mode: color-dodge;"></path>
                    <path d="M131.220382,113.640764 C131.220382,114.244408 130.731032,114.733758 130.127389,114.733758 C129.523745,114.733758 129.034395,114.244408 129.034395,113.640764 C129.034395,113.037121 129.523745,112.547771 130.127389,112.547771 C130.731032,112.547771 131.220382,113.037121 131.220382,113.640764 L131.220382,113.640764 Z" id="Path" fill="#1ED6FE" opacity="0.3" style="mix-blend-mode: color-dodge;"></path>
                    <path d="M130.815287,113.640764 C130.814738,114.036687 130.497115,114.359189 130.101246,114.365772 C129.705378,114.372355 129.377207,114.060593 129.363494,113.664907 C129.349781,113.269222 129.655581,112.935488 130.050955,112.91465 C130.250065,112.904155 130.444729,112.975998 130.589284,113.113325 C130.733838,113.250652 130.815563,113.441379 130.815287,113.640764 Z" id="Path" fill="#1ED6FE" style="mix-blend-mode: color-dodge;"></path>
                    <path d="M106.073903,142.89172 C106.07698,143.581796 105.66367,144.205645 105.027008,144.471873 C104.390347,144.738101 103.655979,144.594167 103.166921,144.107303 C102.677863,143.620438 102.530631,142.886724 102.793994,142.248873 C103.057358,141.611021 103.679344,141.194904 104.369427,141.194904 C105.307796,141.194904 106.069677,141.95336 106.073903,142.89172 Z" id="Path" fill="#1ED6FE" opacity="0.3" style="mix-blend-mode: color-dodge;"></path>
                    <path d="M105.46242,142.89172 C105.465517,143.334477 105.201189,143.735362 104.793021,143.906947 C104.384852,144.078533 103.913488,143.986917 103.599307,143.674933 C103.285126,143.36295 103.190205,142.89224 103.358922,142.482877 C103.527639,142.073514 103.926659,141.806369 104.369427,141.806369 C104.970098,141.806369 105.45822,142.291063 105.46242,142.89172 L105.46242,142.89172 Z" id="Path" fill="#1ED6FE" opacity="0.3" style="mix-blend-mode: color-dodge;"></path>
                    <path d="M105.095541,142.89172 C105.095541,143.292742 104.770449,143.617834 104.369427,143.617834 C103.968405,143.617834 103.643312,143.292742 103.643312,142.89172 C103.643312,142.490698 103.968405,142.165605 104.369427,142.165605 C104.56263,142.163539 104.748524,142.239376 104.885147,142.375999 C105.021771,142.512623 105.097608,142.698516 105.095541,142.89172 L105.095541,142.89172 Z" id="Path" fill="#1ED6FE" style="mix-blend-mode: color-dodge;"></path>
                    <path d="M239.610193,44.4840764 C239.613283,52.3802865 234.8591,59.5007038 227.56484,62.5245951 C220.270581,65.5484864 211.872989,63.880238 206.288432,58.2978673 C200.703874,52.7154966 199.032337,44.3185589 202.053372,37.0231156 C205.074406,29.7276723 212.192961,24.9706991 220.089172,24.9706991 C225.265765,24.968673 230.231032,27.0236454 233.892154,30.6833331 C237.553275,34.3430207 239.610193,39.3074828 239.610193,44.4840764 Z" id="Path" fill="url(#radialGradient-4)" style="mix-blend-mode: screen;"></path>
                    <polygon id="Path" fill="url(#linearGradient-5)" style="mix-blend-mode: screen;" points="137.090446 90.1910828 141.133758 92.5299363 222.924841 45.3095541 218.873885 42.9707006"></polygon>
                    <path d="M213.768148,44.4840764 C213.765062,47.0513528 215.309581,49.3674145 217.680845,50.3512972 C220.052109,51.3351798 222.782607,50.7929044 224.597947,48.9775645 C226.413287,47.1622247 226.955562,44.4317266 225.971679,42.0604628 C224.987797,39.6891989 222.671735,38.1446795 220.104459,38.1477661 C216.605014,38.1477661 213.768148,40.9846314 213.768148,44.4840764 L213.768148,44.4840764 Z" id="Path" fill="#4CEAF5" opacity="0.100488281" style="mix-blend-mode: color-dodge;"></path>
                    <path d="M214.97579,44.4840764 C214.972705,46.5567232 216.219267,48.4268599 218.133553,49.2214561 C220.047839,50.0160523 222.252333,49.5784056 223.717917,48.1128214 C225.183501,46.6472372 225.621148,44.4427433 224.826552,42.5284573 C224.031955,40.6141713 222.161819,39.3676094 220.089172,39.3706949 C217.266878,39.3749099 214.980005,41.6617823 214.97579,44.4840764 L214.97579,44.4840764 Z" id="Path" fill="#4CEAF5" opacity="0.3" style="mix-blend-mode: color-dodge;"></path>
                    <path d="M215.99235,44.4840764 C215.989266,46.145562 216.98815,47.6450234 218.522573,48.2822752 C220.056996,48.9195269 221.824249,48.5688529 222.999099,47.3940032 C224.173948,46.2191534 224.524622,44.4519006 223.887371,42.9174775 C223.250119,41.3830545 221.750658,40.38417 220.089172,40.387254 C217.826563,40.387254 215.99235,42.2214678 215.99235,44.4840764 L215.99235,44.4840764 Z" id="Path" fill="#4CEAF5" opacity="0.3" style="mix-blend-mode: color-dodge;"></path>
                    <path d="M217.19999,44.4840764 C217.196909,45.6571142 217.90156,46.716224 218.984717,47.1665552 C220.067874,47.6168863 221.315697,47.3695333 222.145163,46.5400674 C222.974629,45.7106016 223.221982,44.4627783 222.771651,43.3796213 C222.32132,42.2964644 221.26221,41.5918134 220.089172,41.5948943 C218.495269,41.5991045 217.2042,42.8901738 217.19999,44.4840764 Z" id="Path" fill="#4CEAF5"></path>
                </g>
                <g id="light-right" transform="translate(350.277707, 0.000000)">
                    <polygon id="Path" fill="url(#linearGradient-6)" opacity="0.156784784" points="7.94904459 32.0101911 9.93630573 33.1566879 50.0713376 9.98216561 48.0840764 8.83566879"></polygon>
                    <path d="M130.364333,82.211465 C130.367423,88.1298542 126.804242,93.4670562 121.336954,95.733354 C115.869666,97.9996517 109.575491,96.7485168 105.390557,92.5635831 C101.205623,88.3786493 99.9544884,82.0844739 102.220786,76.6171862 C104.487084,71.1498984 109.824286,67.5867176 115.742675,67.5898069 C123.816245,67.594026 130.360114,74.1378947 130.364333,82.211465 Z" id="Path" fill="url(#radialGradient-7)" style="mix-blend-mode: screen;"></path>
                    <path d="M110.988529,82.211465 C110.985444,84.1357227 112.142618,85.872082 113.919811,86.6098922 C115.697004,87.3477024 117.743696,86.9414444 119.104354,85.5807869 C120.465011,84.2201294 120.871269,82.1734368 120.133459,80.3962442 C119.395649,78.6190515 117.65929,77.461877 115.735032,77.464962 C113.115359,77.4691765 110.992743,79.5917923 110.988529,82.211465 Z" id="Path" fill="#4CEAF5" opacity="0.1" style="mix-blend-mode: color-dodge;"></path>
                    <path d="M111.905732,82.211465 C111.905732,84.3221073 113.616746,86.033121 115.727389,86.033121 C117.838031,86.033121 119.549045,84.3221073 119.549045,82.211465 C119.549045,80.1008226 117.838031,78.3898089 115.727389,78.3898089 C113.616746,78.3898089 111.905732,80.1008226 111.905732,82.211465 Z" id="Path" fill="#4CEAF5" opacity="0.3" style="mix-blend-mode: color-dodge;"></path>
                    <path d="M112.670064,82.211465 C112.670064,83.8999789 114.038875,85.2687898 115.727389,85.2687898 C117.415902,85.2687898 118.784713,83.8999789 118.784713,82.211465 C118.784713,80.5229511 117.415902,79.1541401 115.727389,79.1541401 C114.038875,79.1541401 112.670064,80.5229511 112.670064,82.211465 Z" id="Path" fill="#4CEAF5" opacity="0.3" style="mix-blend-mode: color-dodge;"></path>
                    <path d="M113.571975,82.211465 C113.571975,83.0901258 114.101685,83.8821213 114.913759,84.2176517 C115.725833,84.5531822 116.660087,84.366061 117.280297,83.7436592 C117.900507,83.1212573 118.084332,82.1863494 117.745939,81.375464 C117.407546,80.5645786 116.613687,80.0376705 115.735032,80.0407508 C114.539173,80.0449751 113.571975,81.0155987 113.571975,82.211465 L113.571975,82.211465 Z" id="Path" fill="#4CEAF5"></path>
                    <path d="M58.2649712,9.57707006 C58.2680601,13.4544188 55.9347811,16.9516982 52.353465,18.4376383 C48.7721489,19.9235784 44.6483398,19.1054387 41.9055459,16.3648321 C39.1627521,13.6242254 38.3413228,9.5010703 39.8244054,5.91856992 C41.3074879,2.33606955 44.8029048,-1.0658141e-13 48.6802548,-1.0658141e-13 C53.9707623,-1.0658141e-13 58.2607492,4.28656418 58.2649712,9.57707006 Z" id="Path" fill="url(#radialGradient-8)" opacity="0.202590216" style="mix-blend-mode: color-dodge;"></path>
                    <path d="M45.5694268,9.57707006 C45.5694268,11.2951329 46.9621919,12.6878981 48.6802548,12.6878981 C50.3983177,12.6878981 51.7910828,11.2951329 51.7910828,9.57707006 C51.7910828,7.85900719 50.3983177,6.46624204 48.6802548,6.46624204 C46.9621919,6.46624204 45.5694268,7.85900719 45.5694268,9.57707006 Z" id="Path" fill="#4CEAF5" opacity="0.1" style="mix-blend-mode: color-dodge;"></path>
                    <path d="M46.1732367,9.57707006 C46.1701574,10.5955354 46.7816964,11.5152932 47.7220474,11.9064722 C48.6623985,12.2976512 49.7458453,12.0829947 50.4660124,11.3628276 C51.1861794,10.6426606 51.4008359,9.55921382 51.0096569,8.61886273 C50.6184779,7.67851164 49.6987201,7.06697273 48.6802548,7.07005203 C47.2956734,7.07005203 46.1732367,8.19248868 46.1732367,9.57707006 L46.1732367,9.57707006 Z" id="Path" fill="#4CEAF5" opacity="0.3" style="mix-blend-mode: color-dodge;"></path>
                    <path d="M46.6700637,9.57707006 C46.6700637,10.6872679 47.5700569,11.5872611 48.6802548,11.5872611 C49.7904527,11.5872611 50.6904459,10.6872679 50.6904459,9.57707006 C50.6904459,8.46687218 49.7904527,7.56687898 48.6802548,7.56687898 C47.5717974,7.57106979 46.6742545,8.46861272 46.6700637,9.57707006 Z" id="Path" fill="#4CEAF5" opacity="0.3" style="mix-blend-mode: color-dodge;"></path>
                    <path d="M47.258578,9.57707006 C47.2555036,10.1527617 47.5999096,10.6734903 48.1308936,10.8959459 C48.6618775,11.1184015 49.2746065,10.9986646 49.6827836,10.592682 C50.0909607,10.1866993 50.2139991,9.5746247 49.9944091,9.04244928 C49.7748191,8.51027385 49.2559547,8.16305732 48.6802548,8.16305732 C47.8980711,8.16305732 47.262804,8.79489765 47.258578,9.57707006 Z" id="Path" fill="#4CEAF5"></path>
                    <path d="M126.947771,4.96815287 C128.097024,4.21539736 128.820416,2.96151866 128.896815,1.58980892 C128.896815,0.343949045 128.025478,-0.160509554 126.947771,0.458598726 L24.5273885,59.6101911 L24.5273885,64.1197452 L126.947771,4.96815287 Z" id="Path" fill="url(#linearGradient-9)" opacity="0.196800595"></path>
                    <path d="M89.8929936,6.5044586 C89.8929936,7.5808862 89.0203766,8.45350318 87.943949,8.45350318 C86.8675214,8.45350318 85.9949045,7.5808862 85.9949045,6.5044586 C85.9949045,5.428031 86.8675214,4.55541401 87.943949,4.55541401 C89.0203766,4.55541401 89.8929936,5.428031 89.8929936,6.5044586 L89.8929936,6.5044586 Z" id="Path" fill="#1ED6FE" opacity="0.3" style="mix-blend-mode: color-dodge;"></path>
                    <path d="M89.1898089,6.5044586 C89.1898089,7.19252801 88.6320185,7.75031847 87.943949,7.75031847 C87.2558796,7.75031847 86.6980892,7.19252801 86.6980892,6.5044586 C86.6980892,5.81638919 87.2558796,5.25859873 87.943949,5.25859873 C88.6320185,5.25859873 89.1898089,5.81638919 89.1898089,6.5044586 L89.1898089,6.5044586 Z" id="Path" fill="#1ED6FE" opacity="0.3" style="mix-blend-mode: color-dodge;"></path>
                    <path d="M88.7770701,6.5044586 C88.7770701,6.96457863 88.4040691,7.33757962 87.943949,7.33757962 C87.483829,7.33757962 87.110828,6.96457863 87.110828,6.5044586 C87.110828,6.04433857 87.483829,5.67133758 87.943949,5.67133758 C88.4040691,5.67133758 88.7770701,6.04433857 88.7770701,6.5044586 Z" id="Path" fill="#1ED6FE" style="mix-blend-mode: color-dodge;"></path>
                    <path d="M65.5949045,62.1171975 C65.5949045,63.1936251 64.7222875,64.066242 63.6458599,64.066242 C62.5694323,64.066242 61.6968153,63.1936251 61.6968153,62.1171975 C61.6968153,61.0407699 62.5694323,60.1681529 63.6458599,60.1681529 C64.7222875,60.1681529 65.5949045,61.0407699 65.5949045,62.1171975 L65.5949045,62.1171975 Z" id="Path" fill="#1ED6FE" opacity="0.3" style="mix-blend-mode: color-dodge;"></path>
                    <path d="M64.8993631,62.1171975 C64.9361323,62.5869965 64.7063109,63.0377247 64.3044808,63.2838867 C63.9026508,63.5300487 63.3967123,63.5300487 62.9948822,63.2838867 C62.5930522,63.0377247 62.3632307,62.5869965 62.4,62.1171975 C62.4510578,61.4648348 62.9953239,60.9615018 63.6496815,60.9615018 C64.3040391,60.9615018 64.8483053,61.4648348 64.8993631,62.1171975 L64.8993631,62.1171975 Z" id="Path" fill="#1ED6FE" opacity="0.3" style="mix-blend-mode: color-dodge;"></path>
                    <path d="M64.478981,62.1171975 C64.4788525,62.4562227 64.2732981,62.7613585 63.9591579,62.8888501 C63.6450178,63.0163417 63.2849515,62.9407592 63.0485925,62.6977107 C62.8122335,62.4546623 62.7467268,62.0926273 62.8829337,61.7821667 C63.0191407,61.4717061 63.329893,61.2747455 63.6687898,61.2840764 C64.1199309,61.2964978 64.4791519,61.6658854 64.478981,62.1171975 Z" id="Path" fill="#1ED6FE" style="mix-blend-mode: color-dodge;"></path>
                    <path d="M3.89808917,17.6407643 C3.89808917,18.7171919 3.02547219,19.5898089 1.94904459,19.5898089 C0.872616984,19.5898089 -3.12638804e-13,18.7171919 -3.12638804e-13,17.6407643 C-3.12638804e-13,16.5643367 0.872616984,15.6917197 1.94904459,15.6917197 C3.02547219,15.6917197 3.89808917,16.5643367 3.89808917,17.6407643 Z" id="Path" fill="#1ED6FE" opacity="0.3" style="mix-blend-mode: color-dodge;"></path>
                    <path d="M3.19492794,17.6407643 C3.1906893,18.327823 2.63104615,18.8817763 1.94398029,18.8789811 C1.25691442,18.8761647 0.70181429,18.317659 0.703208104,17.6305889 C0.704607175,16.9435187 1.26197299,16.3872611 1.94904459,16.3872611 C2.28079573,16.3872611 2.59884891,16.5195635 2.83271392,16.7548632 C3.06657893,16.990163 3.19693974,17.3090194 3.19492794,17.6407643 L3.19492794,17.6407643 Z" id="Path" fill="#1ED6FE" opacity="0.3" style="mix-blend-mode: color-dodge;"></path>
                    <path d="M2.78216561,17.6407643 C2.78216561,18.1008844 2.40916462,18.4738854 1.94904459,18.4738854 C1.48892455,18.4738854 1.11592357,18.1008844 1.11592357,17.6407643 C1.11592357,17.1806443 1.48892455,16.8076433 1.94904459,16.8076433 C2.17062753,16.8055819 2.38373492,16.8926948 2.5404245,17.0493844 C2.69711408,17.206074 2.78422698,17.4191814 2.78216561,17.6407643 L2.78216561,17.6407643 Z" id="Path" fill="#1ED6FE" style="mix-blend-mode: color-dodge;"></path>
                    <path d="M87.943949,85.4063694 C87.943949,86.1946844 87.4690796,86.9053768 86.7407715,87.2070518 C86.0124635,87.5087269 85.1741447,87.3419749 84.6167218,86.7845521 C84.059299,86.2271292 83.892547,85.3888104 84.1942221,84.6605024 C84.4958971,83.9321943 85.2065895,83.4573248 85.9949045,83.4573248 C87.0713321,83.4573248 87.943949,84.3299418 87.943949,85.4063694 L87.943949,85.4063694 Z" id="Path" fill="#1ED6FE" opacity="0.3" style="mix-blend-mode: color-dodge;"></path>
                    <path d="M87.2407643,85.4063694 C87.2407643,85.9102727 86.9372203,86.3645584 86.4716744,86.5573939 C86.0061285,86.7502293 85.4702619,86.6436388 85.1139485,86.2873254 C84.7576351,85.931012 84.6510446,85.3951454 84.84388,84.9295995 C85.0367155,84.4640536 85.4910012,84.1605096 85.9949045,84.1605096 C86.6829739,84.1605096 87.2407643,84.7183 87.2407643,85.4063694 L87.2407643,85.4063694 Z" id="Path" fill="#1ED6FE" opacity="0.3" style="mix-blend-mode: color-dodge;"></path>
                    <path d="M86.8280255,85.4063694 C86.8280255,85.8664895 86.4550245,86.2394904 85.9949045,86.2394904 C85.5347844,86.2394904 85.1617834,85.8664895 85.1617834,85.4063694 C85.1617834,84.9462494 85.5347844,84.5732484 85.9949045,84.5732484 C86.4550245,84.5732484 86.8280255,84.9462494 86.8280255,85.4063694 Z" id="Path" fill="#1ED6FE" style="mix-blend-mode: color-dodge;"></path>
                    <path d="M81.6687898,148.180892 C81.6687898,148.969207 81.1939203,149.679899 80.4656123,149.981574 C79.7373042,150.283249 78.8989854,150.116497 78.3415626,149.559074 C77.7841397,149.001652 77.6173878,148.163333 77.9190628,147.435025 C78.2207379,146.706717 78.9314303,146.231847 79.7197452,146.231847 C80.7944325,146.236037 81.6645999,147.106204 81.6687898,148.180892 L81.6687898,148.180892 Z" id="Path" fill="#1ED6FE" opacity="0.3" style="mix-blend-mode: color-dodge;"></path>
                    <path d="M80.9732719,148.180892 C80.9763441,148.688571 80.6729084,149.147984 80.2047599,149.344413 C79.7366115,149.540842 79.1962086,149.435492 78.8361226,149.077602 C78.4760367,148.719712 78.3673839,148.179963 78.560946,147.710622 C78.7545081,147.241281 79.212057,146.935032 79.7197452,146.935032 C80.409062,146.935032 80.9690453,147.491588 80.9732719,148.180892 L80.9732719,148.180892 Z" id="Path" fill="#1ED6FE" opacity="0.3" style="mix-blend-mode: color-dodge;"></path>
                    <path d="M80.5528662,148.180892 C80.555964,148.518536 80.3549565,148.82466 80.0438986,148.956023 C79.7328407,149.087386 79.3732541,149.018007 79.1333958,148.780349 C78.8935374,148.542691 78.820847,148.183759 78.9493376,147.871504 C79.0778282,147.559249 79.3820867,147.355414 79.7197452,147.355414 C80.1768968,147.355395 80.5486722,147.723759 80.5528662,148.180892 Z" id="Path" fill="#1ED6FE" style="mix-blend-mode: color-dodge;"></path>
                    <polygon id="Path" fill="url(#linearGradient-10)" style="mix-blend-mode: overlay;" points="53.5414013 116.461146 56.5757962 118.211465 117.859873 82.8229299 114.825478 81.0726115"></polygon>
                </g>
                <path d="M285.301911,131.648408 C285.281072,132.043782 284.947339,132.349582 284.551653,132.335869 C284.155967,132.322156 283.844205,131.993985 283.850788,131.598117 C283.857372,131.202248 284.179873,130.884625 284.575796,130.884076 C284.98293,130.904458 285.302421,131.240764 285.301911,131.648408 Z" id="Path" fill="#1ED6FE" style="mix-blend-mode: color-dodge;"></path>
                <path d="M330.321019,187.253503 C330.300181,187.648878 329.966447,187.954678 329.570761,187.940965 C329.175076,187.927252 328.863313,187.599081 328.869897,187.203212 C328.87648,186.807344 329.198982,186.489721 329.594904,186.489171 C329.79429,186.488896 329.985017,186.57062 330.122344,186.715175 C330.25967,186.859729 330.331513,187.054394 330.321019,187.253503 Z" id="Path" fill="#1ED6FE" style="mix-blend-mode: color-dodge;"></path>
                <g id="Group-26" transform="translate(0.756688, 40.196178)">
                    <path d="M5.03694268,167.717197 L287.533758,4.61656051 C286.203822,3.76815287 284.858599,2.94267516 283.513376,2.16305732 C282.168153,1.38343949 280.861146,0.687898089 279.538854,-1.98951966e-13 L-1.36424205e-12,161.373248 L5.03694268,167.717197 Z" id="Path" fill="url(#linearGradient-11)" opacity="0.2" style="mix-blend-mode: screen;"></path>
                    <path d="M109.100637,299.289172 L364.165605,152.025478 C364.448408,149.029299 364.601274,145.910828 364.601274,142.654777 C364.601274,142.654777 364.601274,142.578344 364.601274,142.540127 L104.086624,292.945223 L109.100637,299.289172 Z" id="Path" fill="url(#linearGradient-12)" opacity="0.2" style="mix-blend-mode: screen;"></path>
                    <path d="M161.763057,93.9133758 C162.906692,93.1695059 163.629838,91.9273966 163.712102,90.5656051 C163.712102,89.3197452 162.840764,88.8152866 161.763057,89.4420382 L59.3044586,148.555414 L59.3044586,153.064968 L161.763057,93.9133758 Z" id="Path" fill="url(#linearGradient-13)" opacity="0.3" style="mix-blend-mode: screen;"></path>
                    <path d="M469.29172,72.7796178 C469.977054,72.3328484 470.408526,71.5862887 470.453503,70.7694268 C470.453503,70.0050955 469.933758,69.722293 469.29172,70.0968153 L408.305732,105.301911 L408.305732,107.984713 L469.29172,72.7796178 Z" id="Path" fill="url(#linearGradient-14)" opacity="0.3" style="mix-blend-mode: screen;"></path>
                    <path d="M467.212739,13.6280255 C467.898333,13.1779499 468.3295,12.429081 468.374522,11.6101911 C468.374522,10.8458599 467.854777,10.5707006 467.212739,10.9452229 L406.226752,46.1503185 L406.226752,48.833121 L467.212739,13.6280255 Z" id="Path" fill="url(#linearGradient-15)" opacity="0.3" style="mix-blend-mode: screen;"></path>
                    <path d="M268.616561,78.6343949 C269.769903,77.8808965 270.496282,76.6239201 270.573248,75.2484076 C270.573248,74.0101911 269.694268,73.5057325 268.616561,74.1248408 L166.196178,133.276433 L166.196178,137.785987 L268.616561,78.6343949 Z" id="Path" fill="url(#linearGradient-16)" opacity="0.3" style="mix-blend-mode: screen;"></path>
                    <path d="M299.159236,106.616561 C299.916792,106.121717 300.393585,105.295844 300.443312,104.392357 C300.443312,103.574522 299.870064,103.238217 299.159236,103.628025 L231.729936,142.555414 L231.729936,145.597452 L299.159236,106.616561 Z" id="Path" fill="url(#linearGradient-17)" opacity="0.3" style="mix-blend-mode: screen;"></path>
                    <path d="M239.686642,76.0433121 C239.686642,76.9846586 238.923512,77.7477707 237.982166,77.7477707 C237.040819,77.7477707 236.277707,76.9846586 236.277707,76.0433121 C236.277707,75.1019656 237.040819,74.3388362 237.982166,74.3388362 C238.43484,74.3368098 238.869564,74.5157298 239.189656,74.8358219 C239.509748,75.155914 239.688668,75.5906381 239.686642,76.0433121 L239.686642,76.0433121 Z" id="Path" fill="#1ED6FE" opacity="0.3" style="mix-blend-mode: color-dodge;"></path>
                    <path d="M239.067516,76.0433121 C239.067516,76.6469558 238.578166,77.1363057 237.974522,77.1363057 C237.370879,77.1363057 236.881529,76.6469558 236.881529,76.0433121 C236.881529,75.4396684 237.370879,74.9503185 237.974522,74.9503185 C238.578166,74.9503185 239.067516,75.4396684 239.067516,76.0433121 Z" id="Path" fill="#1ED6FE" opacity="0.3" style="mix-blend-mode: color-dodge;"></path>
                    <path d="M220.066259,74.9350318 C220.069337,75.6251081 219.656026,76.2489575 219.019365,76.5151853 C218.382704,76.781413 217.648336,76.6374795 217.159278,76.1506147 C216.67022,75.66375 216.522987,74.9300362 216.786351,74.2921848 C217.049715,73.6543334 217.6717,73.2382166 218.361783,73.2382166 C219.300153,73.2382166 220.062034,73.9966716 220.066259,74.9350318 Z" id="Path" fill="#1ED6FE" opacity="0.3" style="mix-blend-mode: color-dodge;"></path>
                    <path d="M219.454777,74.9350318 C219.454777,75.533456 218.970379,76.0189574 218.371957,76.0203553 C217.773534,76.0217472 217.286893,75.5385092 217.284076,74.9400915 C217.281284,74.3416739 217.763374,73.8538958 218.361783,73.8496815 C218.962455,73.8496815 219.450577,74.3343752 219.454777,74.9350318 L219.454777,74.9350318 Z" id="Path" fill="#1ED6FE" opacity="0.3" style="mix-blend-mode: color-dodge;"></path>
                    <path d="M219.095541,74.9350318 C219.07516,75.3421657 218.738854,75.6616564 218.33121,75.6611471 C218.017548,75.5580508 217.805541,75.2652024 217.805541,74.9350318 C217.805541,74.6048613 218.017548,74.3120129 218.33121,74.2089166 C218.738854,74.2084073 219.07516,74.527898 219.095541,74.9350318 Z" id="Path" fill="#1ED6FE" style="mix-blend-mode: color-dodge;"></path>
                    <path d="M285.546497,91.4522293 C285.54228,92.388348 284.780733,93.1442017 283.844609,93.1414014 C282.908485,93.1385856 282.151486,92.3781768 282.152883,91.4420497 C282.154285,90.5059226 282.913553,89.7477531 283.849682,89.7477531 C284.301662,89.745707 284.735617,89.9248677 285.0545,90.2451872 C285.373383,90.5655067 285.550592,91.0002623 285.546497,91.4522293 Z" id="Path" fill="#1ED6FE" opacity="0.3" style="mix-blend-mode: color-dodge;"></path>
                    <path d="M284.904459,91.4522293 C284.900244,92.0506387 284.412466,92.532729 283.814049,92.5299366 C283.215631,92.5271198 282.732393,92.0404787 282.733785,91.4420561 C282.735183,90.8436336 283.220684,90.3592357 283.819108,90.3592357 C284.10829,90.3592357 284.385518,90.4746262 284.589282,90.679825 C284.793046,90.8850237 284.906495,91.1630545 284.904459,91.4522293 Z" id="Path" fill="#1ED6FE" opacity="0.3" style="mix-blend-mode: color-dodge;"></path>
                    <path d="M330.535049,147.057325 C330.538123,147.748095 330.123982,148.372426 329.48638,148.638202 C328.848778,148.903978 328.113809,148.758639 327.625356,148.270185 C327.136903,147.781732 326.991563,147.046764 327.257339,146.409162 C327.523115,145.77156 328.147446,145.357419 328.838217,145.360492 C329.775342,145.360492 330.535049,146.1202 330.535049,147.057325 Z" id="Path" fill="#1ED6FE" opacity="0.3" style="mix-blend-mode: color-dodge;"></path>
                    <path d="M329.923567,147.057325 C329.923567,147.656747 329.437639,148.142675 328.838217,148.142675 C328.238794,148.142675 327.752866,147.656747 327.752866,147.057325 C327.752866,146.457902 328.238794,145.971975 328.838217,145.971975 C329.435905,145.97614 329.919402,146.459636 329.923567,147.057325 L329.923567,147.057325 Z" id="Path" fill="#1ED6FE" opacity="0.3" style="mix-blend-mode: color-dodge;"></path>
                    <path d="M284.147788,44.8433121 C284.150865,45.5333884 283.737555,46.1572378 283.100894,46.4234655 C282.464232,46.6896933 281.729864,46.5457597 281.240806,46.058895 C280.751749,45.5720302 280.604516,44.8383164 280.86788,44.200465 C281.131243,43.5626136 281.753229,43.1464968 282.443312,43.1464968 C283.381682,43.1464968 284.143563,43.9049519 284.147788,44.8433121 L284.147788,44.8433121 Z" id="Path" fill="#1ED6FE" opacity="0.3" style="mix-blend-mode: color-dodge;"></path>
                    <path d="M283.536306,44.8433121 C283.539402,45.2860692 283.275075,45.6869541 282.866906,45.8585396 C282.458737,46.0301252 281.987373,45.9385094 281.673192,45.6265256 C281.359011,45.3145419 281.26409,44.8438323 281.432807,44.4344694 C281.601524,44.0251065 282.000544,43.7579618 282.443312,43.7579618 C283.043983,43.7579618 283.532105,44.2426554 283.536306,44.8433121 L283.536306,44.8433121 Z" id="Path" fill="#1ED6FE" opacity="0.3" style="mix-blend-mode: color-dodge;"></path>
                    <path d="M255.049699,45.9363057 C255.049699,46.8776522 254.286569,47.6407643 253.345223,47.6407643 C252.403876,47.6407643 251.640764,46.8776522 251.640764,45.9363057 C251.640764,44.9949592 252.403876,44.2318298 253.345223,44.2318298 C253.797897,44.2298034 254.232621,44.4087234 254.552713,44.7288155 C254.872805,45.0489076 255.051725,45.4836318 255.049699,45.9363057 L255.049699,45.9363057 Z" id="Path" fill="#1ED6FE" opacity="0.3" style="mix-blend-mode: color-dodge;"></path>
                    <path d="M254.438217,45.9363057 C254.438217,46.5399494 253.948867,47.0292994 253.345223,47.0292994 C252.741579,47.0292994 252.252229,46.5399494 252.252229,45.9363057 C252.252229,45.332662 252.741579,44.8433121 253.345223,44.8433121 C253.948867,44.8433121 254.438217,45.332662 254.438217,45.9363057 L254.438217,45.9363057 Z" id="Path" fill="#1ED6FE" opacity="0.3" style="mix-blend-mode: color-dodge;"></path>
                </g>
            </g>
        </g>
    </g>
</svg>
