<svg xmlns="http://www.w3.org/2000/svg" width="41" height="17" viewBox="0 0 41 17">
    <g fill="none" fill-rule="evenodd">
        <g fill-rule="nonzero">
            <g fill="#AAB7C4">
                <path d="M19.477 2.587v4.1h2.5c.6 0 1.1-.2 1.5-.6.4-.4.6-.9.6-1.4 0-.5-.2-1-.6-1.4-.3-.4-.8-.7-1.4-.7h-2.6zm0 5.6v4.7h-1.5v-11.7h4c1 0 1.9.3 2.6 1 .7.7 1.1 1.5 1.1 2.5s-.4 1.8-1.1 2.5c-.7.7-1.6 1-2.6 1h-2.5zM27.177 10.487c0 .4.2.7.5 1 .3.3.7.4 1.2.4.6 0 1.2-.2 1.7-.7.5-.5.7-1 .7-1.6-.5-.4-1.1-.6-2-.6-.6 0-1.1.1-1.5.4-.4.3-.6.6-.6 1.1m2-5.9c1.1 0 2 .3 2.6.9.6.6 1 1.4 1 2.4v4.9h-1.4v-1.1h-.1c-.6.9-1.5 1.4-2.5 1.4-.9 0-1.6-.3-2.2-.8-.6-.5-.9-1.2-.9-2s.3-1.5.9-2c.6-.5 1.5-.7 2.5-.7.9 0 1.6.2 2.2.5v-.2c0-.5-.2-1-.6-1.3-.4-.4-.9-.5-1.5-.5-.8 0-1.5.4-2 1.1l-1.3-1c.8-1 1.8-1.6 3.3-1.6M40.961 4.847l-5 11.6h-1.5l1.8-4.1-3.3-7.5h1.7l2.3 5.8h.1l2.3-5.8z"/>
            </g>
            <path fill="#C0C9D2" d="M13.461 7.161c0-.5 0-.9-.1-1.4h-6.4v2.6h3.6c-.2.8-.6 1.6-1.3 2v1.7h2.2c1.3-1.2 2-2.9 2-4.9"/>
            <path fill="#ACB7C3" d="M6.961 13.661c1.8 0 3.3-.6 4.5-1.6l-2.2-1.7c-.6.4-1.4.6-2.3.6-1.7.1-3.2-1.1-3.7-2.7h-2.3v1.7c1.1 2.2 3.4 3.7 6 3.7"/>
            <path fill="#D6DBE0" d="M3.261 8.261c-.2-.4-.3-.8-.3-1.3s.1-.9.3-1.3v-1.7h-2.3c-.4.9-.7 1.9-.7 3s.3 2.1.7 3l2.3-1.7z"/>
            <path fill="#ACB7C3" d="M6.961 2.961c1 0 1.9.3 2.6 1l1.9-1.9c-1.1-1.1-2.7-1.8-4.5-1.8-2.6 0-4.9 1.5-6 3.7l2.3 1.7c.5-1.6 2-2.7 3.7-2.7"/>
        </g>
        <path d="M0 0h41.3v18H0z"/>
    </g>
</svg>
