<svg xmlns="http://www.w3.org/2000/svg" width="130" height="26" viewBox="0 0 130 26">
    <defs>
        <linearGradient id="a" x1="50.024%" x2="50.024%" y1="100%" y2="0%">
            <stop offset="0%" stop-color="#0041EA"/>
            <stop offset="100%" stop-color="#00C6FB"/>
        </linearGradient>
        <linearGradient id="b" x1="0%" x2="100.069%" y1="50.026%" y2="50.026%">
            <stop offset="0%" stop-color="#00C6FB"/>
            <stop offset="100%" stop-color="#005BEA"/>
        </linearGradient>
        <linearGradient id="c" x1="49.546%" x2="51.108%" y1="30.371%" y2="95.63%">
            <stop offset="0%" stop-color="#0041EA"/>
            <stop offset="100%" stop-color="#00C6FB"/>
        </linearGradient>
        <linearGradient id="d" x1="-43.137%" x2="406.03%" y1="47.488%" y2="59.115%">
            <stop offset="0%" stop-color="#00C6FB"/>
            <stop offset="100%" stop-color="#005BEA"/>
        </linearGradient>
        <linearGradient id="e" x1="-119.66%" x2="393.754%" y1="45.462%" y2="58.295%">
            <stop offset="0%" stop-color="#00C6FB"/>
            <stop offset="100%" stop-color="#005BEA"/>
        </linearGradient>
        <linearGradient id="f" x1="-198.745%" x2="356.962%" y1="42.424%" y2="59.418%">
            <stop offset="0%" stop-color="#00C6FB"/>
            <stop offset="100%" stop-color="#005BEA"/>
        </linearGradient>
        <linearGradient id="g" x1="-415.159%" x2="425.874%" y1="40.953%" y2="57.302%">
            <stop offset="0%" stop-color="#00C6FB"/>
            <stop offset="100%" stop-color="#005BEA"/>
        </linearGradient>
        <linearGradient id="h" x1="-306.381%" x2="215.47%" y1="41.086%" y2="54.638%">
            <stop offset="0%" stop-color="#00C6FB"/>
            <stop offset="100%" stop-color="#005BEA"/>
        </linearGradient>
        <linearGradient id="i" x1="-618.606%" x2="209.782%" y1="37.372%" y2="53.235%">
            <stop offset="0%" stop-color="#00C6FB"/>
            <stop offset="100%" stop-color="#005BEA"/>
        </linearGradient>
        <linearGradient id="j" x1="-374.329%" x2="74.619%" y1="38.924%" y2="50.553%">
            <stop offset="0%" stop-color="#00C6FB"/>
            <stop offset="100%" stop-color="#005BEA"/>
        </linearGradient>
    </defs>
    <g fill="none" fill-rule="nonzero">
        <path fill="url(#a)" d="M6.619 1.037V6.81H2.747A2.75 2.75 0 0 0 0 9.56V3.778a2.75 2.75 0 0 1 2.747-2.75H6.61l.009.009z" transform="translate(1)"/>
        <path fill="url(#b)" d="M18.169 1.027h-3.856a2.75 2.75 0 0 0-2.75 2.748V5.93a.88.88 0 0 1-.881.88H2.747A2.75 2.75 0 0 0 0 9.56v9.64h3.869a2.75 2.75 0 0 0 2.75-2.751v-2.14a.88.88 0 0 1 .88-.88h7.932a2.75 2.75 0 0 0 2.738-2.75V1.027z" transform="translate(1)"/>
        <path fill="url(#c)" d="M18.169 10.679v5.78a2.75 2.75 0 0 1-2.75 2.75h-3.847v-5.78h3.859a2.75 2.75 0 0 0 2.738-2.75z" transform="translate(1)"/>
        <path fill="url(#d)" d="M24.612 4.699l3.058 7.8a.313.313 0 0 0 .601 0l2.844-7.8a.313.313 0 0 1 .314-.21h4.153a.313.313 0 0 1 .295.445l-8.69 20.559a.313.313 0 0 1-.313.197H22.77a.313.313 0 0 1-.294-.454l3.104-6.795a.313.313 0 0 0 0-.263L19.816 4.95a.313.313 0 0 1 .295-.448h4.204c.13-.002.249.076.297.198z" transform="translate(1)"/>
        <path fill="url(#e)" d="M44.836 5.247c.438.27.825.615 1.143 1.018a.313.313 0 0 0 .58-.191V.314c0-.174.14-.314.313-.314h3.76c.172 0 .312.14.312.313v18.394c0 .173-.14.314-.313.314h-3.759a.313.313 0 0 1-.313-.314v-1.083a.313.313 0 0 0-.58-.191 4.404 4.404 0 0 1-1.143 1.03 5.19 5.19 0 0 1-2.82.746 5.801 5.801 0 0 1-3.173-.887 6.046 6.046 0 0 1-2.211-2.56 8.83 8.83 0 0 1-.812-3.909 8.815 8.815 0 0 1 .812-3.918 6.068 6.068 0 0 1 2.211-2.547 5.801 5.801 0 0 1 3.177-.887 5.19 5.19 0 0 1 2.816.746zm-3.69 4.038c-.577.626-.862 1.472-.862 2.568 0 1.097.285 1.955.862 2.572a3.227 3.227 0 0 0 4.551-.015 3.59 3.59 0 0 0 .887-2.547 3.584 3.584 0 0 0-.887-2.556 2.992 2.992 0 0 0-2.277-.94 2.957 2.957 0 0 0-2.274.918z" transform="translate(1)"/>
        <path fill="url(#f)" d="M59.866 5.479a5.363 5.363 0 0 1 2.471-.765.313.313 0 0 1 .332.314v4.056c0 .173-.14.314-.313.314h-.94c-1.165 0-2.067.247-2.712.745-.646.498-.962 1.338-.962 2.506v6.24c0 .173-.14.313-.313.313h-3.76a.313.313 0 0 1-.313-.313V5.181c0-.173.14-.313.314-.313h3.759c.173 0 .313.14.313.313v1.397a.313.313 0 0 0 .564.207 6.14 6.14 0 0 1 1.56-1.306z" transform="translate(1)"/>
        <path fill="url(#g)" d="M75.062 5.388a6.494 6.494 0 0 1 2.65 2.56 7.678 7.678 0 0 1 .965 3.905 7.681 7.681 0 0 1-.965 3.91 6.494 6.494 0 0 1-2.65 2.56 8.05 8.05 0 0 1-3.819.886 8.145 8.145 0 0 1-3.831-.887 6.478 6.478 0 0 1-2.66-2.56 7.65 7.65 0 0 1-.964-3.909 7.647 7.647 0 0 1 .965-3.906 6.478 6.478 0 0 1 2.659-2.559 8.145 8.145 0 0 1 3.831-.887 8.05 8.05 0 0 1 3.819.887zM69.11 9.219c-.573.608-.862 1.488-.862 2.634 0 1.147.289 2.024.862 2.626a2.82 2.82 0 0 0 2.12.899c.8.016 1.57-.311 2.112-.9.564-.6.846-1.476.846-2.625 0-1.146-.282-2.026-.846-2.634a2.772 2.772 0 0 0-2.111-.912 2.8 2.8 0 0 0-2.109.912h-.012z" transform="translate(1)"/>
        <path fill="url(#h)" d="M85.042 13.157v5.732c0 .173-.14.313-.313.313h-3.76a.313.313 0 0 1-.313-.313V1.347c0-.173.14-.313.314-.313h6.803c2.158 0 3.803.535 4.937 1.607 1.134 1.071 1.7 2.516 1.698 4.335a5.97 5.97 0 0 1-.758 3.02 5.253 5.253 0 0 1-2.252 2.083 7.897 7.897 0 0 1-3.63.764H85.36a.313.313 0 0 0-.32.314zm4.884-6.184c0-1.593-.883-2.391-2.647-2.393H85.36a.313.313 0 0 0-.313.313v4.094c0 .173.14.314.313.314h1.918c1.764.006 2.647-.771 2.647-2.331v.003z" transform="translate(1)"/>
        <path fill="url(#i)" d="M104.52 5.247c.452.282.851.641 1.178 1.062a.313.313 0 0 0 .57-.197v-1.1c0-.173.14-.313.313-.313h3.728c.173 0 .313.14.313.313v13.695c0 .173-.14.314-.313.314h-3.728a.313.313 0 0 1-.313-.314V17.6a.313.313 0 0 0-.57-.198c-.327.421-.726.78-1.178 1.062a5.19 5.19 0 0 1-2.82.746 5.801 5.801 0 0 1-3.176-.887 6.09 6.09 0 0 1-2.211-2.56 8.871 8.871 0 0 1-.808-3.909 8.859 8.859 0 0 1 .808-3.918 6.108 6.108 0 0 1 2.211-2.547 5.801 5.801 0 0 1 3.177-.887 5.19 5.19 0 0 1 2.819.746zm-3.69 4.038c-.574.626-.862 1.483-.862 2.568 0 1.1.289 1.955.862 2.572a3.227 3.227 0 0 0 4.551-.015c.617-.701.935-1.615.887-2.547a3.571 3.571 0 0 0-.887-2.556 3.242 3.242 0 0 0-4.551 0v-.022z" transform="translate(1)"/>
        <path fill="url(#j)" d="M117.072 4.699l3.057 7.8a.313.313 0 0 0 .602 0l2.844-7.8a.313.313 0 0 1 .313-.21h4.139a.313.313 0 0 1 .297.445l-8.661 20.559a.313.313 0 0 1-.314.194h-4.119a.313.313 0 0 1-.294-.454l3.1-6.795a.313.313 0 0 0 0-.263l-5.76-13.226a.313.313 0 0 1 .295-.448h4.2a.313.313 0 0 1 .301.198z" transform="translate(1)"/>
    </g>
</svg>
