<svg xmlns="http://www.w3.org/2000/svg" width="180" height="36" viewBox="0 0 180 36">
    <g fill="none" fill-rule="nonzero">
        <path fill="#D1D3D4" d="M9.277 1.436v7.993H3.85C1.723 9.432 0 11.136 0 13.238V5.23c0-2.102 1.723-3.806 3.85-3.808h5.413l.014.013z"/>
        <path fill="#FFF" d="M25.463 1.423H20.06c-2.127 0-3.852 1.702-3.855 3.804V8.21c0 .323-.13.633-.36.861a1.241 1.241 0 0 1-.873.357H3.85C1.722 9.432 0 11.136 0 13.238v13.346h5.422a3.879 3.879 0 0 0 2.726-1.116 3.785 3.785 0 0 0 1.129-2.693v-2.962c0-.673.552-1.219 1.233-1.219h11.116c2.122-.01 3.837-1.712 3.837-3.808V1.423z"/>
        <path fill="#D1D3D4" d="M25.463 14.786v8.002c0 2.104-1.725 3.809-3.854 3.809h-5.391v-8.003h5.408c2.122-.01 3.837-1.712 3.837-3.808z"/>
        <path fill="#FFF" d="M34.494 6.506l4.285 10.8a.438.438 0 0 0 .421.312.438.438 0 0 0 .422-.312l3.986-10.8a.439.439 0 0 1 .44-.29h5.82a.44.44 0 0 1 .381.194.43.43 0 0 1 .032.421L38.103 35.297a.44.44 0 0 1-.44.274h-5.75a.44.44 0 0 1-.39-.198.43.43 0 0 1-.023-.431l4.35-9.408a.429.429 0 0 0 0-.364L27.774 6.853a.43.43 0 0 1 .029-.425.44.44 0 0 1 .383-.195h5.892a.44.44 0 0 1 .417.273zM62.838 7.265c.613.374 1.155.851 1.602 1.41.106.172.319.25.512.186a.434.434 0 0 0 .3-.45V.433c0-.24.197-.434.44-.434h5.268c.242 0 .439.194.439.434v25.469c0 .24-.197.433-.44.433h-5.268a.436.436 0 0 1-.439-.433v-1.501a.434.434 0 0 0-.3-.45.442.442 0 0 0-.512.185 6.147 6.147 0 0 1-1.602 1.427 7.343 7.343 0 0 1-3.952 1.033 8.205 8.205 0 0 1-4.447-1.228 8.401 8.401 0 0 1-3.1-3.543 12.102 12.102 0 0 1-1.137-5.413 12.08 12.08 0 0 1 1.138-5.426 8.432 8.432 0 0 1 3.099-3.527 8.205 8.205 0 0 1 4.452-1.227 7.343 7.343 0 0 1 3.947 1.032zm-5.172 5.59c-.808.868-1.207 2.04-1.207 3.558 0 1.518.399 2.706 1.207 3.56a4.561 4.561 0 0 0 6.379-.021 4.934 4.934 0 0 0 1.242-3.526 4.925 4.925 0 0 0-1.242-3.54 4.218 4.218 0 0 0-3.192-1.3 4.17 4.17 0 0 0-3.187 1.27zM83.902 7.586a7.582 7.582 0 0 1 3.464-1.058c.12-.007.24.035.327.117a.431.431 0 0 1 .138.316v5.617c0 .24-.196.434-.439.434h-1.317c-1.633 0-2.897.343-3.802 1.032-.904.69-1.348 1.852-1.348 3.47v8.64c0 .24-.196.434-.439.434h-5.268a.436.436 0 0 1-.439-.434V7.174c0-.24.197-.434.439-.434h5.268c.243 0 .44.194.44.434v1.934a.434.434 0 0 0 .286.435.442.442 0 0 0 .504-.148 8.58 8.58 0 0 1 2.186-1.809zM105.199 7.46a9.053 9.053 0 0 1 3.714 3.544 10.529 10.529 0 0 1 1.352 5.409 10.533 10.533 0 0 1-1.352 5.413 9.053 9.053 0 0 1-3.714 3.543 11.396 11.396 0 0 1-5.352 1.228 11.53 11.53 0 0 1-5.369-1.228 9.031 9.031 0 0 1-3.727-3.543 10.49 10.49 0 0 1-1.352-5.413c-.047-1.89.42-3.758 1.352-5.41a9.031 9.031 0 0 1 3.727-3.543 11.53 11.53 0 0 1 5.37-1.227 11.396 11.396 0 0 1 5.351 1.227zm-8.341 5.305c-.804.841-1.208 2.06-1.208 3.648 0 1.587.404 2.801 1.208 3.634a3.975 3.975 0 0 0 2.972 1.245 3.94 3.94 0 0 0 2.959-1.245c.79-.833 1.185-2.044 1.185-3.634 0-1.588-.395-2.807-1.185-3.648a3.908 3.908 0 0 0-2.96-1.262 3.947 3.947 0 0 0-2.954 1.262h-.017zM119.186 18.217v7.937c0 .24-.196.434-.439.434h-5.268a.436.436 0 0 1-.439-.434V1.865c0-.24.197-.434.439-.434h9.536c3.023 0 5.33.742 6.919 2.225 1.589 1.484 2.382 3.485 2.38 6.003a8.188 8.188 0 0 1-1.063 4.181 7.329 7.329 0 0 1-3.157 2.885 11.182 11.182 0 0 1-5.088 1.058h-3.372a.442.442 0 0 0-.316.124.431.431 0 0 0-.132.31zm6.845-8.562c0-2.206-1.237-3.31-3.71-3.314h-2.687a.436.436 0 0 0-.439.434v5.669c0 .24.197.434.44.434h2.686c2.473.008 3.71-1.067 3.71-3.227v.004zM146.485 7.265c.634.39 1.193.888 1.65 1.47.113.16.319.227.505.163a.434.434 0 0 0 .295-.436V6.94c0-.24.196-.434.439-.434h5.224c.243 0 .44.194.44.434v18.963c0 .24-.197.433-.44.433h-5.224a.436.436 0 0 1-.44-.433v-1.536a.434.434 0 0 0-.294-.436.442.442 0 0 0-.504.163 6.292 6.292 0 0 1-1.651 1.47 7.343 7.343 0 0 1-3.951 1.033 8.205 8.205 0 0 1-4.452-1.228 8.462 8.462 0 0 1-3.1-3.543 12.157 12.157 0 0 1-1.132-5.413 12.14 12.14 0 0 1 1.132-5.426 8.489 8.489 0 0 1 3.1-3.527 8.205 8.205 0 0 1 4.452-1.227 7.343 7.343 0 0 1 3.95 1.032zm-5.172 5.59c-.805.868-1.207 2.054-1.207 3.558 0 1.522.404 2.706 1.207 3.56a4.561 4.561 0 0 0 6.38-.021 4.917 4.917 0 0 0 1.242-3.526 4.908 4.908 0 0 0-1.243-3.54 4.583 4.583 0 0 0-6.379 0v-.03zM164.077 6.506l4.284 10.8a.438.438 0 0 0 .422.312.438.438 0 0 0 .421-.312l3.987-10.8a.439.439 0 0 1 .439-.29h5.8a.44.44 0 0 1 .383.192.43.43 0 0 1 .033.423l-12.139 28.466a.44.44 0 0 1-.439.27h-5.773a.44.44 0 0 1-.39-.198.43.43 0 0 1-.023-.432l4.347-9.407a.429.429 0 0 0 0-.365l-8.074-18.312a.43.43 0 0 1 .03-.425.44.44 0 0 1 .383-.195h5.887a.44.44 0 0 1 .422.273z"/>
    </g>
</svg>
