<svg xmlns="http://www.w3.org/2000/svg" width="107" height="23" viewBox="0 0 107 23">
    <path fill="#FFF" fill-rule="nonzero" d="M12.838 9.598c1.27 1.307 2.305 3.449 1.71 4.722-1.588 3.404-13.43 9.37-14.433 8.339C-.89 21.629 4.926 9.466 8.242 7.836c1.24-.611 3.324.456 4.6 1.759l-.004.003zm6.274-1.435c-.208-.784-.717-1.575-1.516-1.67-1.434-.17-3.707 2.44-3.546 3.061.161.622 3.366 1.711 4.567.828.617-.456.717-1.439.502-2.208l-.007-.01zM14.674.928c1.075.294 2.15 1.053 2.276 2.182.233 2.069-3.352 5.333-4.194 5.101-.843-.232-2.338-4.843-1.133-6.565.624-.89 1.965-1.016 3.036-.736l.015.018zm31.864 12.258l-1.076-.165c-1.007-.155-1.591-.49-1.591-1.104 0-.7.76-1.137 1.885-1.137.728.033 1.436.25 2.062.633l.122.062a.998.998 0 0 0 1.34-.423l.086-.158c.14-.254.172-.555.089-.834a1.053 1.053 0 0 0-.53-.638 6.635 6.635 0 0 0-3.169-.883c-2.696 0-4.434 1.34-4.434 3.488 0 1.767 1.236 2.87 3.585 3.202l1.075.14c1.126.165 1.678.508 1.678 1.049 0 .54-.265 1.17-2.015 1.17a5.051 5.051 0 0 1-2.739-.77.964.964 0 0 0-.527-.158c-.352.004-.677.19-.864.497l-.06.1a1.095 1.095 0 0 0-.123.828c.068.275.243.51.484.647a8.437 8.437 0 0 0 3.83 1.104c2.81 0 4.549-1.266 4.549-3.488 0-1.782-1.23-2.8-3.657-3.158v-.004zm32.667 3.883a1.056 1.056 0 0 0-1.38-.191 3.306 3.306 0 0 1-1.793.57c-1.688 0-2.914-1.369-2.914-3.253 0-1.884 1.226-3.257 2.914-3.257.621.001 1.227.195 1.739.556.44.286 1.015.215 1.377-.17l.09-.095c.242-.256.361-.61.325-.965a1.179 1.179 0 0 0-.505-.85 5.275 5.275 0 0 0-2.976-.864c-3.226 0-5.506 2.325-5.506 5.652s2.255 5.63 5.496 5.63a5.234 5.234 0 0 0 2.993-.883 1.2 1.2 0 0 0 .498-.831 1.24 1.24 0 0 0-.293-.957l-.08-.092h.015zM26.752 4.722a1.476 1.476 0 0 0-1.072.457 1.556 1.556 0 0 0-.43 1.107c-.01.412.146.81.43 1.1.284.292.67.451 1.072.442a1.505 1.505 0 0 0 1.318-.762c.275-.477.282-1.07.016-1.553a1.507 1.507 0 0 0-1.302-.79h-.032zm.47 3.912h-.9a.8.8 0 0 0-.789.81v9.318c0 .214.083.42.231.571a.775.775 0 0 0 .558.235h.9a.8.8 0 0 0 .788-.806V9.444a.803.803 0 0 0-.788-.81zM56.354 17.4c-1.188 0-2.151-.988-2.151-2.208V11h2.15a.8.8 0 0 0 .79-.81v-.735a.803.803 0 0 0-.79-.81h-2.15V6.216a.817.817 0 0 0-.236-.584.774.774 0 0 0-.574-.229h-.933c-.21 0-.41.086-.557.239a.817.817 0 0 0-.228.574v8.833c0 2.543 1.879 4.784 4.482 4.784.539 0 .976-.448.978-1.001v-.622a.806.806 0 0 0-.796-.81h.015zm-21.51-8.858a4.71 4.71 0 0 0-3.42 1.348 4.966 4.966 0 0 0-1.485 3.436v5.436c0 .445.352.806.785.806h.9c.434 0 .785-.361.785-.806V13.75c0-1.679.99-2.79 2.434-2.79 1.445 0 2.435 1.104 2.435 2.79v5.012a.8.8 0 0 0 .788.806h.897a.775.775 0 0 0 .557-.235.817.817 0 0 0 .231-.571V13.34a4.966 4.966 0 0 0-1.486-3.438 4.71 4.71 0 0 0-3.422-1.346v-.015zm64.796.114c-.543-.08-1.09-.118-1.639-.114h-.118c-2.602.014-4.702 2.187-4.696 4.858v5.362a.8.8 0 0 0 .788.806h.897a.775.775 0 0 0 .557-.235.817.817 0 0 0 .231-.571v-5.27a2.444 2.444 0 0 1 .651-1.793 2.315 2.315 0 0 1 1.72-.739c.25.007.499.035.745.085a1.076 1.076 0 0 0 1.255-.828l.154-.663a.753.753 0 0 0-.09-.567.718.718 0 0 0-.459-.33h.004zM106.21 11c.21.001.41-.084.559-.236a.817.817 0 0 0 .23-.573v-.736a.8.8 0 0 0-.789-.81h-2.15V6.216a.817.817 0 0 0-.232-.57.775.775 0 0 0-.557-.236h-.943a.8.8 0 0 0-.79.806v8.833c0 2.543 1.883 4.784 4.486 4.784a.949.949 0 0 0 .688-.295c.183-.187.286-.441.287-.706v-.622a.806.806 0 0 0-.796-.81c-1.188 0-2.15-.988-2.15-2.208V11h2.157zM89.085 9.422a5.275 5.275 0 0 0-2.979-.865h-.114a5.275 5.275 0 0 0-2.976.865c-1.495.964-2.41 2.671-2.41 4.784 0 2.208 1.001 3.978 2.625 4.913.794.483 1.7.738 2.624.736a4.004 4.004 0 0 0 3.173-1.472v.368a.817.817 0 0 0 .23.573c.148.152.35.237.559.236h.896c.209 0 .41-.085.556-.237a.817.817 0 0 0 .23-.572v-4.556c0-2.113-.911-3.82-2.406-4.784l-.008.01zm-2.05 7.868a3.113 3.113 0 0 1-.936.169h-.168a2.991 2.991 0 0 1-.872-.166c-1.161-.42-1.932-1.59-1.932-3.083 0-1.767 1.076-3.08 2.596-3.239h.652c1.52.158 2.596 1.472 2.596 3.239-.004 1.479-.775 2.65-1.936 3.069v.01zM66.682 9.41a5.275 5.275 0 0 0-2.975-.864h-.115a5.275 5.275 0 0 0-2.98.865c-1.494.964-2.405 2.671-2.405 4.784 0 2.208 1 3.978 2.625 4.913a5.005 5.005 0 0 0 2.599.725 3.99 3.99 0 0 0 3.172-1.472v.368c0 .214.084.42.231.572a.779.779 0 0 0 .558.237h.896c.21.001.411-.084.56-.236a.817.817 0 0 0 .23-.573v-4.534c0-2.113-.915-3.82-2.41-4.784h.014zm-2.047 7.869c-.302.103-.617.16-.935.169h-.173a3.012 3.012 0 0 1-.87-.166c-1.162-.42-1.933-1.59-1.933-3.084 0-1.766 1.075-3.08 2.6-3.238h.644c1.524.158 2.596 1.472 2.596 3.238 0 1.495-.77 2.665-1.929 3.084v-.003z"/>
</svg>
