<svg xmlns="http://www.w3.org/2000/svg" width="79" height="20" viewBox="0 0 79 20">
    <path fill="#FFF" fill-rule="nonzero" d="M17.214.125H2.46A2.453 2.453 0 0 0 .726.829 2.428 2.428 0 0 0 0 2.546V17.08c.003.645.265 1.263.726 1.717a2.453 2.453 0 0 0 1.734.704h14.757a2.453 2.453 0 0 0 1.735-.703 2.428 2.428 0 0 0 .727-1.718V2.546a2.43 2.43 0 0 0-.728-1.718 2.456 2.456 0 0 0-1.737-.703zM12.46 3.678a.655.655 0 0 1 .653-.595c.34 0 .623.258.654.595v8.626a.655.655 0 0 1-.654.594.655.655 0 0 1-.653-.594V3.678zM9.182 3.35a.655.655 0 0 1 .654-.595c.34 0 .623.258.653.595v9.362a.655.655 0 0 1-.653.595.655.655 0 0 1-.654-.595V3.35zm-3.28.328a.655.655 0 0 1 .653-.595c.34 0 .623.258.654.595v8.626a.655.655 0 0 1-.654.594.655.655 0 0 1-.653-.594V3.678zm-3.278 1.3a.655.655 0 0 1 .654-.595c.34 0 .623.258.653.595v5.8a.655.655 0 0 1-.653.594.655.655 0 0 1-.654-.595v-5.8zm14.198 9.84c-.1.087-2.53 2.081-6.984 2.081-4.454 0-6.884-2.007-6.986-2.08a.641.641 0 0 1-.071-.91.661.661 0 0 1 .923-.07c.039.03 2.208 1.783 6.134 1.783 3.973 0 6.111-1.765 6.132-1.781a.656.656 0 0 1 1.078.539.639.639 0 0 1-.226.439zm.243-4.04a.655.655 0 0 1-.653.594.655.655 0 0 1-.654-.595V4.97a.655.655 0 0 1 .654-.594c.34 0 .623.257.653.594v5.807zm10.23 1.835a.594.594 0 0 1-.595.593.594.594 0 0 1-.596-.593V6.996c0-.327.266-.593.596-.593.329 0 .596.266.596.593v5.617zm7.719-5.617v5.134c0 .694-.371 1.082-.965 1.082h-.047c-.564 0-.83-.323-1.071-.799l-1.203-2.34-1.071-2.39.026 2.327v2.6a.594.594 0 0 1-.596.594.594.594 0 0 1-.596-.593V7.47c0-.636.371-1.084 1.022-1.084h.047c.601 0 .85.323 1.09.799l1.184 2.31 1.012 2.244-.027-2.149v-2.6c0-.328.267-.593.596-.593.33 0 .596.265.596.593l.003.005zm4.791 5.607a.597.597 0 0 1-.597.556.597.597 0 0 1-.598-.556V7.519h-1.479a.558.558 0 0 1-.521-.556c0-.292.228-.535.521-.555h4.153c.294.02.521.263.521.555a.558.558 0 0 1-.52.556h-1.48v5.084zm3.586-.19V7.14a.677.677 0 0 1 .204-.57.684.684 0 0 1 .58-.182h3.44a.553.553 0 0 1 .554.565.54.54 0 0 1-.554.551h-3.04v1.633h2.684c.296 0 .535.238.535.532 0 .294-.24.532-.535.532h-2.684v1.883h3.037a.55.55 0 0 1 .557.556.54.54 0 0 1-.557.554h-3.466a.679.679 0 0 1-.575-.2.671.671 0 0 1-.18-.58zm11.555 0a.564.564 0 0 1-.274.799.634.634 0 0 1-.842-.237l-1.327-2.442h-1.26v2.08a.594.594 0 0 1-.596.593.594.594 0 0 1-.596-.593V7.152a.677.677 0 0 1 .204-.57.684.684 0 0 1 .58-.182h2.266c1.568 0 2.206 1.007 2.206 2.034a1.823 1.823 0 0 1-1.568 1.89l1.207 2.09zM51.243 9.47h1.892c.268.02.53-.078.719-.268a.902.902 0 0 0 .256-.72.905.905 0 0 0-.26-.714.915.915 0 0 0-.715-.266h-1.882v1.968h-.01zm6.532 3.22c-.717-.637-1.046-1.633-1.046-2.89 0-1.256.316-2.252 1.022-2.878a2.756 2.756 0 0 1 1.892-.638 2.623 2.623 0 0 1 1.775.544c.413.342.7.808.82 1.329a.57.57 0 0 1-.477.694.65.65 0 0 1-.724-.473 1.575 1.575 0 0 0-.45-.676 1.361 1.361 0 0 0-.954-.312c-.4-.02-.79.124-1.082.398-.4.4-.573 1.113-.573 2.015 0 .903.162 1.605.583 2.005.603.52 1.495.532 2.112.029.151-.143.271-.314.353-.505a.633.633 0 0 1 .716-.437.567.567 0 0 1 .44.713c-.15.492-.456.922-.871 1.227a2.789 2.789 0 0 1-1.67.474 2.664 2.664 0 0 1-1.866-.62zm5.815-2.876c0-2.128.878-3.517 2.951-3.517s2.943 1.337 2.943 3.517c0 2.179-.896 3.518-2.94 3.518-2.083-.013-2.954-1.337-2.954-3.518zm4.671 0c0-1.616-.593-2.403-1.73-2.403s-1.71.78-1.71 2.403c0 1.622.573 2.405 1.71 2.405s1.733-.8 1.733-2.405h-.003zm10.489 2.79a.594.594 0 0 1-.596.593.594.594 0 0 1-.596-.593v-2.546l.026-2.481-.83 2.517-.84 2.481a.784.784 0 0 1-.823.62.815.815 0 0 1-.831-.617l-.86-2.473-.784-2.481.028 2.444v2.546a.597.597 0 0 1-.597.557.597.597 0 0 1-.597-.557V7.52c0-.702.381-1.11 1.045-1.11.63 0 .983.33 1.184.938l.879 2.6.533 1.764.543-1.768.879-2.601c.198-.609.543-.939 1.173-.939s1.046.398 1.046 1.11l.018 5.09z"/>
</svg>
