<?xml version="1.0" encoding="UTF-8"?>
<svg width="13px" height="92px" viewBox="0 0 13 92" version="1.1" xmlns="http://www.w3.org/2000/svg" xmlns:xlink="http://www.w3.org/1999/xlink">
    <!-- Generator: Sketch 62 (91390) - https://sketch.com -->
    <title>light-2</title>
    <desc>Created with Sketch.</desc>
    <g id="DWo" stroke="none" stroke-width="1" fill="none" fill-rule="evenodd">
        <g id="New-/-features" transform="translate(-1051.000000, -353.000000)" fill="#FFFFFF" fill-rule="nonzero">
            <path d="M1053.9482,433.807853 C1053.4911,433.863399 1053.15914,434.269565 1053.1957,434.72858 C1053.23226,435.187595 1053.62432,435.536097 1054.08446,435.518588 C1054.54459,435.501079 1054.90904,435.123791 1054.91061,434.663325 C1054.88013,434.161792 1054.44985,433.77932 1053.9482,433.807853 L1053.9482,433.807853 Z M1060.11696,429.213033 C1060.15022,428.937828 1060.01013,428.670659 1059.76486,428.541495 C1059.51958,428.412332 1059.22003,428.447989 1059.01193,428.63112 C1058.80382,428.81425 1058.73037,429.106837 1058.8273,429.366545 C1058.92423,429.626254 1059.17142,429.799167 1059.44862,429.80117 C1059.61532,429.812151 1059.77953,429.756283 1059.90495,429.645917 C1060.03036,429.535551 1060.10666,429.379777 1060.11696,429.213033 L1060.11696,429.213033 Z M1051.96658,439.20802 C1051.65281,439.249143 1051.42699,439.529957 1051.45415,439.845249 C1051.48131,440.160541 1051.75183,440.398598 1052.06801,440.385452 C1052.3842,440.372306 1052.63403,440.112615 1052.63492,439.796157 C1052.6255,439.629082 1052.54946,439.472766 1052.42384,439.362216 C1052.29821,439.251667 1052.1335,439.196121 1051.96658,439.20802 L1051.96658,439.20802 Z M1053.9482,431.522139 C1053.98288,431.246837 1053.84384,430.978744 1053.59884,430.848491 C1053.35383,430.718238 1053.05383,430.752922 1052.845,430.935642 C1052.63618,431.118362 1052.56198,431.411107 1052.65856,431.671235 C1052.75513,431.931363 1053.0024,432.104759 1053.27987,432.106934 C1053.62406,432.131826 1053.92327,431.873009 1053.9482,431.528822 L1053.9482,431.522139 Z M1059.88304,443.101086 C1059.56926,443.142209 1059.34344,443.423023 1059.37061,443.738315 C1059.39777,444.053607 1059.66829,444.291664 1059.98447,444.278518 C1060.30066,444.265372 1060.55048,444.005681 1060.55138,443.689223 C1060.52641,443.34459 1060.22781,443.084811 1059.88304,443.107769 L1059.88304,443.101086 Z M1063.00084,441.052632 C1062.68706,441.093755 1062.46124,441.374569 1062.4884,441.689861 C1062.51556,442.005153 1062.78608,442.243209 1063.10227,442.230063 C1063.41845,442.216917 1063.66828,441.957227 1063.66917,441.640769 C1063.64421,441.296135 1063.34561,441.036356 1063.00084,441.059315 L1063.00084,441.052632 Z M1060.41771,438.469507 C1059.95991,438.523317 1059.62623,438.928941 1059.6617,439.388529 C1059.69717,439.848118 1060.08913,440.197742 1060.54977,440.180674 C1061.0104,440.163605 1061.37542,439.785932 1061.37678,439.324979 C1061.34105,438.828341 1060.91501,438.451283 1060.41771,438.47619 L1060.41771,438.469507 Z M1061.68087,435.886383 C1061.36709,435.927506 1061.14127,436.20832 1061.16843,436.523612 C1061.1956,436.838904 1061.46611,437.07696 1061.7823,437.063814 C1062.09849,437.050668 1062.34831,436.790978 1062.34921,436.47452 C1062.32424,436.129886 1062.02564,435.870107 1061.68087,435.893066 L1061.68087,435.886383 Z M1051.96658,415.375104 C1052.28036,415.333981 1052.50618,415.053167 1052.47902,414.737875 C1052.45186,414.422583 1052.18134,414.184527 1051.86515,414.197673 C1051.54897,414.210819 1051.29914,414.470509 1051.29825,414.786967 C1051.30683,414.954901 1051.38238,415.112383 1051.50799,415.224176 C1051.6336,415.335969 1051.79879,415.39274 1051.96658,415.381788 L1051.96658,415.375104 Z M1059.88304,418.101921 C1059.56926,418.143045 1059.34344,418.423859 1059.37061,418.739151 C1059.39777,419.054442 1059.66829,419.292499 1059.98447,419.279353 C1060.30066,419.266207 1060.55048,419.006517 1060.55138,418.690058 C1060.52641,418.345425 1060.22781,418.085646 1059.88304,418.108605 L1059.88304,418.101921 Z M1053.28989,407.107769 C1053.60107,407.064933 1053.82367,406.785125 1053.79544,406.472279 C1053.76722,406.159433 1053.49814,405.923985 1053.18431,405.937537 C1052.87049,405.95109 1052.6227,406.208859 1052.62155,406.522974 C1052.63011,406.690643 1052.70577,406.847817 1052.8315,406.959081 C1052.95722,407.070346 1053.12243,407.126342 1053.28989,407.114453 L1053.28989,407.107769 Z M1059.4553,404.795322 C1059.76908,404.754199 1059.9949,404.473384 1059.96774,404.158092 C1059.94058,403.842801 1059.67006,403.604744 1059.35387,403.61789 C1059.03769,403.631036 1058.78786,403.890726 1058.78697,404.207185 C1058.79555,404.375118 1058.87111,404.5326 1058.99672,404.644393 C1059.12233,404.756186 1059.28751,404.812958 1059.4553,404.802005 L1059.4553,404.795322 Z M1061.37678,414.325815 C1061.4254,413.925837 1061.22146,413.5375 1060.86457,413.350483 C1060.50768,413.163466 1060.0723,413.216792 1059.7711,413.484414 C1059.46989,413.752036 1059.3657,414.178114 1059.50943,414.554532 C1059.65315,414.930951 1060.01479,415.179168 1060.41771,415.177945 C1060.91443,415.204739 1061.34105,414.828658 1061.37678,414.332498 L1061.37678,414.325815 Z M1062.33918,411.475355 C1062.37386,411.200053 1062.23482,410.93196 1061.98981,410.801707 C1061.74481,410.671455 1061.4448,410.706138 1061.23598,410.888858 C1061.02716,411.071578 1060.95296,411.364324 1061.04953,411.624451 C1061.14611,411.884579 1061.39338,412.057975 1061.67084,412.06015 C1062.01503,412.085043 1062.31424,411.826225 1062.33918,411.482038 L1062.33918,411.475355 Z M1053.9482,408.802005 C1053.4911,408.857551 1053.15914,409.263718 1053.1957,409.722733 C1053.23226,410.181748 1053.62432,410.530249 1054.08446,410.51274 C1054.54459,410.495231 1054.90904,410.117943 1054.91061,409.657477 C1054.87663,409.158609 1054.44741,408.780059 1053.9482,408.808688 L1053.9482,408.802005 Z M1063.00084,416.053467 C1062.68706,416.09459 1062.46124,416.375404 1062.4884,416.690696 C1062.51556,417.005988 1062.78608,417.244044 1063.10227,417.230899 C1063.41845,417.217753 1063.66828,416.958062 1063.66917,416.641604 C1063.64421,416.296971 1063.34561,416.037192 1063.00084,416.06015 L1063.00084,416.053467 Z M1061.68087,385.888053 C1061.36709,385.929177 1061.14127,386.209991 1061.16843,386.525283 C1061.1956,386.840574 1061.46611,387.078631 1061.7823,387.065485 C1062.09849,387.052339 1062.34831,386.792649 1062.34921,386.47619 C1062.32424,386.131557 1062.02564,385.871778 1061.68087,385.894737 L1061.68087,385.888053 Z M1059.22139,393.687552 C1059.18671,393.962854 1059.32575,394.230947 1059.57076,394.3612 C1059.81576,394.491453 1060.11577,394.456769 1060.32459,394.274049 C1060.53341,394.091329 1060.60761,393.798583 1060.51103,393.538456 C1060.41446,393.278328 1060.16719,393.104932 1059.88972,393.102757 C1059.72248,393.091792 1059.55778,393.148112 1059.43227,393.259191 C1059.30676,393.370269 1059.23083,393.526896 1059.22139,393.694236 L1059.22139,393.687552 Z M1059.4553,389.32665 C1059.40958,389.724447 1059.61408,390.109197 1059.96938,390.29385 C1060.32468,390.478502 1060.75707,390.424751 1061.05634,390.15873 C1061.35562,389.892708 1061.45969,389.469599 1061.31797,389.095104 C1061.17625,388.720608 1060.81812,388.472411 1060.41771,388.471178 C1060.17567,388.457512 1059.93814,388.540749 1059.75757,388.702509 C1059.577,388.86427 1059.46824,389.09125 1059.4553,389.333333 L1059.4553,389.32665 Z M1059.4553,379.796157 C1059.76908,379.755034 1059.9949,379.47422 1059.96774,379.158928 C1059.94058,378.843636 1059.67006,378.60558 1059.35387,378.618725 C1059.03769,378.631871 1058.78786,378.891562 1058.78697,379.20802 C1058.79555,379.375954 1058.87111,379.533436 1058.99672,379.645229 C1059.12233,379.757021 1059.28751,379.813793 1059.4553,379.80284 L1059.4553,379.796157 Z M1063.00084,391.054302 C1062.68706,391.095426 1062.46124,391.37624 1062.4884,391.691532 C1062.51556,392.006823 1062.78608,392.24488 1063.10227,392.231734 C1063.41845,392.218588 1063.66828,391.958898 1063.66917,391.642439 C1063.64421,391.297806 1063.34561,391.038027 1063.00084,391.060986 L1063.00084,391.054302 Z M1053.9482,383.80284 C1053.4911,383.858386 1053.15914,384.264553 1053.1957,384.723568 C1053.23226,385.182583 1053.62432,385.531084 1054.08446,385.513575 C1054.54459,385.496066 1054.90904,385.118778 1054.91061,384.658312 C1054.87663,384.159445 1054.44741,383.780894 1053.9482,383.809524 L1053.9482,383.80284 Z M1053.9482,381.52381 C1053.98288,381.248508 1053.84384,380.980415 1053.59884,380.850162 C1053.35383,380.719909 1053.05383,380.754593 1052.845,380.937313 C1052.63618,381.120033 1052.56198,381.412778 1052.65856,381.672906 C1052.75513,381.933034 1053.0024,382.10643 1053.27987,382.108605 C1053.62406,382.133497 1053.92327,381.87468 1053.9482,381.530493 L1053.9482,381.52381 Z M1051.96658,390.37594 C1052.28036,390.334817 1052.50618,390.054002 1052.47902,389.738711 C1052.45186,389.423419 1052.18134,389.185362 1051.86515,389.198508 C1051.54897,389.211654 1051.29914,389.471345 1051.29825,389.787803 C1051.30683,389.955737 1051.38238,390.113219 1051.50799,390.225011 C1051.6336,390.336804 1051.79879,390.393576 1051.96658,390.382623 L1051.96658,390.37594 Z M1061.68087,362.061821 C1061.99465,362.020698 1062.22046,361.739884 1062.1933,361.424592 C1062.16614,361.1093 1061.89562,360.871244 1061.57944,360.88439 C1061.26325,360.897535 1061.01343,361.157226 1061.01253,361.473684 C1061.02022,361.641946 1061.09551,361.79998 1061.22133,361.911962 C1061.34715,362.023944 1061.51285,362.08039 1061.68087,362.068505 L1061.68087,362.061821 Z M1063.00084,367.22807 C1063.31461,367.186947 1063.54043,366.906133 1063.51327,366.590841 C1063.48611,366.275549 1063.21559,366.037493 1062.8994,366.050639 C1062.58322,366.063784 1062.33339,366.323475 1062.3325,366.639933 C1062.34109,366.807867 1062.41664,366.965349 1062.54225,367.077142 C1062.66786,367.188935 1062.83304,367.245706 1063.00084,367.234754 L1063.00084,367.22807 Z M1059.4553,364.327485 C1059.40958,364.725282 1059.61408,365.110033 1059.96938,365.294685 C1060.32468,365.479337 1060.75707,365.425587 1061.05634,365.159565 C1061.35562,364.893544 1061.45969,364.470435 1061.31797,364.095939 C1061.17625,363.721443 1060.81812,363.473247 1060.41771,363.472013 C1059.91426,363.445434 1059.48404,363.830837 1059.4553,364.334169 L1059.4553,364.327485 Z M1053.9482,358.803676 C1053.49067,358.859271 1053.1586,359.266113 1053.19578,359.725511 C1053.23297,360.184909 1053.62616,360.533043 1054.08668,360.514324 C1054.5472,360.495605 1054.91083,360.116707 1054.91061,359.655806 C1054.87489,359.158272 1054.44619,358.781671 1053.9482,358.810359 L1053.9482,358.803676 Z M1051.96658,365.376775 C1052.28036,365.335652 1052.50618,365.054838 1052.47902,364.739546 C1052.45186,364.424254 1052.18134,364.186198 1051.86515,364.199344 C1051.54897,364.21249 1051.29914,364.47218 1051.29825,364.788638 C1051.30683,364.956572 1051.38238,365.114054 1051.50799,365.225847 C1051.6336,365.33764 1051.79879,365.394411 1051.96658,365.383459 L1051.96658,365.376775 Z M1053.30326,357.10944 C1053.61746,357.068261 1053.84339,356.786771 1053.8156,356.471101 C1053.7878,356.155432 1053.51617,355.917749 1053.1996,355.932105 C1052.88304,355.946462 1052.63403,356.207756 1052.63492,356.524645 C1052.65644,356.865962 1052.94833,357.126577 1053.28989,357.10944 L1053.30326,357.10944 Z M1059.89641,368.103592 C1059.5822,368.144771 1059.35628,368.426262 1059.38407,368.741931 C1059.41186,369.057601 1059.6835,369.295283 1060.00006,369.280927 C1060.31663,369.266571 1060.56564,369.005277 1060.56475,368.688388 C1060.552,368.520933 1060.47273,368.365554 1060.34465,368.256934 C1060.21657,368.148315 1060.05033,368.095498 1059.88304,368.110276 L1059.89641,368.103592 Z M1059.46867,354.796992 C1059.78245,354.755869 1060.00827,354.475055 1059.98111,354.159763 C1059.95395,353.844472 1059.68343,353.606415 1059.36724,353.619561 C1059.05105,353.632707 1058.80123,353.892397 1058.80033,354.208855 C1058.81835,354.553312 1059.11071,354.818824 1059.4553,354.803676 L1059.46867,354.796992 Z" id="light-2" style="mix-blend-mode: overlay;"></path>
        </g>
    </g>
</svg>
