<svg xmlns="http://www.w3.org/2000/svg" width="20" height="145" viewBox="0 0 20 145">
    <defs>
        <linearGradient id="a" x1="50%" x2="50%" y1="99.604%" y2="-14.695%">
            <stop offset="0%" stop-color="#FFF"/>
            <stop offset="100%"/>
        </linearGradient>
    </defs>
    <path fill="#fff" fill-rule="nonzero" d="M1340.287 236.845a1.36 1.36 0 1 0 1.523 1.354 1.444 1.444 0 0 0-1.523-1.354zm9.77-7.281a1.056 1.056 0 1 0-1.049.929 1.003 1.003 0 0 0 1.05-.93zm-12.912 15.85a.936.936 0 1 0 1.046.929 1.003 1.003 0 0 0-1.046-.93zm3.142-12.168a1.056 1.056 0 1 0-1.046.93 1.003 1.003 0 0 0 1.046-.943v.013zm9.403 18.35a.936.936 0 1 0 1.046.929 1.003 1.003 0 0 0-1.046-.943v.014zm4.94-3.248a.936.936 0 1 0 1.045.929 1.003 1.003 0 0 0-1.046-.943v.014zm-4.098-4.104a1.363 1.363 0 1 0 1.527 1.337 1.447 1.447 0 0 0-1.527-1.337zm2.005-4.094a.936.936 0 1 0 1.05.92 1.003 1.003 0 0 0-1.053-.92h.003zm-15.392-32.498a.936.936 0 1 0-1.046-.929c.04.542.504.954 1.046.93zm12.545 4.321a.936.936 0 1 0 1.046.93c-.036-.545-.5-.961-1.046-.936v.006zm-10.45-17.42a.936.936 0 1 0-1.049-.929c.043.54.508.95 1.05.922v.007zm9.768-3.676a.936.936 0 1 0-1.046-.929c.038.543.502.957 1.046.933v-.004zm3.051 15.105a1.537 1.537 0 1 0-1.527 1.336 1.45 1.45 0 0 0 1.527-1.336zm1.527-4.518a1.056 1.056 0 1 0-1.049.929 1.003 1.003 0 0 0 1.05-.93zm-13.3-4.23a1.36 1.36 0 1 0 1.524 1.336 1.444 1.444 0 0 0-1.523-1.337zm14.343 11.488a.936.936 0 1 0 1.046.929 1.003 1.003 0 0 0-1.046-.93zm-2.095-47.786a.936.936 0 1 0 1.05.929 1.003 1.003 0 0 0-1.05-.943v.014zm-3.893 12.364a1.056 1.056 0 1 0 1.05-.93 1.003 1.003 0 0 0-1.05.913v.017zm.367-6.917a1.537 1.537 0 1 0 1.524-1.337 1.447 1.447 0 0 0-1.524 1.32v.017zm0-15.101a.936.936 0 1 0-1.046-.93c.048.536.51.938 1.046.913v.017zm5.621 17.844a.936.936 0 1 0 1.046.926 1.003 1.003 0 0 0-1.046-.943v.017zm-14.342-11.509a1.36 1.36 0 1 0 1.523 1.337 1.444 1.444 0 0 0-1.523-1.337zm0-3.612a1.056 1.056 0 1 0-1.046.929 1.003 1.003 0 0 0 1.046-.929zm-3.142 14.035a.936.936 0 1 0-1.046-.929c.045.538.507.944 1.046.92v.01zm15.389-44.865a.936.936 0 1 0-1.046-.93c.044.539.507.945 1.046.92v.01zm2.095 8.187a.936.936 0 1 0-1.046-.93c.045.539.507.945 1.046.92v.01zm-5.62-4.608a1.537 1.537 0 1 0 1.523-1.337 1.447 1.447 0 0 0-1.524 1.337zm-8.722-8.749a1.36 1.36 0 1 0 1.523 1.337 1.444 1.444 0 0 0-1.523-1.337zm-3.142 10.413a.936.936 0 1 0-1.046-.93c.04.543.504.955 1.046.93zm2.096-13.1a.936.936 0 1 0-1.05-.929c.04.544.506.956 1.05.93zm10.45 17.42a.936.936 0 1 0 1.045.93 1.003 1.003 0 0 0-1.046-.93zm-.67-21.086a.936.936 0 1 0-1.045-.929c.039.537.495.947 1.032.93h.014z" style="mix-blend-mode:screen" transform="translate(-1336 -109)"/>
</svg>
