<?xml version="1.0" encoding="UTF-8"?>
<svg width="13px" height="92px" viewBox="0 0 13 92" version="1.1" xmlns="http://www.w3.org/2000/svg" xmlns:xlink="http://www.w3.org/1999/xlink">
    <!-- Generator: Sketch 62 (91390) - https://sketch.com -->
    <title>light-1</title>
    <desc>Created with Sketch.</desc>
    <g id="DWo" stroke="none" stroke-width="1" fill="none" fill-rule="evenodd">
        <g id="New-/-features" transform="translate(-864.000000, -353.000000)" fill="#FFFFFF" fill-rule="nonzero">
            <g id="security" transform="translate(736.000000, 180.000000)">
                <path d="M130.853801,253.807853 C130.396695,253.863399 130.064737,254.269565 130.101296,254.72858 C130.137855,255.187595 130.529919,255.536097 130.990054,255.518588 C131.45019,255.501079 131.814636,255.123791 131.816207,254.663325 C131.783958,254.162655 131.354799,253.781181 130.853801,253.807853 L130.853801,253.807853 Z M137.00919,249.213033 C137.042447,248.937828 136.902365,248.670659 136.657088,248.541495 C136.411811,248.412332 136.11226,248.447989 135.904157,248.63112 C135.696054,248.81425 135.622601,249.106837 135.719531,249.366545 C135.816462,249.626254 136.063652,249.799167 136.340852,249.80117 C136.507553,249.812151 136.671763,249.756283 136.797179,249.645917 C136.922595,249.535551 136.998887,249.379777 137.00919,249.213033 Z M128.862155,259.20802 C128.548379,259.249143 128.322559,259.529957 128.34972,259.845249 C128.376882,260.160541 128.6474,260.398598 128.963587,260.385452 C129.279773,260.372306 129.529598,260.112615 129.530493,259.796157 C129.508973,259.452995 129.215589,259.190886 128.87218,259.20802 L128.862155,259.20802 Z M130.843776,251.522139 C130.878452,251.246837 130.739413,250.978744 130.494408,250.848491 C130.249402,250.718238 129.949397,250.752922 129.740575,250.935642 C129.531752,251.118362 129.457552,251.411107 129.554129,251.671235 C129.650706,251.931363 129.89797,252.104759 130.175439,252.106934 C130.342177,252.120772 130.507548,252.067527 130.63489,251.959004 C130.762232,251.850481 130.841025,251.695645 130.853801,251.528822 L130.843776,251.522139 Z M136.778613,263.101086 C136.464837,263.142209 136.239017,263.423023 136.266178,263.738315 C136.29334,264.053607 136.563858,264.291664 136.880045,264.278518 C137.196231,264.265372 137.446055,264.005681 137.446951,263.689223 C137.421963,263.348724 137.129616,263.090509 136.788638,263.107769 L136.778613,263.101086 Z M137.309942,258.469507 C136.852835,258.525053 136.520877,258.93122 136.557436,259.390235 C136.593995,259.84925 136.986059,260.197751 137.446195,260.180242 C137.90633,260.162733 138.270777,259.785445 138.272348,259.324979 C138.236653,258.831057 137.814724,258.455022 137.319967,258.47619 L137.309942,258.469507 Z M139.896408,261.052632 C139.582631,261.093755 139.356812,261.374569 139.383973,261.689861 C139.411134,262.005153 139.681653,262.243209 139.997839,262.230063 C140.314026,262.216917 140.56385,261.957227 140.564745,261.640769 C140.539757,261.30027 140.247411,261.042055 139.906433,261.059315 L139.896408,261.052632 Z M138.559733,255.886383 C138.245956,255.927506 138.020137,256.20832 138.047298,256.523612 C138.074459,256.838904 138.344978,257.07696 138.661164,257.063814 C138.977351,257.050668 139.227175,256.790978 139.22807,256.47452 C139.203191,256.139408 138.919014,255.883207 138.583124,255.893066 L138.559733,255.886383 Z M136.334169,224.808688 C136.647945,224.767565 136.873765,224.486751 136.846604,224.171459 C136.819442,223.856167 136.548924,223.618111 136.232737,223.631257 C135.916551,223.644403 135.666727,223.904093 135.665831,224.220551 C135.677605,224.39052 135.757906,224.548417 135.888326,224.658046 C136.018746,224.767674 136.188099,224.819631 136.357561,224.802005 L136.334169,224.808688 Z M130.168755,227.121136 C130.479938,227.0783 130.702534,226.798492 130.674309,226.485646 C130.646083,226.172799 130.377,225.937352 130.063175,225.950904 C129.749351,225.964457 129.501567,226.222226 129.500418,226.536341 C129.513051,226.70571 129.59372,226.862749 129.72404,226.971663 C129.85436,227.080578 130.023225,227.132088 130.192147,227.114453 L130.168755,227.121136 Z M139.221387,231.488722 C139.256063,231.21342 139.117024,230.945327 138.872018,230.815074 C138.627013,230.684821 138.327008,230.719505 138.118185,230.902225 C137.909363,231.084945 137.835162,231.377691 137.931739,231.637818 C138.028317,231.897946 138.275581,232.071342 138.553049,232.073517 C138.724145,232.091144 138.894987,232.03785 139.025714,231.926069 C139.156441,231.814288 139.23562,231.653796 139.244779,231.482038 L139.221387,231.488722 Z M138.258981,234.339181 C138.307573,233.939507 138.10398,233.551419 137.747521,233.364235 C137.391062,233.177051 136.955995,233.229767 136.654556,233.496666 C136.353116,233.763566 136.248102,234.189047 136.390741,234.56555 C136.53338,234.942054 136.893957,235.191145 137.296575,235.191312 C137.541745,235.210588 137.784363,235.130429 137.969792,234.968885 C138.155221,234.807342 138.267871,234.577997 138.282373,234.332498 L138.258981,234.339181 Z M136.765246,238.115288 C136.45147,238.156411 136.22565,238.437226 136.252812,238.752517 C136.279973,239.067809 136.550492,239.305866 136.866678,239.29272 C137.182864,239.279574 137.432689,239.019883 137.433584,238.703425 C137.415585,238.363011 137.129394,238.099063 136.788638,238.108605 L136.765246,238.115288 Z M139.883041,236.066834 C139.569265,236.107957 139.343445,236.388771 139.370606,236.704063 C139.397767,237.019355 139.668286,237.257411 139.984472,237.244265 C140.300659,237.23112 140.550483,236.971429 140.551378,236.654971 C140.53338,236.314557 140.247189,236.050609 139.906433,236.06015 L139.883041,236.066834 Z M130.830409,228.815372 C130.373303,228.870917 130.041345,229.277084 130.077904,229.736099 C130.114463,230.195114 130.506527,230.543616 130.966662,230.526107 C131.426798,230.508598 131.791245,230.13131 131.792815,229.670844 C131.764111,229.176979 131.348316,228.795217 130.853801,228.808688 L130.830409,228.815372 Z M128.848789,235.388471 C129.162565,235.347348 129.388385,235.066534 129.361224,234.751242 C129.334062,234.43595 129.063544,234.197894 128.747357,234.21104 C128.431171,234.224185 128.181347,234.483876 128.180451,234.800334 C128.192224,234.970302 128.272526,235.1282 128.402946,235.237829 C128.533366,235.347457 128.702719,235.399414 128.87218,235.381788 L128.848789,235.388471 Z M138.559733,205.90142 C138.245956,205.942543 138.020137,206.223358 138.047298,206.538649 C138.074459,206.853941 138.344978,207.091998 138.661164,207.078852 C138.977351,207.065706 139.227175,206.806015 139.22807,206.489557 C139.210071,206.149143 138.92388,205.885195 138.583124,205.894737 L138.559733,205.90142 Z M136.334169,199.809524 C136.647945,199.768401 136.873765,199.487586 136.846604,199.172295 C136.819442,198.857003 136.548924,198.618946 136.232737,198.632092 C135.916551,198.645238 135.666727,198.904929 135.665831,199.221387 C135.677605,199.391355 135.757906,199.549253 135.888326,199.658881 C136.018746,199.76851 136.188099,199.820467 136.357561,199.80284 L136.334169,199.809524 Z M128.848789,210.389307 C129.162565,210.348183 129.388385,210.067369 129.361224,209.752077 C129.334062,209.436786 129.063544,209.198729 128.747357,209.211875 C128.431171,209.225021 128.181347,209.484711 128.180451,209.80117 C128.192224,209.971138 128.272526,210.129035 128.402946,210.238664 C128.533366,210.348292 128.702719,210.400249 128.87218,210.382623 L128.848789,210.389307 Z M130.830409,203.816207 C130.373303,203.871753 130.041345,204.27792 130.077904,204.736935 C130.114463,205.19595 130.506527,205.544451 130.966662,205.526942 C131.426798,205.509433 131.791245,205.132145 131.792815,204.671679 C131.764111,204.177814 131.348316,203.796052 130.853801,203.809524 L130.830409,203.816207 Z M136.334169,209.340017 C136.286997,209.739588 136.491629,210.126746 136.848354,210.312838 C137.205078,210.498931 137.639685,210.445245 137.940403,210.177941 C138.24112,209.910636 138.34539,209.485321 138.202404,209.109239 C138.059417,208.733156 137.698921,208.484545 137.296575,208.484545 C136.806274,208.468997 136.391455,208.843958 136.357561,209.333333 L136.334169,209.340017 Z M136.103592,213.700919 C136.068916,213.976221 136.207955,214.244314 136.452961,214.374567 C136.697966,214.504819 136.997971,214.470136 137.206794,214.287416 C137.415617,214.104696 137.489817,213.81195 137.39324,213.551823 C137.296662,213.291695 137.049398,213.118299 136.77193,213.116124 C136.437238,213.106163 136.153552,213.360451 136.126984,213.694236 L136.103592,213.700919 Z M130.830409,201.537176 C130.865085,201.261874 130.726047,200.993781 130.481041,200.863529 C130.236035,200.733276 129.936031,200.767959 129.727208,200.950679 C129.518385,201.133399 129.444185,201.426145 129.540762,201.686273 C129.637339,201.9464 129.884603,202.119796 130.162072,202.121972 C130.333168,202.139599 130.504009,202.086305 130.634736,201.974524 C130.765463,201.862742 130.844643,201.702251 130.853801,201.530493 L130.830409,201.537176 Z M139.883041,211.067669 C139.569265,211.108792 139.343445,211.389607 139.370606,211.704898 C139.397767,212.02019 139.668286,212.258247 139.984472,212.245101 C140.300659,212.231955 140.550483,211.972264 140.551378,211.655806 C140.53338,211.315392 140.247189,211.051444 139.906433,211.060986 L139.883041,211.067669 Z M138.546366,182.075188 C138.860142,182.034065 139.085962,181.753251 139.058801,181.437959 C139.03164,181.122667 138.761121,180.88461 138.444934,180.897756 C138.128748,180.910902 137.878924,181.170593 137.878028,181.487051 C137.889561,181.659625 137.971731,181.819811 138.105171,181.92985 C138.23861,182.03989 138.411513,182.090049 138.583124,182.068505 L138.546366,182.075188 Z M139.883041,187.241437 C140.196817,187.200314 140.422637,186.919499 140.395476,186.604208 C140.368315,186.288916 140.097796,186.050859 139.781609,186.064005 C139.465423,186.077151 139.215599,186.336842 139.214703,186.6533 C139.225552,186.823629 139.305596,186.982108 139.436245,187.091928 C139.566893,187.201749 139.736775,187.253353 139.906433,187.234754 L139.883041,187.241437 Z M130.830409,178.817043 C130.372874,178.872638 130.040801,179.27948 130.077988,179.738878 C130.115175,180.198276 130.508362,180.54641 130.968882,180.527691 C131.429403,180.508971 131.793037,180.130074 131.792815,179.669173 C131.762384,179.176632 131.347095,178.796813 130.853801,178.810359 L130.830409,178.817043 Z M136.765246,188.116959 C136.451043,188.158138 136.225115,188.439628 136.252908,188.755298 C136.280701,189.070968 136.552338,189.30865 136.868904,189.294294 C137.185469,189.279938 137.434478,189.018644 137.433586,188.701754 C137.413846,188.362664 137.128166,188.100668 136.788638,188.110276 L136.765246,188.116959 Z M130.192147,177.10944 C130.506351,177.068261 130.732278,176.786771 130.704485,176.471101 C130.676693,176.155432 130.405055,175.917749 130.08849,175.932105 C129.771925,175.946462 129.522916,176.207756 129.523807,176.524645 C129.547029,176.870614 129.846158,177.132351 130.192147,177.10944 Z M128.855472,185.376775 C129.169248,185.335652 129.395068,185.054838 129.367907,184.739546 C129.340746,184.424254 129.070227,184.186198 128.754041,184.199344 C128.437854,184.21249 128.18803,184.47218 128.187135,184.788638 C128.195525,184.95971 128.273397,185.119939 128.402726,185.232234 C128.532054,185.344529 128.701624,185.399152 128.87218,185.383459 L128.855472,185.376775 Z M136.340852,184.327485 C136.29368,184.727057 136.498313,185.114215 136.855037,185.300307 C137.211762,185.4864 137.646368,185.432714 137.947086,185.165409 C138.247804,184.898105 138.352073,184.472789 138.209087,184.096707 C138.066101,183.720625 137.705605,183.472013 137.303258,183.472013 C136.806184,183.454845 136.386308,183.837629 136.357561,184.334169 L136.340852,184.327485 Z M136.340852,174.796992 C136.654628,174.755869 136.880448,174.475055 136.853287,174.159763 C136.826126,173.844472 136.555607,173.606415 136.239421,173.619561 C135.923234,173.632707 135.67341,173.892397 135.672515,174.208855 C135.680905,174.379927 135.758777,174.540157 135.888106,174.652451 C136.017434,174.764746 136.187004,174.819369 136.357561,174.803676 L136.340852,174.796992 Z" id="light-1" style="mix-blend-mode: overlay;"></path>
            </g>
        </g>
    </g>
</svg>
