<svg xmlns="http://www.w3.org/2000/svg" width="40" height="29" viewBox="0 0 40 29">
    <g fill="#FFF" fill-rule="nonzero">
        <path d="M8.72 20.994c-.244-.2-.47-.42-.675-.661-.943-1.097-1.345-2.494-1.345-4.195V0H.724v16.161c0 1.697.405 3.079 1.349 4.19A4.478 4.478 0 0 0 5.639 22c.35-.002.7-.043 1.042-.123l.019.03v-.03a7.7 7.7 0 0 0 2.024-.85l-.004-.032z"/>
        <path d="M14.503 14.212c0 1.02-.107 1.522-.851 1.522s-.897-.464-.897-1.389v-8.14H6.739v9.57c0 1.664.4 3.045 1.344 4.11a4.491 4.491 0 0 0 3.565 1.614 5.857 5.857 0 0 0 2.996-.902c-.568 2.15-1.85 3.2-3.76 3.2a6.296 6.296 0 0 1-2.107-.502 11.38 11.38 0 0 1-2.053-.959v4.978c.655.407 1.342.762 2.053 1.061a9.229 9.229 0 0 0 3.268.624 8.245 8.245 0 0 0 6.317-2.827c1.466-1.59 2.161-3.684 2.161-6.275V6.205h-6.02v8.007zm23.102.727c-.382-.472-.584-1.397-.584-2.558h2.096V6.205h-1.985C36.75 3.888 35.364.398 30.188.01c0 0-.614-.023-1.095 0-.382 0-.932.069-.932.069-7.142.639-6.657 8.257-6.657 8.257v13.32c3.882 0 5.825-1.862 5.825-4.434v-1.75h2.867V9.68h-2.878v-.761a3.212 3.212 0 0 1 .645-2.093 2.133 2.133 0 0 1 1.69-.731c.478 0 1.356.164 1.528.852v6.081c0 2.215.42 3.996 1.32 5.328a7.596 7.596 0 0 0 2.818 2.496 7.934 7.934 0 0 0 3.744.917h.66v-6.134c-1.21 0-1.736-.228-2.118-.696z"/>
    </g>
</svg>
