<svg xmlns="http://www.w3.org/2000/svg" width="113" height="33" viewBox="0 0 113 33">
    <g fill="#FFF" fill-rule="nonzero">
        <path d="M18.785 7.773l2.293-4.02a2.46 2.46 0 0 0-.927-3.28 2.429 2.429 0 0 0-3.29.824l-2.292 4.02a11.189 11.189 0 0 0-11.411 2.94A11.358 11.358 0 0 0 .625 19.83l4.26-7.406a7.23 7.23 0 0 1 4.439-3.424 7.085 7.085 0 0 1 5.548.744 7.362 7.362 0 0 1 3.709 6.385 7.363 7.363 0 0 1-3.683 6.401 7.27 7.27 0 0 1-7.35-.057l2.442-4.28c.853.497 1.92.429 2.703-.174a2.461 2.461 0 0 0 .874-2.58 2.442 2.442 0 0 0-2.035-1.8 2.433 2.433 0 0 0-2.43 1.204L1.335 28.391a2.466 2.466 0 0 0-.058 2.5 2.435 2.435 0 0 0 2.15 1.252 2.436 2.436 0 0 0 2.124-1.295l2.293-4.02c5.005 1.573 10.425-.554 13.049-5.121 2.624-4.568 1.752-10.355-2.1-13.934h-.008zm14.092 2.903h-3.773v10.793h2.22v-3.536h1.553c2.182 0 3.994-1.116 3.994-3.647 0-2.53-1.812-3.61-3.994-3.61zm-.074 5.285h-1.516v-3.35h1.516c1.036 0 1.775.484 1.775 1.675 0 1.19-.702 1.675-1.775 1.675zm9.506 1.079h4.29v-1.898h-4.29v-2.494h4.882v-1.972h-7.102v10.793h7.324v-1.935h-5.104V17.04zm11.021-6.364h-2.219v10.793h7.065v-1.935H53.33v-8.858zm12.872-.15c-3.039.021-5.488 2.513-5.474 5.571.013 3.058 2.484 5.527 5.523 5.52 3.039-.006 5.499-2.487 5.499-5.545a5.492 5.492 0 0 0-1.606-3.956 5.423 5.423 0 0 0-3.942-1.59zm0 9.12c-1.96 0-3.292-1.564-3.292-3.574s1.332-3.573 3.292-3.573c1.96 0 3.292 1.564 3.292 3.573 0 2.01-1.332 3.573-3.292 3.573zm7.915-7.035h3.07v8.858h2.219V12.61h3.07V10.64h-8.36v1.972zm16.274-2.084c-3.039.02-5.488 2.512-5.474 5.57.014 3.058 2.484 5.527 5.523 5.52 3.039-.006 5.499-2.487 5.499-5.545a5.492 5.492 0 0 0-1.606-3.956 5.423 5.423 0 0 0-3.942-1.59zm-.037 9.118c-1.96 0-3.292-1.563-3.292-3.573s1.332-3.573 3.292-3.573c1.96 0 3.3 1.564 3.3 3.573 0 2.01-1.303 3.573-3.3 3.573zm15.875-4.429c0 .745.148 1.973.148 1.973a14.09 14.09 0 0 0-1.258-1.489l-5.4-5.136h-.222V21.47h2.034v-4.54c0-.782-.148-1.973-.148-1.973s.777.967 1.295 1.488l5.4 5.137h.222V10.676h-2.071v4.54zm4.77-7.648a.44.44 0 0 0-.48-.446h-.555a.082.082 0 0 0-.074.074h-.074v1.377c.004.04.035.071.074.074h.111a.082.082 0 0 0 .074-.074v-.484h.296l.222.484a.13.13 0 0 0 .074.037h.148c.074 0 .11-.074.074-.111a6.076 6.076 0 0 0-.222-.484.457.457 0 0 0 .333-.447zm-.48.223h-.37v-.446h.37a.195.195 0 0 1 .167.056.198.198 0 0 1 .055.167.217.217 0 0 1-.222.223z"/>
        <path d="M111.5 6.143a1.524 1.524 0 0 0-1.5 1.5 1.5 1.5 0 1 0 1.5-1.5zm0 2.802a1.299 1.299 0 0 1-1.263-1.243 1.263 1.263 0 1 1 1.263 1.263v-.02z"/>
    </g>
</svg>
