<svg xmlns="http://www.w3.org/2000/svg" width="103" height="24" viewBox="0 0 103 24">
    <path fill="#FFF" fill-rule="nonzero" d="M43.182 11.954a2.26 2.26 0 0 1-.587.886c-.251.225-.55.39-.896.495a3.931 3.931 0 0 1-1.136.158h-.742v3.188h-2.026V7.894h2.916c.387 0 .743.048 1.068.144.326.097.608.252.847.465.238.213.427.494.562.84.136.348.204.776.204 1.288 0 .519-.07.96-.21 1.323zm-2.033-2.108c-.128-.163-.335-.245-.624-.245h-.704v2.184h.667c.297 0 .513-.084.649-.252.135-.166.204-.45.204-.852 0-.393-.065-.672-.192-.835zm9.804 4.45c-.138.567-.343 1.04-.611 1.411-.267.372-.595.65-.982.835a3.04 3.04 0 0 1-1.31.276c-.972 0-1.728-.365-2.267-1.099-.54-.732-.81-1.871-.81-3.419 0-1.547.274-2.693.821-3.432.548-.741 1.309-1.112 2.28-1.112.974 0 1.731.369 2.274 1.106.544.736.816 1.873.816 3.413 0 .778-.07 1.451-.21 2.02zm-1.975-3.32a3.575 3.575 0 0 0-.186-.845c-.083-.21-.186-.36-.309-.448a.712.712 0 0 0-.42-.132.722.722 0 0 0-.428.126c-.118.085-.22.23-.302.435-.082.205-.141.486-.18.839-.037.352-.054.794-.054 1.324s.02.97.06 1.323c.042.354.105.635.186.845.083.211.184.36.302.448a.7.7 0 0 0 .427.133.733.733 0 0 0 .42-.127c.124-.083.225-.229.304-.435a3.71 3.71 0 0 0 .18-.837c.04-.353.061-.795.061-1.325 0-.53-.02-.97-.061-1.325zm9.156 4.355a2.24 2.24 0 0 1-.587.81 2.697 2.697 0 0 1-.89.502 3.444 3.444 0 0 1-1.12.176c-.336 0-.641-.036-.914-.101a2.8 2.8 0 0 1-.747-.3 3.166 3.166 0 0 1-.624-.486 5.748 5.748 0 0 1-.556-.645l1.41-1.293c.287.351.551.618.79.797.238.18.464.27.679.27a.818.818 0 0 0 .532-.17c.14-.112.21-.29.21-.533 0-.125-.013-.238-.037-.34a.752.752 0 0 0-.155-.294 1.493 1.493 0 0 0-.334-.288 3.928 3.928 0 0 0-.586-.308 8.575 8.575 0 0 1-1.093-.571c-.301-.189-.545-.39-.73-.609a2.042 2.042 0 0 1-.402-.72 3.098 3.098 0 0 1-.122-.911c0-.36.061-.695.184-1.005.124-.309.3-.579.532-.81.23-.23.513-.41.846-.545a2.969 2.969 0 0 1 1.118-.2c.33 0 .624.029.884.087.26.059.495.148.703.271.211.12.407.267.59.44.179.17.36.368.541.594l-1.433 1.305a37.33 37.33 0 0 0-.382-.446 2.346 2.346 0 0 0-.31-.294.947.947 0 0 0-.302-.157 1.333 1.333 0 0 0-.352-.043c-.199 0-.351.062-.458.188a.658.658 0 0 0-.16.438.787.787 0 0 0 .222.585c.082.087.193.173.334.258.14.083.32.174.543.276a7.63 7.63 0 0 1 1.106.583c.301.196.546.412.736.646.19.235.326.491.414.772.086.28.13.605.13.973 0 .41-.07.776-.21 1.098zm5.472-5.604v6.954h-2.061V9.727h-1.756V7.894h5.572v1.833h-1.755zm8.663 6.954v-1.945c0-.478.003-.929.012-1.35.009-.423.022-.823.039-1.2l-.168.585c-.063.212-.13.435-.204.665-.074.23-.151.457-.229.684-.078.226-.151.438-.216.64l-.816 2.196-.816-2.196-.215-.634a38.024 38.024 0 0 1-.433-1.355 73.785 73.785 0 0 1-.166-.585 60.191 60.191 0 0 1 .049 2.55v1.945h-1.877V7.894h1.877l.765 2.16c.191.526.359 1.03.508 1.512.149.481.251.876.308 1.186.065-.31.174-.704.322-1.18.148-.477.317-.989.506-1.532l.754-2.146h1.866v8.787h-1.866zm8.106 0l-.322-1.633h-1.706l-.307 1.633h-2.126l2.237-8.787h2.126l2.223 8.787h-2.125zm-.717-3.628c-.099-.578-.19-1.106-.278-1.588-.086-.48-.15-.922-.191-1.325-.042.403-.102.844-.18 1.325a92.28 92.28 0 0 1-.278 1.6l-.049.276h1.025l-.049-.288zm7.291-3.326v6.954h-2.064V9.727H83.13V7.894h5.573v1.833h-1.754zm3.62 6.954V7.894h5.067V9.69H92.62v1.494h1.965v1.794H92.62v1.908h3.101v1.796h-5.153zm12.22-1.35a2.23 2.23 0 0 1-.586.81 2.673 2.673 0 0 1-.89.502 3.43 3.43 0 0 1-1.118.176c-.34 0-.642-.036-.914-.101a2.79 2.79 0 0 1-.75-.3 3.207 3.207 0 0 1-.623-.486 5.747 5.747 0 0 1-.555-.645l1.408-1.293c.288.351.553.618.792.797.238.18.465.27.678.27a.818.818 0 0 0 .533-.17c.139-.112.21-.29.21-.533 0-.125-.013-.238-.038-.34a.758.758 0 0 0-.154-.294 1.537 1.537 0 0 0-.333-.288 4.071 4.071 0 0 0-.588-.308 8.65 8.65 0 0 1-1.093-.571 3.08 3.08 0 0 1-.73-.609 2.057 2.057 0 0 1-.4-.72 3.042 3.042 0 0 1-.125-.911c0-.36.062-.695.185-1.005.124-.309.302-.579.532-.81.23-.23.513-.41.847-.545a2.96 2.96 0 0 1 1.118-.2c.33 0 .624.029.884.087.26.059.494.148.703.271.21.12.407.267.588.44.18.17.362.368.544.594l-1.435 1.305a33.276 33.276 0 0 0-.383-.446 2.295 2.295 0 0 0-.308-.294.966.966 0 0 0-.303-.157 1.321 1.321 0 0 0-.352-.043c-.198 0-.35.062-.457.188a.65.65 0 0 0-.161.438c0 .119.016.222.05.314.033.093.09.183.173.271.082.087.194.173.332.258.142.083.321.174.545.276a7.56 7.56 0 0 1 1.106.583c.3.196.545.412.735.646a2.3 2.3 0 0 1 .413.772c.088.28.131.605.131.973 0 .41-.07.776-.211 1.098zM30.755 9.833c1.352 1.911.92 4.585-.962 5.959a4.14 4.14 0 0 1-1.624.72 4.185 4.185 0 0 1-4.243-1.697 4.33 4.33 0 0 1-.043-4.91l-1.194-.902-.708 5.26.358.838c.167.198 1.46-.118 1.63.231.127.256.052.411-.458.564-.491.148-.932.293-1.352.416a.964.964 0 0 1-.374.96.93.93 0 0 1-1.005.058l-.307.202c1.01 1.864.514 4.25-1.23 5.521-.49.359-1.036.6-1.624.72a4.186 4.186 0 0 1-4.242-1.696c-1.352-1.912-.92-4.585.962-5.958a4.077 4.077 0 0 1 2.414-.8l.146-1.588-1.548-1.112a8.81 8.81 0 0 1-.237.237c-.333.321-1.454.3-1.454.3-.145-.188-.196-.273-.028-.439.214-.211.657-.56 1.086-.883-.559-.658-.54-1.984-.214-3.33-1.159.704-3.925.651-4.886.27 1.16-.057 5.567-2.97 7.455-4.699l-.033.084.052-.102a1.462 1.462 0 0 1-.85-.76c-.397-.844-.46-1.791.737-2.298.698-.297.942-.072 1.238.15a.897.897 0 0 1 .146.148c.364-.072 1.229-.193 1.238-.158.027.094-.668.645-.854.782.23.478.396 1.054.241 1.405-.121.276-.277.48-.726.698a1.3 1.3 0 0 1-.326.104c.036.25.459.284.67.575.37.514.563 1.397 1.381 1.559.226.045.698-.029 1.257-.13a6.58 6.58 0 0 1 1.3-.05l.001.002.002-.001-.002-.005h.007c.242-.225.244-.221.244-.221l2.492-2.27.756 1.495-1.625 1.437-.19.167-.868.767c.325.025.576.07.7.136.46.246-.651.7-1.008.835l1.224.978c.183-.198.386-.381.611-.546.49-.358 1.037-.6 1.625-.719a4.183 4.183 0 0 1 4.242 1.696zm-9.684-4.116h-.012v-.002l2.79-2.41 1.113.114-2.531 2.305a13.41 13.41 0 0 0-1.36-.007zM2.663 17.55l1.645-.334-1.137 1.252.822 1.486-1.525-.712-1.138 1.255.195-1.694L0 18.094l1.645-.336.196-1.693.822 1.486zm5.499 2.57l1.646-.334L8.67 21.04l.822 1.487-1.526-.712L6.83 23.07l.195-1.694-1.525-.712 1.646-.335.194-1.692.822 1.485zm.736-7.171l1.646-.335-1.137 1.254.822 1.486-1.526-.712-1.136 1.254.194-1.693-1.525-.712 1.646-.335.194-1.693.822 1.486zm20.399 2.14c1.501-1.097 1.845-3.228.767-4.753a3.34 3.34 0 0 0-3.384-1.353 3.294 3.294 0 0 0-1.73.958l2.626 2.1a.262.262 0 0 1 .05.364.253.253 0 0 1-.176.1.252.252 0 0 1-.183-.05l-2.7-2.036a3.453 3.453 0 0 0 .05 3.89 3.338 3.338 0 0 0 3.384 1.353 3.306 3.306 0 0 0 1.296-.573zm-8.942-4.91l1.706-1.65-.29-.22c-.009-.005-.017-.014-.026-.021-.762.303-1.643.501-1.643.501s-1.94-.678-2.056-1.274c-.216.946-.864 1.758-1.231 2.542 1.08-.183 2.738-.466 3.54.121zm1.169 3.012l.511-3.8-1.323 1.279c.063.21.078.464.053.746l.759 1.775zm-.316 2.345l.07-.512c-.34-.66-.685-1.314-1.028-1.699-.327.646-.553 1.102-.653 1.408-.027.089.666.51.82.61.2.132.312.218.384.304a.927.927 0 0 1 .407-.111zm-1.058 1.485l.221-.144a.969.969 0 0 1-.031-.677l-.009-.006-1.667-.656c-.31-.127-.355-.333-.25-.721l-.953-.684-.112 1.223a4.202 4.202 0 0 1 2.801 1.665zm-1.403 5.329c1.373-1.002 1.775-2.87 1.008-4.349l-2.94 1.927a.289.289 0 0 1-.316.004.305.305 0 0 1-.143-.286l.318-3.463a3.295 3.295 0 0 0-1.838.637c-1.501 1.095-1.846 3.227-.768 4.753a3.339 3.339 0 0 0 3.384 1.352 3.299 3.299 0 0 0 1.295-.575zm-1.478-6.133l-.263 2.866 2.427-1.591a3.35 3.35 0 0 0-2.164-1.275zm2.124-4.272l-1.745 1.687.937.673c.198-.532.503-1.286.808-2.36zm-3.66.312l1.419 1.019 1.423-1.376a37.41 37.41 0 0 1-2.442.318 2.273 2.273 0 0 1-.4.04zm4.07-5.177c-.46-.28.392.577.72.522.412-.07.867-.118 1.31-.146l-.204-.461c-.563.088-1.203.14-1.825.085z"/>
</svg>
