<svg xmlns="http://www.w3.org/2000/svg" width="248" height="130" viewBox="0 0 248 130">
    <defs>
        <linearGradient id="a" x1="38.69%" x2="61.248%" y1="38.798%" y2="61.202%">
            <stop offset="0%" stop-color="#4CD9ED"/>
            <stop offset="100%" stop-color="#437FEC"/>
        </linearGradient>
        <linearGradient id="b" x1="35.527%" x2="64.406%" y1="64.376%" y2="35.611%">
            <stop offset="0%" stop-color="#F1F4FE"/>
            <stop offset="58%" stop-color="#F7F9FE"/>
            <stop offset="100%" stop-color="#FFF"/>
        </linearGradient>
        <linearGradient id="c" x1="50.01%" x2="50.01%" y1="100.048%" y2=".25%">
            <stop offset="0%" stop-color="#E4E7FB"/>
            <stop offset="45%" stop-color="#F2F3FC"/>
            <stop offset="100%" stop-color="#FEFEFC"/>
        </linearGradient>
        <linearGradient id="d" x1="-.071%" y1="50%" y2="50%">
            <stop offset="0%" stop-color="#E4E7FB"/>
            <stop offset="43%" stop-color="#ECEEFB"/>
            <stop offset="100%" stop-color="#FEFEFC"/>
        </linearGradient>
        <linearGradient id="e" x1="-.055%" x2="99.717%" y1="49.788%" y2="49.788%">
            <stop offset="0%" stop-color="#FEFEFC"/>
            <stop offset="100%" stop-color="#E4E7FB"/>
        </linearGradient>
        <linearGradient id="f" x1="-.147%" x2="99.853%" y1="50.101%" y2="50.101%">
            <stop offset="0%" stop-color="#E4E7FB"/>
            <stop offset="100%" stop-color="#FEFEFC"/>
        </linearGradient>
        <linearGradient id="g" x1=".91%" x2="100.634%" y1="51.595%" y2="51.595%">
            <stop offset="0%" stop-color="#FEFEFC"/>
            <stop offset="100%" stop-color="#E4E7FB"/>
        </linearGradient>
        <linearGradient id="h" x1="49.953%" x2="49.953%" y1="99.997%" y2=".003%">
            <stop offset="0%" stop-color="#E4E7FB"/>
            <stop offset="45%" stop-color="#F2F3FC"/>
            <stop offset="100%" stop-color="#FEFEFC"/>
        </linearGradient>
        <linearGradient id="i" x1="-13.515%" x2="87.569%" y1="130.418%" y2="130.418%">
            <stop offset="0%" stop-color="#4CD9ED"/>
            <stop offset="22%" stop-color="#4AC2ED"/>
            <stop offset="74%" stop-color="#4592EC"/>
            <stop offset="100%" stop-color="#437FEC"/>
        </linearGradient>
        <linearGradient id="j" x1="-2.032%" x2="98.268%" y1="62.411%" y2="62.411%">
            <stop offset="0%" stop-color="#F1F4FE"/>
            <stop offset="58%" stop-color="#F7F9FE"/>
            <stop offset="100%" stop-color="#FFF"/>
        </linearGradient>
        <linearGradient id="k" x1="-2.371%" x2="97.592%" y1="65.017%" y2="65.017%">
            <stop offset="0%" stop-color="#B7C0EB"/>
            <stop offset="53%" stop-color="#E4E7FB"/>
            <stop offset="100%" stop-color="#E4E7FB"/>
        </linearGradient>
        <linearGradient id="l" x1="23.498%" x2="72.892%" y1="36.612%" y2="78.039%">
            <stop offset="0%" stop-color="#4CD9ED"/>
            <stop offset="54%" stop-color="#47A6EC"/>
            <stop offset="100%" stop-color="#437FEC"/>
        </linearGradient>
        <linearGradient id="m" x1="57.67%" x2="45.549%" y1="66.704%" y2="50.641%">
            <stop offset="0%" stop-color="#4CD9ED"/>
            <stop offset="0%" stop-color="#4BD7EC"/>
            <stop offset="2%" stop-color="#2775C0"/>
            <stop offset="3%" stop-color="#184EAE"/>
            <stop offset="100%" stop-color="#437FEC"/>
        </linearGradient>
        <linearGradient id="n" x1="-3.833%" x2="95.189%" y1="66.707%" y2="66.707%">
            <stop offset="17%" stop-color="#437FEC"/>
            <stop offset="47%" stop-color="#336CD5"/>
            <stop offset="100%" stop-color="#184EAE"/>
        </linearGradient>
        <linearGradient id="o" x1="-.747%" x2="98.955%" y1="55.664%" y2="55.664%">
            <stop offset="0%" stop-color="#F1F4FE"/>
            <stop offset="58%" stop-color="#F7F9FE"/>
            <stop offset="100%" stop-color="#FFF"/>
        </linearGradient>
        <linearGradient id="p" x1="54.332%" x2="49.223%" y1="53.66%" y2="48.164%">
            <stop offset="0%" stop-color="#B7C0EB"/>
            <stop offset="100%" stop-color="#E4E7FB"/>
        </linearGradient>
        <linearGradient id="q" x1="12.823%" x2="80.231%" y1="57.353%" y2="72.42%">
            <stop offset="0%" stop-color="#4CD9ED"/>
            <stop offset="20%" stop-color="#4CD4ED"/>
            <stop offset="41%" stop-color="#4AC7ED"/>
            <stop offset="65%" stop-color="#48B0ED"/>
            <stop offset="88%" stop-color="#4591EC"/>
            <stop offset="100%" stop-color="#437FEC"/>
        </linearGradient>
        <linearGradient id="r" x1="19873.186%" x2="19873.186%" y1="-44674.623%" y2="-44542.965%">
            <stop offset="17%" stop-color="#437FEC"/>
            <stop offset="47%" stop-color="#336CD5"/>
            <stop offset="100%" stop-color="#184EAE"/>
        </linearGradient>
        <linearGradient id="s" x1="0%" y1="50%" y2="50%">
            <stop offset="0%" stop-color="#4CD9ED"/>
            <stop offset="0%" stop-color="#4BD7EC"/>
            <stop offset="2%" stop-color="#2775C0"/>
            <stop offset="3%" stop-color="#184EAE"/>
            <stop offset="100%" stop-color="#437FEC"/>
        </linearGradient>
        <linearGradient id="t" x1="2647.001%" x2="2655.472%" y1="-7611.341%" y2="-7602.178%">
            <stop offset="0%" stop-color="#4CD9ED"/>
            <stop offset="54%" stop-color="#47A6EC"/>
            <stop offset="100%" stop-color="#437FEC"/>
        </linearGradient>
    </defs>
    <g fill="none" fill-rule="nonzero">
        <g opacity=".7" style="mix-blend-mode:multiply">
            <path fill="#FDFDFE" d="M247.284 56.18v.322a5.369 5.369 0 0 0-3.297-4.961L165.151 6.249a17.447 17.447 0 0 0-15.776 0L41.078 68.958a5.52 5.52 0 0 0-3.233 4.53v4.64a5.542 5.542 0 0 0 3.276 4.595l78.857 45.335c.26.15.54.279.82.408.086.056.18.099.28.129l.495.215c.395.158.798.294 1.207.408h.28l.69.171h5.948c.427-.034.851-.092 1.272-.171h.366l.604-.13.452-.107.56-.171h.324l.883-.323.324-.15c.355-.15.7-.322 1.034-.515l108.298-62.73h.15l.28-.193.41-.28.302-.236.345-.279.129-.129c.162-.154.313-.319.453-.494v-.107a.45.45 0 0 0 0-.129l.258-.386v-.15c.06-.111.11-.226.151-.344a.665.665 0 0 0 .108-.215c.01-.107.01-.215 0-.322a.963.963 0 0 0 0-.237 2.14 2.14 0 0 0 0-.365.77.77 0 0 0 0-.214V56.18h.883z" opacity=".03"/>
            <path fill="#FAFBFE" d="M246.616 56.18v.322a5.369 5.369 0 0 0-3.297-4.961L164.483 6.249a17.447 17.447 0 0 0-15.776 0L40.409 68.958a5.52 5.52 0 0 0-3.232 4.53v4.64a5.606 5.606 0 0 0 3.297 4.595l78.815 45.335.819.408.301.129.496.215c.387.158.783.294 1.186.408h.28l.69.171H129.008c.426-.034.85-.092 1.271-.171h.367l.603-.13.453-.107.56-.171h.323l.884-.323.323-.15c.355-.15.7-.322 1.035-.515l108.297-62.73h.13l.301-.193c.138-.081.268-.174.388-.28.116-.066.225-.145.323-.236l.345-.279v-.129c.174-.148.333-.314.474-.494v-.107-.129l.259-.386v-.15c.06-.111.11-.226.15-.344a.663.663 0 0 0 0-.215c.01-.107.01-.215 0-.322v-.237a2.14 2.14 0 0 0 0-.365.728.728 0 0 0 0-.214V56.18h1.121z" opacity=".06"/>
            <path fill="#F8F9FD" d="M245.948 56.18v.322a5.411 5.411 0 0 0-3.297-4.961L163.793 6.249a17.447 17.447 0 0 0-15.776 0L39.741 68.958a5.52 5.52 0 0 0-3.232 4.53v4.64a5.606 5.606 0 0 0 3.297 4.595l78.728 45.335.82.408.301.129.496.215c.387.158.783.294 1.185.408h.388l.69.171h6.099c.427-.034.851-.092 1.271-.171h.367l.603-.13.431-.107.582-.171h.324l.883-.323.302-.15a8.008 8.008 0 0 0 1.056-.515l108.297-62.73h.13l.301-.193.388-.28.324-.236.344-.279v-.129c.175-.148.334-.314.475-.494l.107-.107a.45.45 0 0 1 0-.129l.259-.386v-.15c.06-.111.11-.226.15-.344v-.215V61.59a2.14 2.14 0 0 0 0-.365V56.18h.841z" opacity=".1"/>
            <path fill="#F6F7FC" d="M245.28 56.18v.322a5.411 5.411 0 0 0-3.297-4.961L163.147 6.249a17.447 17.447 0 0 0-15.776 0L39.073 68.958a5.52 5.52 0 0 0-3.232 4.53v4.64a5.606 5.606 0 0 0 3.297 4.595l78.815 45.335.819.408.301.129.496.215c.387.158.783.294 1.185.408h.28l.69.171h5.948c.431 0 .84 0 1.272-.171h.345l.625-.13.43-.107.583-.171h.323l.862-.323.323-.15a8.008 8.008 0 0 0 1.056-.515l108.535-62.494h.13l.3-.193.389-.28.323-.235.345-.28v-.129a5.14 5.14 0 0 0 .474-.493v-.237l.28-.386v-.15l.151-.344a2.14 2.14 0 0 0 0-.215v-.558a2.14 2.14 0 0 0 0-.365V56.18h.862z" opacity=".13"/>
            <path fill="#F3F5FC" d="M244.612 56.18c.01.107.01.215 0 .322a5.39 5.39 0 0 0-3.233-4.961l-78.9-45.292a17.447 17.447 0 0 0-15.776 0L38.405 68.958a5.434 5.434 0 0 0-3.233 4.53v4.64a5.606 5.606 0 0 0 3.298 4.595l78.814 45.335c.26.15.54.279.82.408.089.052.182.095.28.129l.517.215c.386.161.782.298 1.185.408h.28l.69.171h6.099c.431 0 .84 0 1.272-.171h.345l.625-.13.43-.107.582-.171h.324l.862-.323.323-.15c.362-.15.715-.322 1.056-.515L241.38 65.328h.13l.28-.193.41-.28.323-.235.323-.28.108-.129a5.14 5.14 0 0 0 .474-.493.257.257 0 0 1 0-.108v-.129c.1-.118.187-.248.258-.386l.13-.15c.066-.11.123-.225.172-.344a2.14 2.14 0 0 0 0-.215c0-.107 0-.215.108-.322v-.236-.365V56.18h.517z" opacity=".16"/>
            <path fill="#F1F3FB" d="M243.944 56.18c.01.107.01.215 0 .322a5.39 5.39 0 0 0-3.297-4.961L161.789 6.249a17.404 17.404 0 0 0-15.755 0L37.737 68.958a5.499 5.499 0 0 0-3.254 4.53v4.64a5.606 5.606 0 0 0 3.297 4.595l78.836 45.335c.259.15.54.279.82.408.088.052.182.095.28.129l.517.215c.394.158.797.294 1.207.408h.301l.69.171h5.949c.43 0 .84 0 1.27-.171h.367l.625-.13.431-.107.582-.171h.216l.862-.323.323-.15c.362-.15.715-.322 1.056-.515l108.297-62.73h.13l.28-.193.41-.28.301-.236.345-.279v-.129a5.14 5.14 0 0 0 .474-.494v-.236c.101-.118.188-.248.259-.386v-.15c0-.108 0-.237.172-.344a2.14 2.14 0 0 0 0-.215c0-.108 0-.215.108-.322v-.237-.365-5.046h1.056z" opacity=".19"/>
            <path fill="#EFF1FA" d="M243.254 56.18c.011.107.011.215 0 .322a5.39 5.39 0 0 0-3.276-4.961L161.121 6.249a17.447 17.447 0 0 0-15.776 0L37.069 68.958a5.499 5.499 0 0 0-3.254 4.53v4.64a5.606 5.606 0 0 0 3.297 4.595l78.836 45.335.82.408c.088.052.182.095.28.129l.495.215c.394.158.797.294 1.207.408h.302l.69.171h5.948c.419-.036.836-.093 1.25-.171h.366l.625-.13.431-.107.582-.171h.215l.863-.323.323-.15c.362-.15.715-.322 1.056-.515l108.297-62.73h.13l.28-.193.41-.28.301-.236.345-.279.13-.129a5.14 5.14 0 0 0 .473-.494v-.236c.094-.124.18-.253.259-.386v-.15s.108-.237.172-.344a2.14 2.14 0 0 0 0-.215c.01-.107.01-.215 0-.322a.963.963 0 0 0 0-.237v-.365-5.046h1.056z" opacity=".23"/>
            <path fill="#ECEFFA" d="M242.586 56.18c.01.107.01.215 0 .322a5.369 5.369 0 0 0-3.362-4.961L160.453 6.249a17.447 17.447 0 0 0-15.776 0L36.379 68.958a5.52 5.52 0 0 0-3.232 4.53v4.64a5.542 5.542 0 0 0 3.275 4.595l78.858 45.335c.259.15.539.279.82.408.088.052.182.095.28.129l.495.215c.394.158.797.294 1.207.408h.28l.711.171h6.014c.419-.036.836-.093 1.25-.171h.366l.603-.13.453-.107.56-.171h.323l.884-.323.323-.15c.362-.15.715-.322 1.056-.515l108.276-62.73h.15l.281-.193.41-.28.301-.236.345-.279.13-.129a5.14 5.14 0 0 0 .474-.494v-.236l.258-.386v-.15l.173-.344a2.14 2.14 0 0 0 0-.215c.01-.107.01-.215 0-.322a.963.963 0 0 0 0-.237v-.365-5.046h.883z" opacity=".26"/>
            <path fill="#EAEDF9" d="M241.918 56.18v.322a5.369 5.369 0 0 0-3.297-4.961L159.784 6.249a17.447 17.447 0 0 0-15.775 0L35.71 68.958a5.52 5.52 0 0 0-3.233 4.53v4.64a5.542 5.542 0 0 0 3.276 4.595l78.858 45.335c.264.153.538.29.819.408.087.056.181.099.28.129l.496.215c.394.158.797.294 1.207.408h.28l.69.171h5.948c.427-.034.851-.092 1.271-.171h.367l.603-.13.453-.107.56-.171h.323l.884-.323.323-.15c.356-.15.701-.322 1.035-.515l108.297-62.73h.151l.28-.193.41-.28.302-.236.344-.279.13-.129c.162-.154.313-.319.452-.494v-.236l.259-.386v-.15c.06-.111.11-.226.15-.344a.663.663 0 0 0 0-.215c.01-.107.01-.215 0-.322a.963.963 0 0 0 0-.237 2.14 2.14 0 0 0 0-.365V56.18h.992z" opacity=".29"/>
            <path fill="#E8EBF9" d="M241.25 56.18v.322a5.369 5.369 0 0 0-3.297-4.961L159.116 6.249a17.447 17.447 0 0 0-15.775 0L35.043 68.958a5.52 5.52 0 0 0-3.233 4.53v4.64a5.606 5.606 0 0 0 3.298 4.595l78.814 45.335.82.408.301.129.496.215c.387.158.783.294 1.185.408h.388l.69.171h5.948c.427-.034.851-.092 1.272-.171h.366l.603-.13.453-.107.56-.171h.324l.883-.323.302-.15a8.008 8.008 0 0 0 1.056-.515l108.297-62.73h.13l.301-.193c.138-.081.268-.174.388-.28.117-.066.225-.145.324-.236l.344-.279v-.129c.175-.148.334-.314.475-.494v-.107a.45.45 0 0 1 0-.129l.258-.386.108-.15c.06-.111.11-.226.15-.344a.663.663 0 0 0 0-.215V61.59a2.14 2.14 0 0 0 0-.365.728.728 0 0 0 0-.214V56.18h.906z" opacity=".32"/>
            <path fill="#E5E9F8" d="M240.582 56.18v.322a5.411 5.411 0 0 0-3.298-4.961L158.448 6.249a17.447 17.447 0 0 0-15.776 0L34.482 68.958a5.52 5.52 0 0 0-3.232 4.53v4.64a5.606 5.606 0 0 0 3.233 4.574l78.771 45.356.82.408.301.129.496.215c.387.158.782.294 1.185.408h.28l.69.171h5.948c.427-.034.851-.092 1.272-.171h.366l.604-.13.43-.107.582-.171h.324l.883-.323.302-.15a8.008 8.008 0 0 0 1.056-.515l108.298-62.73h.129l.302-.193.387-.28.324-.236.345-.279v-.129c.174-.148.333-.314.474-.494v-.236l.258-.386.108-.15c.06-.111.11-.226.151-.344.04-.07.076-.141.108-.215V61.59a2.14 2.14 0 0 0 0-.365V56.18h.905z" opacity=".35"/>
            <path fill="#E3E7F7" d="M239.914 56.18v.322a5.411 5.411 0 0 0-3.298-4.961L157.78 6.249a17.447 17.447 0 0 0-15.776 0L33.707 68.958a5.52 5.52 0 0 0-3.233 4.53v4.64a5.606 5.606 0 0 0 3.298 4.595l78.814 45.335c.259.15.539.279.82.408.094.056.195.099.3.129l.518.257c.387.159.783.295 1.185.408h.28l.69.172h6.099c.431 0 .841 0 1.272-.172h.345l.625-.128.43-.108.583-.172h.323l.862-.322.323-.15a8.007 8.007 0 0 0 1.056-.515l108.298-62.73h.13l.3-.193.389-.28.323-.236.345-.279v-.129a5.14 5.14 0 0 0 .474-.494v-.236l.28-.387v-.15l.151-.343a2.14 2.14 0 0 0 0-.215V61.634a2.14 2.14 0 0 0 0-.365V56.18h.927z" opacity=".39"/>
            <path fill="#E1E5F7" d="M239.224 56.18c.01.107.01.215 0 .322a5.39 5.39 0 0 0-3.276-4.961L157.091 6.249a17.404 17.404 0 0 0-15.755 0L33.04 68.958a5.434 5.434 0 0 0-3.233 4.53v4.64a5.606 5.606 0 0 0 3.297 4.595l78.815 45.335c.259.15.539.279.82.408.088.052.182.095.28.129l.516.215c.386.161.782.298 1.186.408h.302l.69.171H121.853c.43 0 .84 0 1.271-.171h.345l.625-.13.43-.107.583-.171h.323l.862-.323.323-.15c.363-.15.715-.322 1.056-.515l108.32-62.494h.129l.28-.193.41-.28.323-.235.323-.28v-.129a5.14 5.14 0 0 0 .474-.493.258.258 0 0 1 .108-.108v-.129c.1-.118.187-.248.258-.386l.13-.15c.066-.11.123-.225.172-.344a2.14 2.14 0 0 0 0-.215v-.558-.365V56.18h.625z" opacity=".42"/>
            <path fill="#DEE3F6" d="M238.578 56.18v.322a5.389 5.389 0 0 0-3.298-4.961L156.422 6.249a17.404 17.404 0 0 0-15.754 0L32.328 68.958a5.499 5.499 0 0 0-3.255 4.53v4.64a5.606 5.606 0 0 0 3.255 4.574l78.922 45.356.819.408c.089.052.183.095.28.129l.517.215c.395.158.798.294 1.207.408h.302l.69.171h5.948c.431 0 .84 0 1.271-.171h.367l.625-.13.43-.107.583-.171h.215l.862-.323.324-.15c.362-.15.715-.322 1.056-.515l108.297-62.73h.13l.28-.193.41-.28.3-.236.346-.279v-.129a5.14 5.14 0 0 0 .474-.494.257.257 0 0 1 0-.107v-.129c.1-.118.187-.248.258-.386l.108-.15c0-.108 0-.237.173-.344a2.14 2.14 0 0 0 0-.215v-.322a.963.963 0 0 1 0-.237v-.365-5.046h1.056z" opacity=".45"/>
            <path fill="#DCE1F5" d="M237.888 56.18c.01.107.01.215 0 .322a5.39 5.39 0 0 0-3.276-4.961L155.754 6.249a17.447 17.447 0 0 0-15.776 0L31.703 68.958a5.499 5.499 0 0 0-3.255 4.53v4.64a5.628 5.628 0 0 0 3.276 4.595l78.858 45.335c.259.15.539.279.819.408.089.052.183.095.28.129l.496.215c.394.158.797.294 1.207.408h.301l.69.171H120.324c.419-.036.836-.093 1.25-.171h.366l.625-.13.43-.107.583-.171h.323l.862-.323.323-.15c.362-.15.715-.322 1.056-.515l108.298-62.73h.129l.28-.193.41-.28.301-.236.345-.279.13-.129a5.14 5.14 0 0 0 .474-.494v-.107a.45.45 0 0 0 0-.129l.258-.386.108-.15s0-.237.172-.344a2.14 2.14 0 0 0 0-.215c.01-.107.01-.215 0-.322a.963.963 0 0 0 0-.237v-.365-5.046h.84z" opacity=".48"/>
            <path fill="#DADEF5" d="M237.22 56.18v.322a5.369 5.369 0 0 0-3.298-4.961l-78.75-45.292a17.447 17.447 0 0 0-15.775 0L31.013 68.958a5.52 5.52 0 0 0-3.233 4.53v4.64a5.542 5.542 0 0 0 3.276 4.595l78.858 45.335c.258.15.539.279.819.408.089.052.183.095.28.129l.496.215c.394.158.797.294 1.207.408h.28l.71.171h5.928c.426-.034.85-.092 1.271-.171h.367l.603-.13.453-.107.56-.171h.323l.884-.323.323-.15a7.726 7.726 0 0 0 1.035-.515l108.297-62.73h.15l.281-.193.41-.28.301-.236.345-.279.13-.129a5.14 5.14 0 0 0 .474-.494v-.107a.45.45 0 0 0 0-.129l.258-.386v-.15s0-.237.173-.344a2.14 2.14 0 0 0 0-.215c.01-.107.01-.215 0-.322a.963.963 0 0 0 0-.237 2.14 2.14 0 0 0 0-.365.77.77 0 0 0 0-.214V56.18h.948z" opacity=".52"/>
            <path fill="#D8DCF4" d="M236.552 56.18v.322a5.369 5.369 0 0 0-3.298-4.961L154.418 6.249a17.447 17.447 0 0 0-15.776 0L30.345 68.958a5.52 5.52 0 0 0-3.233 4.53v4.64a5.542 5.542 0 0 0 3.276 4.595l78.858 45.335.819.408c.087.056.18.099.28.129l.496.215c.394.158.797.294 1.206.408h.28l.69.171h5.949c.426-.034.85-.092 1.271-.171h.366l.604-.13.452-.107.56-.171h.324l.884-.323.323-.15c.355-.15.7-.322 1.034-.515l108.298-62.73h.15l.28-.193.41-.28.302-.236.345-.279.13-.129c.161-.154.312-.319.452-.494l.108-.107v-.129l.258-.386v-.15c.06-.111.11-.226.151-.344a.663.663 0 0 0 0-.215c.01-.107.01-.215 0-.322v-.237a2.14 2.14 0 0 0 0-.365V56.18h.884z" opacity=".55"/>
            <path fill="#D5DAF3" d="M235.884 56.18v.322a5.369 5.369 0 0 0-3.298-4.961L153.75 6.249a17.447 17.447 0 0 0-15.776 0L29.677 68.958a5.52 5.52 0 0 0-3.233 4.53v4.64a5.606 5.606 0 0 0 3.297 4.595l78.815 45.335.819.408.302.129.495.215c.387.158.783.294 1.186.408h.28l.69.171h6.206c.427-.034.852-.092 1.272-.171h.366l.604-.13.452-.107.56-.171h.324l.884-.323.301-.15a8.007 8.007 0 0 0 1.056-.515l108.298-62.73h.13l.3-.193c.139-.081.269-.174.389-.28.116-.066.225-.145.323-.236l.345-.279v-.129c.174-.148.333-.314.474-.494v-.107a.45.45 0 0 1 0-.129l.259-.386v-.15c.059-.111.11-.226.15-.344a.663.663 0 0 0 0-.215V61.59a2.14 2.14 0 0 0 0-.365.728.728 0 0 0 0-.214V56.18h.863z" opacity=".58"/>
            <path fill="#D3D8F3" d="M235.216 56.18v.322a5.411 5.411 0 0 0-3.298-4.961l-78.9-45.292a17.447 17.447 0 0 0-15.777 0L29.01 68.958a5.52 5.52 0 0 0-3.147 4.53v4.64a5.606 5.606 0 0 0 3.297 4.595l78.729 45.335.819.408.302.129.495.215c.387.158.783.294 1.186.408h.28l.69.171h5.948c.426-.034.85-.092 1.271-.171h.367l.603-.13.431-.107.582-.171h.323l.884-.323.302-.15a8.007 8.007 0 0 0 1.056-.515l108.297-62.73h.13l.301-.193.388-.28.323-.236.345-.279.108-.129c.174-.148.333-.314.474-.494v-.107a.45.45 0 0 1 0-.129l.259-.386v-.15c.059-.111.11-.226.15-.344v-.215V61.59a2.14 2.14 0 0 0 0-.365V56.18h1.014z" opacity=".61"/>
            <path fill="#D1D6F2" d="M234.547 56.18v.322a5.411 5.411 0 0 0-3.297-4.961L152.414 6.249a17.447 17.447 0 0 0-15.776 0L28.34 68.958a5.52 5.52 0 0 0-3.233 4.53v4.64a5.606 5.606 0 0 0 3.297 4.595l78.815 45.335c.258.15.539.279.819.408.089.052.183.095.28.129l.517.215c.387.158.783.294 1.186.408h.387l.69.171h5.948c.431 0 .84 0 1.272-.171h.345l.625-.13.43-.107.583-.171h.323l.862-.323.323-.15a8.008 8.008 0 0 0 1.056-.515l108.298-62.73h.13l.3-.193.389-.28.323-.236.345-.279v-.129a5.14 5.14 0 0 0 .474-.494v-.236l.28-.386v-.15l.151-.344a2.14 2.14 0 0 0 0-.215c0-.108 0-.215.108-.322v-.237-.365-5.046h.883z" opacity=".65"/>
            <path fill="#CED4F1" d="M233.88 56.18c.01.107.01.215 0 .322a5.39 5.39 0 0 0-3.277-4.961L151.724 6.249a17.404 17.404 0 0 0-15.754 0L27.672 68.958a5.434 5.434 0 0 0-3.232 4.53v4.64a5.606 5.606 0 0 0 3.297 4.595l78.815 45.335.819.408c.089.052.183.095.28.129l.517.215c.386.161.782.298 1.185.408h.302l.69.171H116.379c.431 0 .84 0 1.272-.171h.345l.625-.13.43-.107.583-.171h.323l.862-.323.323-.15c.363-.15.715-.322 1.056-.515l108.405-62.494h.13l.28-.193.41-.28.323-.235.323-.28v-.129a5.14 5.14 0 0 0 .474-.493v-.237c.101-.118.188-.248.259-.386l.129-.15c.066-.11.124-.225.172-.344a2.14 2.14 0 0 0 0-.215v-.558-.365V56.18h.776z" opacity=".68"/>
            <path fill="#CCD2F1" d="M233.19 56.18c.01.107.01.215 0 .322a5.39 5.39 0 0 0-3.276-4.961L151.056 6.249a17.404 17.404 0 0 0-15.754 0L27.004 68.958a5.5 5.5 0 0 0-3.297 4.53v4.64a5.606 5.606 0 0 0 3.297 4.595l78.88 45.335c.258.15.538.279.819.408.089.052.182.095.28.129l.517.215c.394.158.797.294 1.207.408h.302l.69.171h5.948c.43 0 .84 0 1.271-.171h.366l.625-.13.432-.107.581-.171h.324l.862-.323.323-.15c.362-.15.715-.322 1.056-.515l108.47-62.494h.13l.28-.193.409-.28.302-.235.344-.28v-.129a5.14 5.14 0 0 0 .475-.493v-.237c.1-.118.187-.248.258-.386v-.15l.173-.344a2.14 2.14 0 0 0 0-.215v-.322a.963.963 0 0 1 0-.236v-.365V56.18h.862z" opacity=".71"/>
            <path fill="#CAD0F0" d="M232.522 56.18c.01.107.01.215 0 .322a5.39 5.39 0 0 0-3.276-4.961L150.388 6.249a17.447 17.447 0 0 0-15.776 0L26.336 68.958a5.499 5.499 0 0 0-3.254 4.53v4.64a5.585 5.585 0 0 0 3.276 4.595l78.858 45.335c.258.15.538.279.818.408.09.052.183.095.28.129l.496.215c.395.158.798.294 1.207.408h.302l.69.171h5.948c.42-.036.836-.093 1.25-.171h.366l.625-.13.431-.107.582-.171h.194l.884-.323.323-.15c.362-.15.715-.322 1.056-.515l108.276-62.73h.15l.281-.193.41-.28.301-.236.345-.279.13-.129a5.14 5.14 0 0 0 .473-.494v-.236l.26-.386v-.15s0-.237.172-.344a2.14 2.14 0 0 0 0-.215c.01-.107.01-.215 0-.322a.963.963 0 0 0 0-.237v-.365-5.046h1.056z" opacity=".74"/>
            <path fill="#C7CEF0" d="M231.853 56.18v.322a5.369 5.369 0 0 0-3.297-4.961L149.72 6.249a17.447 17.447 0 0 0-15.776 0L25.647 68.958a5.52 5.52 0 0 0-3.233 4.53v4.64a5.542 5.542 0 0 0 3.276 4.595l78.857 45.335.82.408c.088.052.182.095.28.129l.495.215c.395.158.797.294 1.207.408h.28l.712.171h5.926c.427-.034.851-.092 1.272-.171h.366l.604-.13.452-.107.56-.171h.324l.883-.323.324-.15a7.726 7.726 0 0 0 1.034-.515l108.298-62.73h.15l.28-.193.41-.28.302-.236.345-.279.129-.129a5.14 5.14 0 0 0 .474-.494v-.236l.259-.386v-.15s0-.237.172-.344a2.14 2.14 0 0 0 0-.215c.01-.107.01-.215 0-.322a.963.963 0 0 0 0-.237 2.14 2.14 0 0 0 0-.365.77.77 0 0 0 0-.214V56.18h.948z" opacity=".77"/>
            <path fill="#C5CCEF" d="M231.185 56.18v.322a5.369 5.369 0 0 0-3.297-4.961L149.052 6.249a17.447 17.447 0 0 0-15.776 0L24.978 68.958a5.52 5.52 0 0 0-3.232 4.53v4.64a5.542 5.542 0 0 0 3.276 4.595l78.857 45.335c.264.153.538.29.82.408.086.056.18.099.28.129l.495.215c.387.158.783.294 1.185.408h.28l.69.171h5.949c.426-.034.85-.092 1.271-.171h.367l.603-.13.453-.107.56-.171h.323l.884-.323.323-.15c.355-.15.7-.322 1.035-.515l108.297-62.73h.15l.281-.193.41-.28.301-.236.345-.279v-.129c.174-.148.333-.314.474-.494v-.107-.129l.259-.386.108-.15c.059-.111.11-.226.15-.344a.665.665 0 0 0 .108-.215c.01-.107.01-.215 0-.322v-.237a2.14 2.14 0 0 0 0-.365V56.18h.905z" opacity=".81"/>
            <path fill="#C3CAEE" d="M230.603 56.18v.322a5.37 5.37 0 0 0-3.383-4.961L148.384 6.249a17.447 17.447 0 0 0-15.776 0L24.31 68.958a5.52 5.52 0 0 0-3.232 4.53v4.64a5.606 5.606 0 0 0 3.297 4.595l78.815 45.335.819.408.301.129.496.215c.387.158.783.294 1.185.408h.28l.69.171h5.948c.427-.034.852-.092 1.272-.171h.366l.604-.13.452-.107.56-.171h.324l.884-.323.301-.15a8.007 8.007 0 0 0 1.056-.515l108.298-62.73h.13l.3-.193c.139-.081.269-.174.389-.28.116-.066.225-.145.323-.236l.345-.279v-.129c.174-.148.333-.314.474-.494v-.236l.259-.386v-.15c.059-.111.11-.226.15-.344v-.215V61.59a2.14 2.14 0 0 0 0-.365.728.728 0 0 0 0-.214V56.18h1.207z" opacity=".84"/>
            <path fill="#C0C8EE" d="M229.85 56.18v.322a5.411 5.411 0 0 0-3.298-4.961L147.716 6.249a17.447 17.447 0 0 0-15.776 0L23.707 68.958a5.52 5.52 0 0 0-3.233 4.53v4.64a5.606 5.606 0 0 0 3.233 4.574l78.815 45.356.819.408.301.129.496.215c.387.158.783.294 1.185.408h.388l.69.171h5.948c.427-.034.851-.092 1.272-.171h.366l.604-.13.43-.107.582-.171h.324l.883-.323.302-.15a8.007 8.007 0 0 0 1.056-.515l108.298-62.73h.129l.302-.193.387-.28.324-.236.345-.279v-.129c.174-.148.333-.314.474-.494l.107-.107a.45.45 0 0 1 0-.129l.26-.386v-.15l.15-.344v-.215c.01-.107.01-.215 0-.322v-.237a2.14 2.14 0 0 0 0-.365V56.18h.905z" opacity=".87"/>
            <path fill="#BEC6ED" d="M229.181 56.18v.322a5.454 5.454 0 0 0-3.297-4.961L147.047 6.249a17.447 17.447 0 0 0-15.775 0L22.974 68.958a5.52 5.52 0 0 0-3.233 4.53v4.64a5.606 5.606 0 0 0 3.298 4.595l78.814 45.335.82.408c.088.052.182.095.28.129l.495.257c.387.159.783.295 1.186.408h.28l.69.172H111.551c.43 0 .84 0 1.271-.172h.345l.625-.128.431-.108.582-.172h.323l.862-.322.324-.15c.362-.15.715-.322 1.056-.515l108.297-62.73h.13l.28-.193.41-.28.322-.236.345-.279v-.129a5.14 5.14 0 0 0 .474-.494.258.258 0 0 1 .108-.107v-.129l.28-.387v-.15c.066-.11.124-.225.173-.343a2.14 2.14 0 0 0 0-.215V61.634v-.365-5.089h.991z" opacity=".9"/>
            <path fill="#BCC4EC" d="M228.448 56.18c.01.107.01.215 0 .322a5.39 5.39 0 0 0-3.232-4.961L146.358 6.249a17.404 17.404 0 0 0-15.755 0L22.306 68.958a5.434 5.434 0 0 0-3.233 4.53v4.64a5.606 5.606 0 0 0 3.298 4.595l78.922 45.335c.259.15.539.279.82.408.088.052.182.095.28.129l.516.215c.395.158.798.294 1.207.408h.302l.69.171H111.078c.43 0 .84 0 1.271-.171h.345l.625-.13.431-.107.582-.171h.323l.862-.323.324-.15c.362-.15.714-.322 1.056-.515l108.297-62.73h.13l.28-.193.409-.28.323-.236.323-.279.108-.129a5.14 5.14 0 0 0 .474-.494.257.257 0 0 1 0-.107v-.129c.101-.118.188-.248.259-.386l.13-.15c.065-.11.123-.226.172-.344a2.14 2.14 0 0 0 0-.215V61.59v-.365-5.046h.646z" opacity=".94"/>
            <path fill="#B9C2EC" d="M227.823 56.18c.01.107.01.215 0 .322a5.39 5.39 0 0 0-3.276-4.961L145.69 6.249a17.404 17.404 0 0 0-15.755 0L21.552 68.958a5.499 5.499 0 0 0-3.255 4.53v4.64a5.606 5.606 0 0 0 3.298 4.595l78.922 45.335c.259.15.539.279.82.408.088.052.182.095.28.129l.517.215c.394.158.797.294 1.207.408h.301l.69.171H110.28c.419-.034.836-.092 1.25-.171h.366l.625-.13.43-.107.582-.171h.216l.862-.323.323-.15c.363-.15.715-.322 1.056-.515l108.298-62.73h.13l.28-.193.409-.28.301-.236.345-.279a.731.731 0 0 0 .13-.129 5.14 5.14 0 0 0 .474-.494.257.257 0 0 1 0-.107v-.129c.1-.118.187-.248.258-.386v-.15c0-.108 0-.237.173-.344a2.14 2.14 0 0 0 0-.215c0-.108 0-.215.108-.322a.963.963 0 0 1 0-.237v-.365-5.046h.926z" opacity=".97"/>
            <path fill="#B7C0EB" d="M227.155 56.18c.01.107.01.215 0 .322a5.39 5.39 0 0 0-3.276-4.961L145.022 6.249a17.447 17.447 0 0 0-15.776 0L20.97 68.958a5.499 5.499 0 0 0-3.254 4.53v4.64a5.585 5.585 0 0 0 3.275 4.595l78.858 45.335.82.408c.088.052.182.095.28.129l.495.215c.394.158.797.294 1.207.408h.302l.69.171h5.948c.419-.036.836-.093 1.25-.171h.366l.625-.13.43-.107.583-.171h.194l.883-.323.324-.15c.362-.15.715-.322 1.056-.515l108.276-62.73h.15l.28-.193.41-.28.302-.236.345-.279.129-.129a5.14 5.14 0 0 0 .474-.494v-.236l.259-.386v-.15s0-.237.172-.344a2.14 2.14 0 0 0 0-.215c.01-.107.01-.215 0-.322a.963.963 0 0 0 0-.237v-.365-5.046h1.056z"/>
        </g>
        <path fill="#B7C0EB" d="M227.134 57.576c.011.114.011.229 0 .343v.3c.008.108.008.216 0 .323-.027.096-.063.19-.108.28 0 .107 0 .214-.151.343l-.15.236-.281.387c-.05.083-.108.162-.172.236a5.14 5.14 0 0 1-.475.494l-.172.193-.345.28-.323.235-.388.28-.431.257-108.513 62.794v3.565l108.276-62.708h.15l.28-.193.41-.28.302-.236.345-.279.13-.129a5.14 5.14 0 0 0 .473-.494v-.236l.259-.386v-.15s0-.237.172-.344a2.14 2.14 0 0 0 0-.215c.01-.107.01-.215 0-.322a.963.963 0 0 0 0-.236v-.365-4.295c.26.048.504.159.712.322z"/>
        <path fill="#B7C0EB" d="M114.569 128.573c.362-.15.715-.322 1.056-.515v-3.5c-.339.197-.692.369-1.056.515l-.323.15-.862.322h-.324l-.582.172h-.43l-.604.129h-.431c-.431 0-.84.129-1.272.172H104.871l-.582-.108h-.474l-.69-.171h-.388l-1.185-.409-.56-.236-.302-.129-.84-.408-78.837-45.442a6.649 6.649 0 0 1-2.823-2.727 3.845 3.845 0 0 1-.474-1.847v3.565a5.585 5.585 0 0 0 3.275 4.596l78.858 45.356.82.408c.088.052.182.095.28.129l.495.215c.394.158.797.294 1.207.408h.302l.69.171h5.948c.419-.036.836-.093 1.25-.171h.366l.625-.13.43-.107.583-.171h.194l.883-.323.647.086z"/>
        <path fill="#E4E7FB" d="M227.134 56.523c.009.115.009.23 0 .344v.28c.007.114.007.228 0 .343-.027.09-.063.176-.108.257 0 .13 0 .237-.151.344a1.61 1.61 0 0 0-.15.258l-.281.386-.172.215-.475.515-.172.172-.345.28-.323.257-.388.258-.431.279-108.513 62.708v3.565l108.276-62.708h.15l.28-.193.41-.258.302-.258.345-.279.13-.129.473-.515v-.108l.259-.386a.749.749 0 0 0 0-.172s0-.215.172-.344v-.193c.008-.114.008-.229 0-.343a.813.813 0 0 0 0-.215v-.344-4.359c.26.062.502.18.712.343z"/>
        <path fill="#EFF1FE" d="M114.569 127.521l1.056-.537v-3.565c-.323.193-.69.365-1.056.537l-.323.129c-.28 0-.56.236-.862.322h-.324l-.582.172-.43.129-.604.129h-.431l-1.272.171H105.905a2.487 2.487 0 0 1-.56 0h-.496l-.582-.107h-.474l-.69-.172h-.387a10.911 10.911 0 0 1-1.186-.386l-.56-.237-.302-.128-.819-.43-78.836-45.485a6.8 6.8 0 0 1-2.823-2.749 3.845 3.845 0 0 1-.474-1.847v3.565a5.542 5.542 0 0 0 3.275 4.575l78.858 45.377.82.43.28.128.495.215 1.207.408h.302l.69.172h5.948l1.25-.172h.366l.625-.129.43-.128.583-.15h.194c.302-.086.598-.193.883-.323l.647.086z"/>
        <path fill="#FFF" d="M223.88 51.541c4.31 2.513 4.31 6.593 0 9.106l-108.255 62.772a17.447 17.447 0 0 1-15.776 0L21.013 78.063c-4.31-2.513-4.31-6.593 0-9.105L129.31 6.249a17.447 17.447 0 0 1 15.776 0l19.03 10.931a12.504 12.504 0 0 0-3.21 1.267 6.132 6.132 0 0 0-2.587 2.556L137.155 8.869 25.517 73.51l82.242 47.29 111.638-64.642-21.121-12.176a13.589 13.589 0 0 0 4.418-1.504 6.932 6.932 0 0 0 2.155-1.868l19.03 10.931z"/>
        <path fill="url(#a)" d="M107.759 124.858a15.67 15.67 0 0 1-7.694-1.825L21.228 77.677a5.134 5.134 0 0 1-3.06-4.296 5.005 5.005 0 0 1 3.017-4.144L129.483 6.614a15.67 15.67 0 0 1 7.65-1.825c2.672-.046 5.31.582 7.673 1.825l18.19 10.566c-.803.254-1.576.592-2.306 1.01a7.296 7.296 0 0 0-2.543 2.34L137.155 8.354 24.634 73.51l83.125 47.805 112.5-65.157-20.82-11.983c1.181-.246 2.32-.659 3.384-1.224a7.712 7.712 0 0 0 2.155-1.675l18.772 10.737a5.156 5.156 0 0 1 3.082 4.188 5.091 5.091 0 0 1-3.017 4.145l-108.406 62.687a15.562 15.562 0 0 1-7.65 1.825z"/>
        <path fill="url(#b)" d="M198.276 43.982l21.164 12.176L107.759 120.8 25.56 73.553l111.638-64.64 21.121 12.133c-.948 1.997 0 4.295 2.63 5.777l27.198 15.655a15.955 15.955 0 0 0 10.129 1.504z"/>
        <g style="mix-blend-mode:multiply">
            <path fill="#FCFCFE" d="M208.168 38.656a5.004 5.004 0 0 0-2.996-4.295l-27.198-15.634a16.194 16.194 0 0 0-11.25-1.246c-1.13.265-2.218.684-3.233 1.246a6.196 6.196 0 0 0-2.564 2.555 3.682 3.682 0 0 0-.324 2.148v-.645.945a5.112 5.112 0 0 0 2.996 4.295l27.134 15.635c.696.362 1.416.678 2.155.944a16.976 16.976 0 0 0 8.362.473c2.5-.494 5.69-1.697 6.66-4.295.538-1.46.258-.709.258-2.126z" opacity=".05"/>
            <path fill="#F8F9FD" d="M208.039 38.656a5.004 5.004 0 0 0-2.996-4.295l-27.198-15.634a16.194 16.194 0 0 0-11.25-1.246c-1.13.265-2.218.684-3.233 1.246a6.196 6.196 0 0 0-2.565 2.555 3.682 3.682 0 0 0-.323 2.148 3.274 3.274 0 0 1 0-.645v.945a5.112 5.112 0 0 0 2.996 4.295l27.198 15.635c.696.362 1.416.678 2.155.944a16.976 16.976 0 0 0 8.362.473c2.5-.494 5.69-1.697 6.66-4.295.474-1.46.194-.709.194-2.126z" opacity=".1"/>
            <path fill="#F5F6FC" d="M207.91 38.656a5.004 5.004 0 0 0-2.996-4.295l-27.22-15.634a16.13 16.13 0 0 0-11.228-1.246c-1.132.261-2.22.68-3.233 1.246a6.196 6.196 0 0 0-2.565 2.555 3.682 3.682 0 0 0-.323 2.148 3.274 3.274 0 0 1 0-.645v.945a5.112 5.112 0 0 0 2.996 4.295l27.198 15.635c.696.362 1.416.678 2.155.944a16.976 16.976 0 0 0 8.362.473c2.5-.494 5.69-1.697 6.66-4.295.474-1.46.172-.709.193-2.126z" opacity=".14"/>
            <path fill="#F1F3FB" d="M207.78 38.656a5.005 5.005 0 0 0-3.039-4.295l-27.176-15.634a16.13 16.13 0 0 0-11.229-1.246c-1.131.261-2.22.68-3.233 1.246a6.196 6.196 0 0 0-2.564 2.555 3.532 3.532 0 0 0-.323 2.148 3.274 3.274 0 0 1 0-.645v.945a5.112 5.112 0 0 0 2.995 4.295L190.41 43.66c.697.362 1.417.678 2.156.944 2.681.85 5.533 1.02 8.297.494 2.5-.494 5.69-1.696 6.66-4.295.538-1.482.237-.73.258-2.147z" opacity=".19"/>
            <path fill="#EEF0FA" d="M207.65 38.656a5.004 5.004 0 0 0-2.909-4.295l-27.306-15.634a16.13 16.13 0 0 0-11.228-1.246c-1.131.261-2.22.68-3.233 1.246a6.196 6.196 0 0 0-2.565 2.555 3.532 3.532 0 0 0-.323 2.148 3.274 3.274 0 0 1 0-.645v.945a5.112 5.112 0 0 0 2.996 4.295L190.28 43.66c.697.362 1.417.678 2.155.944a16.976 16.976 0 0 0 8.362.473c2.5-.494 5.69-1.697 6.66-4.295.474-1.46.172-.709.194-2.126z" opacity=".24"/>
            <path fill="#EAEDF9" d="M207.522 38.656a5.004 5.004 0 0 0-2.996-4.295l-27.22-15.634a16.13 16.13 0 0 0-11.228-1.246c-1.132.261-2.22.68-3.233 1.246a6.196 6.196 0 0 0-2.565 2.555 3.532 3.532 0 0 0-.323 2.148 3.274 3.274 0 0 1 0-.645v.945a5.112 5.112 0 0 0 2.996 4.295l27.133 15.635c.697.362 1.417.678 2.155.944a16.91 16.91 0 0 0 8.34.473c2.522-.494 5.712-1.697 6.682-4.295.539-1.46.237-.709.259-2.126z" opacity=".29"/>
            <path fill="#E7EAF8" d="M207.392 38.656a5.004 5.004 0 0 0-2.995-4.295l-27.22-15.634a16.13 16.13 0 0 0-11.229-1.246c-1.13.261-2.22.68-3.232 1.246a6.196 6.196 0 0 0-2.565 2.555 3.532 3.532 0 0 0-.323 2.148 3.274 3.274 0 0 1 0-.645v.945a5.112 5.112 0 0 0 2.995 4.295l27.199 15.635c.696.362 1.416.678 2.155.944a16.91 16.91 0 0 0 8.254.494c2.522-.494 5.711-1.696 6.681-4.295.56-1.482.259-.73.28-2.147z" opacity=".33"/>
            <path fill="#E4E7F7" d="M207.263 38.656a5.004 5.004 0 0 0-2.996-4.295l-27.22-15.634a16.13 16.13 0 0 0-11.228-1.246c-1.131.261-2.22.68-3.233 1.246a6.067 6.067 0 0 0-2.564 2.555 3.532 3.532 0 0 0-.324 2.148 3.274 3.274 0 0 1 0-.645v.945a5.069 5.069 0 0 0 2.996 4.295l27.198 15.635c.697.362 1.417.678 2.155.944a16.91 16.91 0 0 0 8.384.494c2.522-.494 5.711-1.696 6.681-4.295.431-1.482.13-.73.15-2.147z" opacity=".38"/>
            <path fill="#E0E4F6" d="M207.134 38.656a5.004 5.004 0 0 0-2.996-4.295l-27.22-15.634a16.15 16.15 0 0 0-11.228-1.246c-1.132.261-2.22.68-3.233 1.246a6.067 6.067 0 0 0-2.565 2.555 3.533 3.533 0 0 0-.41 2.341 3.274 3.274 0 0 1 0-.644v.945a5.069 5.069 0 0 0 2.996 4.295l27.177 15.44c.697.363 1.417.679 2.155.945a16.91 16.91 0 0 0 8.34.473c2.522-.494 5.712-1.697 6.682-4.295.582-1.46.28-.709.302-2.126z" opacity=".43"/>
            <path fill="#DDE1F5" d="M207.004 38.656a5.004 5.004 0 0 0-2.995-4.295l-27.285-15.634a16.15 16.15 0 0 0-11.228-1.246c-1.131.261-2.22.68-3.233 1.246a6.067 6.067 0 0 0-2.565 2.555 3.532 3.532 0 0 0-.215 2.341 3.274 3.274 0 0 1 0-.644v.945a5.069 5.069 0 0 0 2.995 4.295l27.177 15.44c.697.363 1.417.679 2.155.945a16.91 16.91 0 0 0 8.34.473c2.522-.494 5.712-1.697 6.682-4.295.452-1.46.065-.709.172-2.126z" opacity=".48"/>
            <path fill="#D9DEF5" d="M206.897 38.656a5.004 5.004 0 0 0-2.996-4.295l-27.177-15.634a16.15 16.15 0 0 0-11.228-1.246c-1.131.261-2.22.68-3.233 1.246a6.067 6.067 0 0 0-2.565 2.555 3.532 3.532 0 0 0-.323 2.148 3.274 3.274 0 0 1 0-.645v.945a5.069 5.069 0 0 0 2.996 4.295L189.44 43.66c.696.362 1.416.678 2.155.944a16.91 16.91 0 0 0 8.34.473c2.522-.494 5.712-1.697 6.681-4.295.54-1.46.28-.709.28-2.126z" opacity=".52"/>
            <path fill="#D6DBF4" d="M206.724 38.656a5.004 5.004 0 0 0-2.996-4.295L176.53 18.727a16.15 16.15 0 0 0-11.228-1.246c-1.131.261-2.22.68-3.233 1.246a6.067 6.067 0 0 0-2.586 2.555 3.532 3.532 0 0 0-.324 2.148 3.274 3.274 0 0 1 0-.645v.945a5.069 5.069 0 0 0 2.996 4.295l27.198 15.635c.697.362 1.417.678 2.156.944a16.91 16.91 0 0 0 8.34.473c2.5-.494 5.711-1.697 6.681-4.295.496-1.46.194-.709.194-2.126z" opacity=".57"/>
            <path fill="#D2D8F3" d="M206.595 38.656a5.004 5.004 0 0 0-2.996-4.295l-27.198-15.634a16.194 16.194 0 0 0-11.25-1.246 12.483 12.483 0 0 0-3.211 1.246 6.066 6.066 0 0 0-2.457 2.555 3.532 3.532 0 0 0-.324 2.148 3.274 3.274 0 0 1 0-.645v.945a5.069 5.069 0 0 0 2.996 4.295l27.198 15.635c.697.362 1.417.678 2.156.944a16.91 16.91 0 0 0 8.34.473c2.5-.494 5.711-1.697 6.681-4.295.367-1.46.065-.709.065-2.126z" opacity=".62"/>
            <path fill="#CFD5F2" d="M206.466 38.656a5.004 5.004 0 0 0-2.996-4.295l-27.198-15.634a16.194 16.194 0 0 0-11.25-1.246 12.483 12.483 0 0 0-3.212 1.246 5.96 5.96 0 0 0-2.564 2.555 3.532 3.532 0 0 0-.324 2.148 3.274 3.274 0 0 1 0-.645v.945a5.069 5.069 0 0 0 2.996 4.295l27.198 15.635c.697.362 1.417.678 2.156.944a16.91 16.91 0 0 0 8.34.473c2.5-.494 5.711-1.697 6.681-4.295.474-1.46.173-.709.173-2.126z" opacity=".67"/>
            <path fill="#CCD2F1" d="M206.336 38.656a5.004 5.004 0 0 0-2.995-4.295l-27.199-15.634a16.194 16.194 0 0 0-11.25-1.246c-1.138.261-2.233.68-3.254 1.246a6.132 6.132 0 0 0-2.586 2.555 3.66 3.66 0 0 0-.302 2.148 3.274 3.274 0 0 1 0-.645v.945a5.069 5.069 0 0 0 2.996 4.295l27.198 15.635c.696.362 1.416.678 2.155.944a16.91 16.91 0 0 0 8.34.473c2.5-.494 5.712-1.697 6.682-4.295.517-1.46.215-.709.215-2.126z" opacity=".71"/>
            <path fill="#C8CFF0" d="M206.207 38.656a5.004 5.004 0 0 0-2.996-4.295l-27.198-15.634a16.194 16.194 0 0 0-11.25-1.246 12.483 12.483 0 0 0-3.125 1.246 6.132 6.132 0 0 0-2.586 2.555 3.66 3.66 0 0 0-.302 2.148 3.274 3.274 0 0 1 0-.645v.945a5.069 5.069 0 0 0 2.996 4.295l27.047 15.635c.696.362 1.416.678 2.155.944a16.91 16.91 0 0 0 8.34.473c2.5-.494 5.712-1.697 6.682-4.295.539-1.46.237-.709.237-2.126z" opacity=".76"/>
            <path fill="#C5CCEF" d="M206.078 38.656a5.004 5.004 0 0 0-2.996-4.295l-27.198-15.634a16.194 16.194 0 0 0-11.25-1.246 12.483 12.483 0 0 0-3.212 1.246 6.132 6.132 0 0 0-2.586 2.555 3.66 3.66 0 0 0-.302 2.148 3.274 3.274 0 0 1 0-.645v.945a5.133 5.133 0 0 0 3.018 4.295L188.75 43.66c.696.362 1.416.678 2.155.944a16.91 16.91 0 0 0 8.34.473c2.5-.494 5.712-1.697 6.682-4.295.452-1.46.15-.709.15-2.126z" opacity=".81"/>
            <path fill="#C1C9EE" d="M205.948 38.656a5.004 5.004 0 0 0-2.995-4.295l-27.199-15.634a16.194 16.194 0 0 0-11.25-1.246 12.483 12.483 0 0 0-3.21 1.246 6.132 6.132 0 0 0-2.587 2.555 3.66 3.66 0 0 0-.302 2.148 3.274 3.274 0 0 1 0-.645v.945a5.133 5.133 0 0 0 3.017 4.295l27.199 15.635c.696.362 1.416.678 2.155.944a16.91 16.91 0 0 0 8.34.473c2.5-.494 5.712-1.697 6.681-4.295.453-1.46.151-.709.151-2.126z" opacity=".86"/>
            <path fill="#BEC6ED" d="M205.819 38.656a5.004 5.004 0 0 0-2.996-4.295l-27.198-15.634a16.194 16.194 0 0 0-11.25-1.246 12.483 12.483 0 0 0-3.211 1.246 6.132 6.132 0 0 0-2.586 2.555 3.66 3.66 0 0 0-.302 2.148 3.274 3.274 0 0 1 0-.645v.945a5.133 5.133 0 0 0 3.017 4.295l27.198 15.635c.697.362 1.417.678 2.156.944a16.91 16.91 0 0 0 8.34.473c2.5-.494 5.711-1.697 6.681-4.295.453-1.46.151-.709.151-2.126z" opacity=".9"/>
            <path fill="#BAC3EC" d="M205.69 38.656a5.004 5.004 0 0 0-2.996-4.295l-27.198-15.634a16.194 16.194 0 0 0-11.25-1.246 12.483 12.483 0 0 0-3.212 1.246 6.132 6.132 0 0 0-2.586 2.555 3.66 3.66 0 0 0-.301 2.148 3.274 3.274 0 0 1 0-.645v.945a5.133 5.133 0 0 0 3.017 4.295l27.198 15.635c.696.362 1.416.678 2.155.944a16.91 16.91 0 0 0 8.34.473c2.5-.494 5.712-1.697 6.682-4.295.452-1.46.15-.709.15-2.126z" opacity=".95"/>
            <path fill="#B7C0EB" d="M205.56 38.656a5.004 5.004 0 0 0-2.974-4.295l-27.22-15.634a16.194 16.194 0 0 0-11.25-1.246 12.483 12.483 0 0 0-3.21 1.246 6.132 6.132 0 0 0-2.587 2.555 3.66 3.66 0 0 0-.302 2.148 3.274 3.274 0 0 1 0-.645v.945a5.133 5.133 0 0 0 3.017 4.295l27.113 15.635c.696.362 1.416.678 2.155.944a16.91 16.91 0 0 0 8.34.473c2.5-.494 5.711-1.697 6.681-4.295.54-1.46.237-.709.237-2.126z"/>
        </g>
        <path fill="url(#c)" d="M202.586 34.124c3.039 1.761 3.772 4.296 2.155 6.443a6.932 6.932 0 0 1-2.155 1.868 13.589 13.589 0 0 1-4.418 1.504c-3.423.606-6.95.078-10.043-1.504l-27.177-15.612c-2.715-1.546-3.577-3.78-2.629-5.777a6.132 6.132 0 0 1 2.586-2.556 12.503 12.503 0 0 1 3.211-1.31 16.302 16.302 0 0 1 11.25 1.267l3.513 2.04a2.148 2.148 0 0 0-1.42 2.02c0 .903.568 1.71 1.42 2.018l13.19 7.688a7.783 7.783 0 0 0 7.026 0l3.491 1.911z"/>
        <g style="mix-blend-mode:multiply">
            <path fill="#FCFCFE" d="M180.086 20.853c-.526.28-.96.704-1.25 1.224v.15a2.14 2.14 0 0 0 0 .945 1.134 1.134 0 0 1 0-.28v.452a2.448 2.448 0 0 0 1.444 2.147l13.233 7.603c.342.178.695.336 1.056.472a8.11 8.11 0 0 0 4.052.215 4.182 4.182 0 0 0 3.254-2.148c.259-.708 0-.343 0-1.073a2.47 2.47 0 0 0-1.466-2.148l-13.275-7.56a7.935 7.935 0 0 0-5.475-.622c-.55.136-1.079.346-1.573.623z" opacity=".05"/>
            <path fill="#F8F9FD" d="M180.022 20.853c-.525.273-.954.7-1.229 1.224a.235.235 0 0 0 0 .15 1.755 1.755 0 0 0-.108.923 1.134 1.134 0 0 1 0-.257v.45c.088.881.637 1.65 1.444 2.02l13.233 7.602c.342.178.695.336 1.056.472a8.11 8.11 0 0 0 4.052.215 4.182 4.182 0 0 0 3.254-2.148c.259-.708 0-.343 0-1.073a2.47 2.47 0 0 0-1.465-2.148l-13.19-7.43a7.935 7.935 0 0 0-5.474-.623c-.55.136-1.08.346-1.573.623z" opacity=".1"/>
            <path fill="#F5F6FC" d="M179.978 20.853a2.862 2.862 0 0 0-1.25 1.224v.15a1.691 1.691 0 0 0-.107.902.728.728 0 0 1 0-.215v.451a2.492 2.492 0 0 0 1.444 1.997l13.232 7.603c.343.178.695.336 1.056.472a8.11 8.11 0 0 0 4.052.215 4.139 4.139 0 0 0 3.254-2.148c.26-.708 0-.343 0-1.073a2.47 2.47 0 0 0-1.465-2.148l-13.19-7.43a7.935 7.935 0 0 0-5.474-.623 5.852 5.852 0 0 0-1.552.623z" opacity=".14"/>
            <path fill="#F1F3FB" d="M179.914 20.853c-.53.273-.966.7-1.25 1.224v.129a1.755 1.755 0 0 0-.108.902.6.6 0 0 1 0-.194v.451a2.47 2.47 0 0 0 1.466 1.997l13.21 7.603c.343.178.696.336 1.057.472a8.11 8.11 0 0 0 4.052.215 4.139 4.139 0 0 0 3.254-2.148c.258-.708 0-.343 0-1.073a2.427 2.427 0 0 0-1.466-2.148l-13.19-7.43a7.935 7.935 0 0 0-5.473-.623 5.852 5.852 0 0 0-1.552.623z" opacity=".19"/>
            <path fill="#EEF0FA" d="M179.85 20.853c-.52.278-.953.695-1.25 1.202v.15a1.755 1.755 0 0 0 0 .903.47.47 0 0 1 0-.172v.45a2.47 2.47 0 0 0 1.465 1.976l13.21 7.603c.343.178.696.336 1.057.472a8.11 8.11 0 0 0 4.052.215 4.139 4.139 0 0 0 3.254-2.148c.259-.708 0-.343 0-1.073a2.448 2.448 0 0 0-1.444-2.148l-13.319-7.43a7.935 7.935 0 0 0-5.474-.623 5.852 5.852 0 0 0-1.552.623z" opacity=".24"/>
            <path fill="#EAEDF9" d="M179.784 20.853c-.523.273-.957.69-1.25 1.202v.15a1.69 1.69 0 0 0 0 .881.278.278 0 0 1 0-.129v.43A2.47 2.47 0 0 0 180 25.362l13.211 7.603c.343.178.695.336 1.056.472a8.11 8.11 0 0 0 4.052.215 4.139 4.139 0 0 0 3.254-2.148c.259-.708 0-.343 0-1.073a2.448 2.448 0 0 0-1.444-2.148l-13.319-7.43a7.913 7.913 0 0 0-5.474-.623 5.852 5.852 0 0 0-1.552.623z" opacity=".29"/>
            <path fill="#E7EAF8" d="M179.72 20.853a2.883 2.883 0 0 0-1.229 1.202v.13c-.128.274-.173.58-.129.88v-.108.451a2.535 2.535 0 0 0 1.466 1.954l13.21 7.603c.343.178.696.336 1.057.472a8.11 8.11 0 0 0 4.052.215 4.139 4.139 0 0 0 3.254-2.148c.258-.708 0-.343 0-1.073a2.448 2.448 0 0 0-1.444-2.148l-13.211-7.43a7.913 7.913 0 0 0-5.474-.623 5.852 5.852 0 0 0-1.552.623z" opacity=".33"/>
            <path fill="#E4E7F7" d="M179.655 20.853a2.883 2.883 0 0 0-1.228 1.202v.13c-.116.277-.16.58-.13.88v.43a2.535 2.535 0 0 0 1.466 1.953l13.211 7.603c.342.178.695.336 1.056.472a8.11 8.11 0 0 0 4.052.215 4.139 4.139 0 0 0 3.254-2.148c.259-.708.108-.343.13-1.073a2.448 2.448 0 0 0-1.444-2.148l-13.341-7.516a7.913 7.913 0 0 0-5.474-.623 5.852 5.852 0 0 0-1.552.623z" opacity=".38"/>
            <path fill="#E0E4F6" d="M179.59 20.853c-.512.271-.937.68-1.228 1.18v.151a2.14 2.14 0 0 0-.13.86v.429a2.557 2.557 0 0 0 1.466 1.932l13.211 7.603c.343.178.695.336 1.057.472a8.11 8.11 0 0 0 4.051.215 4.139 4.139 0 0 0 3.255-2.148c.258-.708.129-.343.129-1.073a2.513 2.513 0 0 0-1.466-2.148l-13.319-7.473a7.848 7.848 0 0 0-5.452-.623 5.723 5.723 0 0 0-1.573.623z" opacity=".43"/>
            <path fill="#DDE1F5" d="M179.526 20.853a3.25 3.25 0 0 0-1.229 1.18v.13a2.14 2.14 0 0 0-.129.859v.408a2.6 2.6 0 0 0 1.466 1.932l13.232 7.603c.336.177.681.335 1.035.472a8.174 8.174 0 0 0 4.073.215 4.138 4.138 0 0 0 3.233-2.148c.259-.708.13-.343.13-1.073a2.513 2.513 0 0 0-1.466-2.148l-13.32-7.43a7.848 7.848 0 0 0-5.517-.623 5.722 5.722 0 0 0-1.508.623z" opacity=".48"/>
            <path fill="#D9DEF5" d="M179.461 20.853a3.034 3.034 0 0 0-1.207 1.18v.13a2.14 2.14 0 0 0-.129.859v.15a1.22 1.22 0 0 0 0 .28c.127.838.67 1.557 1.444 1.91l13.233 7.603c.335.177.68.335 1.034.472a8.174 8.174 0 0 0 4.073.215 4.138 4.138 0 0 0 3.233-2.148c.259-.708.13-.343.13-1.073a2.513 2.513 0 0 0-1.466-2.148l-13.319-7.43a7.848 7.848 0 0 0-5.453-.623 6.004 6.004 0 0 0-1.573.623z" opacity=".52"/>
            <path fill="#D6DBF4" d="M179.397 20.853a2.991 2.991 0 0 0-1.207 1.16v.15a1.82 1.82 0 0 0-.151.837v.129a1.134 1.134 0 0 0 0 .28c.123.84.667 1.56 1.444 1.91l13.233 7.603c.344.193.84.386 1.034.472a8.174 8.174 0 0 0 4.073.215 4.138 4.138 0 0 0 3.233-2.148c.28-.708.13-.343.13-1.073a2.47 2.47 0 0 0-1.466-2.148l-13.298-7.387a7.848 7.848 0 0 0-5.388-.623 6.004 6.004 0 0 0-1.637.623z" opacity=".57"/>
            <path fill="#D2D8F3" d="M179.332 20.853c-.5.27-.917.671-1.207 1.16v.128c-.112.265-.164.55-.15.838 0 0 0 .107 0 0v.129a1.134 1.134 0 0 0 0 .279c.132.83.674 1.54 1.443 1.89l13.233 7.602c.345.193.84.386 1.034.472a8.196 8.196 0 0 0 4.074.215 4.138 4.138 0 0 0 3.232-2.147c.28-.71.13-.344.13-1.074a2.47 2.47 0 0 0-1.466-2.148l-13.276-7.344a7.935 7.935 0 0 0-5.474-.623 6.004 6.004 0 0 0-1.573.623z" opacity=".62"/>
            <path fill="#CFD5F2" d="M179.267 20.853a2.991 2.991 0 0 0-1.207 1.16v.128c-.11.258-.162.536-.15.816v.538c.146.82.685 1.516 1.443 1.867l13.233 7.603c.345.193.84.386 1.035.472a8.196 8.196 0 0 0 4.073.215 4.138 4.138 0 0 0 3.233-2.148c.28-.708.129-.343.129-1.073a2.47 2.47 0 0 0-1.465-2.148l-13.276-7.43a7.935 7.935 0 0 0-5.474-.623 6.004 6.004 0 0 0-1.574.623z" opacity=".67"/>
            <path fill="#CCD2F1" d="M179.203 20.853c-.5.27-.918.671-1.207 1.16v.128c-.11.258-.162.536-.151.816V23.494c.15.819.688 1.515 1.444 1.868l13.233 7.603c.342.178.694.336 1.056.472a8.11 8.11 0 0 0 4.051.215 4.182 4.182 0 0 0 3.255-2.148c.258-.708 0-.343 0-1.073a2.47 2.47 0 0 0-1.466-2.148l-13.168-7.43a7.935 7.935 0 0 0-5.474-.623c-.55.136-1.08.346-1.573.623z" opacity=".71"/>
            <path fill="#C8CFF0" d="M179.138 20.853a3.034 3.034 0 0 0-1.185 1.138v.129a1.756 1.756 0 0 0-.173.816v.687c.157.81.694 1.497 1.444 1.847l13.233 7.602c.342.178.695.336 1.056.473a8.11 8.11 0 0 0 4.052.214 4.182 4.182 0 0 0 3.254-2.147c.259-.709 0-.344 0-1.074a2.47 2.47 0 0 0-1.466-2.148l-13.168-7.537a7.935 7.935 0 0 0-5.474-.623c-.55.136-1.08.346-1.573.623z" opacity=".76"/>
            <path fill="#C5CCEF" d="M179.095 20.853a3.099 3.099 0 0 0-1.207 1.138v.129a2.141 2.141 0 0 0-.172.794V23.623a2.6 2.6 0 0 0 1.443 1.847l13.233 7.602c.343.178.695.336 1.056.473a8.11 8.11 0 0 0 4.052.214 4.139 4.139 0 0 0 3.254-2.147c.259-.709 0-.344 0-1.074a2.47 2.47 0 0 0-1.465-2.148l-13.168-7.537a7.935 7.935 0 0 0-5.474-.623 5.852 5.852 0 0 0-1.552.623z" opacity=".81"/>
            <path fill="#C1C9EE" d="M179.03 20.853a2.948 2.948 0 0 0-1.207 1.138v.129a2.141 2.141 0 0 0-.172.794v.709a2.643 2.643 0 0 0 1.465 1.825l13.212 7.603c.342.178.695.336 1.056.472a8.11 8.11 0 0 0 4.051.215 4.139 4.139 0 0 0 3.255-2.148c.258-.708 0-.343 0-1.073a2.427 2.427 0 0 0-1.466-2.148l-13.168-7.516a7.935 7.935 0 0 0-5.474-.623 5.852 5.852 0 0 0-1.552.623z" opacity=".86"/>
            <path fill="#BEC6ED" d="M178.88 20.853a3.056 3.056 0 0 0-1.208 1.116v.13c-.09.256-.148.523-.172.794v.73a2.6 2.6 0 0 0 1.466 1.825l13.21 7.603c.343.178.696.336 1.057.472a8.11 8.11 0 0 0 4.051.215 4.139 4.139 0 0 0 3.255-2.148c.258-.708 0-.343 0-1.073a2.448 2.448 0 0 0-1.444-2.148l-13.104-7.516a7.935 7.935 0 0 0-5.474-.623 5.853 5.853 0 0 0-1.638.623z" opacity=".9"/>
            <path fill="#BAC3EC" d="M178.88 20.853a3.228 3.228 0 0 0-1.208 1.116v.13c-.089.249-.147.508-.172.772V23.301c-.01.085-.01.172 0 .258.163.797.7 1.468 1.444 1.803l13.211 7.603c.342.178.695.336 1.056.472a8.11 8.11 0 0 0 4.052.215 4.139 4.139 0 0 0 3.254-2.148c.259-.708 0-.343 0-1.073a2.448 2.448 0 0 0-1.444-2.148l-13.146-7.43a7.913 7.913 0 0 0-5.474-.623c-.552.13-1.082.34-1.574.623z" opacity=".95"/>
            <path fill="#B7C0EB" d="M200.56 30.495a2.448 2.448 0 0 0-1.444-2.147l-13.254-7.495a7.913 7.913 0 0 0-5.474-.623 5.852 5.852 0 0 0-1.552.623c-.537.274-.974.71-1.25 1.245-.1.248-.164.508-.194.773v.451c.036.937.605 1.77 1.466 2.148l13.211 7.602c.342.178.695.336 1.056.473a8.11 8.11 0 0 0 4.052.214 4.139 4.139 0 0 0 3.254-2.147c.259-.752.108-.387.13-1.117z"/>
        </g>
        <path fill="#B7C0EB" d="M160.948 27.08a6.455 6.455 0 0 1-2.586-2.512 3.705 3.705 0 0 1-.41-1.697v.945a5.133 5.133 0 0 0 3.018 4.295l27.177 15.549v-.945L160.948 27.08z"/>
        <path fill="#B7C0EB" d="M205.56 38.656c0 3.414-4.31 5.11-7.176 5.605-3.48.653-7.08.14-10.237-1.46 0 .901-.173.859 0 .944.696.363 1.416.679 2.155.945a16.91 16.91 0 0 0 8.34.473c2.5-.494 5.776-1.675 6.681-4.295.302-.967.237-.795.237-2.212z"/>
        <path fill="url(#d)" d="M160.948 26.823a6.455 6.455 0 0 1-2.586-2.491 3.769 3.769 0 0 1-.41-1.697v.988a5.133 5.133 0 0 0 3.018 4.295l27.177 15.505v-.945l-27.199-15.655z"/>
        <path fill="url(#e)" d="M205.56 38.334c0 3.393-4.31 5.11-7.176 5.605-3.48.653-7.08.14-10.237-1.46 0 .901-.173.837 0 .944.691.366 1.412.675 2.155.924a16.413 16.413 0 0 0 8.34.472c2.5-.472 5.776-1.675 6.681-4.295a4.28 4.28 0 0 0 .237-2.19z"/>
        <path fill="#4CD9ED" d="M184.677 57.984c.495.3.517.794 0 1.073a2.162 2.162 0 0 1-1.875 0L162.716 47.44a.559.559 0 0 1 0-1.074 2.01 2.01 0 0 1 1.853 0l20.108 11.619zM125.172 60.56a.559.559 0 0 1 0 1.074 2.01 2.01 0 0 1-1.853 0L94.591 45.098a.559.559 0 0 1 0-1.073 2.162 2.162 0 0 1 1.875 0l28.706 16.536zM185 63.825c.517.3.517.773 0 1.074a2.162 2.162 0 0 1-1.875 0l-25.366-14.604a.559.559 0 0 1 0-1.073 2.01 2.01 0 0 1 1.853 0L185 63.825zM180.065 66.681c.517.3.517.773 0 1.074a2.162 2.162 0 0 1-1.875 0l-25.367-14.603c-.517-.28-.517-.773 0-1.074a2.162 2.162 0 0 1 1.854 0l25.388 14.603zM109.483 69.645c.517.3.517.794 0 1.074a2.162 2.162 0 0 1-1.854 0L78.901 54.182a.559.559 0 0 1 0-1.073 2.01 2.01 0 0 1 1.853 0l28.729 16.536zM131.746 94.664c.517.3.517.773 0 1.073a2.162 2.162 0 0 1-1.875 0L68.34 60.324a.559.559 0 0 1 0-1.073 2.01 2.01 0 0 1 1.853 0l61.552 35.413zM163.147 76.495c.517.28.517.774 0 1.074a2.162 2.162 0 0 1-1.854 0L99.72 42.156c-.517-.3-.517-.794 0-1.074a2.01 2.01 0 0 1 1.853 0l61.574 35.413zM93.793 78.75c.517.28.517.773 0 1.074a2.162 2.162 0 0 1-1.853 0L63.21 63.288a.559.559 0 0 1 0-1.074 2.01 2.01 0 0 1 1.854 0L93.793 78.75zM147.457 85.58c.496.3.517.773 0 1.073a2.162 2.162 0 0 1-1.875 0L84.052 51.24a.559.559 0 0 1 0-1.073 2.01 2.01 0 0 1 1.853 0l61.552 35.413zM78.103 87.834a.559.559 0 0 1 0 1.074 2.01 2.01 0 0 1-1.853 0L47.522 72.372c-.518-.3-.518-.773 0-1.074a2.162 2.162 0 0 1 1.875 0l28.706 16.536zM116.056 103.748c.517.3.517.794 0 1.073a2.01 2.01 0 0 1-1.853 0L52.65 69.41c-.517-.301-.539-.774 0-1.074a2.162 2.162 0 0 1 1.875 0l61.53 35.413z"/>
        <path fill="#B7C0EB" d="M178.88 24.675a2.534 2.534 0 0 1-1.466-2.147v1.095c.07.898.635 1.684 1.465 2.04l13.212 7.602v-1.052l-13.212-7.538z"/>
        <path fill="#B7C0EB" d="M200.431 30.259c0 1.61-1.961 2.384-3.276 2.663a7.567 7.567 0 0 1-5.172-.644c0 .58-.324.73 0 .923a6.914 6.914 0 0 0 2.5.773 8.132 8.132 0 0 0 2.284 0c1.509-.258 3.492-.988 3.664-2.727.216-1.181 0 .193 0-.988z"/>
        <path fill="url(#f)" d="M178.88 24.525a2.47 2.47 0 0 1-1.466-2.04v.945c.07.898.635 1.684 1.465 2.04l13.212 7.602v-.859l-13.212-7.688z"/>
        <path fill="url(#g)" d="M200.431 30.066c0 1.61-1.961 2.383-3.276 2.663a7.437 7.437 0 0 1-5.172-.666c0 .601-.324.751 0 .945a6.914 6.914 0 0 0 2.5.773 9.04 9.04 0 0 0 2.284 0c1.509-.258 3.492-.988 3.664-2.728.216-1.138 0 .258 0-.987z"/>
        <path fill="url(#h)" d="M199.073 28.09a2.148 2.148 0 0 1 1.42 2.019c0 .903-.567 1.71-1.42 2.018a7.783 7.783 0 0 1-7.026 0l-13.168-7.602a2.148 2.148 0 0 1-1.42-2.019c0-.903.568-1.71 1.42-2.018a7.783 7.783 0 0 1 7.026 0l13.168 7.602z"/>
        <g opacity=".5" style="mix-blend-mode:multiply">
            <path fill="#FFF" d="M93.254 1.803a64.98 64.98 0 0 0-7.564 1.31A46.11 46.11 0 0 0 71.68 8.59c-6.293 3.565-12.586 7.173-18.9 10.738l-10.216 5.927c-1.035.601-2.974 2.384-4.074 1.718-.258-.15-.301 0-.538.107A1759.207 1759.207 0 0 0 20 37.475l-7.069 4.101c-.948.537-.496.323-1.293 1.031-2.37 2.148-1.638 6.85-.259 9.063 1.38 2.212 3.944 4.918 7.414 3.973 2.543-1.138 6.746-4.467 8.47-5.455l14.009-8.118L66.81 27.274c4.074-1.89 7.91-4.574 11.79-6.808a34.781 34.781 0 0 0 7.844-5.626 94.406 94.406 0 0 0 7.543-9.707c.668-.838-.13-3.372-.733-3.33z"/>
            <path fill="#FDFDFE" d="M92.974 1.803a60.987 60.987 0 0 0-7.586 1.31A45.98 45.98 0 0 0 71.4 8.59c-6.293 3.565-12.608 7.173-18.901 10.738l-10.216 5.927c-1.056.601-2.974 2.362-4.094 1.718-.259-.15-.28 0-.54.107L19.72 37.475l-7.155 4.101c-.927.537-.496.323-1.272 1.031-2.392 2.148-1.638 6.85-.28 9.063 1.358 2.212 3.944 4.918 7.414 3.973 2.564-1.138 6.767-4.467 8.491-5.455l14.03-8.118 25.647-14.796c4.052-1.89 7.91-4.574 11.789-6.808a34.781 34.781 0 0 0 7.823-5.626 94.211 94.211 0 0 0 7.521-9.707c.647-.838-.15-3.372-.754-3.33z"/>
            <path fill="#FAFBFE" d="M92.672 1.803a65.24 65.24 0 0 0-7.586 1.31A45.98 45.98 0 0 0 71.121 8.59c-6.293 3.565-12.608 7.173-18.901 10.738l-10.216 5.927c-1.056.601-2.974 2.362-4.095 1.718-.258-.15-.28 0-.538.107-5.97 3.458-11.962 6.873-17.953 10.33l-7.134 4.166c-.948.537-.495.323-1.293 1.031-2.37 2.148-1.638 6.786-.215 9.063 1.422 2.276 3.944 4.918 7.414 3.973 2.564-1.138 6.767-4.467 8.491-5.455L40.69 42.07l25.582-14.796c4.073-1.89 7.93-4.574 11.81-6.808a35.277 35.277 0 0 0 7.845-5.626 94.21 94.21 0 0 0 7.521-9.707c.625-.838-.15-3.372-.776-3.33z"/>
            <path fill="#F8F9FD" d="M92.414 1.803a64.458 64.458 0 0 0-7.586 1.31A45.98 45.98 0 0 0 70.84 8.59c-6.186 3.565-12.651 7.173-18.901 10.738l-10.216 5.927c-1.056.601-2.996 2.362-4.095 1.718-.258-.15-.28 0-.538.107-5.97 3.458-11.962 6.873-17.953 10.33l-7.134 4.166c-.948.537-.495.323-1.293 1.031-2.37 2.148-1.638 6.85-.258 9.063 1.379 2.212 3.944 4.918 7.413 3.973 2.543-1.138 6.768-4.467 8.492-5.455l14.008-8.118 25.625-14.796c4.074-1.89 7.931-4.574 11.79-6.808a34.911 34.911 0 0 0 7.866-5.626 97.305 97.305 0 0 0 7.521-9.707c.625-.838-.172-3.372-.754-3.33z"/>
            <path fill="#F6F7FC" d="M92.112 1.803a64.98 64.98 0 0 0-7.565 1.31A46.11 46.11 0 0 0 70.54 8.59c-6.293 3.565-12.586 7.173-18.815 10.738l-10.237 5.927c-1.034.601-2.974 2.362-4.073 1.718-.259-.15-.302 0-.539.107-5.97 3.458-11.983 6.873-17.953 10.33l-7.198 4.166c-.948.537-.496.323-1.293 1.031-2.37 2.148-1.638 6.85-.259 9.063 1.38 2.212 3.944 4.918 7.414 3.973 2.543-1.138 6.746-4.467 8.47-5.455l14.03-8.118 25.625-14.796c4.073-1.89 7.91-4.574 11.789-6.808a35.407 35.407 0 0 0 7.866-5.626 97.305 97.305 0 0 0 7.522-9.707c.625-.838-.216-3.372-.776-3.33z"/>
            <path fill="#F3F5FC" d="M91.832 1.803a65.24 65.24 0 0 0-7.586 1.31A46.196 46.196 0 0 0 70.259 8.59c-6.293 3.565-12.608 7.173-18.901 10.738l-10.216 5.927c-1.034.601-2.974 2.362-4.073 1.718-.28-.15-.302 0-.56.107L18.578 37.475l-7.156 4.101c-.926.537-.474.323-1.271 1.031-2.392 2.148-1.53 6.786-.259 9.063 1.272 2.276 3.923 4.918 7.35 3.973 2.542-1.138 6.745-4.467 8.47-5.455L39.72 42.07l25.646-14.796c4.052-1.89 7.91-4.574 11.79-6.808A34.781 34.781 0 0 0 85 14.84a97.508 97.508 0 0 0 7.672-9.707c.56-.838-.237-3.372-.84-3.33z"/>
            <path fill="#F1F3FB" d="M91.552 1.803c-2.524.291-5.028.728-7.5 1.31A45.98 45.98 0 0 0 69.978 8.59c-6.293 3.565-12.607 7.173-18.9 10.738l-10.13 5.992c-1.056.6-2.974 2.362-4.095 1.718-.258-.15-.28 0-.538.107-5.97 3.457-11.962 6.872-17.953 10.33l-7.22 4.101c-.926.537-.495.323-1.293 1.031-2.37 2.148-1.616 6.85-.258 9.063 1.357 2.212 3.943 4.918 7.413 3.973 2.565-1.138 6.768-4.467 8.492-5.455l14.008-8.118L65.13 27.274c4.074-1.89 7.931-4.574 11.81-6.808a34.781 34.781 0 0 0 7.845-5.626 94.21 94.21 0 0 0 7.522-9.707c.625-.838-.15-3.372-.754-3.33z"/>
            <path fill="#EFF1FA" d="M91.272 1.803a64.458 64.458 0 0 0-7.587 1.31A45.98 45.98 0 0 0 69.698 8.59c-6.293 3.565-12.607 7.173-18.9 10.738l-10.216 5.927c-1.056.601-2.974 2.362-4.095 1.718-.259-.15-.28 0-.539.107-5.97 3.458-11.96 6.873-17.952 10.33l-7.22 4.166c-.948.537-.496.323-1.293 1.031-2.37 2.148-1.638 6.85-.259 9.063 1.38 2.212 3.944 4.918 7.414 3.973 2.543-1.138 6.767-4.467 8.491-5.455l14.009-8.118 25.711-14.796c4.073-1.89 7.931-4.574 11.81-6.808a35.277 35.277 0 0 0 7.845-5.626 97.305 97.305 0 0 0 7.522-9.707c.646-.838-.173-3.372-.754-3.33z"/>
            <path fill="#ECEFFA" d="M90.991 1.803a64.458 64.458 0 0 0-7.586 1.31A46.326 46.326 0 0 0 69.397 8.59l-18.88 10.738-10.237 5.927c-1.034.601-2.974 2.362-4.073 1.718-.259-.15-.28 0-.539.107-5.97 3.458-11.961 6.873-17.952 10.33l-7.134 4.166c-.948.537-.496.323-1.293 1.031-2.37 2.148-1.638 6.85-.259 9.063 1.38 2.212 3.901 4.918 7.414 3.973 2.543-1.138 6.767-4.467 8.491-5.455l14.009-8.118 25.711-14.796c4.073-1.89 7.91-4.574 11.789-6.808a34.911 34.911 0 0 0 7.866-5.626 97.305 97.305 0 0 0 7.522-9.707c.539-.838-.259-3.372-.84-3.33z"/>
            <path fill="#EAEDF9" d="M90.69 1.803a64.98 64.98 0 0 0-7.565 1.31A46.11 46.11 0 0 0 69.116 8.59c-6.293 3.565-12.586 7.173-18.9 10.738L40 25.255c-1.034.601-2.974 2.362-4.073 1.718-.259-.15-.302 0-.54.107-5.99 3.458-11.982 6.873-17.952 10.33l-7.133 4.166c-.949.537-.496.323-1.293 1.031-2.371 2.148-1.638 6.85-.259 9.063 1.38 2.212 3.922 4.918 7.414 3.973 2.543-1.138 6.745-4.467 8.47-5.455l14.008-8.118L64.29 27.274c4.073-1.89 7.91-4.574 11.789-6.808a34.781 34.781 0 0 0 7.844-5.626 94.406 94.406 0 0 0 7.544-9.707c.625-.838-.173-3.372-.776-3.33z"/>
            <path fill="#E8EBF9" d="M90.517 1.803a65.24 65.24 0 0 0-7.586 1.31A45.98 45.98 0 0 0 68.836 8.59c-6.336 3.565-12.608 7.173-18.9 10.738L39.72 25.255c-1.056.601-2.974 2.362-4.095 1.718-.259-.15-.28 0-.539.107L17.241 37.475 10 41.576c-.927.537-.496.323-1.272 1.031-2.392 2.148-1.637 6.85-.28 9.063 1.358 2.212 3.944 4.918 7.414 3.973 2.565-1.138 6.767-4.467 8.491-5.455l14.01-8.118 25.646-14.796c4.051-1.89 7.91-4.574 11.788-6.808a34.781 34.781 0 0 0 7.845-5.626 94.21 94.21 0 0 0 7.522-9.707c.625-.838-.151-3.372-.647-3.33z"/>
            <path fill="#E5E9F8" d="M90.13 1.803a65.24 65.24 0 0 0-7.587 1.31A45.98 45.98 0 0 0 68.556 8.59c-6.293 3.565-12.522 7.173-18.987 10.738l-10.13 5.992c-1.055.6-2.973 2.362-4.094 1.718-.259-.15-.28 0-.539.107-5.97 3.457-11.961 6.872-17.953 10.33L9.72 41.576c-.948.537-.496.323-1.293 1.031-2.371 2.148-1.638 6.85-.259 9.063 1.38 2.212 3.944 4.918 7.414 3.973 2.565-1.138 6.767-4.467 8.491-5.455l14.009-8.118 25.625-14.796c4.073-1.89 7.93-4.574 11.81-6.808a35.277 35.277 0 0 0 7.845-5.626 94.21 94.21 0 0 0 7.522-9.707c.625-.838-.151-3.372-.755-3.33z"/>
            <path fill="#E3E7F7" d="M89.85 1.803a64.458 64.458 0 0 0-7.587 1.31A45.98 45.98 0 0 0 68.276 8.59c-6.293 3.565-12.608 7.173-18.901 10.738l-10.216 5.927c-1.056.601-2.995 2.362-4.094 1.718-.259-.15-.28 0-.54.107-5.969 3.458-11.96 6.873-17.952 10.33L9.44 41.576c-.949.537-.496.323-1.293 1.031-2.371 2.148-1.638 6.85-.26 9.063 1.38 2.212 3.945 4.918 7.415 3.973 2.543-1.138 6.767-4.467 8.491-5.455l14.009-8.118 25.625-14.796c4.073-1.89 7.91-4.574 11.81-6.808a35.277 35.277 0 0 0 7.845-5.626 97.3 97.3 0 0 0 7.435-9.707c.711-.838 0-3.372-.668-3.33z"/>
            <path fill="#E1E5F7" d="M89.547 1.803c-2.574.285-5.129.722-7.65 1.31A46.109 46.109 0 0 0 67.974 8.59c-6.293 3.565-12.586 7.173-18.88 10.738l-10.3 5.992c-1.035.6-2.975 2.362-4.074 1.718-.259-.15-.302 0-.539.107-5.991 3.457-11.983 6.872-17.953 10.33L9.16 41.576c-.948.537-.495.323-1.293 1.031-2.37 2.148-1.638 6.85-.258 9.063 1.38 2.212 3.944 4.918 7.478 3.973 2.543-1.138 6.746-4.467 8.47-5.455l14.03-8.118 25.56-14.796c4.074-1.89 7.91-4.574 11.79-6.808a35.407 35.407 0 0 0 7.866-5.626 97.305 97.305 0 0 0 7.521-9.707c.625-.838-.172-3.372-.776-3.33z"/>
            <path fill="#DEE3F6" d="M89.267 1.803a65.24 65.24 0 0 0-7.586 1.31A46.196 46.196 0 0 0 67.694 8.59c-6.293 3.565-12.608 7.173-18.9 10.738L38.577 25.32c-1.035.6-2.975 2.362-4.074 1.718-.28-.15-.301 0-.56.107l-17.931 10.33-7.155 4.101c-.927.537-.474.323-1.272 1.031-2.392 2.148-1.638 6.85-.258 9.063 1.379 2.212 3.922 4.918 7.413 3.973 2.5-1.138 6.81-4.467 8.47-5.455L37.22 42.07l25.646-14.796c4.052-1.89 7.91-4.574 11.79-6.808A34.781 34.781 0 0 0 82.5 14.84a94.21 94.21 0 0 0 7.522-9.707c.646-.838-.151-3.372-.755-3.33z"/>
            <path fill="#DCE1F5" d="M88.987 1.803a65.24 65.24 0 0 0-7.586 1.31A45.98 45.98 0 0 0 67.414 8.59c-6.293 3.565-12.608 7.173-18.901 10.738l-10.216 5.927c-1.056.601-2.974 2.362-4.094 1.718-.259-.15-.28 0-.54.107-5.969 3.458-11.96 6.873-17.952 10.33l-7.09 4.166c-.927.537-.496.323-1.293 1.031-2.371 2.148-1.638 6.85-.259 9.063 1.38 2.212 3.944 4.918 7.414 3.973 2.564-1.138 6.767-4.467 8.491-5.455l14.009-8.118L62.5 27.274c4.073-1.89 7.931-4.574 11.81-6.808a34.781 34.781 0 0 0 7.845-5.626 94.21 94.21 0 0 0 7.522-9.707c.69-.838-.086-3.372-.69-3.33z"/>
            <path fill="#DADEF5" d="M88.707 1.803a64.458 64.458 0 0 0-7.586 1.31A45.98 45.98 0 0 0 67.134 8.59c-6.293 3.565-12.608 7.173-18.901 10.738l-10.216 5.927c-1.056.601-2.974 2.362-4.095 1.718-.258-.15-.28 0-.538.107-5.97 3.458-11.962 6.873-17.953 10.33l-7.134 4.166c-.948.537-.495.323-1.293 1.031-2.37 2.148-1.638 6.85-.258 9.063 1.379 2.212 4.03 4.918 7.413 3.973 2.544-1.138 6.768-4.467 8.492-5.455l13.987-8.118 25.646-14.796c4.074-1.89 7.932-4.574 11.81-6.808a35.276 35.276 0 0 0 7.803-5.626 97.305 97.305 0 0 0 7.521-9.707c.668-.838-.13-3.372-.711-3.33z"/>
            <path fill="#D8DCF4" d="M88.362 1.803a64.458 64.458 0 0 0-7.586 1.31A46.11 46.11 0 0 0 66.81 8.59L47.953 19.328 37.716 25.32c-1.035.6-2.975 2.362-4.074 1.718-.258-.15-.28 0-.539.107-5.97 3.457-11.96 6.872-17.952 10.33l-7.134 4.101c-.948.537-.495.323-1.293 1.031-2.414 2.148-1.638 6.786-.258 9.063 1.379 2.276 3.943 4.918 7.413 3.973 2.543-1.138 6.768-4.467 8.492-5.455l14.008-8.118 25.625-14.796c4.074-1.89 7.91-4.574 11.79-6.808a34.911 34.911 0 0 0 7.865-5.626 97.305 97.305 0 0 0 7.522-9.707c.625-.838-.172-3.372-.819-3.33z"/>
            <path fill="#D5DAF3" d="M88.125 1.803a64.112 64.112 0 0 0-7.565 1.31A46.11 46.11 0 0 0 66.552 8.59c-6.207 3.565-12.673 7.173-18.901 10.738l-10.216 5.927c-1.034.601-2.974 2.362-4.073 1.718-.259-.15-.302 0-.539.107-5.991 3.458-11.982 6.873-17.952 10.33l-7.134 4.166c-.948.537-.496.323-1.293 1.031-2.37 2.148-1.638 6.85-.259 9.063 1.38 2.212 3.923 4.918 7.414 3.973 2.543-1.138 6.746-4.467 8.47-5.455l14.009-8.118 25.646-14.796c4.052-1.89 7.91-4.574 11.789-6.808a34.781 34.781 0 0 0 7.845-5.626A94.406 94.406 0 0 0 88.9 5.133c.625-.838-.173-3.372-.776-3.33z"/>
            <path fill="#D3D8F3" d="M87.845 1.803a65.24 65.24 0 0 0-7.586 1.31A45.98 45.98 0 0 0 66.272 8.59c-6.294 3.565-12.608 7.173-18.858 10.738l-10.216 5.927c-1.056.601-2.974 2.362-4.095 1.718-.258-.15-.28 0-.538.107L14.59 37.475l-7.156 4.101c-.926.537-.495.323-1.271 1.031-2.392 2.148-1.638 6.85-.28 9.063 1.357 2.212 3.944 4.918 7.413 3.973 2.565-1.138 6.768-4.467 8.492-5.455l14.008-8.118 25.647-14.796c4.052-1.89 7.91-4.574 11.789-6.808a34.781 34.781 0 0 0 7.845-5.626 94.21 94.21 0 0 0 7.521-9.707c.625-.838-.237-3.372-.754-3.33z"/>
            <path fill="#D1D6F2" d="M87.565 1.803a64.458 64.458 0 0 0-7.587 1.31A45.98 45.98 0 0 0 65.991 8.59c-6.293 3.565-12.607 7.173-18.9 10.738l-10.216 5.927c-1.056.601-2.974 2.362-4.095 1.718-.258-.15-.28 0-.539.107-5.97 3.458-11.96 6.873-17.952 10.33l-7.134 4.166c-.948.537-.496.323-1.293 1.031-2.37 2.148-1.638 6.85-.259 9.063 1.38 2.212 3.944 4.918 7.328 3.973 2.565-1.138 6.767-4.467 8.491-5.455l14.009-8.118 25.711-14.796c4.074-1.89 7.931-4.574 11.81-6.808a35.277 35.277 0 0 0 7.845-5.626 94.214 94.214 0 0 0 7.565-9.707c.582-.838-.194-3.372-.797-3.33z"/>
            <path fill="#CED4F1" d="M87.284 1.803a64.46 64.46 0 0 0-7.543 1.31 45.98 45.98 0 0 0-14.03 5.477c-6.293 3.565-12.608 7.173-18.9 10.738L36.637 25.32c-1.035.6-2.974 2.362-4.073 1.718-.259-.15-.28 0-.54.107-5.969 3.457-11.96 6.872-17.952 10.33l-7.198 4.101c-.948.537-.496.323-1.293 1.031-2.37 2.148-1.638 6.85-.259 9.063 1.38 2.212 3.944 4.918 7.414 3.973 2.543-1.138 6.767-4.467 8.491-5.455l14.01-8.118 25.624-14.796c4.073-1.89 7.91-4.574 11.81-6.808a35.277 35.277 0 0 0 7.845-5.626 97.305 97.305 0 0 0 7.522-9.707c.625-.838-.173-3.372-.755-3.33z"/>
            <path fill="#CCD2F1" d="M86.983 1.803a64.98 64.98 0 0 0-7.565 1.31A46.11 46.11 0 0 0 65.41 8.59L46.53 19.328l-10.237 5.927c-1.034.601-2.974 2.362-4.073 1.718-.259-.15-.302 0-.539.107-5.991 3.458-11.983 6.873-17.953 10.33l-7.133 4.166c-.948.537-.496.323-1.293 1.031-2.371 2.148-1.638 6.85-.259 9.063 1.38 2.212 3.944 4.918 7.414 3.973 2.543-1.138 6.746-4.467 8.47-5.455l14.008-8.118 25.647-14.796c4.073-1.89 7.91-4.574 11.789-6.808a35.407 35.407 0 0 0 7.866-5.626 97.305 97.305 0 0 0 7.522-9.707c.603-.838-.173-3.372-.776-3.33z"/>
            <path fill="#CAD0F0" d="M86.703 1.803a65.24 65.24 0 0 0-7.587 1.31A46.196 46.196 0 0 0 65.13 8.59c-6.293 3.565-12.607 7.173-18.9 10.738l-10.216 5.927c-1.035.601-2.974 2.362-4.073 1.718-.28-.15-.302 0-.56.107L13.447 37.475l-7.155 4.101c-.927.537-.474.323-1.271 1.031-2.393 2.148-1.638 6.85-.26 9.063 1.38 2.212 3.859 4.918 7.415 3.973 2.543-1.138 6.745-4.467 8.47-5.455l14.008-8.118 25.69-14.796c4.052-1.89 7.91-4.574 11.789-6.808a34.781 34.781 0 0 0 7.844-5.626A94.21 94.21 0 0 0 87.5 5.133c.603-.838-.194-3.372-.797-3.33z"/>
            <path fill="#C7CEF0" d="M86.422 1.803a65.24 65.24 0 0 0-7.586 1.31A45.98 45.98 0 0 0 64.85 8.59c-6.293 3.565-12.608 7.173-18.9 10.738l-10.216 5.927c-1.056.601-2.974 2.362-4.095 1.718-.259-.15-.28 0-.539.107L13.147 37.475l-7.134 4.101c-.948.537-.496.323-1.293 1.031-2.37 2.148-1.638 6.85-.259 9.063 1.38 2.212 3.944 4.918 7.414 3.973 2.565-1.138 6.767-4.467 8.491-5.455l14.117-8.118L60 27.274c4.073-1.89 7.931-4.574 11.81-6.808a34.783 34.783 0 0 0 7.931-5.626 94.21 94.21 0 0 0 7.522-9.707c.539-.838-.237-3.372-.84-3.33z"/>
            <path fill="#C5CCEF" d="M86.207 1.803a64.458 64.458 0 0 0-7.586 1.31A45.98 45.98 0 0 0 64.655 8.59c-6.465 3.565-12.694 7.173-18.987 10.738l-10.215 5.927c-1.056.601-2.975 2.362-4.095 1.718-.259-.15-.28 0-.539.107L12.931 37.475l-7.198 4.101c-.949.537-.496.323-1.293 1.031-2.371 2.148-1.638 6.85-.259 9.063 1.38 2.212 3.944 4.918 7.414 3.973 2.543-1.138 6.767-4.467 8.491-5.455l14.009-8.118L59.72 27.274c4.073-1.89 7.93-4.574 11.81-6.808a35.277 35.277 0 0 0 7.845-5.626 97.305 97.305 0 0 0 7.522-9.707c.625-.838-.173-3.372-.69-3.33z"/>
            <path fill="#C3CAEE" d="M85.862 1.825a60.152 60.152 0 0 0-7.586 1.289A46.11 46.11 0 0 0 64.267 8.59l-18.88 10.738-10.236 5.927c-1.035.601-2.974 2.362-4.073 1.718-.259-.15-.28 0-.54.107L12.587 37.475l-7.133 4.101c-.949.537-.496.323-1.294 1.031-2.37 2.148-1.637 6.85-.258 9.063 1.38 2.212 3.944 4.918 7.414 3.973 2.543-1.138 6.745-4.467 8.491-5.455l14.009-8.118L59.44 27.274c4.073-1.89 7.91-4.574 11.788-6.808a34.911 34.911 0 0 0 7.867-5.626 97.305 97.305 0 0 0 7.521-9.707c.625-.838-.172-3.372-.754-3.308z"/>
            <path fill="#C0C8EE" d="M85.56 1.825a59.827 59.827 0 0 0-7.564 1.289A46.11 46.11 0 0 0 63.987 8.59c-6.293 3.565-12.586 7.173-18.9 10.738L34.87 25.255c-1.035.601-2.974 2.362-4.074 1.718-.258-.15-.301 0-.538.107a1759.207 1759.207 0 0 0-17.953 10.395l-7.134 4.101c-.948.537-.495.323-1.293 1.031-2.37 2.148-1.724 6.786-.258 9.063 1.465 2.276 3.922 4.918 7.413 3.973 2.544-1.138 6.746-4.467 8.47-5.455l14.009-8.118 25.646-14.796c4.052-1.89 7.91-4.574 11.79-6.808a34.781 34.781 0 0 0 7.844-5.626 94.406 94.406 0 0 0 7.543-9.707c.625-.838-.13-3.372-.776-3.308z"/>
            <path fill="#BEC6ED" d="M85.28 1.825c-2.553.27-5.087.7-7.586 1.289A45.98 45.98 0 0 0 63.707 8.59c-6.293 3.565-12.608 7.173-18.901 10.738l-10.215 5.927c-1.057.601-2.975 2.362-4.095 1.718-.259-.15-.28 0-.54.107l-17.93 10.395-7.155 4.101c-.927.537-.496.323-1.272 1.031-2.392 2.148-1.638 6.85-.28 9.063 1.358 2.212 3.944 4.918 7.457 3.973 2.565-1.138 6.767-4.467 8.491-5.455l14.009-8.118 25.646-14.796c4.052-1.89 7.91-4.574 11.79-6.808a34.781 34.781 0 0 0 7.844-5.626 94.21 94.21 0 0 0 7.522-9.707c.581-.838-.194-3.372-.798-3.308z"/>
            <path fill="#BCC4EC" d="M85 1.825a60.152 60.152 0 0 0-7.586 1.289A45.98 45.98 0 0 0 63.427 8.59c-6.293 3.565-12.608 7.173-18.901 10.738L34.31 25.255c-1.056.601-2.974 2.362-4.094 1.718-.26-.15-.28 0-.54.107L11.725 37.475l-7.133 4.101c-.949.537-.496.323-1.294 1.031-2.37 2.148-1.638 6.85-.258 9.063 1.38 2.212 3.944 4.918 7.414 3.973 2.478-1.138 6.788-4.467 8.491-5.455l14.009-8.118 25.625-14.796c4.073-1.89 7.93-4.574 11.81-6.808a35.277 35.277 0 0 0 7.845-5.626 94.21 94.21 0 0 0 7.521-9.707c.625-.838-.15-3.372-.754-3.308z"/>
            <path fill="#B9C2EC" d="M84.72 1.825a60.152 60.152 0 0 0-7.586 1.289A46.326 46.326 0 0 0 63.125 8.59c-6.293 3.565-12.586 7.173-18.88 10.738L34.01 25.255c-1.035.601-2.975 2.362-4.074 1.718-.258-.15-.28 0-.538.107L11.444 37.475 4.31 41.576c-.948.537-.495.323-1.293 1.031-2.37 2.148-1.638 6.85-.258 9.063 1.379 2.212 3.944 4.918 7.413 3.973 2.544-1.138 6.768-4.467 8.492-5.455l14.008-8.118 25.625-14.796c4.074-1.89 7.91-4.574 11.81-6.808a35.277 35.277 0 0 0 7.846-5.626 97.305 97.305 0 0 0 7.521-9.707c.733-.838-.172-3.372-.754-3.308z"/>
            <path fill="#B7C0EB" d="M84.418 1.825c-2.546.27-5.073.7-7.565 1.289A46.11 46.11 0 0 0 62.845 8.59l-18.88 10.738-10.237 5.927c-1.034.601-2.974 2.384-4.073 1.718-.258-.15-.302 0-.539.107a1759.207 1759.207 0 0 0-17.952 10.395L4.03 41.576c-.948.537-.496.323-1.293 1.031-2.37 2.148-1.638 6.85-.259 9.063 1.38 2.212 3.988 4.918 7.414 3.973 2.543-1.138 6.746-4.467 8.47-5.455l13.966-8.118 25.646-14.796c4.073-1.89 7.91-4.574 11.789-6.808a34.781 34.781 0 0 0 7.823-5.626 94.406 94.406 0 0 0 7.543-9.707c.69-.838-.107-3.372-.71-3.308z"/>
        </g>
        <path fill="#B7C0EB" d="M84.418 1.825c-2.546.27-5.073.7-7.565 1.289A46.11 46.11 0 0 0 62.845 8.59l-18.88 10.738-10.237 5.927c-1.034.601-2.974 2.384-4.073 1.718-.258-.15-.302 0-.539.107a1759.207 1759.207 0 0 0-17.952 10.395L4.03 41.576c-.948.537-.496.323-1.293 1.031-2.37 2.148-1.638 6.85-.259 9.063 1.38 2.212 3.988 4.918 7.414 3.973 2.543-1.138 6.746-4.467 8.47-5.455l13.966-8.118 25.646-14.796c4.073-1.89 7.91-4.574 11.789-6.808a34.781 34.781 0 0 0 7.823-5.626 94.406 94.406 0 0 0 7.543-9.707c.69-.838-.107-3.372-.71-3.308z"/>
        <path fill="url(#i)" d="M89.353 0c-1.206.21-2.384.556-3.512 1.03l-.302.173s-.237.107-.28.214a.535.535 0 0 0 0 .365c.024.258.121.504.28.71.146.228.395.373.668.386a.605.605 0 0 0 .302-.13l.366-.235C87.069 2.405 89.483.215 89.353 0z"/>
        <path fill="url(#j)" d="M85.97.816A71.92 71.92 0 0 0 67.716 4.81l-2.328 1.353a5.018 5.018 0 0 0-2.155 1.718 5.224 5.224 0 0 0-.517 2.857c.204 1.967.95 3.84 2.155 5.412a6.62 6.62 0 0 0 5.021 3.049c.905 0 .949-1.46 1.703-1.911.754-.451 1.983 0 2.952-.645A70.425 70.425 0 0 0 86.832 2.47 1.22 1.22 0 0 0 85.97.816z"/>
        <path fill="url(#k)" d="M64.978 16.107A6.62 6.62 0 0 0 70 19.157c.905 0 .948-1.461 1.703-1.912.754-.451 1.982 0 2.952-.645A76.221 76.221 0 0 0 86.078 3.866l-21.121 12.22.021.02z"/>
        <path fill="url(#l)" d="M75.776 13.508a10.176 10.176 0 0 0-1.617-4.918 9.295 9.295 0 0 0-3.642-3.543 4.02 4.02 0 0 0-1.853-.473 5.032 5.032 0 0 0-2.414.967L59.289 9.6l-6.983 4.037a5.04 5.04 0 0 0-2.155 1.74 4.775 4.775 0 0 0-.582 2.791c.2 1.975.947 3.856 2.155 5.433a6.62 6.62 0 0 0 5.022 3.05 5.678 5.678 0 0 0 2.349-1.052l2.93-1.718 5.863-3.393 6.034-3.308a3.333 3.333 0 0 0 1.509-1.653c.247-.644.357-1.331.323-2.019h.022z"/>
        <path fill="url(#m)" d="M75.431 15.527c.247-.644.357-1.331.323-2.019a8.993 8.993 0 0 0-.646-2.92c-7.673 4.423-15.324 8.46-22.996 12.885 1.164 1.396 2.888 3.264 4.785 3.157a5.678 5.678 0 0 0 2.349-1.053l2.93-1.718 5.863-3.393 5.883-3.286a3.333 3.333 0 0 0 1.509-1.653z"/>
        <path fill="url(#n)" d="M59.418 22.957a10.047 10.047 0 0 0-1.465-4.681 9.207 9.207 0 0 0-3.643-3.673 3.416 3.416 0 0 0-3.362-.193l-1.465.859a3.404 3.404 0 0 0-1.164.88 4.796 4.796 0 0 0-.668 3.759 10.458 10.458 0 0 0 1.487 3.865 10.3 10.3 0 0 0 2.759 3.028 3.912 3.912 0 0 0 4.137.688c.582-.366 1.337-.774 2.005-1.16a3.602 3.602 0 0 0 1.444-3.372h-.065z"/>
        <path fill="#184EAE" d="M51.897 26.801a3.912 3.912 0 0 0 4.137.688c.582-.366 1.337-.774 2.005-1.16a3.602 3.602 0 0 0 1.444-3.372 8.565 8.565 0 0 0-.733-3.178l-8.772 5.09a9.38 9.38 0 0 0 1.919 1.932z"/>
        <path fill="url(#o)" d="M57.37 24.095a9.638 9.638 0 0 0-1.098-3.994 9.908 9.908 0 0 0-3.125-3.801 4.321 4.321 0 0 0-3.578-1.01c-.268.1-.528.222-.776.366l-2.327 1.353-10.087 5.84-13.62 7.904-12.802 7.366-7.392 4.295-.41.28a3.645 3.645 0 0 0-1.53 3.478c.18 1.986.929 3.88 2.155 5.455a7.112 7.112 0 0 0 4.892 3.329 5.031 5.031 0 0 0 2.845-1.139L14.03 51.8l7.004-4.06 14.01-8.117 13.167-7.624 6.573-3.8a4.888 4.888 0 0 0 2.307-1.89c.289-.678.421-1.412.387-2.148l-.107-.065z"/>
        <path fill="url(#p)" d="M54.677 28.197a4.888 4.888 0 0 0 2.306-1.89c.289-.677.421-1.411.388-2.147a8.693 8.693 0 0 0-.755-3.2l-12.478 7.216-21.983 12.627L2.953 51.97a6.683 6.683 0 0 0 4.612 2.986 5.031 5.031 0 0 0 2.844-1.139l3.513-2.018 7.005-4.06 14.008-8.117 13.168-7.624 6.574-3.8z"/>
        <path fill="#EFF1FE" d="M5.41 42.478a11.89 11.89 0 0 1 5.366 9.278c0 3.414-2.435 4.789-5.41 3.07A11.696 11.696 0 0 1 0 45.55c0-3.414 2.435-4.746 5.41-3.07z"/>
        <path fill="url(#q)" d="M12.931 50.231a11.73 11.73 0 0 0-3.793-7.86 6.753 6.753 0 0 0-3.47-1.89 6.78 6.78 0 0 0-4.18 1.632 3.913 3.913 0 0 1 3.835.365 10.755 10.755 0 0 1 3.664 3.78 11.102 11.102 0 0 1 1.789 4.51 4.458 4.458 0 0 1-1.509 4.445l1.81-1.052a3.596 3.596 0 0 0 1.337-1.138 4.904 4.904 0 0 0 .646-2.792h-.129z"/>
        <path fill="url(#r)" d="M12.37 53.023a4.904 4.904 0 0 0 .647-2.792 9.764 9.764 0 0 0-.819-3.565l-2.155 1.289c.371.9.618 1.846.733 2.813a4.458 4.458 0 0 1-1.509 4.445l1.81-1.052c.518-.27.962-.66 1.294-1.138z"/>
        <path fill="url(#s)" d="M30.194 1.954v.967L4.397 17.76v-.967z" transform="translate(2.155 25.77)"/>
        <path fill="#CAE6FD" d="M6.552 43.53l-2.953-1.717v-.967l2.953 1.718z"/>
        <path fill="url(#t)" d="M4.397 16.794l-2.953-1.718L27.22.236l2.974 1.718z" transform="translate(2.155 25.77)"/>
    </g>
</svg>
