<svg xmlns="http://www.w3.org/2000/svg" width="54" height="38" viewBox="0 0 54 38">
    <g fill="#FFF" fill-rule="nonzero">
        <path d="M21.18 16.166a.994.994 0 0 0-.887.451c-.135.223-.22.471-.25.73h2.212a1.523 1.523 0 0 0-.206-.733.962.962 0 0 0-.869-.448zm12.46.03a.975.975 0 0 0-.888.43 2.246 2.246 0 0 0-.29 1.246 2.27 2.27 0 0 0 .29 1.246.975.975 0 0 0 .887.436.987.987 0 0 0 .891-.436 2.27 2.27 0 0 0 .293-1.246 2.243 2.243 0 0 0-.293-1.245.987.987 0 0 0-.89-.43zM13.336 18.19a.676.676 0 0 0-.277.598.741.741 0 0 0 .094.405.604.604 0 0 0 .177.184c.274.16.595.224.91.18.28-.019.559-.056.834-.112v-1.407a6.351 6.351 0 0 0-.84-.072 1.364 1.364 0 0 0-.898.224zm32.643-2.024a.987.987 0 0 0-.885.451c-.136.222-.223.47-.252.73h2.212a1.523 1.523 0 0 0-.206-.733.962.962 0 0 0-.869-.448z"/>
        <path d="M41.987 5.36a11.363 11.363 0 0 0-4.672.991 9.469 9.469 0 0 0-8.236-4.89 9.363 9.363 0 0 0-6.777 2.9A10.381 10.381 0 0 0 4.516 14.783a9.033 9.033 0 0 0 4.46 16.82c.617 0 1.232-.064 1.835-.19a9.609 9.609 0 0 0 17.867.432 8.429 8.429 0 0 0 11.038-3.466c.748.151 1.508.227 2.27.227 6.347-.104 11.438-5.278 11.438-11.626 0-6.347-5.09-11.522-11.437-11.626v.006zM11.503 18.85c0 .935-.682 1.524-1.779 1.524A3.249 3.249 0 0 1 8.126 20a3.448 3.448 0 0 1-.311-.184s-.056-.034-.022-.121l.215-.602a.087.087 0 0 1 .143-.05l.181.116c.422.268.914.409 1.414.405.477 0 .773-.253.773-.592v-.019c0-.37-.455-.51-.985-.673l-.115-.034c-.72-.208-1.492-.492-1.492-1.426 0-.87.7-1.477 1.704-1.477h.112c.547 0 1.085.147 1.557.424a.1.1 0 0 1 .053.121c-.018.053-.202.545-.22.602-.02.056-.147.034-.147.034a3.168 3.168 0 0 0-1.393-.358c-.426 0-.7.227-.7.532v.019c0 .358.47.51 1.012.688l.096.028c.72.23 1.49.545 1.49 1.414l.012.003zm4.488 1.221l-.215.057c-.106.024-.476.1-.782.152-.308.05-.621.077-.934.078a3.688 3.688 0 0 1-.822-.084 1.707 1.707 0 0 1-.623-.274 1.246 1.246 0 0 1-.405-.486c-.1-.222-.15-.464-.143-.707a1.47 1.47 0 0 1 .616-1.224c.196-.142.415-.248.648-.312.249-.067.506-.1.763-.1h.483s.246.022.51.06v-.1c0-.414-.086-.623-.255-.738a1.265 1.265 0 0 0-.778-.196 3.146 3.146 0 0 0-1.349.311l-.053.025a.078.078 0 0 1-.1-.05l-.22-.598a.1.1 0 0 1 .027-.124c.297-.17.62-.288.957-.35.273-.049.55-.075.828-.077a2.096 2.096 0 0 1 1.43.436c.353.361.53.858.486 1.361v2.835a.097.097 0 0 1-.069.105zm2.08.09a.087.087 0 0 1-.086.094h-.823a.09.09 0 0 1-.09-.093v-6.613a.09.09 0 0 1 .09-.093h.823a.087.087 0 0 1 .087.093v6.613zm5.13-2.127a.09.09 0 0 1-.09.081h-3.096c-.017.378.112.748.362 1.031.291.256.672.387 1.059.365.435.017.869-.061 1.27-.23a.087.087 0 0 1 .116.052l.205.57c.04.094 0 .128-.028.147-.484.233-1.02.34-1.557.311a3.115 3.115 0 0 1-1.124-.184 2.028 2.028 0 0 1-.78-.514 2.059 2.059 0 0 1-.448-.788 3.323 3.323 0 0 1-.14-.99 3.47 3.47 0 0 1 .134-.987c.084-.295.227-.57.42-.807.195-.232.439-.417.714-.542.323-.14.673-.208 1.025-.2.305 0 .607.062.887.181.225.107.424.26.586.449.184.208.32.455.399.722.117.434.147.888.087 1.333zm2.577 2.34A3.249 3.249 0 0 1 24.18 20a3.448 3.448 0 0 1-.312-.184s-.056-.034-.025-.121l.218-.602a.093.093 0 0 1 .144-.05l.18.116c.423.268.914.409 1.415.405.476 0 .772-.253.772-.592v-.019c0-.37-.455-.51-.984-.673l-.116-.034c-.716-.208-1.488-.492-1.488-1.426 0-.87.7-1.477 1.703-1.477h.113c.547 0 1.085.147 1.557.424a.1.1 0 0 1 .053.118c-.019.053-.203.545-.221.601-.019.056-.147.035-.147.035a3.168 3.168 0 0 0-1.392-.359c-.427 0-.7.228-.7.533v.019c0 .358.47.51 1.011.688l.097.028c.72.23 1.489.545 1.489 1.414v.016c.01.931-.673 1.514-1.77 1.514zm5.413-4.177a.106.106 0 0 1-.106.09h-1.018l-.698 3.95c-.06.355-.151.704-.274 1.043-.088.255-.224.49-.402.691a1.43 1.43 0 0 1-.573.4 2.252 2.252 0 0 1-.76.118 1.89 1.89 0 0 1-.455-.063 2.492 2.492 0 0 1-.283-.08.093.093 0 0 1-.047-.125l.23-.623a.084.084 0 0 1 .113-.05.685.685 0 0 0 .165.053c.082.017.165.026.249.028.124.003.247-.015.364-.053a.554.554 0 0 0 .284-.218c.094-.135.168-.283.218-.44a4.88 4.88 0 0 0 .184-.766l.694-3.877h-.685c-.081 0-.109-.038-.1-.1l.116-.645a.103.103 0 0 1 .102-.09h.704l.038-.209c.059-.52.276-1.011.623-1.405.356-.328.83-.498 1.314-.47a2.414 2.414 0 0 1 .732.103.084.084 0 0 1 .056.109l-.237.65c-.018.05-.03.079-.134.048-.025 0-.062-.02-.158-.038a1.193 1.193 0 0 0-.253-.025 1.09 1.09 0 0 0-.333.047.623.623 0 0 0-.259.162.872.872 0 0 0-.218.33c-.074.228-.13.461-.165.698h.99c.085 0 .11.04.104.1l-.122.657zm4.535 2.653a2.215 2.215 0 0 1-.417.773 1.965 1.965 0 0 1-.704.53 2.62 2.62 0 0 1-1.96 0 1.965 1.965 0 0 1-.703-.53 2.215 2.215 0 0 1-.418-.797 3.672 3.672 0 0 1 0-1.966 2.18 2.18 0 0 1 .418-.794c.19-.228.43-.411.7-.536.31-.136.646-.203.985-.196.336-.008.67.06.978.196.27.124.51.306.704.533.192.234.334.506.417.797a3.672 3.672 0 0 1 0 1.966v.024zm3.831-3.248c-.028.084-.177.51-.23.65-.022.054-.053.091-.115.085a1.663 1.663 0 0 0-.34-.044c-.14 0-.28.02-.414.06a.934.934 0 0 0-.383.23 1.134 1.134 0 0 0-.271.458c-.076.264-.11.538-.103.813v2.308a.093.093 0 0 1-.093.093h-.817a.09.09 0 0 1-.093-.093V15.54a.087.087 0 0 1 .087-.094h.795a.09.09 0 0 1 .09.094v.376c.142-.168.32-.3.523-.386.25-.113.527-.158.8-.128.175.013.348.042.518.088a.084.084 0 0 1 .046.112zm3.872 4.52a3.7 3.7 0 0 1-1.296.233 2.311 2.311 0 0 1-1.806-.682 2.626 2.626 0 0 1-.608-1.82 3.14 3.14 0 0 1 .147-.987c.093-.292.245-.562.445-.794a2.15 2.15 0 0 1 .738-.536c.323-.134.67-.201 1.019-.196.23-.002.46.014.688.047.212.032.42.084.623.156a.078.078 0 0 1 .056.106c-.084.246-.143.401-.224.622-.034.094-.106.063-.106.063a3.115 3.115 0 0 0-.969-.137 1.196 1.196 0 0 0-1.021.448 1.96 1.96 0 0 0-.352 1.206c-.033.45.108.896.395 1.246a1.39 1.39 0 0 0 1.047.392c.168.001.336-.011.501-.037.145-.024.288-.064.424-.119a.087.087 0 0 1 .118.053l.225.623a.081.081 0 0 1-.044.112zm4.588-2.088a.09.09 0 0 1-.09.081H44.83c-.018.378.111.748.361 1.031a1.47 1.47 0 0 0 1.059.365c.435.017.87-.061 1.27-.23a.09.09 0 0 1 .12.052l.202.57c.04.094 0 .128-.028.147-.485.233-1.02.34-1.558.311a3.115 3.115 0 0 1-1.124-.184 2.028 2.028 0 0 1-.779-.514 2.059 2.059 0 0 1-.436-.79 3.323 3.323 0 0 1-.14-.991 3.47 3.47 0 0 1 .134-.988c.084-.294.227-.569.42-.806.195-.232.439-.417.714-.542a2.42 2.42 0 0 1 1.021-.2c.306 0 .61.061.891.181.224.107.424.26.586.449.184.208.32.455.398.722.114.436.14.89.075 1.336z"/>
    </g>
</svg>
