<svg xmlns="http://www.w3.org/2000/svg" width="327" height="350" viewBox="0 0 327 350">
    <defs>
        <linearGradient id="a" x1="41.802%" x2="57.024%" y1="109.518%" y2="-.991%">
            <stop offset="0%" stop-color="#0B66B9"/>
            <stop offset="100%" stop-color="#000675"/>
        </linearGradient>
        <linearGradient id="b" x1="56.132%" x2="26.962%" y1="80.867%" y2="-65.972%">
            <stop offset="0%" stop-color="#2580D3"/>
            <stop offset="100%" stop-color="#0A208F"/>
        </linearGradient>
        <linearGradient id="c" x1="22.665%" x2="143.198%" y1="50%" y2="50%">
            <stop offset="0%" stop-color="#2580D3"/>
            <stop offset="100%" stop-color="#0A208F"/>
        </linearGradient>
        <linearGradient id="d" x1="0%" y1="49.996%" y2="49.996%">
            <stop offset="0%" stop-color="#FFF"/>
            <stop offset="100%" stop-color="#0A208F"/>
        </linearGradient>
        <linearGradient id="e" x1="0%" y1="50.007%" y2="50.007%">
            <stop offset="0%" stop-color="#0B66B9"/>
            <stop offset="100%" stop-color="#000675"/>
        </linearGradient>
        <linearGradient id="f" x1="1.369%" x2="233.473%" y1="50%" y2="50%">
            <stop offset="0%" stop-color="#2580D3"/>
            <stop offset="100%" stop-color="#0A208F"/>
        </linearGradient>
        <linearGradient id="g" x1="50%" x2="50%" y1="-121.609%" y2="217.654%">
            <stop offset="0%" stop-color="#2580D3"/>
            <stop offset="100%" stop-color="#0A208F"/>
        </linearGradient>
        <linearGradient id="h" x1="41.802%" x2="57.024%" y1="109.52%" y2="-.993%">
            <stop offset="0%" stop-color="#0B66B9"/>
            <stop offset="100%" stop-color="#000675"/>
        </linearGradient>
        <linearGradient id="i" x1="56.132%" x2="26.961%" y1="80.867%" y2="-65.974%">
            <stop offset="0%" stop-color="#2580D3"/>
            <stop offset="100%" stop-color="#0A208F"/>
        </linearGradient>
        <linearGradient id="j" x1="22.663%" x2="143.2%" y1="50.003%" y2="50.003%">
            <stop offset="0%" stop-color="#2580D3"/>
            <stop offset="100%" stop-color="#0A208F"/>
        </linearGradient>
        <linearGradient id="k" x1="0%" y1="50%" y2="50%">
            <stop offset="0%" stop-color="#FFF"/>
            <stop offset="100%" stop-color="#0A208F"/>
        </linearGradient>
        <linearGradient id="l" x1="0%" y1="49.993%" y2="49.993%">
            <stop offset="0%" stop-color="#0B66B9"/>
            <stop offset="100%" stop-color="#000675"/>
        </linearGradient>
        <linearGradient id="m" x1="1.369%" x2="233.472%" y1="50%" y2="50%">
            <stop offset="0%" stop-color="#2580D3"/>
            <stop offset="100%" stop-color="#0A208F"/>
        </linearGradient>
        <linearGradient id="n" x1="50.005%" x2="50.005%" y1="-121.609%" y2="217.639%">
            <stop offset="0%" stop-color="#2580D3"/>
            <stop offset="100%" stop-color="#0A208F"/>
        </linearGradient>
        <linearGradient id="o" x1="41.801%" x2="57.024%" y1="109.518%" y2="-.991%">
            <stop offset="0%" stop-color="#0B66B9"/>
            <stop offset="100%" stop-color="#000675"/>
        </linearGradient>
        <linearGradient id="p" x1="56.131%" x2="26.964%" y1="80.865%" y2="-65.972%">
            <stop offset="0%" stop-color="#2580D3"/>
            <stop offset="100%" stop-color="#0A208F"/>
        </linearGradient>
        <linearGradient id="q" x1="22.662%" x2="143.198%" y1="50%" y2="50%">
            <stop offset="0%" stop-color="#2580D3"/>
            <stop offset="100%" stop-color="#0A208F"/>
        </linearGradient>
        <linearGradient id="r" x1="0%" y1="49.993%" y2="49.993%">
            <stop offset="0%" stop-color="#0B66B9"/>
            <stop offset="100%" stop-color="#000675"/>
        </linearGradient>
        <linearGradient id="s" x1="1.369%" x2="233.479%" y1="50%" y2="50%">
            <stop offset="0%" stop-color="#2580D3"/>
            <stop offset="100%" stop-color="#0A208F"/>
        </linearGradient>
        <linearGradient id="t" x1="49.995%" x2="49.995%" y1="-121.594%" y2="217.624%">
            <stop offset="0%" stop-color="#2580D3"/>
            <stop offset="100%" stop-color="#0A208F"/>
        </linearGradient>
        <linearGradient id="u" x1="41.801%" x2="57.024%" y1="109.52%" y2="-.991%">
            <stop offset="0%" stop-color="#0B66B9"/>
            <stop offset="100%" stop-color="#000675"/>
        </linearGradient>
        <linearGradient id="v" x1="56.131%" x2="26.964%" y1="80.867%" y2="-65.971%">
            <stop offset="0%" stop-color="#2580D3"/>
            <stop offset="100%" stop-color="#0A208F"/>
        </linearGradient>
        <linearGradient id="w" x1="0%" y1="50.007%" y2="50.007%">
            <stop offset="0%" stop-color="#0B66B9"/>
            <stop offset="100%" stop-color="#000675"/>
        </linearGradient>
        <linearGradient id="x" x1="50.005%" x2="50.005%" y1="-121.594%" y2="217.639%">
            <stop offset="0%" stop-color="#2580D3"/>
            <stop offset="100%" stop-color="#0A208F"/>
        </linearGradient>
        <linearGradient id="y" x1="41.792%" x2="88.569%" y1="15.689%" y2="146.627%">
            <stop offset="0%" stop-color="#2580D3"/>
            <stop offset="100%" stop-color="#0A208F"/>
        </linearGradient>
        <linearGradient id="z" x1="41.267%" x2="40.486%" y1="46.159%" y2="48.401%">
            <stop offset="0%" stop-color="#3F9AED"/>
            <stop offset="100%" stop-color="#243AA9"/>
        </linearGradient>
        <linearGradient id="A" x1="38.173%" x2="62.726%" y1="-27.009%" y2="104.345%">
            <stop offset="0%" stop-color="#2580D3"/>
            <stop offset="100%" stop-color="#0A208F"/>
        </linearGradient>
        <linearGradient id="B" x1="100%" x2="0%" y1="49.999%" y2="49.999%">
            <stop offset="0%" stop-color="#2580D3"/>
            <stop offset="100%" stop-color="#0A208F"/>
        </linearGradient>
        <linearGradient id="C" x1="100%" x2="-.005%" y1="49.994%" y2="49.994%">
            <stop offset="0%" stop-color="#2580D3"/>
            <stop offset="100%" stop-color="#0A208F"/>
        </linearGradient>
        <linearGradient id="D" x1="77.817%" x2="34.562%" y1="-39.289%" y2="120.833%">
            <stop offset="0%" stop-color="#FFF"/>
            <stop offset="100%"/>
        </linearGradient>
        <linearGradient id="E" x1="48.889%" x2="54.07%" y1="10.493%" y2="119.243%">
            <stop offset="0%" stop-color="#FFF"/>
            <stop offset="100%" stop-color="#2A71C9"/>
        </linearGradient>
    </defs>
    <g fill="none" fill-rule="nonzero">
        <path fill="#00258A" d="M224.658 254.95l45.065 26.03 45.065-26.03-45.065-26.026z" opacity=".6"/>
        <path fill="#4CEAF5" d="M269.717 288.043L327 254.959l-.509-.282-207.296-120.045-.17.1-57.107 32.984.509.283 207.29 120.044zm55.926-33.084l-55.926 32.3L63.275 167.717l55.92-32.295L325.643 254.96z"/>
        <path fill="#00258A" d="M174.672 225.704l45.062 26.027 45.065-26.027-45.065-26.027zM124.192 196.465l45.062 26.027 45.068-26.027-45.068-26.027zM74.13 167.721l45.062 26.03 45.065-26.03-45.065-26.026z" opacity=".6"/>
        <path fill="url(#a)" d="M162.74 148.372l45.065 26.027V52.054L162.74 26.027z" transform="matrix(-1 0 0 1 327 0)"/>
        <path fill="url(#b)" d="M207.805 52.054v122.345l45.065-26.027V26.027z" transform="matrix(-1 0 0 1 327 0)"/>
        <path fill="url(#c)" d="M252.87 26.027l-45.065 26.027-45.065-26.027L207.805 0z" transform="matrix(-1 0 0 1 327 0)"/>
        <path fill="url(#d)" d="M207.805 9.587l-16.506-.054-28.56 16.494 25.248 14.582 19.818.456 27.25-15.74z" opacity=".4" style="mix-blend-mode:multiply" transform="matrix(-1 0 0 1 327 0)"/>
        <path fill="#4CEAF5" d="M89.16 24.868l30.035 17.35 30.035-17.35-30.035-17.345z" opacity=".5"/>
        <path fill="#4CEAF5" d="M90.803 24.868l28.392 16.4 28.39-16.4-28.39-16.395z"/>
        <path fill="#4CEAF5" d="M87.143 24.868l32.052 18.515 32.053-18.515-32.053-18.51z" opacity=".3"/>
        <path fill="#D4FFFF" d="M92.388 24.868l26.807 15.484 26.808-15.484-26.808-15.482z"/>
        <path fill="url(#e)" d="M207.805 36.202v3.206l-27.251-15.739v-3.206z" transform="matrix(-1 0 0 1 327 0)"/>
        <path fill="url(#f)" d="M235.056 20.463l-27.251 15.739-27.251-15.739 27.25-15.739z" transform="matrix(-1 0 0 1 327 0)"/>
        <path fill="url(#g)" d="M235.056 20.463l-27.251 15.739v3.206l27.25-15.739z" transform="matrix(-1 0 0 1 327 0)"/>
        <path fill="#0A208F" d="M129.585 156.156l26.185-15.123v-1.476l-26.185 15.126zM129.585 152.704l26.185-15.123v-1.476l-26.185 15.123zM129.585 149.252l26.185-15.123v-1.476l-26.185 15.123zM129.585 145.8l26.185-15.126v-1.473l-26.185 15.123zM129.585 142.345l26.185-15.12v-1.476l-26.185 15.123zM129.585 138.893l26.185-15.123v-1.473l-26.185 15.12zM129.585 135.444l26.185-15.123v-1.476l-26.185 15.123zM129.585 131.989l26.185-15.123v-1.472l-26.185 15.122zM129.585 128.537l26.185-15.123v-1.475l-26.185 15.122zM129.585 125.085l26.185-15.122v-1.476l-26.185 15.122zM129.585 121.63l26.185-15.12v-1.475l-26.185 15.122zM129.585 118.181l26.185-15.122v-1.476l-26.185 15.122zM115.532 54.35L77.118 32.161V141.36l38.414 22.188z"/>
        <path fill="#48D8F5" d="M104.708 60.484l1.238.713v-1.428l-1.238-.712zM102.707 59.328l1.235.715v-1.427l-1.235-.713zM100.709 58.175l1.235.712v-1.428l-1.235-.712zM98.71 57.018l1.236.716v-1.428l-1.236-.715zM92.71 53.555l1.235.712V52.84l-1.235-.713zM90.71 52.399l1.234.715v-1.428l-1.235-.715zM88.708 51.245l1.238.713v-1.425l-1.238-.718zM82.71 47.78l1.236.714v-1.427l-1.235-.713zM80.713 46.626l1.235.712V45.91l-1.235-.712zM110.708 66.207l1.235.715v-1.428l-1.235-.712zM108.707 65.053l1.235.712v-1.424l-1.235-.716zM106.709 63.897l1.232.715v-1.428l-1.232-.712zM104.708 62.743l1.238.713v-1.428l-1.238-.712zM98.71 59.277l1.233.715.003-1.427-1.236-.716zM96.71 58.124l1.235.715v-1.43l-1.236-.713zM92.71 55.814l1.235.712V55.1l-1.235-.713zM90.71 54.658l1.234.715v-1.428l-1.235-.715zM86.71 52.35l1.235.713v-1.428l-1.235-.712zM84.71 51.194l1.237.716v-1.428l-1.238-.715zM106.709 66.156l1.232.715v-1.428l-1.232-.715zM102.707 63.846l1.235.715v-1.428l-1.235-.712zM100.709 62.692l1.235.713v-1.428l-1.235-.712zM92.71 58.073l1.235.712v-1.428l-1.235-.712zM90.71 56.916l1.234.716v-1.428l-1.235-.715zM88.708 55.763l1.238.715v-1.43l-1.238-.713zM86.71 54.607l1.235.715v-1.428l-1.235-.715zM84.71 53.453l1.237.713V52.74l-1.238-.716zM82.71 52.3l1.236.712v-1.428l-1.235-.715zM80.713 51.146l1.235.713v-1.43l-1.235-.713zM104.708 143.241l1.238.713v-1.428l-1.238-.715zM102.707 142.085l1.235.715v-1.428l-1.235-.715zM100.709 140.931l1.235.713v-1.428l-1.235-.712zM98.71 139.775l1.236.715v-1.427l-1.236-.713zM92.71 136.312l1.235.712v-1.428l-1.235-.712zM90.71 135.155l1.234.716v-1.428l-1.235-.715zM88.708 134.002l1.238.712v-1.425l-1.238-.715zM82.71 130.539l1.236.712v-1.428l-1.235-.712zM80.713 129.382l1.235.713v-1.425l-1.235-.715zM110.708 148.963l1.235.716v-1.428l-1.235-.713zM108.707 147.81l1.235.715v-1.428l-1.235-.715zM106.709 146.653l1.232.716v-1.428l-1.232-.712zM104.708 145.5l1.238.712v-1.427l-1.238-.713zM98.71 142.034l1.233.715.003-1.428-1.236-.712zM96.71 140.88l1.235.713v-1.428l-1.236-.712zM92.71 138.57l1.235.716v-1.43l-1.235-.713zM90.71 137.414l1.234.716v-1.428l-1.235-.715zM86.71 135.107l1.235.713v-1.428l-1.235-.715zM84.71 133.951l1.237.712v-1.424l-1.238-.716zM106.709 148.915l1.232.713V148.2l-1.232-.713zM102.707 146.603l1.235.715v-1.428l-1.235-.712zM100.709 145.45l1.235.714v-1.43l-1.235-.713zM92.71 140.83l1.235.715v-1.428l-1.235-.715zM90.71 139.676l1.234.712v-1.427l-1.235-.713zM88.708 138.52l1.238.715v-1.428l-1.238-.715zM86.71 137.363l1.235.716v-1.428l-1.235-.715zM84.71 136.21l1.237.715v-1.43l-1.238-.713zM82.71 135.054l1.236.715v-1.428l-1.235-.715zM80.713 133.9l1.235.715v-1.427l-1.235-.716zM110.708 80.515l1.235.712V79.8l-1.235-.713zM108.707 79.358l1.235.716v-1.428l-1.235-.715zM106.709 78.205l1.232.712V77.49l-1.232-.713zM98.71 73.583l1.236.715V72.87l-1.236-.712zM96.71 72.43l1.235.714v-1.427L96.709 71zM92.71 70.122l1.235.713v-1.428l-1.235-.715zM90.71 68.966l1.234.712v-1.427l-1.235-.716zM86.71 66.653l1.235.715v-1.427l-1.235-.713zM84.71 65.5l1.237.712v-1.425l-1.238-.715zM82.71 64.346l1.236.713V63.63l-1.235-.712zM104.708 79.31l1.238.713v-1.428l-1.238-.715zM102.707 78.154l1.235.713v-1.428l-1.235-.713zM100.709 76.998l1.235.715v-1.428l-1.235-.715zM96.71 74.688l1.235.715v-1.427l-1.236-.716zM94.708 73.535l1.238.712v-1.428l-1.238-.712zM92.71 72.378l1.235.715v-1.427l-1.235-.716zM84.71 67.759l1.237.715v-1.428l-1.238-.715zM82.71 66.605l1.236.713V65.89l-1.235-.713zM80.713 65.452l1.235.712v-1.428l-1.235-.715zM106.709 82.723l1.232.712V82.01l-1.232-.715zM104.708 81.566l1.238.716v-1.428l-1.238-.715zM102.707 80.413l1.235.712v-1.424l-1.235-.716zM100.709 79.257l1.235.715v-1.428l-1.235-.715zM92.71 74.637l1.235.715v-1.427l-1.235-.713zM90.71 73.484l1.234.715v-1.43l-1.235-.713zM86.71 71.174l1.235.712v-1.425l-1.235-.715zM84.71 70.018l1.237.715v-1.428l-1.238-.712zM110.708 97.08l1.235.714v-1.43l-1.235-.713zM108.707 95.923l1.235.715V95.21l-1.235-.712zM106.709 94.77l1.232.715v-1.428l-1.232-.715zM104.708 93.616l1.238.712v-1.427l-1.238-.713zM102.707 92.462l1.235.71v-1.425l-1.235-.715zM100.709 91.303l1.235.716V90.59l-1.235-.713zM94.708 87.84l1.238.712v-1.424l-1.238-.716zM90.71 85.53l1.234.715v-1.427l-1.235-.716zM86.71 83.22l1.235.713v-1.425l-1.235-.715zM84.71 82.067l1.237.712v-1.427l-1.238-.713zM80.713 79.757l1.235.713v-1.428l-1.235-.713zM104.708 95.875l1.238.712V95.16l-1.238-.712zM102.707 94.718l1.235.716v-1.43l-1.235-.713zM100.709 93.565l1.235.712V92.85l-1.235-.713zM98.71 92.409l1.233.715.003-1.428-1.236-.715zM96.71 91.255l1.235.713V90.54l-1.236-.713zM94.708 90.102l1.238.712v-1.428l-1.238-.715zM92.71 88.945l1.235.713V88.23l-1.235-.712zM88.708 86.636l1.238.712v-1.425l-1.238-.715zM84.71 84.326l1.237.715v-1.43l-1.238-.713zM82.71 83.17l1.236.715v-1.428l-1.235-.715zM80.713 82.016l1.235.712v-1.427l-1.235-.713zM110.708 101.597l1.235.715v-1.428l-1.235-.715zM108.707 100.443l1.235.716v-1.43l-1.235-.713zM100.709 95.824l1.235.712v-1.425l-1.235-.718zM98.708 94.668l1.235.715v-1.43l-1.233-.71zM94.708 92.36l1.238.713v-1.428l-1.238-.715zM92.71 91.204l1.235.713v-1.428l-1.235-.712zM88.708 88.894l1.238.713v-1.428l-1.238-.712zM86.71 87.738l1.235.715v-1.427l-1.235-.713zM108.707 112.49l1.235.715v-1.427l-1.235-.716zM106.709 111.334l1.232.715v-1.428l-1.232-.712zM104.708 110.18l1.238.715v-1.427l-1.238-.716zM102.707 109.027l1.235.712v-1.428l-1.235-.715zM94.708 104.407l1.238.713v-1.428l-1.238-.713zM88.708 100.941l1.238.712v-1.424l-1.238-.716zM86.71 99.788l1.235.712v-1.428l-1.235-.712zM82.71 97.478l1.236.712v-1.428l-1.235-.715zM80.713 96.321l1.235.716v-1.428l-1.235-.715zM110.708 115.905l1.235.713v-1.428l-1.235-.712zM108.707 114.749l1.235.715v-1.428l-1.235-.715zM102.707 111.286l1.235.712v-1.428l-1.235-.712zM100.709 110.13l1.235.715v-1.43l-1.235-.713zM96.71 107.82l1.235.715v-1.428l-1.236-.715zM94.708 106.666l1.238.712v-1.427l-1.238-.713zM92.71 105.51l1.235.715v-1.43l-1.235-.713zM90.71 104.356l1.234.713v-1.428l-1.235-.712zM84.71 100.89l1.237.715v-1.427l-1.238-.716zM106.709 115.854l1.232.713v-1.428l-1.232-.712zM104.708 114.698l1.238.715v-1.427l-1.238-.716zM102.707 113.545l1.235.715v-1.43l-1.235-.713zM98.708 111.235l1.235.712v-1.425l-1.233-.715zM96.71 110.081l1.235.713v-1.428l-1.236-.715zM94.708 108.925l1.238.712v-1.424l-1.238-.716zM88.708 105.459l1.238.715v-1.428l-1.238-.712zM86.71 104.305l1.235.713v-1.428l-1.235-.712zM84.71 103.15l1.237.714v-1.427l-1.238-.716zM80.713 100.84l1.235.715v-1.431l-1.235-.712zM110.708 130.21l1.235.716v-1.428l-1.235-.715zM108.707 129.054l1.235.716v-1.428l-1.235-.713zM106.709 127.9l1.232.716v-1.428l-1.232-.715zM100.709 124.435l1.235.715v-1.428l-1.235-.712zM96.71 122.128l1.235.712v-1.427l-1.236-.713zM94.708 120.971l1.238.716v-1.428l-1.238-.715zM92.71 119.815l1.235.715v-1.427l-1.235-.716zM86.71 116.352l1.235.712v-1.427l-1.235-.713zM82.71 114.042l1.236.715v-1.427l-1.235-.716zM110.708 132.47l1.235.715v-1.428l-1.235-.715zM108.707 131.316l1.235.713V130.6l-1.235-.713zM106.709 130.16l1.232.715v-1.43l-1.232-.713zM102.707 127.85l1.235.715v-1.427l-1.235-.716zM100.709 126.694l1.235.715v-1.428l-1.235-.715zM98.71 125.54l1.233.713.003-1.425-1.236-.716zM96.71 124.387l1.235.712v-1.428l-1.236-.712zM90.71 120.92l1.234.716v-1.428l-1.235-.715zM88.708 119.767l1.238.713v-1.428l-1.238-.713zM84.71 117.457l1.237.713v-1.428l-1.238-.715zM82.71 116.301l1.236.715v-1.427l-1.235-.716zM80.713 115.148l1.235.712v-1.428l-1.235-.712zM108.707 133.575l1.235.712v-1.427l-1.235-.713zM106.709 132.419l1.232.715v-1.428l-1.232-.715zM104.708 131.262l1.238.716v-1.428l-1.238-.713zM102.707 130.109l1.235.715v-1.428l-1.235-.715zM96.71 126.646l1.235.712v-1.428l-1.236-.712zM94.708 125.49l1.238.715v-1.428l-1.238-.715zM90.71 123.18l1.234.715v-1.428l-1.235-.715zM88.708 122.026l1.238.715v-1.43l-1.238-.713zM86.71 120.87l1.235.715v-1.428l-1.235-.712zM84.71 119.716l1.237.716V119l-1.238-.715z"/>
        <path fill="url(#h)" d="M112.678 177.405l45.062 26.026V81.09l-45.062-26.027z" transform="matrix(-1 0 0 1 327 0)"/>
        <path fill="url(#i)" d="M157.74 81.089V203.43l45.065-26.026V55.062z" transform="matrix(-1 0 0 1 327 0)"/>
        <path fill="url(#j)" d="M202.805 55.062L157.74 81.089l-45.062-26.027 45.062-26.03z" transform="matrix(-1 0 0 1 327 0)"/>
        <path fill="url(#k)" d="M157.74 38.62l-16.503-.055-28.56 16.497 25.248 14.58 19.815.458 27.254-15.74z" opacity=".4" style="mix-blend-mode:multiply" transform="matrix(-1 0 0 1 327 0)"/>
        <path fill="#4CEAF5" d="M139.222 53.903L169.26 71.25l30.035-17.347-30.035-17.345z" opacity=".5"/>
        <path fill="#4CEAF5" d="M140.867 53.903L169.26 70.3l28.39-16.397-28.39-16.398z"/>
        <path fill="#4CEAF5" d="M137.204 53.903l32.056 18.512 32.053-18.512L169.26 35.39z" opacity=".3"/>
        <path fill="#D4FFFF" d="M142.45 53.903l26.81 15.484 26.807-15.484L169.26 38.42z"/>
        <path fill="url(#l)" d="M157.74 65.237v3.206L130.49 52.7v-3.203z" transform="matrix(-1 0 0 1 327 0)"/>
        <path fill="url(#m)" d="M184.994 49.498L157.74 65.237l-27.25-15.739 27.25-15.739z" transform="matrix(-1 0 0 1 327 0)"/>
        <path fill="url(#n)" d="M184.994 49.498L157.74 65.237v3.206L184.994 52.7z" transform="matrix(-1 0 0 1 327 0)"/>
        <path fill="#0A208F" d="M179.65 185.19l26.185-15.122v-1.476l-26.186 15.123zM179.65 181.739l26.185-15.126v-1.473l-26.186 15.123zM179.65 178.284l26.185-15.123v-1.473l-26.186 15.123zM179.65 174.832l26.185-15.123v-1.473l-26.186 15.12zM179.65 171.38l26.185-15.123v-1.473l-26.186 15.12zM179.65 167.928l26.185-15.123v-1.473l-26.186 15.12zM179.65 164.476l26.185-15.123v-1.475L179.649 163zM179.65 161.024l26.185-15.123v-1.475l-26.186 15.122zM179.65 157.572l26.185-15.123v-1.475l-26.186 15.122zM179.65 154.117l26.185-15.122v-1.473l-26.186 15.12zM179.65 150.665l26.185-15.122v-1.476l-26.186 15.125zM179.65 147.213l26.185-15.12v-1.478l-26.186 15.125zM165.594 83.382l-38.412-22.185v109.199l38.412 22.185z"/>
        <path fill="#48D8F5" d="M154.77 89.516l1.238.713v-1.425l-1.238-.715zM152.771 88.363l1.236.712v-1.427l-1.236-.713zM150.773 87.21l1.235.712v-1.428l-1.235-.712zM148.772 86.053l1.238.715v-1.43l-1.238-.713zM142.775 82.587l1.235.715v-1.427l-1.235-.716zM140.774 81.434l1.235.712v-1.428l-1.235-.712zM138.773 80.277l1.235.716v-1.428l-1.235-.715zM132.773 76.814l1.238.712-.003-1.424-1.235-.716zM130.775 75.66l1.235.713v-1.428l-1.235-.715zM160.77 95.241l1.238.716v-1.428l-1.238-.715zM158.769 94.085l1.238.715v-1.427l-1.238-.716zM156.77 92.932l1.236.715v-1.43l-1.235-.713zM154.77 91.778l1.238.713v-1.428l-1.238-.715zM148.772 88.312l1.235.715.003-1.427-1.238-.716zM146.771 87.156l1.235.715v-1.428l-1.235-.712zM142.775 84.849l1.235.712v-1.427l-1.235-.716zM140.774 83.693l1.235.715v-1.43l-1.235-.713zM136.772 81.383l1.235.712v-1.428l-1.235-.712zM134.774 80.226l1.235.716v-1.428l-1.235-.715zM156.77 95.19l1.236.713v-1.425l-1.235-.715zM152.771 92.88l1.236.716v-1.428l-1.236-.715zM150.773 91.727l1.235.713v-1.428l-1.235-.715zM142.775 87.108l1.235.712v-1.428l-1.235-.712zM140.774 85.951l1.235.716v-1.428l-1.235-.715zM138.773 84.798l1.235.712v-1.427l-1.235-.713zM136.772 83.642l1.235.715v-1.43l-1.235-.713zM134.774 82.485l1.235.716v-1.428l-1.235-.713zM132.773 81.332l1.238.712-.003-1.425-1.235-.715zM130.775 80.178l1.235.713v-1.428l-1.235-.712zM154.77 172.276l1.238.712v-1.427l-1.238-.716zM152.771 171.12l1.236.712v-1.428l-1.236-.712zM150.773 169.966l1.235.713v-1.428l-1.235-.715zM148.772 168.81l1.238.715v-1.428l-1.238-.715zM142.775 165.347l1.235.712v-1.428l-1.235-.715zM140.774 164.188l1.235.715v-1.425l-1.235-.715zM138.773 163.034l1.235.715v-1.427l-1.235-.713zM132.773 159.57l1.238.713-.003-1.428-1.235-.712zM130.775 158.417l1.235.713v-1.428l-1.235-.715zM160.77 177.998l1.238.715v-1.427l-1.238-.716zM158.769 176.845l1.238.712v-1.425l-1.238-.715zM156.77 175.688l1.236.716v-1.428l-1.235-.715zM154.77 174.535l1.238.712v-1.427l-1.238-.713zM148.772 171.069l1.235.715.003-1.428-1.238-.715zM146.771 169.915l1.235.713V169.2l-1.235-.712zM142.775 167.603l1.235.715v-1.428l-1.235-.715zM140.774 166.45l1.235.712v-1.425l-1.235-.715zM136.772 164.14l1.235.715v-1.43l-1.235-.713zM134.774 162.986l1.235.712v-1.427l-1.235-.713zM156.77 177.947l1.236.713v-1.425l-1.235-.715zM152.771 175.638l1.236.715v-1.43l-1.236-.713zM150.773 174.484l1.235.712v-1.427l-1.235-.713zM142.775 169.864l1.235.713v-1.428l-1.235-.715zM140.774 168.708l1.235.715v-1.427l-1.235-.716zM138.773 167.555l1.235.712v-1.428l-1.235-.712zM136.772 166.398l1.235.716v-1.428l-1.235-.715zM134.774 165.245l1.235.712v-1.427l-1.235-.713zM132.773 164.089l1.238.712-.003-1.425-1.235-.715zM130.775 162.935l1.235.713v-1.428l-1.235-.713zM160.77 109.547l1.238.715v-1.428l-1.238-.712zM158.769 108.393l1.238.713v-1.425l-1.238-.715zM156.77 107.237l1.236.715v-1.427l-1.235-.716zM148.772 102.618l1.238.715v-1.428l-1.238-.712zM146.771 101.464l1.235.713v-1.428l-1.235-.713zM142.775 99.154l1.235.713v-1.428l-1.235-.712zM140.774 97.998l1.235.715v-1.427l-1.235-.716zM136.772 95.688l1.235.715v-1.427l-1.235-.716zM134.774 94.535l1.235.712V93.82l-1.235-.712zM132.773 93.381l1.238.713-.003-1.428-1.235-.715zM154.77 108.343l1.238.715v-1.43l-1.238-.713zM152.771 107.186l1.236.716v-1.428l-1.236-.715zM150.773 106.033l1.235.712v-1.428l-1.235-.712zM146.771 103.723l1.235.715v-1.43l-1.235-.713zM144.773 102.567l1.235.715v-1.428l-1.235-.712zM142.775 101.413l1.235.713v-1.428l-1.235-.713zM134.774 96.794l1.235.715V96.08l-1.235-.715zM132.773 95.637l1.235.716.003-1.428-1.238-.715zM130.775 94.484l1.235.715v-1.428l-1.235-.715zM156.77 111.755l1.236.715v-1.428l-1.235-.712zM154.77 110.601l1.238.716v-1.428l-1.238-.715zM152.771 109.448l1.236.712v-1.427l-1.236-.716zM150.773 108.292l1.235.712v-1.428l-1.235-.712zM142.775 103.672l1.235.715v-1.427l-1.235-.716zM140.774 102.519l1.235.712v-1.428l-1.235-.715zM136.772 100.206l1.235.715v-1.427l-1.235-.716zM134.774 99.052l1.235.716V98.34l-1.235-.715zM160.77 126.114l1.238.713v-1.428l-1.238-.713zM158.769 124.958l1.238.715v-1.428l-1.238-.715zM156.77 123.804l1.236.716v-1.428l-1.235-.715zM154.77 122.65l1.238.713v-1.427l-1.238-.713zM152.771 121.495l1.236.712v-1.428l-1.236-.712zM150.773 120.338l1.235.715v-1.427l-1.235-.716zM144.773 116.875l1.235.712v-1.427l-1.235-.713zM140.774 114.565l1.235.713v-1.428l-1.235-.713zM136.772 112.255l1.235.713v-1.428l-1.235-.712zM134.774 111.099l1.235.715v-1.427l-1.235-.713zM130.775 108.79l1.235.715v-1.428l-1.235-.715zM154.77 124.907l1.238.715v-1.428l-1.238-.715zM152.771 123.753l1.236.713v-1.428l-1.236-.712zM150.773 122.597l1.235.715v-1.427l-1.235-.713zM148.772 121.444l1.235.712.003-1.425-1.238-.715zM146.771 120.29l1.235.713v-1.428l-1.235-.713zM144.773 119.134l1.235.715v-1.43l-1.235-.713zM142.775 117.98l1.235.713v-1.428l-1.235-.712zM138.773 115.668l1.235.715v-1.428l-1.235-.712zM134.774 113.358l1.235.715v-1.428l-1.235-.715zM132.773 112.204l1.235.716.003-1.428-1.238-.715zM130.775 111.048l1.235.713v-1.425l-1.235-.713zM160.77 130.632l1.238.712v-1.427l-1.238-.713zM158.769 129.476l1.238.715v-1.428l-1.238-.712zM150.773 124.856l1.235.715v-1.427l-1.235-.716zM148.77 123.703l1.237.712v-1.428l-1.235-.712zM144.773 121.393l1.235.712v-1.425l-1.235-.715zM142.775 120.24l1.235.712v-1.428l-1.235-.715zM138.773 117.927l1.235.715v-1.428l-1.235-.715zM136.772 116.773l1.235.715v-1.43l-1.235-.713zM158.769 141.522l1.238.715v-1.427l-1.238-.713zM156.77 140.369l1.236.715v-1.428l-1.235-.715zM154.77 139.215l1.238.713V138.5l-1.238-.713zM152.771 138.059l1.236.712v-1.425l-1.236-.715zM144.773 133.44l1.235.715v-1.428l-1.235-.715zM138.773 129.976l1.235.712v-1.427l-1.235-.716zM136.772 128.82l1.235.715v-1.428l-1.235-.715zM132.773 126.51l1.238.715-.003-1.428-1.235-.715zM130.775 125.356l1.235.713v-1.428l-1.235-.715zM160.77 144.937l1.238.716v-1.428l-1.238-.715zM158.769 143.784l1.238.712v-1.425l-1.238-.718zM152.771 140.318l1.236.715v-1.428l-1.236-.715zM150.773 139.164l1.235.713v-1.428l-1.235-.712zM146.771 136.854l1.235.713v-1.425l-1.235-.715zM144.773 135.701l1.235.712v-1.427l-1.235-.713zM142.775 134.542l1.235.715v-1.428l-1.235-.712zM140.774 133.388l1.235.716v-1.428l-1.235-.712zM134.774 129.925l1.235.713v-1.428l-1.235-.713zM156.77 144.886l1.236.716v-1.428l-1.235-.715zM154.77 143.733l1.238.715v-1.43l-1.238-.713zM152.771 142.577l1.236.715v-1.428l-1.236-.715zM148.77 140.267l1.237.715v-1.428l-1.235-.715zM146.771 139.113l1.235.713V138.4l-1.235-.715zM144.773 137.96l1.235.712v-1.427l-1.235-.716zM138.773 134.494l1.235.715v-1.43l-1.235-.713zM136.772 133.338l1.235.715v-1.428l-1.235-.712zM134.774 132.184l1.235.712v-1.424l-1.235-.716zM130.775 129.874l1.235.713v-1.428l-1.235-.712zM160.77 159.243l1.238.715v-1.428l-1.238-.712zM158.769 158.09l1.238.715v-1.428l-1.238-.715zM156.77 156.936l1.236.712v-1.427l-1.235-.713zM150.773 153.47l1.235.712v-1.425l-1.235-.715zM146.771 151.16l1.235.715v-1.43l-1.235-.713zM144.773 150.006l1.235.713v-1.428l-1.235-.715zM142.775 148.85l1.235.713v-1.425l-1.235-.716zM136.772 145.387l1.235.712v-1.427l-1.235-.713zM132.773 143.074l1.238.716-.003-1.428-1.235-.715zM160.77 161.502l1.238.715v-1.428l-1.238-.712zM158.769 160.348l1.238.715v-1.427l-1.238-.715zM156.77 159.195l1.236.712v-1.428l-1.235-.712zM152.771 156.885l1.236.712v-1.427l-1.236-.713zM150.773 155.729l1.235.715v-1.428l-1.235-.715zM148.772 154.575l1.235.713.003-1.425-1.238-.716zM146.771 153.419l1.235.715v-1.428l-1.235-.712zM140.774 149.956l1.235.712v-1.428l-1.235-.712zM138.773 148.8l1.235.715v-1.428l-1.235-.715zM134.774 146.49l1.235.715v-1.428l-1.235-.715zM132.773 145.336l1.235.712.003-1.427-1.238-.713zM130.775 144.183l1.235.712v-1.428l-1.235-.715zM158.769 162.607l1.238.715v-1.43l-1.238-.713zM156.77 161.454l1.236.712v-1.428l-1.235-.712zM154.77 160.297l1.238.716v-1.428l-1.238-.715zM152.771 159.144l1.236.712v-1.427l-1.236-.713zM146.771 155.68l1.235.713v-1.428l-1.235-.715zM144.773 154.524l1.235.713v-1.428l-1.235-.712zM140.774 152.214l1.235.713v-1.428l-1.235-.712zM138.773 151.058l1.235.715v-1.427l-1.235-.713zM136.772 149.905l1.235.712v-1.425l-1.235-.715zM134.774 148.748l1.235.716v-1.428l-1.235-.715z"/>
        <path fill="url(#o)" d="M62.198 206.578l45.068 26.027V110.259L62.198 84.233z" transform="matrix(-1 0 0 1 327 0)"/>
        <path fill="url(#p)" d="M107.266 110.26v122.345l45.062-26.027V84.233z" transform="matrix(-1 0 0 1 327 0)"/>
        <path fill="url(#q)" d="M152.328 84.233l-45.062 26.026-45.068-26.026 45.068-26.027z" transform="matrix(-1 0 0 1 327 0)"/>
        <path fill="url(#d)" d="M107.266 67.793l-16.509-.054-28.56 16.494 25.248 14.582 19.82.455 27.249-15.739z" opacity=".4" style="mix-blend-mode:multiply" transform="matrix(-1 0 0 1 327 0)"/>
        <path fill="#4CEAF5" d="M189.7 83.076l30.034 17.345 30.04-17.345-30.04-17.347z" opacity=".5"/>
        <path fill="#4CEAF5" d="M191.347 83.076l28.387 16.395 28.396-16.395-28.396-16.397z"/>
        <path fill="#4CEAF5" d="M187.684 83.076l32.05 18.51 32.056-18.51-32.056-18.512z" opacity=".3"/>
        <path fill="#D4FFFF" d="M192.93 83.076l26.804 15.482 26.813-15.482-26.813-15.484z"/>
        <path fill="url(#r)" d="M107.266 94.407v3.206L80.012 81.875v-3.206z" transform="matrix(-1 0 0 1 327 0)"/>
        <path fill="url(#s)" d="M134.514 78.669l-27.248 15.738L80.012 78.67l27.254-15.74z" transform="matrix(-1 0 0 1 327 0)"/>
        <path fill="url(#t)" d="M134.514 78.669l-27.248 15.738v3.206l27.248-15.738z" transform="matrix(-1 0 0 1 327 0)"/>
        <path fill="#0A208F" d="M230.127 214.361l26.188-15.122v-1.476l-26.188 15.122zM230.127 210.91l26.188-15.123v-1.476l-26.188 15.122zM230.127 207.454l26.188-15.12v-1.475l-26.188 15.122zM230.127 204.002l26.188-15.122v-1.473l-26.188 15.123zM230.127 200.55l26.188-15.12v-1.475l-26.188 15.12zM230.127 197.099l26.188-15.123v-1.473l-26.188 15.123zM230.127 193.647l26.188-15.123v-1.473l-26.188 15.12zM230.127 190.195l26.188-15.123v-1.476l-26.188 15.123zM230.127 186.743l26.188-15.123v-1.476l-26.188 15.123zM230.127 183.288l26.188-15.12v-1.476l-26.188 15.123zM230.127 179.836l26.188-15.12v-1.476l-26.188 15.123zM230.127 176.387l26.188-15.123v-1.476l-26.188 15.123zM216.074 112.555l-38.412-22.188v109.2l38.412 22.184z"/>
        <path fill="#48D8F5" d="M205.25 118.687l1.238.715v-1.427l-1.238-.716zM203.249 117.534l1.238.715v-1.428l-1.238-.715zM201.253 116.38l1.233.713v-1.428l-1.233-.713zM199.252 115.224l1.235.715v-1.428l-1.235-.715zM193.252 111.758l1.238.715v-1.428l-1.238-.712zM191.251 110.604l1.238.716v-1.428l-1.238-.715zM189.253 109.45l1.235.713v-1.427l-1.235-.716zM183.253 105.985l1.235.715v-1.428l-1.235-.715zM181.255 104.831l1.235.713v-1.428l-1.235-.715zM211.247 124.412l1.238.715V123.7l-1.238-.716zM209.249 123.259l1.238.712v-1.428l-1.238-.712zM207.25 122.102l1.236.716v-1.428l-1.235-.715zM205.25 120.949l1.238.712v-1.427l-1.238-.713zM199.252 117.483l1.235.715v-1.43l-1.235-.713zM197.251 116.33l1.235.712v-1.428l-1.235-.712zM193.252 114.02l1.238.712v-1.428l-1.238-.715zM191.251 112.863l1.238.715v-1.427l-1.238-.713zM187.252 110.553l1.238.713v-1.428l-1.238-.712zM185.251 109.4l1.238.715v-1.43l-1.238-.713zM207.25 124.361l1.236.716v-1.428l-1.235-.715zM203.249 122.051l1.238.716v-1.428l-1.238-.715zM201.253 120.898l1.233.712v-1.427l-1.233-.713zM193.252 116.278l1.238.716v-1.43l-1.238-.713zM191.251 115.122l1.238.715v-1.427l-1.238-.716zM189.253 113.969l1.235.712v-1.428l-1.235-.712zM187.252 112.812l1.238.716V112.1l-1.238-.715zM185.251 111.659l1.238.712v-1.427l-1.238-.713zM183.253 110.505l1.235.713v-1.428l-1.235-.715zM181.255 109.349l1.235.715v-1.43l-1.235-.713zM205.25 201.447l1.238.712v-1.428l-1.238-.715zM203.249 200.29l1.238.716v-1.428l-1.238-.715zM201.253 199.137l1.233.712v-1.427l-1.233-.713zM199.252 197.98l1.235.716v-1.428l-1.235-.715zM193.252 194.517l1.238.713v-1.428l-1.238-.712zM191.251 193.361l1.238.715v-1.43l-1.238-.713zM189.253 192.208l1.235.712v-1.425l-1.235-.715zM183.253 188.741l1.235.716v-1.428l-1.235-.715zM181.255 187.588l1.235.712v-1.427l-1.235-.713zM211.247 207.169l1.238.715v-1.428l-1.238-.712zM209.249 206.015l1.238.716v-1.43l-1.238-.713zM207.25 204.86l1.236.714v-1.427l-1.235-.716zM205.25 203.706l1.238.712v-1.428l-1.238-.712zM199.252 200.24l1.235.715v-1.428l-1.235-.715zM197.251 199.086l1.235.712v-1.427l-1.235-.713zM193.252 196.776l1.238.715v-1.43l-1.238-.712zM191.251 195.62l1.238.715v-1.428l-1.238-.715zM187.252 193.31l1.238.715v-1.427l-1.238-.716zM185.251 192.157l1.238.712v-1.428l-1.238-.712zM207.25 207.118l1.236.715v-1.427l-1.235-.716zM203.249 204.808l1.238.715v-1.427l-1.238-.716zM201.253 203.655l1.233.712v-1.428l-1.233-.712zM193.252 199.035l1.238.713v-1.428l-1.238-.713zM191.251 197.882l1.238.712v-1.428l-1.238-.715zM189.253 196.725l1.235.713v-1.425l-1.235-.715zM187.252 195.569l1.238.715v-1.427l-1.238-.713zM185.251 194.416l1.238.712V193.7l-1.238-.712zM183.253 193.262l1.235.713v-1.428l-1.235-.715zM181.255 192.106l1.235.715v-1.43l-1.235-.713zM211.247 138.72l1.238.713v-1.428l-1.238-.712zM209.249 137.564l1.238.715v-1.43l-1.238-.713zM207.25 136.41l1.236.713v-1.428l-1.235-.715zM199.252 131.788l1.235.715v-1.427l-1.235-.713zM197.251 130.635l1.235.712v-1.428l-1.235-.712zM193.252 128.325l1.238.715v-1.427l-1.238-.716zM191.251 127.171l1.238.713v-1.428l-1.238-.715zM187.252 124.859l1.238.715v-1.428l-1.238-.712zM185.251 123.705l1.238.713v-1.425l-1.238-.715zM183.253 122.552l1.235.712v-1.427l-1.235-.713zM205.25 137.513l1.238.715v-1.43l-1.238-.712zM203.249 136.357l1.238.715v-1.428l-1.238-.712zM201.253 135.203l1.233.716v-1.43l-1.233-.713zM197.251 132.894l1.235.715v-1.428l-1.235-.715zM195.25 131.74l1.238.713v-1.428l-1.238-.713zM193.252 130.584l1.238.715v-1.428l-1.238-.715zM185.251 125.964l1.238.716v-1.428l-1.238-.715zM183.253 124.81l1.235.713v-1.427l-1.235-.713zM181.255 123.657l1.235.71v-1.425l-1.235-.715zM207.25 140.926l1.236.715v-1.425l-1.235-.715zM205.25 139.772l1.238.715v-1.427l-1.238-.716zM203.249 138.619l1.238.712v-1.428l-1.238-.712zM201.253 137.462l1.233.716v-1.428l-1.233-.715zM193.252 132.843l1.238.715v-1.428l-1.238-.715zM191.251 131.69l1.238.712v-1.428l-1.238-.712zM187.252 129.38l1.238.712v-1.428l-1.238-.712zM185.251 128.223l1.238.715v-1.427l-1.238-.716zM211.247 155.285l1.238.715v-1.43l-1.238-.713zM209.249 154.128l1.238.716v-1.428l-1.238-.712zM207.25 152.975l1.236.715v-1.427l-1.235-.716zM205.25 151.822l1.238.712v-1.428l-1.238-.712zM203.249 150.665l1.238.713v-1.425l-1.238-.716zM201.253 149.509l1.233.715v-1.428l-1.233-.715zM195.25 146.046l1.238.715v-1.428l-1.238-.715zM191.251 143.736l1.238.715v-1.43l-1.238-.713zM187.252 141.426l1.238.712v-1.424l-1.238-.716zM185.251 140.27l1.238.715v-1.428l-1.238-.712zM181.255 137.963l1.235.712v-1.428l-1.235-.712zM205.25 154.08l1.238.713v-1.428l-1.238-.712zM203.249 152.924l1.238.715v-1.43l-1.238-.713zM201.253 151.77l1.233.713v-1.428l-1.233-.712zM199.252 150.614l1.235.716v-1.428l-1.235-.715zM197.251 149.46l1.235.713v-1.427l-1.235-.713zM195.25 148.305l1.238.715v-1.428l-1.238-.715zM193.252 147.151l1.238.712v-1.427l-1.238-.713zM189.253 144.841l1.235.713v-1.425l-1.235-.715zM185.251 142.529l1.238.715v-1.428l-1.238-.712zM183.253 141.375l1.235.715v-1.427l-1.235-.716zM181.255 140.222l1.235.712v-1.428l-1.235-.712zM211.247 159.803l1.238.715v-1.428l-1.238-.715zM209.249 158.646l1.238.716v-1.428l-1.238-.713zM201.253 154.03l1.233.712v-1.428l-1.233-.715zM199.25 152.873l1.237.715v-1.43l-1.235-.713zM195.25 150.563l1.238.716v-1.428l-1.238-.715zM193.252 149.41l1.238.712v-1.427l-1.238-.716zM189.253 147.1l1.235.713v-1.428l-1.235-.713zM187.252 145.944l1.238.715v-1.428l-1.238-.715zM209.249 170.696l1.238.715v-1.43l-1.238-.713zM207.25 169.54l1.236.715v-1.428l-1.235-.715zM205.25 168.386l1.238.712v-1.425l-1.238-.715zM203.249 167.232l1.238.71v-1.425l-1.238-.715zM195.25 162.61l1.238.715v-1.427l-1.238-.716zM189.253 159.147l1.235.712v-1.425l-1.235-.715zM187.252 157.993l1.238.713v-1.428l-1.238-.715zM183.253 155.683l1.235.713v-1.43l-1.235-.713zM181.255 154.527l1.235.713v-1.428l-1.235-.713zM211.247 174.11l1.238.713v-1.427l-1.238-.713zM209.249 172.955l1.238.712v-1.425l-1.238-.715zM203.249 169.491l1.238.713v-1.428l-1.238-.712zM201.253 168.335l1.233.715v-1.427l-1.233-.716zM197.251 166.025l1.235.713v-1.425l-1.235-.716zM195.25 164.869l1.238.715v-1.428l-1.238-.712zM193.252 163.715l1.238.713V163l-1.238-.712zM191.251 162.562l1.238.712v-1.427l-1.238-.713zM185.251 159.096l1.238.715v-1.428l-1.238-.715zM207.25 174.057l1.236.715v-1.427l-1.235-.713zM205.25 172.904l1.238.715v-1.43l-1.238-.713zM203.249 171.75l1.238.713v-1.428l-1.238-.713zM199.25 169.44l1.237.713v-1.428l-1.235-.712zM197.251 168.284l1.235.713v-1.425l-1.235-.716zM195.25 167.13l1.238.713v-1.428l-1.238-.715zM189.253 163.664l1.235.716v-1.428l-1.235-.715zM187.252 162.508l1.238.715v-1.427l-1.238-.713zM185.251 161.355l1.238.712v-1.425l-1.238-.715zM181.255 159.045l1.235.715v-1.43l-1.235-.713zM211.247 188.416l1.238.716V187.7l-1.238-.712zM209.249 187.26l1.238.715v-1.427l-1.238-.716zM207.25 186.107l1.236.715v-1.428l-1.235-.715zM201.253 182.64l1.233.716v-1.428l-1.233-.712zM197.251 180.33l1.235.716v-1.428l-1.235-.715zM195.25 179.177l1.238.713v-1.425l-1.238-.716zM193.252 178.02l1.238.716v-1.428l-1.238-.715zM187.252 174.558l1.238.712v-1.428l-1.238-.712zM183.253 172.248l1.235.712v-1.425l-1.235-.715zM211.247 190.675l1.238.715v-1.43l-1.238-.713zM209.249 189.519l1.238.715v-1.428l-1.238-.712zM207.25 188.365l1.236.713v-1.425l-1.235-.715zM203.249 186.056l1.238.712v-1.428l-1.238-.712zM201.253 184.9l1.233.715v-1.428l-1.233-.713zM199.252 183.746l1.235.715v-1.428l-1.235-.715zM197.251 182.59l1.235.715v-1.428l-1.235-.715zM191.251 179.126l1.238.713v-1.428l-1.238-.712zM189.253 177.973l1.235.712v-1.428l-1.235-.712zM185.251 175.663l1.238.712v-1.427l-1.238-.716zM183.253 174.507l1.235.712v-1.425l-1.235-.715zM181.255 173.353l1.235.713v-1.428l-1.235-.713zM209.249 191.78l1.238.713v-1.428l-1.238-.715zM207.25 190.624l1.236.716v-1.431l-1.235-.712zM205.25 189.468l1.238.715v-1.427l-1.238-.716zM203.249 188.315l1.238.712v-1.425l-1.238-.715zM197.251 184.851l1.235.713v-1.428l-1.235-.712zM195.25 183.695l1.238.712v-1.427l-1.238-.713zM191.251 181.385l1.238.715v-1.427l-1.238-.716zM189.253 180.232l1.235.712v-1.428l-1.235-.712zM187.252 179.075l1.238.716v-1.428l-1.238-.715zM185.251 177.922l1.238.712v-1.427l-1.238-.716z"/>
        <path fill="url(#u)" d="M12.21 235.466l45.067 26.027V139.147L12.21 113.12z" transform="matrix(-1 0 0 1 327 0)"/>
        <path fill="url(#v)" d="M57.277 139.147v122.346l45.062-26.027V113.12z" transform="matrix(-1 0 0 1 327 0)"/>
        <path fill="url(#c)" d="M102.34 113.12l-45.063 26.027L12.21 113.12l45.067-26.026z" transform="matrix(-1 0 0 1 327 0)"/>
        <path fill="url(#d)" d="M57.277 96.68l-16.505-.053L12.21 113.12l25.25 14.583 19.817.455 27.248-15.739z" opacity=".4" style="mix-blend-mode:multiply" transform="matrix(-1 0 0 1 327 0)"/>
        <path fill="#4CEAF5" d="M239.688 111.964l30.035 17.345 30.037-17.345-30.037-17.347z" opacity=".5"/>
        <path fill="#4CEAF5" d="M241.333 111.964l28.39 16.395 28.392-16.395-28.392-16.397z"/>
        <path fill="#4CEAF5" d="M237.673 111.964l32.05 18.51 32.055-18.51-32.055-18.512z" opacity=".3"/>
        <path fill="#D4FFFF" d="M242.915 111.964l26.808 15.482 26.81-15.482-26.81-15.484z"/>
        <path fill="url(#w)" d="M57.277 123.295v3.206l-27.253-15.738v-3.206z" transform="matrix(-1 0 0 1 327 0)"/>
        <path fill="url(#f)" d="M84.525 107.557l-27.248 15.738-27.253-15.738 27.253-15.74z" transform="matrix(-1 0 0 1 327 0)"/>
        <path fill="url(#x)" d="M84.525 107.557l-27.248 15.738v3.206l27.248-15.738z" transform="matrix(-1 0 0 1 327 0)"/>
        <path fill="#0A208F" d="M280.112 243.25l26.188-15.123v-1.473l-26.188 15.122zM280.112 239.797l26.188-15.122v-1.476l-26.188 15.122zM280.112 236.345l26.188-15.122v-1.476l-26.188 15.122zM280.112 232.893l26.188-15.125v-1.473l-26.188 15.122zM280.112 229.438l26.188-15.12v-1.475l-26.188 15.122zM280.112 225.986l26.188-15.12v-1.475l-26.188 15.123zM280.112 222.535l26.188-15.123v-1.473l-26.188 15.12zM280.112 219.083L306.3 203.96v-1.476l-26.188 15.123zM280.112 215.63l26.188-15.122v-1.476l-26.188 15.123zM280.112 212.179l26.188-15.123v-1.476l-26.188 15.123zM280.112 208.724l26.188-15.12v-1.476l-26.188 15.123zM280.112 205.275l26.188-15.123v-1.476L280.112 203.8zM266.06 141.443l-38.41-22.188v109.202l38.41 22.185z"/>
        <path fill="#48D8F5" d="M255.232 147.578l1.241.712v-1.427l-1.24-.713zM253.237 146.422l1.235.715v-1.428l-1.235-.712zM251.239 145.268l1.235.713v-1.425l-1.235-.716zM249.238 144.112l1.238.715V143.4l-1.238-.712zM243.24 140.649l1.236.712v-1.428l-1.235-.712zM241.24 139.492l1.235.716v-1.428l-1.235-.715zM239.239 138.339l1.237.715v-1.428l-1.237-.715zM233.238 134.873l1.235.715v-1.428l-1.235-.715zM231.24 133.72l1.235.712v-1.428l-1.235-.713zM261.235 153.3l1.238.715v-1.427l-1.238-.713zM259.234 152.147l1.238.712v-1.425l-1.238-.715zM257.236 150.993l1.235.713v-1.428l-1.235-.715zM255.232 149.837l1.241.712v-1.427l-1.24-.713zM249.238 146.37l1.235.716.003-1.428-1.238-.715zM247.24 145.217l1.235.713v-1.428l-1.235-.712zM243.24 142.907l1.236.716v-1.43l-1.235-.713zM241.24 141.754l1.235.712v-1.427l-1.235-.713zM237.238 139.441l1.237.716v-1.428l-1.237-.713zM235.24 138.288l1.234.715v-1.43l-1.235-.713zM257.236 153.25l1.235.714v-1.427l-1.235-.715zM253.237 150.94l1.235.715v-1.428l-1.235-.715zM251.239 149.786l1.235.712v-1.427l-1.235-.713zM243.24 145.166l1.236.716v-1.43l-1.235-.713zM241.24 144.013l1.235.712v-1.427l-1.235-.716zM239.239 142.857l1.237.712v-1.428l-1.237-.712zM237.238 141.7l1.237.716v-1.428l-1.237-.715zM235.24 140.547l1.234.712v-1.425l-1.235-.715zM233.238 139.393l1.235.713v-1.428l-1.235-.712zM231.24 138.237l1.235.715v-1.43l-1.235-.713zM255.232 230.335l1.241.712v-1.425l-1.24-.715zM253.237 229.178l1.235.713v-1.425l-1.235-.715zM251.239 228.025l1.235.712v-1.427l-1.235-.713zM249.238 226.871l1.238.713v-1.428l-1.238-.712zM243.24 223.405l1.236.713v-1.425l-1.235-.715zM241.24 222.249l1.235.715v-1.427l-1.235-.713zM239.239 221.095l1.237.713v-1.425l-1.237-.715zM233.238 217.63l1.235.715v-1.428l-1.235-.713zM231.24 216.476l1.235.715v-1.43l-1.235-.713zM261.235 236.057l1.238.715v-1.428l-1.238-.715zM259.234 234.903l1.238.716v-1.428l-1.238-.715zM257.236 233.75l1.235.712v-1.427l-1.235-.713zM255.232 232.594l1.241.715v-1.43l-1.24-.713zM249.238 229.127l1.235.716.003-1.428-1.238-.715zM247.24 227.974l1.235.715v-1.427l-1.235-.716zM243.24 225.664l1.236.715v-1.43l-1.235-.713zM241.24 224.508l1.235.715v-1.428l-1.235-.715zM237.238 222.2l1.237.713v-1.427l-1.237-.716zM235.24 221.045l1.234.712v-1.425l-1.235-.715zM257.236 236.006l1.235.715v-1.428l-1.235-.712zM253.237 233.699l1.235.712v-1.427l-1.235-.713zM251.239 232.543l1.235.712v-1.428l-1.235-.712zM243.24 227.923l1.236.715v-1.427l-1.235-.716zM241.24 226.77l1.235.712v-1.428l-1.235-.715zM239.239 225.613l1.237.716V224.9l-1.237-.715zM237.238 224.457l1.237.715v-1.427l-1.237-.713zM235.24 223.304l1.234.712v-1.425l-1.235-.715zM233.238 222.15l1.235.712v-1.427l-1.235-.713zM231.24 220.994l1.235.715v-1.428l-1.235-.715zM261.235 167.608l1.238.716v-1.43l-1.238-.713zM259.234 166.452l1.238.715v-1.427l-1.238-.713zM257.236 165.299l1.235.712v-1.428l-1.235-.712zM249.238 160.679l1.238.712v-1.427l-1.238-.713zM247.24 159.523l1.235.712v-1.425l-1.235-.715zM243.24 157.216l1.236.712V156.5l-1.235-.715zM241.24 156.06l1.235.712v-1.428l-1.235-.712zM237.238 153.75l1.237.712v-1.428l-1.237-.712zM235.24 152.593l1.234.713v-1.425l-1.235-.715zM233.238 151.44l1.235.712v-1.427l-1.235-.713zM255.232 166.404l1.241.712v-1.427l-1.24-.713zM253.237 165.248l1.235.712v-1.428l-1.235-.712zM251.239 164.091l1.235.716v-1.43l-1.235-.713zM247.24 161.782l1.235.715v-1.428l-1.235-.715zM245.239 160.628l1.235.713v-1.428l-1.235-.713zM243.24 159.475l1.236.712v-1.428l-1.235-.715zM235.24 154.852l1.234.715v-1.427l-1.235-.715zM233.238 153.699l1.235.712v-1.425l-1.235-.715zM231.24 152.545l1.235.713v-1.428l-1.235-.715zM257.236 169.816l1.235.713v-1.425l-1.235-.715zM255.232 168.66l1.241.715v-1.427l-1.24-.716zM253.237 167.507l1.235.712v-1.425l-1.235-.715zM251.239 166.35l1.235.716v-1.428l-1.235-.713zM243.24 161.734l1.236.712v-1.428l-1.235-.712zM241.24 160.577l1.235.713v-1.425l-1.235-.715zM237.238 158.267l1.237.716v-1.428l-1.237-.715zM235.24 157.111l1.234.715V156.4l-1.235-.716zM261.235 184.173l1.238.715v-1.43l-1.238-.713zM259.234 183.016l1.238.716v-1.428l-1.238-.712zM257.236 181.863l1.235.715v-1.428l-1.235-.715zM255.232 180.71l1.241.712v-1.428l-1.24-.712zM253.237 179.553l1.235.715v-1.427l-1.235-.716zM251.239 178.397l1.235.715v-1.428l-1.235-.712zM245.239 174.934l1.235.715v-1.428l-1.235-.715zM241.24 172.627l1.235.712v-1.428l-1.235-.715zM237.238 170.314l1.237.712v-1.424l-1.237-.716zM235.24 169.16l1.234.713v-1.428l-1.235-.712zM231.24 166.85l1.235.713v-1.428l-1.235-.712zM255.232 182.968l1.241.716v-1.43l-1.24-.713zM253.237 181.812l1.235.715V181.1l-1.235-.713zM251.239 180.659l1.235.712v-1.428l-1.235-.712zM249.238 179.502l1.235.716.003-1.428-1.238-.715zM247.24 178.349l1.235.712v-1.425l-1.235-.715zM245.239 177.192l1.235.716v-1.428l-1.235-.715zM243.24 176.039l1.236.715v-1.43l-1.235-.713zM239.239 173.73l1.237.712v-1.425l-1.237-.716zM235.24 171.42l1.234.715v-1.43l-1.235-.713zM233.238 170.263l1.235.715v-1.427l-1.235-.716zM231.24 169.11l1.235.712v-1.428l-1.235-.712zM261.235 188.69l1.238.716v-1.428l-1.238-.715zM259.234 187.537l1.238.715v-1.43l-1.238-.713zM251.239 182.917l1.235.713v-1.425l-1.235-.715zM249.235 181.761l1.238.715v-1.427l-1.235-.716zM245.239 179.451l1.235.716v-1.428l-1.235-.713zM243.24 178.298l1.236.712v-1.427l-1.235-.713zM239.239 175.988l1.237.715v-1.43l-1.237-.713zM237.238 174.832l1.237.715v-1.428l-1.237-.715zM259.234 199.584l1.238.715v-1.428l-1.238-.715zM257.236 198.43l1.235.713v-1.428l-1.235-.713zM255.232 197.274l1.241.715v-1.428l-1.24-.715zM253.237 196.12l1.235.713v-1.428l-1.235-.712zM245.239 191.5l1.235.713v-1.428l-1.235-.712zM239.239 188.035l1.237.715v-1.428l-1.237-.715zM237.238 186.881l1.237.713v-1.428l-1.237-.713zM233.238 184.571l1.235.713v-1.428l-1.235-.715zM231.24 183.415l1.235.715v-1.43l-1.235-.713zM261.235 202.999l1.238.712v-1.427l-1.238-.713zM259.234 201.843l1.238.715v-1.428l-1.238-.715zM253.237 198.38l1.235.712v-1.428l-1.235-.712zM251.239 197.223l1.235.715v-1.428l-1.235-.715zM247.24 194.913l1.235.715v-1.427l-1.235-.716zM245.239 193.76l1.235.712v-1.428l-1.235-.712zM243.24 192.603l1.236.713v-1.425l-1.235-.715zM241.24 191.45l1.235.712v-1.427l-1.235-.713zM235.24 187.984l1.234.715v-1.428l-1.235-.715zM257.236 202.948l1.235.712v-1.427l-1.235-.713zM255.232 201.792l1.241.715v-1.428l-1.24-.715zM253.237 200.638l1.235.713v-1.428l-1.235-.713zM249.235 198.328l1.238.713v-1.428l-1.235-.712zM247.24 197.175l1.235.712v-1.427l-1.235-.716zM245.239 196.019l1.235.712v-1.428l-1.235-.712zM239.239 192.552l1.237.716v-1.428l-1.237-.715zM237.238 191.399l1.237.712v-1.427l-1.237-.713zM235.24 190.243l1.234.715v-1.428l-1.235-.712zM231.24 187.936l1.235.712v-1.428l-1.235-.715zM261.235 217.304l1.238.716v-1.431l-1.238-.712zM259.234 216.15l1.238.713v-1.427l-1.238-.713zM257.236 214.994l1.235.716v-1.428l-1.235-.715zM251.239 211.531l1.235.713v-1.428l-1.235-.713zM247.24 209.219l1.235.715v-1.428l-1.235-.712zM245.239 208.065l1.235.715v-1.427l-1.235-.716zM243.24 206.909l1.236.715v-1.428l-1.235-.715zM237.238 203.446l1.237.712v-1.425l-1.237-.715zM233.238 201.136l1.235.715v-1.428l-1.235-.715zM261.235 219.563l1.238.715v-1.427l-1.238-.713zM259.234 218.41l1.238.712v-1.428l-1.238-.712zM257.236 217.253l1.235.716v-1.428l-1.235-.715zM253.237 214.944l1.235.715v-1.428l-1.235-.715zM251.239 213.79l1.235.713v-1.428l-1.235-.713zM249.238 212.634l1.235.715.003-1.428-1.238-.715zM247.24 211.477l1.235.716v-1.428l-1.235-.712zM241.24 208.014l1.235.713v-1.425l-1.235-.713zM239.239 206.86l1.237.713v-1.428l-1.237-.712zM235.24 204.55l1.234.713v-1.427l-1.235-.716zM233.238 203.395l1.235.715v-1.428l-1.235-.715zM231.24 202.241l1.235.713v-1.428l-1.235-.713zM259.234 220.669l1.238.712v-1.428l-1.238-.715zM257.236 219.512l1.235.716V218.8l-1.235-.715zM255.232 218.359l1.241.712v-1.427l-1.24-.716zM253.237 217.202l1.235.716v-1.428l-1.235-.715zM247.24 213.74l1.235.712v-1.428l-1.235-.713zM245.239 212.583l1.235.715v-1.428l-1.235-.715zM241.24 210.273l1.235.715v-1.427l-1.235-.716zM239.239 209.12l1.237.715v-1.43l-1.237-.713zM237.238 207.963l1.237.716v-1.428l-1.237-.713zM235.24 206.81l1.234.712v-1.427l-1.235-.713z"/>
        <path fill="#4CEAF5" d="M225.641 349.601l.17-.099 89.658-51.78-31.765-18.345-.342.589 30.75 17.757-88.47 51.095-88.983-51.39-.34.589zM47.145 245.505l.342-.588-46.012-26.572 74.204-42.857-.339-.588L.116 218.345z"/>
        <path fill="#4CEAF5" d="M222.417 294.706l29.61-17.101-.342-.585-29.268 16.903-12.38-7.15-.339.586zM130.45 299.26c2.588 0 5.025-.584 6.862-1.647 1.896-1.094 2.942-2.57 2.942-4.156 0-1.586-1.046-3.062-2.942-4.159-1.837-1.063-4.274-1.645-6.862-1.645-2.59 0-5.023.582-6.86 1.645-1.896 1.097-2.942 2.573-2.942 4.159 0 1.586 1.046 3.062 2.942 4.158 1.837 1.06 4.273 1.646 6.86 1.646zm0-10.929c2.47 0 4.787.551 6.523 1.555 1.678.967 2.603 2.236 2.603 3.57 0 1.335-.925 2.602-2.603 3.569-1.736 1.003-4.053 1.557-6.523 1.557-2.47 0-4.785-.565-6.52-1.555-1.68-.97-2.604-2.239-2.604-3.57 0-1.332.925-2.604 2.603-3.571 1.736-1.004 4.053-1.555 6.52-1.555z"/>
        <path fill="#4CEAF5" d="M127.522 291.763c-1.62.933-1.62 2.449 0 3.393 1.619.944 4.239.933 5.858 0 1.62-.933 1.62-2.451 0-3.393-1.62-.941-4.239-.936-5.858 0zM54.592 254.026c2.59 0 5.025-.585 6.863-1.645 1.896-1.097 2.942-2.573 2.942-4.159 0-1.586-1.046-3.062-2.942-4.159-1.838-1.063-4.274-1.645-6.863-1.645-2.589 0-5.022.582-6.859 1.645-1.896 1.097-2.942 2.573-2.942 4.16 0 1.585 1.046 3.06 2.942 4.158 1.837 1.06 4.27 1.645 6.86 1.645zm0-10.93c2.47 0 4.788.552 6.523 1.555 1.68.97 2.603 2.237 2.603 3.571 0 1.335-.924 2.601-2.603 3.57-1.735 1.002-4.053 1.556-6.523 1.556-2.47 0-4.782-.566-6.52-1.555-1.676-.97-2.6-2.236-2.6-3.57 0-1.335.924-2.602 2.6-3.572 1.738-1.003 4.053-1.555 6.52-1.555z"/>
        <path fill="#4CEAF5" d="M51.664 246.529c-1.62.935-1.62 2.45 0 3.392 1.62.942 4.24.933 5.86 0 1.619-.933 1.619-2.45 0-3.392-1.62-.942-4.24-.933-5.86 0zM203.933 288.936c2.589 0 5.025-.585 6.862-1.648 1.896-1.094 2.942-2.57 2.942-4.159s-1.046-3.059-2.942-4.156c-1.837-1.063-4.273-1.648-6.862-1.648-2.59 0-5.023.585-6.86 1.648-1.896 1.097-2.942 2.57-2.942 4.156 0 1.586 1.046 3.065 2.942 4.159 1.837 1.049 4.274 1.648 6.86 1.648zm0-10.93c2.47 0 4.785.566 6.523 1.555 1.679.967 2.603 2.237 2.603 3.568 0 1.332-.924 2.604-2.603 3.57-1.738 1.004-4.053 1.556-6.523 1.556-2.47 0-4.785-.552-6.52-1.552-1.68-.97-2.604-2.24-2.604-3.574 0-1.334.925-2.6 2.603-3.57 1.736-1.016 4.053-1.567 6.52-1.567v.014z"/>
        <path fill="#4CEAF5" d="M201.002 281.424c-1.617.933-1.617 2.449 0 3.393 1.616.944 4.24.933 5.862 0 1.622-.933 1.619-2.451 0-3.393-1.62-.941-4.243-.935-5.862 0z"/>
        <g>
            <path fill="url(#y)" d="M69.685 211.885c-59.041-3.345-63.128-56.261-63.128-70.742V76.851c41.501-22.722 63.125-61.324 63.125-61.324s21.626 13.621 63.125-11.592v64.279c0 14.486-4.081 72.118-63.122 143.67z" transform="matrix(-1 0 0 1 161.923 68.005)"/>
            <path fill="url(#z)" d="M63.125 11.591S84.749 25.213 126.25 0l6.557 3.935c-41.499 25.21-63.125 11.592-63.125 11.592S48.058 54.129 6.557 76.85v64.278c0 10.661 2.216 42.142 26.932 59.35C2.592 184.649 0 148.744 0 137.195V72.915c41.501-22.724 63.125-61.324 63.125-61.324z" transform="matrix(-1 0 0 1 161.923 68.005)"/>
            <path fill="url(#A)" d="M71.118 200.146c-50.758-2.875-54.265-48.364-54.265-60.815v-55.26c35.679-19.535 54.265-52.718 54.265-52.718s18.588 11.71 54.264-9.963v55.26c.006 12.45-3.507 61.994-54.264 123.496z" transform="matrix(-1 0 0 1 161.923 68.005)"/>
            <path fill="url(#B)" d="M69.682 29.304c.455.266.927.503 1.413.71-.034.059-18.62 33.196-54.265 52.714v55.26c0 9.895 2.216 40.562 28.492 54.248-27.61-13.308-29.907-44.901-29.907-54.955v-55.26c35.678-19.535 54.267-52.717 54.267-52.717z" transform="matrix(-1 0 0 1 161.923 68.005)"/>
            <path fill="url(#C)" d="M71.118 30.022c4.974 2.18 22.878 7.514 52.834-10.681l1.413.706C90.08 41.483 71.52 30.27 71.118 30.022z" transform="matrix(-1 0 0 1 161.923 68.005)"/>
            <path fill="url(#D)" d="M71.118 30.098s18.588 11.71 54.264-9.963v55.26c0 6.14-.848 21.302-7.809 42.47-19.484-10.153-52.851-23.31-100.728-28.004v-7.045C52.526 63.28 71.118 30.098 71.118 30.098z" opacity=".5" style="mix-blend-mode:lighten" transform="matrix(-1 0 0 1 161.923 68.005)"/>
            <path fill="url(#E)" d="M16.85 139.331v-55.26c35.68-19.535 54.265-52.718 54.265-52.718.424.25.863.472 1.314.667l-1.314 168.126c-50.755-2.875-54.265-48.364-54.265-60.815z" style="mix-blend-mode:multiply" transform="matrix(-1 0 0 1 161.923 68.005)"/>
        </g>
    </g>
</svg>
