<svg xmlns="http://www.w3.org/2000/svg" width="107" height="32" viewBox="0 0 107 32">
    <path fill="#FFF" fill-rule="nonzero" d="M36.985 17.907c-.913-.51-1.39-.925-1.39-1.507 0-.754.647-1.217 1.677-1.217a5.82 5.82 0 0 1 2.255.512l.84-2.6s-.77-.61-3.043-.61c-3.164 0-5.367 1.848-5.367 4.409 0 1.459 1.03 2.578 2.394 3.38 1.104.635 1.487 1.094 1.487 1.764 0 .67-.548 1.265-1.587 1.265a6.968 6.968 0 0 1-2.972-.803l-.87 2.6c1.091.616 2.325.92 3.573.882 3.26 0 5.585-1.626 5.585-4.544.03-1.587-1.17-2.706-2.582-3.53zM84.231 7.135a2.063 2.063 0 0 0-1.487.626c-.393.403-.608.95-.6 1.516 0 1.093.67 1.847 1.7 1.847h.048a2.04 2.04 0 0 0 1.524-.6 2.1 2.1 0 0 0 .61-1.538 1.742 1.742 0 0 0-.484-1.338 1.69 1.69 0 0 0-1.311-.513zm-8.918 5.302c-2.447 0-3.838 2.204-3.838 2.204h-.048l.218-1.97h-3.212c-.17 1.322-.435 3.354-.743 4.888l-2.516 13.466h3.62l1.004-5.444h.074c.656.35 1.392.518 2.134.485 4.263 0 7.044-4.408 7.044-8.895 0-2.521-1.077-4.734-3.737-4.734zm-3.45 10.826a2.253 2.253 0 0 1-1.487-.533l.6-3.434c.434-2.283 1.603-3.817 2.85-3.817 1.104 0 1.44 1.044 1.44 2.018.008 2.354-1.392 5.766-3.404 5.766zM49.974 12.437a4.901 4.901 0 0 0-3.82 1.944l-.048-.026 1.378-7.401h-3.62L40.34 25.758h3.642l1.2-6.418c.478-2.433 1.699-3.914 2.85-3.914.818 0 1.126.56 1.126 1.362a7.623 7.623 0 0 1-.165 1.626l-1.369 7.37h3.62l1.413-7.586c.164-.791.253-1.597.265-2.406.004-2.116-1.078-3.355-2.947-3.355zm11.148 0c-4.346 0-7.262 3.967-7.262 8.432 0 2.848 1.738 5.158 4.985 5.158 4.29 0 7.166-3.893 7.166-8.437.022-2.649-1.486-5.153-4.889-5.153zM59.35 23.18c-1.248 0-1.739-1.067-1.739-2.407 0-2.11 1.078-5.54 3.043-5.54 1.303 0 1.699 1.12 1.699 2.204-.009 2.3-1.087 5.743-3.003 5.743zm19.796 2.579h3.646l2.469-13.03h-3.668l-2.447 13.03zm15.32-13.074h-2.52l.12-.608c.218-1.265.935-2.385 2.174-2.385.392 0 .781.068 1.152.199l.721-2.87a4.72 4.72 0 0 0-1.969-.317 5.34 5.34 0 0 0-3.546 1.216c-1.247 1.071-1.821 2.6-2.108 4.157l-.113.608H86.7l-.53 2.773h1.677L85.93 25.74h3.62l1.917-10.283h2.495l.504-2.773zm8.723.044s-2.273 5.788-3.286 8.944h-.048c-.07-1.019-.87-8.944-.87-8.944h-3.81l2.172 11.959a.83.83 0 0 1-.07.608 6.304 6.304 0 0 1-1.964 2.204 7.644 7.644 0 0 1-2.047 1.053l1.004 3.112a8.416 8.416 0 0 0 3.551-1.992c1.652-1.578 3.186-3.99 4.746-7.295L107 12.728h-3.811zM22.686 6.333c-.121 0-2.399-.168-2.399-.168s-1.582-1.604-1.773-1.763a.548.548 0 0 0-.13-.093l-1.126 26.58 8.966-1.97-3.26-22.34a.284.284 0 0 0-.278-.246zm-4.78-2.063c-.026 0-.361.097-.87.264-.53-1.556-1.464-2.988-3.116-2.988h-.143a2.053 2.053 0 0 0-1.56-.882c-3.86 0-5.702 4.888-6.28 7.366-1.487.44-2.564.802-2.682.85-.839.27-.869.296-.96 1.098C2.182 10.564 0 27.702 0 27.702l16.85 3.208L18 4.243c-.026 0-.074.027-.095.027zm-4.29 1.163v.172l-2.972.908c.573-2.234 1.651-3.328 2.585-3.742.29.856.42 1.758.387 2.662zm-1.534-3.72c.18.004.355.064.5.172-1.221.582-2.564 2.067-3.112 5.034-.817.264-1.608.511-2.351.727.647-2.261 2.203-5.933 4.963-5.933zm.67 13.224a5.263 5.263 0 0 0-2.204-.534c-1.8 0-1.869 1.142-1.869 1.433 0 1.534 4.011 2.138 4.011 5.814 0 2.891-1.799 4.738-4.241 4.738a5.83 5.83 0 0 1-4.398-1.847l.79-2.645s1.535 1.323 2.83 1.323c.313.012.618-.106.844-.326a1.18 1.18 0 0 0 .355-.842c0-2.041-3.307-2.138-3.307-5.492 0-2.821 1.986-5.567 6.037-5.567a4.795 4.795 0 0 1 2.325.44l-1.174 3.505zM14.62 5.31v-.313c.02-.8-.094-1.597-.335-2.358.87.097 1.413 1.093 1.774 2.204-.43.132-.909.277-1.439.445v.022z"/>
</svg>
