<!-- group per page -->
<svg xmlns="http://www.w3.org/2000/svg" xmlns:xlink="http://www.w3.org/1999/xlink">
  <symbol id="facebook" fill-rule="nonzero" mask="url(#b)">
    <path fill="#8796AF" fill-rule="nonzero" d="M9.929.5c5.483 0 9.929 4.445 9.929 9.929 0 5.483-4.446 9.929-9.93 9.929-5.483 0-9.928-4.446-9.928-9.93C0 4.946 4.445.5 9.929.5zm.748 3.852C8.47 4.352 7.97 6.005 7.97 7.06v1.476H6.692v2.282H7.97v6.49h2.684v-6.49h1.772l.234-2.28h-2.006V7.197c0-.503.333-.622.57-.622h1.442V4.36z"/>
  </symbol>
  <symbol id="twitter" fill-rule="nonzero" mask="url(#b)">
    <path fill="#8796AF" fill-rule="nonzero" d="M9.929.5c5.484 0 9.929 4.445 9.929 9.929 0 5.483-4.445 9.929-9.929 9.929S0 15.912 0 10.428C0 4.946 4.445.5 9.93.5zm2.523 6.023a2.374 2.374 0 0 0-2.312 2.914 6.737 6.737 0 0 1-4.892-2.48 2.373 2.373 0 0 0 .734 3.169 2.357 2.357 0 0 1-1.074-.298v.03c0 1.15.818 2.11 1.903 2.327a2.365 2.365 0 0 1-1.071.041 2.376 2.376 0 0 0 2.217 1.649 4.762 4.762 0 0 1-3.514.982 6.713 6.713 0 0 0 3.638 1.067c4.365 0 6.752-3.617 6.752-6.753 0-.103-.002-.206-.007-.307a4.813 4.813 0 0 0 1.185-1.228 4.735 4.735 0 0 1-1.363.373 2.38 2.38 0 0 0 1.043-1.313c-.458.272-.966.47-1.507.576a2.371 2.371 0 0 0-1.732-.75z"/>
  </symbol>
  <symbol id="linkedin" fill-rule="nonzero" mask="url(#b)">
      <path fill="#8796AF" fill-rule="nonzero" d="M9.929.675c5.483 0 9.929 4.407 9.929 9.842 0 5.435-4.446 9.842-9.93 9.842C4.446 20.359 0 15.952 0 10.517 0 5.082 4.445.675 9.929.675zM7.304 8.291H4.932v7.075h2.372V8.291zm5.825-.166c-1.26 0-1.823.688-2.139 1.169V8.29H8.617c.03.629.003 6.416 0 7.024v.051h2.373v-3.951c0-.212.016-.422.079-.574.172-.423.561-.86 1.217-.86.86 0 1.202.65 1.202 1.6v3.785h2.373V11.31c0-2.173-1.17-3.184-2.732-3.184zM6.134 4.88c-.812 0-1.343.528-1.343 1.222 0 .68.516 1.223 1.312 1.223h.015c.828 0 1.343-.544 1.343-1.223-.016-.694-.515-1.222-1.327-1.222z"/>
  </symbol>
  <symbol id="instagram" fill-rule="nonzero" mask="url(#b)">
      <path fill="#8796AF" fill-rule="nonzero" d="M9.973.5c5.508 0 9.973 4.465 9.973 9.973 0 5.508-4.465 9.973-9.973 9.973C4.465 20.446 0 15.981 0 10.473 0 4.965 4.465.5 9.973.5zm2.973 4H7a3.03 3.03 0 0 0-3.027 3.028v5.944A3.03 3.03 0 0 0 7.001 16.5h5.945a3.03 3.03 0 0 0 3.026-3.027V7.528A3.03 3.03 0 0 0 12.946 4.5zm0 1.307c.949 0 1.72.772 1.72 1.72v5.945c0 .95-.772 1.722-1.72 1.722H7c-.95 0-1.721-.773-1.721-1.722V7.528c0-.95.772-1.721 1.72-1.721zM9.973 7.41a3.094 3.094 0 0 0-3.09 3.09 3.094 3.094 0 0 0 3.09 3.09 3.094 3.094 0 0 0 3.09-3.09 3.094 3.094 0 0 0-3.09-3.09zm0 1.306c.984 0 1.784.8 1.784 1.784s-.8 1.784-1.784 1.784c-.983 0-1.784-.8-1.784-1.784s.8-1.784 1.784-1.784zm3.19-2.13a.732.732 0 1 0 .001 1.465.732.732 0 0 0-.001-1.464z"/>
  </symbol>
</svg>
