<svg xmlns="http://www.w3.org/2000/svg" width="100" height="14" viewBox="0 0 100 14">
    <g fill="#FFF" fill-rule="nonzero">
        <path d="M61.438 12.395h-.037c-.81 1.037-1.615 1.62-2.916 1.62-1.64 0-2.793-.922-2.793-2.616 0-3.024 3.339-3.255 5.552-3.255h.826c.06-.256.084-.519.071-.782 0-.926-.986-1.192-1.813-1.192a6.89 6.89 0 0 0-2.973.712l.341-1.904a9.119 9.119 0 0 1 3.073-.55c1.81 0 3.517.691 3.517 2.827 0 1.227-.898 4.84-1.11 6.567h-1.984l.246-1.41m-2.308-.12c1.758 0 2.301-1.228 2.673-2.707h-.826c-1.144 0-3.042.193-3.042 1.728 0 .64.6.96 1.195.96v.018zM.362 4.628h1.707l.403-1.884 2.53-.84-.58 2.724h2.11l-.37 1.745h-2.11l-.86 4.006c-.07.29-.106.589-.105.888a.849.849 0 0 0 .247.652c.171.17.407.258.647.24.391 0 .78-.072 1.144-.214l-.403 1.852a6.44 6.44 0 0 1-1.263.214c-1.602 0-2.732-.639-2.732-2.419.023-.722.123-1.44.297-2.14l.683-3.093H0l.369-1.749-.007.018zm7.14 0H9.86l-1.933 9.166h-2.36l1.933-9.166M8.372.678h2.36l-.496 2.281H7.88L8.372.678zm8.597 6.052a3.153 3.153 0 0 0-1.707-.463c-1.881 0-2.936 1.78-2.936 3.508 0 1.192.39 2.385 2.004 2.385a4.648 4.648 0 0 0 1.895-.46l-.263 1.887a5.003 5.003 0 0 1-2.264.425c-2.338 0-3.851-1.583-3.851-3.95 0-3.204 2.093-5.64 5.347-5.64.797 0 1.59.117 2.356.345l-.58 1.953v.01zM19.554.446h2.356l-1.564 7.511h.038l3.288-3.328h3.073L22.37 8.81l2.731 4.984h-2.646l-2.339-4.863h-.034l-1.024 4.863h-2.298L19.554.446zM35.22 4.63h1.707l.407-1.884 2.533-.84-.58 2.724h2.106l-.368 1.745h-2.107l-.86 4.006c-.07.29-.105.589-.106.888a.852.852 0 0 0 .25.652.83.83 0 0 0 .648.24c.39 0 .779-.072 1.143-.214l-.402 1.852a6.473 6.473 0 0 1-1.267.214c-1.598 0-2.732-.639-2.732-2.419.023-.722.124-1.44.3-2.14l.684-3.093h-1.707l.341-1.749.01.018z"/>
        <path d="M34.569 7.892c0-2.34-1.475-3.497-3.707-3.497-2.973 0-5.148 2.748-5.148 5.604 0 2.728 1.755 4.017 4.36 4.017a9.903 9.903 0 0 0 2.88-.517l.3-1.892a6.587 6.587 0 0 1-2.778.659c-1.505 0-2.39-.545-2.499-1.993V9.94a5.007 5.007 0 0 1 .383-1.823c.45-1.168 1.092-1.979 2.481-1.979.984 0 1.496.555 1.496 1.535-.002.21-.02.42-.052.628H29.05a5.975 5.975 0 0 0-.252 1.639h5.547c.145-.673.22-1.36.225-2.048zm7.978-2.267c.068-.347.14-.731.19-1.019h2.199l-.212 1.23h.034a3.286 3.286 0 0 1 2.776-1.448c1.075 0 2.181.644 2.304 1.733h.037c.601-1.193 1.915-1.733 3.182-1.733 1.375.003 2.493 1.124 2.516 2.52-.035.846-.171 1.685-.407 2.498l-.945 4.392h-2.352l.949-4.482c.157-.643.256-1.3.297-1.961a1.09 1.09 0 0 0-.319-.797 1.056 1.056 0 0 0-.79-.31c-1.636 0-2.049 1.931-2.335 3.18l-.932 4.373h-2.356l.946-4.481c.161-.643.262-1.3.3-1.962a1.09 1.09 0 0 0-.317-.796 1.056 1.056 0 0 0-.789-.31c-1.6 0-2.048 1.948-2.338 3.179l-.932 4.373h-2.355l1.655-8.179h-.006zm28.861.853a3.758 3.758 0 0 0-1.57-.347c-.703 0-1.58.201-1.58.929 0 1.161 3.072 1.587 3.072 3.837 0 2.391-2.049 3.119-4.097 3.119a6.401 6.401 0 0 1-2.761-.551l.508-1.91a4.39 4.39 0 0 0 2.25.707c.792 0 1.615-.27 1.615-1.015 0-1.484-3.056-1.626-3.056-3.93 0-2.16 2.049-2.93 3.92-2.93a9.516 9.516 0 0 1 2.204.285l-.505 1.806zm1.505-1.872h1.707l.406-1.889 2.53-.842-.577 2.731h2.106l-.372 1.75h-2.106l-.86 4.017c-.072.292-.109.59-.11.891a.856.856 0 0 0 .249.652.83.83 0 0 0 .646.242c.39.002.777-.07 1.14-.215l-.403 1.858a6.42 6.42 0 0 1-1.263.215c-1.6 0-2.73-.641-2.73-2.426.022-.724.123-1.444.3-2.146l.682-3.102h-1.706l.361-1.736zm15.97 1.234c.07-.395.139-.804.21-1.23h2.25l-.317 1.732h.037c.424-.998 1.584-1.944 2.673-1.944.3-.008.601.021.894.087l-.491 2.34c-.29-.093-.591-.141-.894-.143-1.673 0-2.482 1.522-2.78 2.998l-.842 4.124h-2.356l1.615-7.971v.007zM87.25 7.892c0-2.34-1.474-3.497-3.707-3.497-2.973 0-5.154 2.748-5.154 5.604 0 2.728 1.758 4.017 4.362 4.017.981-.03 1.953-.204 2.885-.517l.3-1.892a6.574 6.574 0 0 1-2.778.659c-1.51 0-2.39-.545-2.5-1.993V9.94c.01-.627.14-1.246.383-1.823.454-1.168 1.092-1.979 2.482-1.979.983 0 1.495.555 1.495 1.535-.002.21-.019.42-.051.628h-3.23a5.975 5.975 0 0 0-.252 1.639h5.544c.134-.674.206-1.36.215-2.048h.006zm10.702-3.837c1.131 0 2.048.931 2.048 2.08 0 1.148-.917 2.079-2.048 2.079s-2.048-.931-2.048-2.08c0-1.148.917-2.079 2.048-2.079zm0 3.812a1.731 1.731 0 0 0 1.66-1.028 1.781 1.781 0 0 0-.324-1.946 1.716 1.716 0 0 0-1.9-.418A1.76 1.76 0 0 0 96.3 6.11c-.025.464.14.917.457 1.253.316.335.755.523 1.212.518l-.017-.014zm-.765-2.966h.912c.55 0 .815.225.815.693a.623.623 0 0 1-.16.475.603.603 0 0 1-.454.197l.676 1.06h-.41l-.665-1.07h-.342v1.07h-.389V4.902h.017zm.39 1.04h.46c.297 0 .492-.063.492-.378 0-.316-.246-.347-.492-.347h-.46v.724z"/>
    </g>
</svg>
