<svg xmlns="http://www.w3.org/2000/svg" width="107" height="27" viewBox="0 0 107 27">
    <g fill="#FFF" fill-rule="nonzero">
        <path d="M91.882.971c-4.106-.01-7.813 2.42-9.392 6.155a9.896 9.896 0 0 0 2.183 10.907c2.899 2.865 7.264 3.725 11.058 2.18C99.525 18.665 102 15.017 102 10.97c-.005-5.51-4.528-9.98-10.118-10m7.918 4.42c-.525.343-1.071.655-1.636.931-.342-.669-.757-1.3-1.236-1.882a9.875 9.875 0 0 0 1.179-.832 9.683 9.683 0 0 1 1.667 1.77M95.507 2.06a9.54 9.54 0 0 1 2.27 1.3 9.61 9.61 0 0 1-1.118.777c-.5-.566-1.06-1.076-1.671-1.522.186-.168.36-.35.519-.542m.774 2.268a9.6 9.6 0 0 1-1.711.707c-.248-.56-.53-1.105-.845-1.631.326-.145.636-.324.924-.533.594.428 1.14.917 1.632 1.457m-1.205-2.42c-.136.155-.283.3-.44.434a10.428 10.428 0 0 0-1.703-.928 9.677 9.677 0 0 1 2.147.477m-.788.71c-.243.174-.506.32-.783.434a14.717 14.717 0 0 0-.98-1.34 10.74 10.74 0 0 1 1.76.911m-2.236-.841c.379.45.73.922 1.052 1.414a4.345 4.345 0 0 1-1.052.182V1.778zm0 2.008a4.724 4.724 0 0 0 1.28-.23c.31.511.586 1.041.828 1.587a9.364 9.364 0 0 1-2.108.29V3.786zm-.44-1.99v1.578a4.136 4.136 0 0 1-1.03-.182c.315-.486.659-.952 1.03-1.397M90.18 3.048a3.851 3.851 0 0 1-.774-.433 9.941 9.941 0 0 1 1.76-.907c-.352.426-.679.872-.977 1.336m.585-1.622c-.597.259-1.17.57-1.711.928a3.932 3.932 0 0 1-.44-.433c.698-.24 1.42-.4 2.155-.477m6.951 17.163c-1.346-.728-1.372-1.734-1.32-2.116.053-.382.34-.208.502-.208.88 0 1.821-.26 2.97-1.418a4.399 4.399 0 0 0-.251-6.084c-2.147-2.034-4.435-1.678-5.9.152a2.284 2.284 0 0 1-1.68.628c-.942-.034-.348.694-.348.868 0 .173-.145.26-.224.234-.321-.087-.194.382-.194.52a.218.218 0 0 1-.202.213c-.396 0-.29.355-.277.433a.345.345 0 0 1-.154.33.862.862 0 0 0-.277.611c0 .434.396.72 1.051 1.206.455.27.739.751.752 1.275 0 .412.068.822.198 1.214.176.434.15 1.206-.756 1.24-1.113.044-3.08.92-3.26.98a3.93 3.93 0 0 1-2.099.14 9.262 9.262 0 0 1-.976-.803 1.493 1.493 0 0 1 .321-1.232c.352.267.794.392 1.236.352.688-.051 1.372-.15 2.046-.295.14-.061.3-.061.44 0 .58.208 1.377.273 1.698-.824.321-1.097-.44-.794-.537-.746-.097.048-.229.035-.18-.06.14-.278-.07-.248-.19-.257a1.45 1.45 0 0 0-.853.434.302.302 0 0 1-.308.082c-.418-.203-1.645.091-2.023-.568a22.163 22.163 0 0 0-.493-3.304.428.428 0 0 1 .044-.434c.317-.46 1.174.04 1.64.026a.839.839 0 0 0 .806-.433c.145-.182.255-.083.334-.13.08-.048 0-.196.04-.265.04-.07.079-.039.176-.121.096-.083 0-.26.035-.33.14-.204.515-.039.286-.577a.859.859 0 0 1 .22-.828c.268-.347 1.32-1.795-.528-3.304-1.76-1.44-3.546-1.323-4.694-.096-1.148 1.227-.576 3.036-.44 3.47a.99.99 0 0 1-.625 1.088c-.56.306-1.087.67-1.57 1.084.077-3.836 2.477-7.252 6.093-8.673.157.193.33.374.514.542-.4.29-1.284 1.071-1.284 1.071s.119 0 .229.044l.246.069s.774-.655 1.144-.91c.285.213.595.392.924.533a50.26 50.26 0 0 0-.62 1.114s.105.06.193.122c.052.034.102.071.15.112 0 0 .483-.897.668-1.197.407.132.83.209 1.258.23v1.648c-.242 0-.849-.035-1.1-.06h-.153l.083.125c.062.088.117.18.163.278l.022.034h.04c.18 0 .739.035.945.04v2.996h.44v-.703c.62-.03 1.135-.069 1.76-.125h.026l.546-.482-.295.03c-.655.083-1.236.122-1.76.152h-.272V5.854a9.88 9.88 0 0 0 2.274-.316c.207.498.59 1.695.59 1.695l.396-.121s-.379-1.193-.581-1.687c.63-.196 1.24-.451 1.821-.763.465.569.868 1.185 1.201 1.838-.299.135-.849.325-.849.325.26.028.518.077.77.148L98 6.869c.04.082.114.26.114.26l.546.239-.062-.152s-.18-.434-.228-.525c.566-.283 1.114-.6 1.64-.95 2.788 4.213 1.8 9.834-2.265 12.875m-16.95-14.99l-.159.142c-.594.516-1.953 1.887-1.76 3.391l.022.109.066.295.19-.174A6.137 6.137 0 0 0 80.87 3.92l.07-.434-.158.14m-2.75 2.601l-.065.182a6.907 6.907 0 0 0-.357 1.479c-.127.993-.105 2.394.775 3.443l.097.126.1.126.128-.638c.13-1.53-.027-3.071-.466-4.544l-.14-.356-.071.182m-1.003 4.059v.186c-.106 1.01-.035 3.509 2.015 4.81l.237.156v-.282c-.03-.946-1.152-3.773-1.997-4.77l-.238-.286v.182m.317 4.47l.04.17c.299 1.43 1.676 3.75 3.805 4.427l.29.091-.105-.282c-.396-1.07-2.446-3.569-3.766-4.392l-.295-.187.031.174M81.689 6.283l-.169.096c-1.6.962-2.345 2.12-2.291 3.548v.33l.23-.19a9.375 9.375 0 0 0 2.265-3.518l.11-.37-.163.104m-.922 3.13l-.124.113c-.408.384-1.733 1.768-1.618 3.483.027.285.09.566.186.836l.093.274.173-.235c.63-.87 1.467-3.178 1.423-4.253v-.327l-.12.114m.049 2.964l-.084.131a5.013 5.013 0 0 0-.989 2.89c.024.696.254 1.369.66 1.938l.143.2.115-.213c.288-.531.518-2.255.483-3.622 0-.39-.049-.777-.146-1.154l-.085-.3-.097.13m.78 3.174l-.04.135a5.482 5.482 0 0 0-.28 1.837 3.583 3.583 0 0 0 1.774 3.087l.19.118.045-.253v-.205c-.027-1.08-.847-3.796-1.485-4.627l-.177-.227-.045.135m-2.234 4.21l.085.135c.86 1.42 2.318 3.243 5.044 2.773l.234-.035-.133-.191c-.51-.745-3.82-2.582-4.995-2.769l-.319-.048.084.135m4.038 3.596l-.443.113.412.166c1.738.696 3.91.9 5.173.487.428-.159.811-.417 1.116-.753 2.216.23 4.295 2.042 5.51 3.522l.062.074.097-.03c.166-.07.317-.17.443-.296l.085-.092-.076-.1a10.958 10.958 0 0 0-3.324-2.673c-1.773-.87-4.924-1.52-9.05-.435m.088-4.52l.022.149c.257 1.602.927 3.709 3.688 3.483h.177l-.044-.17c-.19-.732-2.721-2.847-3.603-3.448l-.262-.135.022.143m19.524-14.876l.07.436a6.135 6.135 0 0 0 1.725 3.482l.19.175.067-.296v-.11c.213-1.51-1.157-2.886-1.773-3.408l-.164-.14-.155-.139m2.912 2.569l-.142.357a12.194 12.194 0 0 0-.47 4.562l.129.64.102-.126.097-.126c.887-1.054.909-2.464.78-3.457a6.914 6.914 0 0 0-.359-1.484l-.066-.188-.071-.178m1.068 4.075l-.24.287c-.841 1.015-1.976 3.853-2.007 4.79v.282l.248-.157c2.061-1.306 2.119-3.83 2.048-4.845v-.37m-.368 4.506l-.297.187c-1.33.827-3.395 3.335-3.794 4.41l-.11.283.296-.091c2.145-.68 3.546-3.009 3.834-4.445l.04-.175.031-.17m-4.432-8.976l.11.374a9.309 9.309 0 0 0 2.19 3.561l.23.192V9.93c.085-1.428-.642-2.612-2.215-3.591l-.169-.105-.168-.104m.94 3.152v.326c-.04 1.075.793 3.379 1.43 4.254l.174.235.088-.275c.102-.268.163-.55.182-.835.115-1.711-1.21-3.096-1.618-3.483l-.12-.114-.123-.113m-.045 2.974l-.093.3a4.666 4.666 0 0 0-.142 1.154c-.03 1.367.195 3.09.488 3.622l.11.218.143-.205a3.51 3.51 0 0 0 .656-1.937 5.017 5.017 0 0 0-.984-2.891l-.093-.13-.085-.131m-.731 3.17l-.182.226c-.634.831-1.453 3.548-1.484 4.627v.205l.04.253.194-.122a3.605 3.605 0 0 0 1.773-3.083 5.726 5.726 0 0 0-.283-1.837l-.045-.135-.04-.135m2.403 4.21l-.32.048c-1.17.187-4.485 2.024-4.99 2.769l-.129.191.226.035c2.73.47 4.189-1.354 5.049-2.773l.084-.135.08-.135"/>
        <path d="M91.627 23.812a10.833 10.833 0 0 0-3.294 2.646l-.075.1.084.09c.126.124.274.223.438.293l.092.03.065-.073c1.196-1.465 3.25-3.262 5.445-3.487.299.333.676.587 1.1.742 1.247.43 3.398.21 5.115-.479l.403-.163-.438-.112c-4.078-1.09-7.183-.431-8.944.43m8.883-5.063l-.263.133c-.876.595-3.373 2.694-3.557 3.414l-.04.168h.172c2.728.228 3.385-1.858 3.644-3.448l.022-.147v-.142M31.545 2.682h3.412v3.06h-3.412v-3.06zm3.14 21.432h-2.864V9.216h2.865v14.898zM10.158 9.229h2.865v14.907h-2.79v-2.177h-.075c-1.147 1.875-3.066 2.642-5.194 2.642C1.835 24.579 0 22.205 0 19.205V9.23h2.869v8.821c0 2.586.604 4.482 3.35 4.482a3.603 3.603 0 0 0 3.382-2.154c.374-1.126.562-2.303.556-3.487V9.23m8.612 2.197h.057c.968-1.87 3.066-2.641 4.59-2.641 1.055 0 5.733.267 5.733 5.046v10.305H26.28v-9.382c0-2.466-1.055-3.802-3.469-3.802a3.977 3.977 0 0 0-2.777 1.095c-.438.431-1.208 1.069-1.208 3.982v8.107H15.96V9.229h2.808v2.197m27.927 2.582c-.153-1.862-1.047-3.155-3.092-3.155-2.725 0-3.776 2.327-3.776 5.814 0 3.486 1.051 5.81 3.776 5.81 1.887 0 3.066-1.207 3.206-3.332h2.856c-.246 3.331-2.76 5.37-6.089 5.37-4.818 0-6.75-3.362-6.75-7.732s2.239-7.968 6.991-7.968c3.18 0 5.576 1.978 5.72 5.171h-2.842m7.262 3.233c-.21 2.585.876 5.283 3.776 5.283 2.22 0 3.333-.862 3.657-3.017h3.005c-.438 3.366-3.097 5.047-6.689 5.047-4.818 0-6.754-3.362-6.754-7.731 0-4.37 2.225-7.969 7.008-7.969 4.499.095 6.623 2.892 6.623 6.999v1.388H53.958m7.617-1.948c.061-2.474-1.082-4.396-3.841-4.396-2.37 0-3.776 1.974-3.776 4.396h7.617zm6.207 8.8V11.207h-2.585V9.254h2.585V6.07c.096-3.245 2.584-4.099 4.717-4.099.686.041 1.367.14 2.037.293v2.332c-.482-.026-.96-.09-1.441-.09-1.617 0-2.55.43-2.462 2.038v2.71h3.504v1.953h-3.504V24.07h-2.851"/>
    </g>
</svg>
