<svg xmlns="http://www.w3.org/2000/svg" width="30" height="9" viewBox="0 0 30 9">
    <g fill="none" fill-rule="nonzero">
        <path fill="#3C58BF" d="M10.714 8.869L12.387.298H15l-1.62 8.571z"/>
        <path fill="#293688" d="M10.714 8.869L12.857.298H15l-1.62 8.571z"/>
        <path fill="#3C58BF" d="M22.5.659c-.49-.18-1.275-.361-2.255-.361-2.45 0-4.216 1.127-4.216 2.751 0 1.219 1.226 1.85 2.206 2.256.98.406 1.275.677 1.275 1.038 0 .541-.785.812-1.47.812-.981 0-1.52-.136-2.354-.451l-.343-.136L15 8.418c.588.225 1.667.451 2.794.451 2.598 0 4.314-1.128 4.314-2.842 0-.947-.637-1.67-2.108-2.256-.882-.406-1.422-.631-1.422-1.037 0-.361.442-.722 1.422-.722.833 0 1.422.135 1.863.316l.245.09.392-1.76z"/>
        <path fill="#293688" d="M22.5.659c-.49-.18-1.275-.361-2.255-.361-2.45 0-3.774 1.127-3.774 2.751 0 1.219.784 1.85 1.764 2.256.98.406 1.275.677 1.275 1.038 0 .541-.785.812-1.47.812-.981 0-1.52-.136-2.354-.451l-.343-.136L15 8.418c.588.225 1.667.451 2.794.451 2.598 0 4.314-1.128 4.314-2.842 0-.947-.637-1.67-2.108-2.256-.882-.406-1.422-.631-1.422-1.037 0-.361.442-.722 1.422-.722.833 0 1.422.135 1.863.316l.245.09.392-1.76z"/>
        <path fill="#3C58BF" d="M26.185.298c-.565 0-.989.047-1.224.619l-3.532 7.952h2.543l.47-1.429h3.015l.282 1.429H30L28.022.298h-1.837zm-1.083 5.714c.141-.429.942-2.524.942-2.524s.188-.524.33-.857l.14.81s.472 2.142.566 2.619h-1.978v-.048z"/>
        <path fill="#293688" d="M26.75.298c-.565 0-.989.047-1.224.619l-4.097 7.952h2.543l.47-1.429h3.015l.282 1.429H30L28.022.298H26.75zm-1.648 5.714c.188-.476.942-2.524.942-2.524s.188-.524.33-.857l.14.81s.472 2.142.566 2.619h-1.978v-.048z"/>
        <path fill="#3C58BF" d="M6.786 6.25l-.238-1.238c-.429-1.429-1.81-3-3.334-3.762l2.143 7.619H7.93L11.786.298H9.214L6.786 6.25z"/>
        <path fill="#293688" d="M6.786 6.25l-.238-1.238c-.429-1.429-1.81-3-3.334-3.762l2.143 7.619H7.93L11.786.298H9.69L6.786 6.25z"/>
        <path fill="#FFBC00" d="M0 .298l.432.085c3.07.643 5.181 2.272 5.997 4.2L5.565.94C5.421.426 4.989.298 4.462.298H0z"/>
        <path fill="#F7981D" d="M0 .298c3.07.649 5.613 2.337 6.429 4.285L5.613 1.51C5.469.99 4.989.687 4.462.687L0 .297z"/>
        <path fill="#ED7C00" d="M0 .298c3.07.649 5.613 2.337 6.429 4.285l-.576-1.688c-.144-.52-.336-1.039-1.008-1.255L0 .298z"/>
        <g fill="#051244">
            <path d="M9.093 5.903L7.48 4.369l-.758 1.714-.19-1.127C6.106 3.602 4.73 2.113 3.214 1.392L5.348 8.61h2.56l1.185-2.707zM13.502 8.61l-2.039-1.985-.379 1.985zM18.954 5.813c.19.18.284.315.237.496 0 .541-.759.812-1.422.812-.949 0-1.47-.135-2.276-.451l-.332-.136-.332 1.85c.57.226 1.612.451 2.703.451 1.517 0 2.75-.406 3.46-1.128l-2.038-1.894zM21.704 8.61h2.228l.474-1.354h3.034l.284 1.354H30l-.806-3.294L26.35 2.7l.142.722s.474 2.03.569 2.48H25.07c.19-.45.948-2.39.948-2.39s.19-.496.332-.812"/>
        </g>
    </g>
</svg>
